<?xml version="1.0" encoding="utf-8"?>
<!-- Generator: Adobe Illustrator 27.7.0, SVG Export Plug-In . SVG Version: 6.00 Build 0)  -->
<svg version="1.0" xmlns="http://www.w3.org/2000/svg" xmlns:xlink="http://www.w3.org/1999/xlink" x="0px" y="0px"
	 viewBox="0 0 841.9 595.3" style="enable-background:new 0 0 841.9 595.3;" xml:space="preserve">
<style type="text/css">
	.st0{fill:none;stroke:#B3B3B3;stroke-width:4.4344;stroke-linecap:round;stroke-miterlimit:10;}
	.st1{fill:#E6E6E6;}
	.st2{fill:#FFFEFF;}
	.st3{fill:#B3B3B3;}
	.st4{fill:none;stroke:#B3B3B3;stroke-width:4.4344;stroke-miterlimit:10;}
	.st5{fill:none;stroke:#FFFEFF;stroke-width:3;stroke-miterlimit:10;}
	.st6{fill:#3B9838;}
	.st7{fill:none;stroke:#FFFFFF;stroke-width:2;stroke-linecap:round;stroke-linejoin:bevel;}
	.st8{opacity:0.73;}
	.st9{fill:#EAEAEA;stroke:#FFFFFF;stroke-width:2;stroke-linecap:round;stroke-linejoin:bevel;}
	.st10{fill:#EAEAEA;stroke:#FFFFFF;stroke-width:5;stroke-linecap:round;stroke-linejoin:bevel;}
	.st11{fill:#579B57;}
	.st12{opacity:0.1;fill:#70931B;}
	.st13{fill:none;stroke:#FFFEFF;stroke-miterlimit:10;}
	.st14{fill:#C1272D;}
	.st15{fill:#30AF00;}
	.st16{fill:#0076CB;}
	.st17{fill:#FFFFFF;}
	.st18{fill:#008061;}
	.st19{fill:#F5821F;}
	.st20{fill:#ED1B2D;}
	.st21{fill:#12344C;}
	.st22{font-family:'MS-UIGothic';}
	.st23{font-size:14.8095px;}
	.st24{font-family:'GenSenRoundedTW-B';}
	.st25{font-size:15.735px;}
	.st26{opacity:0.5;fill:url(#SVGID_1_);}
	.st27{opacity:0.5;fill:url(#SVGID_00000181776820675902736770000011934987600825472936_);}
	.st28{font-size:15.7351px;}
	.st29{fill:#E98025;}
	.st30{font-family:'MicrosoftJhengHeiBold';}
	.st31{font-size:8.6312px;}
	.st32{font-size:6.1651px;}
	.st33{font-size:6.0622px;}
	.st34{font-size:8.4871px;}
	.st35{fill:#808080;}
	.st36{font-size:12.0327px;}
	.st37{fill:#0071BC;}
	.st38{font-size:17.6736px;}
	.st39{fill:#FFE9BA;}
	.st40{fill:#3E3D4D;}
	.st41{fill:#BCC4C6;}
	.st42{fill:#D24635;}
	.st43{fill:#FCF3EE;}
	.st44{fill:#E8C72E;}
	.st45{fill:#E0A911;}
	.st46{opacity:0.2;fill:none;stroke:#70931B;stroke-width:2;stroke-miterlimit:10;stroke-dasharray:4,4;}
	.st47{opacity:0.2;fill:none;stroke:#70931B;stroke-width:1.78;stroke-miterlimit:10;stroke-dasharray:3.56,3.56;}
	.st48{fill:#EE2041;}
	.st49{fill-rule:evenodd;clip-rule:evenodd;fill:#FFFFFF;}
	.st50{font-family:'MicrosoftJhengHeiRegular';}
	.st51{font-size:10.4581px;}
	.st52{font-size:7.5383px;}
	.st53{fill:#0074A9;}
	.st54{fill:#EB6101;}
	.st55{fill:#E4007F;}
	.st56{fill:#EB6877;}
	.st57{fill:#CC0000;}
	.st58{fill:#474747;}
	.st59{opacity:0.8;}
	.st60{fill:none;stroke:#3B9838;stroke-width:3;stroke-miterlimit:10;}
	.st61{fill-rule:evenodd;clip-rule:evenodd;fill:#040000;}
	.st62{fill:#040000;}
	.st63{fill:none;stroke:#040000;stroke-width:0.75;stroke-linejoin:round;stroke-miterlimit:8;}
	
		.st64{opacity:0;fill-rule:evenodd;clip-rule:evenodd;fill:none;stroke:#040000;stroke-width:0.75;stroke-linejoin:round;stroke-miterlimit:8;}
	
		.st65{fill-rule:evenodd;clip-rule:evenodd;fill:none;stroke:#040000;stroke-width:0.75;stroke-linejoin:round;stroke-miterlimit:8;}
	.st66{fill:#E2E2E2;stroke:#040000;stroke-width:0.75;stroke-linejoin:round;stroke-miterlimit:8;}
	
		.st67{fill-rule:evenodd;clip-rule:evenodd;fill:#E2E2E2;stroke:#040000;stroke-width:0.75;stroke-linejoin:round;stroke-miterlimit:8;}
	.st68{display:none;}
	.st69{display:inline;fill:none;stroke:#F90000;stroke-width:8;stroke-miterlimit:10;}
	.st70{display:inline;}
	.st71{display:inline;fill:none;stroke:#000000;stroke-miterlimit:10;}
	.st72{display:inline;fill:#F90000;}
	.st73{display:inline;fill:none;stroke:#232323;stroke-miterlimit:10;}
	.st74{display:inline;fill:none;stroke:#F90000;stroke-width:3;stroke-miterlimit:10;}
	.st75{display:inline;fill:#FFFEFF;}
	.st76{display:inline;fill:none;stroke:#B3B3B3;stroke-width:4.4344;stroke-linecap:round;stroke-miterlimit:10;}
	.st77{display:inline;fill:#E6E6E6;}
	.st78{display:inline;fill:#B3B3B3;}
	.st79{display:inline;fill:none;stroke:#B3B3B3;stroke-width:4.4344;stroke-miterlimit:10;}
	.st80{display:inline;opacity:0.2;fill:none;stroke:#70931B;stroke-width:2;stroke-miterlimit:10;stroke-dasharray:4,4;}
	.st81{display:inline;fill:none;stroke:#333131;stroke-miterlimit:10;}
	.st82{font-size:37.0815px;}
	.st83{fill:none;stroke:#000000;stroke-miterlimit:10;}
	.st84{display:inline;fill:#F5EB31;stroke:#231815;stroke-miterlimit:10;}
	.st85{display:inline;fill:#BE611C;stroke:#231815;stroke-miterlimit:10;}
</style>
<g id="建築">
	<polygon class="st1" points="488.2,306.3 356.8,306.3 338.3,306.3 338.3,338.7 338.3,409 356.8,409 356.8,338.7 488.2,338.7 	"/>
	<polygon class="st11" points="142.5,308.6 142.5,334 140.2,334 140.2,415.9 142.5,415.9 165.7,415.9 165.7,334 165.7,308.6 	"/>
	<polygon class="st11" points="435.5,384 435.5,379.4 401.2,379.4 401.2,372.9 360.5,372.9 360.5,402.5 401.2,402.5 401.2,398.8 
		431.8,398.8 431.8,402.5 463.3,402.5 463.3,384 	"/>
	<polygon class="st1" points="466,344.2 466,361.8 455.9,361.8 455.9,344.2 440.1,344.2 440.1,381.2 447.5,381.2 455.9,381.2 
		466,381.2 466,400.7 488.2,400.7 488.2,344.2 	"/>
	<polygon class="st1" points="447.5,202.6 447.5,272 401.2,272 401.2,202.6 360.5,202.6 360.5,292.4 399.4,292.4 401.2,292.4 
		447.5,292.4 463.3,292.4 488.2,292.4 488.2,202.6 	"/>
	<polygon class="st1" points="314.2,219.3 314.2,223 262.4,223 255,223 248.5,223 248.5,190.6 181.9,190.6 181.9,223 164.3,223 
		164.3,249.8 262.4,249.8 262.4,238.7 269.8,238.7 269.8,268.3 314.2,268.3 314.2,249.8 336.5,249.8 336.5,238.7 336.5,223 
		336.5,219.3 	"/>
	<rect x="317.9" y="253.5" class="st1" width="12" height="14.8"/>
	<polygon class="st1" points="355.9,194.3 332.8,194.3 332.8,186.9 295.7,186.9 295.7,211.9 332.8,211.9 332.8,205.4 355.9,205.4 	
		"/>
	<polygon class="st1" points="464.2,153.5 395.7,153.5 395.7,132.3 376.3,132.3 376.3,179.5 395.7,179.5 395.7,168.4 464.2,168.4 	
		"/>
	<polygon class="st1" points="516,153.5 504.9,153.5 504.9,137.8 479.9,137.8 479.9,179.5 504.9,179.5 504.9,168.4 516,168.4 	"/>
	<polygon class="st1" points="564.1,153.5 564.1,145.2 539.2,145.2 539.2,153.5 525.3,153.5 525.3,175.8 580.8,175.8 580.8,153.5 	
		"/>
	<rect x="613.2" y="142.4" class="st1" width="12" height="22.2"/>
	<polygon class="st1" points="732.6,181.3 732.6,166.5 613.2,166.5 613.2,181.3 684.5,181.3 684.5,221.1 654.9,221.1 654.9,191.5 
		613.2,191.5 613.2,263.7 654.9,263.7 654.9,233.1 684.5,233.1 684.5,270.2 613.2,270.2 613.2,285 732.6,285 732.6,270.2 
		700.2,270.2 700.2,251.7 732.6,251.7 732.6,198.9 700.2,198.9 700.2,181.3 	"/>
	<polygon class="st1" points="679.8,308.1 679.8,366.4 616.9,366.4 616.9,396 722.4,396 728,308.1 	"/>
	<polygon class="st1" points="592.1,323.7 585.6,323.7 585.6,318.6 559.2,318.6 559.2,314.4 549,314.4 549,318.6 522.7,318.6 
		522.7,323.7 516.2,323.7 516.2,327.4 522.7,327.4 522.7,332.5 549,332.5 549,336.7 559.2,336.7 559.2,332.5 585.6,332.5 
		585.6,327.4 592.1,327.4 	"/>
	<rect x="511.4" y="192.4" class="st12" width="82.4" height="103.7"/>
	<polygon class="st12" points="666,308.1 635.4,308.1 626.2,308.1 616.9,308.1 616.9,349.8 635.4,349.8 635.4,336.8 643.7,336.8 
		643.7,327.6 654.9,327.6 654.9,318.3 666,318.3 	"/>
	<path class="st1" d="M404.9,348.8v-5.6h-11.1v5.6L380,363.7c0,0,10.2,2.8,19.4,2.8c9.3,0,19.4-2.8,19.4-2.8L404.9,348.8z"/>
	<path class="st1" d="M554.4,388.6c19.2,0,35.3-12.6,39.6-29.6h-5.4c-4.2,14.2-18,24.7-34.3,24.7s-30.1-10.4-34.3-24.7h-5.4
		C519.1,376,535.2,388.6,554.4,388.6z"/>
	<path class="st1" d="M554.4,377.5c12.7,0,23.5-7.7,27.5-18.5h-55C530.9,369.8,541.7,377.5,554.4,377.5z"/>
	<path class="st1" d="M299,409H194.8c-11.3,0-20.5-9.2-20.5-20.5v-4.3c0-11.3,9.2-20.5,20.5-20.5H299c11.3,0,20.5,9.2,20.5,20.5v4.3
		C319.6,399.8,310.4,409,299,409z"/>
	<path class="st13" d="M298.6,406.2H195.2c-9.9,0-18-8.1-18-18v-3.8c0-9.9,8.1-18,18-18h103.4c9.9,0,18,8.1,18,18v3.8
		C316.6,398.2,308.5,406.2,298.6,406.2z"/>
	<path class="st2" d="M297.7,402.5H196.1c-8.1,0-14.7-6.6-14.7-14.7v-3.1c0-8.1,6.6-14.7,14.7-14.7h101.6c8.1,0,14.7,6.6,14.7,14.7
		v3.1C312.4,396,305.8,402.5,297.7,402.5z"/>
	<rect x="171.8" y="407.2" class="st1" width="149.9" height="8.3"/>
	<rect x="169.8" y="314.6" class="st1" width="58.3" height="35.2"/>
	<rect x="232.1" y="314.6" class="st1" width="95.3" height="35.2"/>
	<rect x="164.3" y="253.5" class="st1" width="31.5" height="31.5"/>
	<rect x="167.1" y="256.3" class="st13" width="25.9" height="25.9"/>
	<path class="st12" d="M405.9,202.8v65.7h37.9v-65.7H405.9z M433.6,253.3h-17.6v-35.2h17.6V253.3z"/>
	<line class="st13" x1="168.9" y1="409.9" x2="321.6" y2="409.9"/>
	<line class="st13" x1="169.4" y1="412.7" x2="322.1" y2="412.7"/>
	<g>
		<line class="st13" x1="174.6" y1="407.2" x2="174.6" y2="415.5"/>
		<line class="st13" x1="319" y1="407.2" x2="319" y2="415.5"/>
	</g>
	<rect x="219.4" y="352.1" class="st1" width="37.9" height="8.3"/>
	<g>
		<g>
			<rect x="236.7" y="316.9" class="st13" width="25" height="31"/>
			<line class="st13" x1="240" y1="316.4" x2="240" y2="347.9"/>
			<line class="st13" x1="240" y1="340.5" x2="258.5" y2="340.5"/>
			<line class="st13" x1="258.5" y1="316.4" x2="258.5" y2="347.9"/>
			<line class="st13" x1="240" y1="324.8" x2="258.5" y2="324.8"/>
			<line class="st13" x1="249.2" y1="340.5" x2="249.2" y2="324.8"/>
		</g>
		<g>
			<rect x="267.3" y="316.9" class="st13" width="25" height="31"/>
			<line class="st13" x1="270.5" y1="316.4" x2="270.5" y2="347.9"/>
			<line class="st13" x1="270.5" y1="340.5" x2="289" y2="340.5"/>
			<line class="st13" x1="289" y1="316.4" x2="289" y2="347.9"/>
			<line class="st13" x1="270.5" y1="324.8" x2="289" y2="324.8"/>
			<line class="st13" x1="279.8" y1="340.5" x2="279.8" y2="324.8"/>
		</g>
		<g>
			<rect x="297.8" y="316.9" class="st13" width="25" height="31"/>
			<line class="st13" x1="301" y1="316.4" x2="301" y2="347.9"/>
			<line class="st13" x1="301" y1="340.5" x2="319.6" y2="340.5"/>
			<line class="st13" x1="319.6" y1="316.4" x2="319.6" y2="347.9"/>
			<line class="st13" x1="301" y1="324.8" x2="319.6" y2="324.8"/>
			<line class="st13" x1="310.3" y1="340.5" x2="310.3" y2="324.8"/>
		</g>
	</g>
	<g>
		
			<rect x="169.9" y="319.7" transform="matrix(-1.836970e-16 1 -1 -1.836970e-16 516.8818 146.5729)" class="st13" width="30.6" height="24"/>
		<line class="st13" x1="197.1" y1="332.2" x2="173.2" y2="332.2"/>
		<circle class="st13" cx="185.2" cy="332.2" r="2.3"/>
		<g>
			<g>
				<path class="st13" d="M193.5,316.3v2.1c0,4.6-3.7,8.4-8.4,8.4h0c-4.6,0-8.4-3.7-8.4-8.4v-2.1"/>
				<path class="st13" d="M187.4,323.1c0,1.2-1,2.2-2.2,2.2s-2.2-1-2.2-2.2"/>
				<polyline class="st13" points="188.7,316.3 187.3,323.1 183,323.1 181.4,316.3 				"/>
			</g>
			<g>
				<path class="st13" d="M176.8,347.2V345c0-4.6,3.7-8.4,8.4-8.4h0c4.6,0,8.4,3.7,8.4,8.4v2.1"/>
				<path class="st13" d="M182.9,340.3c0-1.2,1-2.2,2.2-2.2c1.2,0,2.2,1,2.2,2.2"/>
				<polyline class="st13" points="181.6,347.1 183,340.4 187.3,340.4 188.9,347.1 				"/>
			</g>
		</g>
	</g>
	<g>
		
			<rect x="197.6" y="319.7" transform="matrix(-1.836970e-16 1 -1 -1.836970e-16 544.6495 118.8052)" class="st13" width="30.6" height="24"/>
		<line class="st13" x1="224.9" y1="332.2" x2="201" y2="332.2"/>
		<circle class="st13" cx="212.9" cy="332.2" r="2.3"/>
		<g>
			<g>
				<path class="st13" d="M221.3,316.3v2.1c0,4.6-3.7,8.4-8.4,8.4h0c-4.6,0-8.4-3.7-8.4-8.4v-2.1"/>
				<path class="st13" d="M215.1,323.1c0,1.2-1,2.2-2.2,2.2c-1.2,0-2.2-1-2.2-2.2"/>
				<polyline class="st13" points="216.5,316.3 215.1,323.1 210.7,323.1 209.2,316.3 				"/>
			</g>
			<g>
				<path class="st13" d="M221.3,344.2v2.9h-16.7v-2.9c0-4.2,3.4-7.6,7.6-7.6h1.6C217.9,336.7,221.3,340,221.3,344.2z"/>
				<path class="st13" d="M210.7,340.3c0-1.2,1-2.2,2.2-2.2c1.2,0,2.2,1,2.2,2.2"/>
				<polyline class="st13" points="209.4,347.1 210.7,340.4 215.1,340.4 216.6,347.1 				"/>
			</g>
		</g>
	</g>
	<g>
		<rect x="199.2" y="253.5" class="st1" width="62.9" height="31.5"/>
		<g>
			<g>
				<rect x="201.5" y="256.3" class="st13" width="17.6" height="25.9"/>
				<line class="st13" x1="201.5" y1="264.6" x2="219.1" y2="264.6"/>
				<line class="st13" x1="201.5" y1="273.9" x2="219.1" y2="273.9"/>
				<line class="st13" x1="201.5" y1="269.2" x2="219.1" y2="269.2"/>
			</g>
			<g>
				<rect x="221.9" y="256.3" class="st13" width="17.6" height="25.9"/>
				<line class="st13" x1="221.9" y1="264.6" x2="239.5" y2="264.6"/>
				<line class="st13" x1="221.9" y1="273.9" x2="239.5" y2="273.9"/>
				<line class="st13" x1="221.9" y1="269.2" x2="239.5" y2="269.2"/>
			</g>
			<g>
				<rect x="242.3" y="256.3" class="st13" width="17.6" height="25.9"/>
				<line class="st13" x1="242.3" y1="264.6" x2="259.9" y2="264.6"/>
				<line class="st13" x1="242.3" y1="273.9" x2="259.9" y2="273.9"/>
				<line class="st13" x1="242.3" y1="269.2" x2="259.9" y2="269.2"/>
			</g>
		</g>
	</g>
	<g id="vyrV9x_00000181786518878005570780000011104218943364754102_">
		<g>
			<path class="st14" d="M292.7,244.1c0,0.8-0.2,1.5-0.8,2c-0.4,0.4-0.9,0.6-1.5,0.6c-0.5,0-1-0.1-1.5-0.3c-0.4-0.2-0.7-0.5-0.9-0.8
				c-0.2-0.3-0.3-0.6-0.5-0.9c-0.2-0.4-0.4-0.9-0.7-1.3c-0.2-0.4-0.4-0.8-0.6-1.2c-0.5-1-1-2-1.5-3c-0.2-0.4-0.3-0.7-0.3-1.1
				c0-0.4,0-0.8,0.2-1.2c0.2-0.5,0.5-0.8,0.9-1.1c0.3-0.2,0.6-0.3,1-0.4c0.5-0.1,0.9,0,1.4,0.1c0.5,0.2,0.9,0.5,1.2,1
				c0.2,0.3,0.3,0.6,0.5,0.9c0.3,0.5,0.6,1.1,0.8,1.6c0.2,0.4,0.5,0.9,0.7,1.3c0.3,0.5,0.5,1,0.8,1.5c0.2,0.4,0.4,0.9,0.7,1.3
				C292.7,243.4,292.8,243.7,292.7,244.1z"/>
			<path class="st14" d="M283.7,246.7c-0.6,0-1.2-0.2-1.7-0.5c-0.1-0.1-0.2-0.2-0.3-0.3c-0.2-0.2-0.3-0.4-0.4-0.7
				c0-0.1-0.1-0.2-0.2-0.3c-0.3-0.5-0.5-1-0.8-1.5c-0.3-0.6-0.6-1.1-0.9-1.7c-0.3-0.5-0.5-1-0.8-1.5c-0.2-0.3-0.3-0.7-0.5-1
				c-0.3-0.5-0.4-1.1-0.2-1.7c0.1-0.6,0.4-1.2,0.9-1.5c0.4-0.3,0.8-0.4,1.2-0.5c0.4-0.1,0.8,0,1.2,0.1c0.3,0.1,0.5,0.2,0.7,0.4
				c0.3,0.3,0.6,0.6,0.8,0.9c0.4,0.9,0.9,1.8,1.4,2.7c0.2,0.3,0.3,0.7,0.5,1c0.3,0.5,0.6,1.1,0.8,1.6c0.2,0.5,0.5,0.9,0.6,1.4
				c0.1,0.3,0.1,0.5,0.1,0.8c0,0.5-0.2,1-0.5,1.4c-0.3,0.4-0.6,0.6-1,0.8C284.4,246.6,284.1,246.7,283.7,246.7z"/>
			<path class="st14" d="M277.2,246.7c-0.4,0-0.8-0.1-1.2-0.2c-0.3-0.2-0.6-0.4-0.9-0.7c-0.4-0.6-0.6-1.2-0.5-1.9
				c0.1-0.5,0.2-0.8,0.4-1.2c0.3-0.5,0.5-1,0.8-1.5c0.2-0.4,0.4-0.8,0.6-1.2c0.2-0.4,0.4-0.7,0.6-1.1c0,0,0.1-0.1,0.1-0.1
				c0.1-0.1,0.1-0.1,0.1,0c0.1,0.4,0.3,0.8,0.5,1.2c0.4,0.9,0.9,1.7,1.3,2.6c0.1,0.3,0.3,0.5,0.4,0.8c0.1,0.3,0.3,0.6,0.5,0.8
				c0.1,0.1,0.1,0.2,0,0.3c-0.2,0.4-0.4,0.8-0.7,1.2c-0.3,0.5-0.7,0.7-1.3,0.9C277.8,246.6,277.5,246.7,277.2,246.7z"/>
			<path class="st14" d="M279.9,250.1c-0.3,0-0.6-0.1-0.9-0.2c-0.1-0.1-0.2-0.2-0.2-0.3c0-0.2,0.1-0.3,0.2-0.4c0.1,0,0.2,0,0.3,0
				c0.1,0.1,0.2,0.1,0.4,0.2c0.1,0,0.2,0,0.3,0c0.1,0,0.1,0,0.1-0.1c0-0.1,0-0.1-0.1-0.1c-0.1,0-0.2-0.1-0.3-0.1
				c-0.2,0-0.4-0.2-0.6-0.3c-0.1-0.1-0.1-0.1-0.2-0.2c0,0,0,0,0,0c0,0,0,0,0,0.1c0,0.1,0,0.2,0,0.3c0,0.7-0.7,1.3-1.4,1.2
				c-0.4,0-0.7-0.2-1-0.5c-0.3-0.3-0.3-0.7-0.3-1.2c0.1-0.3,0.2-0.6,0.5-0.8c0.2-0.1,0.4-0.2,0.6-0.2c0.1,0,0.2,0,0.3,0
				c0.5,0,0.8,0.2,1,0.6c0,0,0,0.1,0,0.1c0,0,0,0.1,0.1,0.1c0.1,0,0.1,0,0.1-0.1c0.1-0.6,0.5-0.7,0.9-0.7c0.3,0,0.5,0,0.8,0.1
				c0.2,0.1,0.3,0.2,0.2,0.4c-0.1,0.3-0.2,0.4-0.4,0.3c-0.1,0-0.1,0-0.2-0.1c-0.1,0-0.1,0-0.2-0.1c-0.1,0-0.2,0-0.2,0.1
				c0,0.1,0.1,0.1,0.1,0.2c0.1,0,0.2,0.1,0.3,0.1c0.1,0,0.2,0.1,0.4,0.1c0.3,0.1,0.5,0.5,0.4,0.9c-0.1,0.4-0.5,0.7-0.9,0.7
				C280,250.1,279.9,250.1,279.9,250.1z M277.9,248.8c0-0.1,0-0.2,0-0.2c-0.1-0.2-0.4-0.3-0.6-0.2c-0.2,0.1-0.3,0.4-0.3,0.6
				c0.1,0.2,0.1,0.3,0.3,0.4C277.6,249.3,277.9,249.1,277.9,248.8z"/>
			<path class="st14" d="M285.8,248.6c0,0.2,0,0.5,0,0.8c0,0.3-0.2,0.5-0.4,0.6c-0.4,0.2-0.8,0.2-1.2,0.1c-0.2-0.1-0.4-0.2-0.5-0.4
				c0,0,0-0.1,0-0.1c0,0,0-0.1-0.1-0.1c0,0,0,0,0,0.1c0,0.2-0.2,0.4-0.4,0.5c-0.1,0-0.2,0-0.2,0c-0.3,0-0.7,0-1,0
				c-0.1,0-0.2,0-0.2,0c-0.1,0-0.2-0.1-0.2-0.2c0-0.1,0-0.2,0-0.3c0-0.6,0-1.1,0-1.7c0-0.1,0-0.1,0-0.2c0-0.1,0.1-0.2,0.3-0.2
				c0.3,0,0.7,0,1,0c0.3,0,0.6,0.2,0.7,0.6c0,0.2,0,0.4-0.1,0.5c-0.1,0.1-0.1,0.1,0,0.2c0.1,0,0.1,0.1,0.2,0.2c0,0,0,0.1,0.1,0.1
				c0,0,0-0.1,0-0.1c0-0.4,0-0.7,0-1.1c0-0.2,0.1-0.3,0.3-0.3c0.5,0,0.5,0,0.5,0.5c0,0.3,0,0.6,0,0.9c0,0.1,0,0.2,0,0.3
				c0,0.1,0.1,0.2,0.2,0.2c0.1,0,0.2-0.1,0.3-0.2c0-0.1,0-0.1,0-0.2c0-0.4,0-0.7,0-1.1c0-0.3,0.1-0.4,0.4-0.4c0,0,0.1,0,0.1,0
				c0.2,0,0.3,0.1,0.3,0.3C285.8,248.1,285.8,248.3,285.8,248.6z M282.4,249.2c0,0.2,0.1,0.3,0.2,0.3c0.1,0,0.2-0.1,0.2-0.2
				c0-0.1-0.1-0.2-0.2-0.2C282.4,249,282.4,249.1,282.4,249.2z M282.5,248.1c-0.1,0-0.1,0.1-0.2,0.2c0,0.1,0,0.2,0.1,0.2
				c0.1,0,0.2-0.1,0.2-0.2C282.7,248.2,282.6,248.1,282.5,248.1z"/>
			<path class="st14" d="M273.4,250c0,0-0.1,0-0.1,0c-0.1,0-0.2-0.1-0.2-0.3c0-0.3,0.1-0.5,0.1-0.7c0.1-0.4,0.1-0.8,0.2-1.2
				c0-0.2,0.1-0.3,0.3-0.3c0.1,0,0.2,0,0.3,0c0.2,0,0.3,0.1,0.4,0.2c0.1,0.2,0.2,0.4,0.2,0.7c0,0,0,0,0,0.1c0,0,0,0.1,0.1,0.1
				c0.1,0,0.1-0.1,0.1-0.1c0.1-0.2,0.2-0.4,0.2-0.6c0-0.2,0.1-0.3,0.4-0.3c0.1,0,0.3,0,0.4,0c0.2,0,0.2,0.1,0.2,0.3
				c0.1,0.6,0.2,1.2,0.3,1.8c0,0.3-0.1,0.4-0.3,0.4c0,0-0.1,0-0.1,0c-0.2,0-0.3-0.1-0.3-0.3c0-0.2,0-0.4-0.1-0.6c0,0,0,0,0-0.1
				c0,0,0,0-0.1,0.1c-0.1,0.2-0.1,0.4-0.2,0.6c-0.1,0.3-0.2,0.3-0.5,0.3c-0.1,0-0.2-0.1-0.3-0.2c-0.1-0.2-0.1-0.4-0.2-0.6
				c0,0,0-0.1-0.1-0.1c0,0,0,0,0,0.1c0,0.1,0,0.2,0,0.3c0,0.1,0,0.1,0,0.2C273.8,250,273.7,250,273.4,250z"/>
			<path class="st14" d="M288,248.6c0.1-0.1,0.1-0.2,0.1-0.3c0.2-0.5,0.6-0.8,1.2-0.8c0.3,0,0.6,0,0.9,0.2c0.1,0.1,0.2,0.2,0.3,0.3
				c0.1,0.1,0,0.3-0.1,0.3c-0.1,0-0.2,0.1-0.3,0.1c-0.1,0.1-0.2,0-0.3-0.1c-0.2-0.1-0.4-0.2-0.6-0.1c-0.2,0.1-0.3,0.3-0.3,0.5
				c0,0.4,0.2,0.6,0.5,0.6c0.1,0,0.2,0,0.3-0.1c0-0.1,0.1-0.1,0-0.1c0,0-0.1,0-0.1,0c-0.2-0.1-0.2-0.2-0.2-0.4
				c0-0.1,0.1-0.2,0.3-0.2c0.2,0,0.5,0,0.7,0c0.2,0,0.3,0.1,0.3,0.4c0,0.6-0.5,1.1-1.1,1.2c-0.5,0.1-0.9,0-1.3-0.4
				c-0.1-0.1-0.3-0.3-0.3-0.6C288.1,249,288.1,248.8,288,248.6L288,248.6z"/>
			<path class="st14" d="M288.1,248.6c-0.1,0.1-0.2,0.3-0.3,0.4c-0.1,0-0.1,0.1,0,0.2c0.1,0.2,0.2,0.3,0.3,0.5
				c0.1,0.1,0.1,0.2,0.1,0.3c0,0.1,0,0.1-0.1,0.2c-0.2,0-0.4,0.1-0.5,0c-0.1,0-0.2-0.1-0.2-0.2c-0.1-0.2-0.2-0.3-0.3-0.5
				c0,0-0.1-0.1-0.1-0.1c-0.1,0,0,0.1,0,0.1c0,0.1,0,0.3,0,0.4c0,0.1-0.1,0.2-0.1,0.2c-0.2,0.1-0.4,0-0.5,0c-0.1,0-0.1-0.1-0.1-0.2
				c0-0.1,0-0.2,0-0.3c0-0.4,0-0.8,0-1.3c0-0.1,0-0.3,0-0.4c0.1-0.2,0.2-0.3,0.4-0.3c0.3,0,0.5,0,0.8,0c0.2,0,0.3,0,0.5,0.1
				c0.3,0.1,0.4,0.4,0.4,0.7C288.1,248.4,288.1,248.5,288.1,248.6L288.1,248.6z M286.8,248.4c0,0.1,0,0.2,0.1,0.2
				c0.1,0,0.2-0.1,0.3-0.2c0-0.1-0.1-0.2-0.2-0.2C286.9,248.2,286.8,248.2,286.8,248.4z"/>
			<path class="st14" d="M292.8,248.9c0-0.3,0-0.7,0-1.1c0-0.2,0.1-0.3,0.3-0.3c0.3,0,0.6,0,0.9,0c0.4,0,0.8,0.3,0.8,0.8
				c0,0.2-0.1,0.4-0.3,0.5c-0.1,0.1-0.1,0.1-0.1,0.2c0.1,0.1,0.2,0.3,0.2,0.4c0.1,0.3,0,0.4-0.2,0.5c-0.3,0.1-0.4,0-0.6-0.3
				c-0.1-0.1-0.1-0.2-0.2-0.3c0,0,0,0-0.1,0c0,0,0,0,0,0.1c0,0.1,0,0.2,0,0.3c0,0.2-0.1,0.3-0.3,0.3c0,0-0.1,0-0.1,0
				c-0.3,0-0.3-0.1-0.3-0.4C292.8,249.4,292.8,249.2,292.8,248.9z M293.5,248.4c0,0.2,0,0.2,0.1,0.2c0.2,0,0.2-0.1,0.2-0.2
				c0-0.1-0.1-0.2-0.3-0.2C293.6,248.2,293.5,248.2,293.5,248.4z"/>
			<path class="st14" d="M290.9,248.8c0-0.3,0-0.6,0-0.9c0-0.3,0.1-0.3,0.3-0.3c0.3,0,0.7,0,1,0c0.3,0,0.4,0.2,0.3,0.4
				c0,0.1-0.1,0.2-0.3,0.2c-0.1,0-0.3,0-0.4,0c-0.1,0-0.2,0-0.2,0.1c0,0.1,0.1,0.1,0.2,0.1c0.1,0,0.2,0,0.3,0c0.2,0,0.3,0.1,0.3,0.3
				c0,0.2-0.1,0.3-0.2,0.3c-0.1,0-0.2,0-0.3,0c0,0-0.1,0-0.1,0c-0.1,0-0.1,0-0.1,0.1c0,0.1,0,0.2,0.1,0.2c0.1,0,0.3,0,0.4,0
				c0.2,0,0.4,0.1,0.4,0.3c0,0.2-0.1,0.4-0.4,0.4c-0.4,0-0.7,0-1.1,0c-0.3,0-0.3-0.1-0.3-0.3C290.9,249.4,290.9,249.1,290.9,248.8z"
				/>
		</g>
	</g>
	<g id="RPDmfG_00000145765769312951904230000005337423403974927744_">
		<g>
			<path class="st15" d="M672.4,211.2c0-2,0-4,0-5.9c0.2,0,17.9,0,17.9,0c0,0,0,0,0,0c0,1.9,0,3.8,0,5.8c0,0.1,0,0.1,0,0.2
				c0,0,0,0,0,0c0,0,0,0,0,0C690.2,211.2,678.4,211.3,672.4,211.2C672.5,211.3,672.5,211.2,672.4,211.2z"/>
			<path class="st16" d="M672.4,218.5c0-2,0-3.9,0-5.9c0.1-0.1,0.1-0.1,0.2-0.1c0.1,0,0.1,0,0.2,0c5.7,0,11.4,0,17.2,0
				c0.1,0,0.3,0,0.4,0.1c0,0.2,0.1,5.6,0,5.9c0,0,0,0,0,0c0,0,0,0,0,0c0,0-0.1,0-0.1,0C684.3,218.5,678.4,218.5,672.4,218.5
				C672.5,218.5,672.5,218.5,672.4,218.5z"/>
			<path class="st16" d="M683.6,221.4c0,0.6,0,1.2,0,1.8c-0.2,0-0.4,0-0.6,0c-0.1-0.2,0-0.5,0-0.7c0-0.2,0-0.5,0-0.7
				c0-0.2,0-0.5,0-0.7c0-0.2,0-0.5,0-0.7c0.2-0.1,0.4,0,0.6,0c0.2,0.3,0.5,0.6,0.7,0.9c0.2-0.3,0.5-0.6,0.7-0.9c0.2,0,0.4,0,0.6,0
				c0.1,0.2,0,0.5,0,0.7c0,0.2,0,0.5,0,0.7c0,0.2,0,0.5,0,0.7c0,0.2,0,0.5,0,0.7c-0.2,0.1-0.4,0-0.6,0c0-0.6,0-1.2,0-1.9
				c-0.3,0.3-0.4,0.6-0.7,0.9C684.1,221.9,683.9,221.6,683.6,221.4C683.6,221.4,683.6,221.4,683.6,221.4z"/>
			<path class="st16" d="M677.9,223.2c-0.2,0.1-0.4,0-0.6,0c-0.1-0.1-0.1-0.2-0.1-0.2c0-0.3,0-0.6,0-0.9c0-0.1,0-0.3-0.1-0.3
				c-0.1,0-0.2,0-0.3,0.2c0,0.4,0,0.8,0,1.2c-0.2,0.1-0.4,0.1-0.5,0c-0.1-0.2,0-0.4,0-0.6c0-0.2,0-0.5,0-0.7c0-0.2,0-0.4,0-0.7
				c0.2,0,0.3,0,0.4,0c0.1,0,0.1,0.1,0.1,0.1c0.3-0.2,0.6-0.2,1,0.1c0.2-0.2,0.4-0.2,0.6-0.2c0.3,0,0.6,0.2,0.6,0.5
				c0,0.5,0,0.9,0,1.4c0,0,0,0,0,0.1c-0.2,0.1-0.3,0-0.5,0c-0.1-0.1,0-0.1,0-0.2c0-0.3,0-0.5,0-0.8c0-0.1,0-0.1,0-0.2
				c-0.1-0.3-0.2-0.3-0.5-0.1c0,0.2,0,0.4,0,0.7C677.8,222.7,677.9,223,677.9,223.2z"/>
			<path class="st16" d="M673,222c0,0.4,0,0.8,0,1.2c-0.2,0.1-0.4,0.1-0.6,0c-0.1-0.2,0-0.5,0-0.7c0-0.2,0-0.5,0-0.7
				c0-0.2,0-0.5,0-0.7c0-0.2,0-0.5,0-0.7c0.2-0.1,0.4,0,0.6,0c0.2,0,0.4,0,0.6,0c0.2,0,0.4,0,0.6,0c0.1,0.2,0,0.4,0,0.6
				c-0.2,0.1-0.4,0-0.6,0c-0.2,0-0.4,0-0.6,0c-0.1,0.1,0,0.3,0,0.4c0.2,0.1,0.4,0,0.6,0c0.2,0,0.4,0,0.6,0c0.1,0.2,0,0.4,0,0.6
				C673.8,222,673.4,221.9,673,222z"/>
			<path class="st16" d="M676,223.2c-0.3,0.1-0.5,0.1-0.7-0.1c-0.2,0.1-0.5,0.1-0.8,0c-0.2-0.1-0.3-0.2-0.3-0.4
				c-0.1-0.4,0.1-0.8,0.6-0.9c0.1,0,0.2-0.1,0.4,0c0,0,0.1,0,0.1,0c-0.1-0.2-0.3-0.2-0.8,0c0-0.2,0-0.3,0-0.5c0.3-0.1,0.7-0.2,1-0.1
				c0.2,0.1,0.4,0.3,0.4,0.6c0,0.3,0,0.5,0,0.8C675.9,222.8,675.9,223,676,223.2z M675.3,222.3c-0.1-0.1-0.3,0-0.4,0
				c-0.1,0.1-0.1,0.1-0.1,0.2c0,0.1,0.1,0.1,0.2,0.1c0.1,0,0.2,0,0.3,0C675.3,222.5,675.3,222.4,675.3,222.3z"/>
			<path class="st16" d="M687.6,223.2c-0.3,0-0.5,0.1-0.7-0.1c-0.2,0.1-0.4,0.1-0.7,0c-0.3-0.1-0.4-0.3-0.4-0.7
				c0-0.3,0.2-0.5,0.5-0.6c0.1,0,0.3-0.1,0.4,0c0,0,0.1,0,0.1,0c0-0.1-0.1-0.2-0.2-0.2c-0.2,0-0.3,0-0.5,0.1c0,0-0.1,0.1-0.2,0
				c0-0.2,0-0.3,0-0.5c0.3-0.1,0.7-0.2,1-0.1c0.2,0.1,0.4,0.3,0.4,0.6c0,0.3,0,0.6,0,0.8C687.5,222.8,687.5,223,687.6,223.2z
				 M686.8,222.7c0-0.1,0-0.2,0-0.3c-0.2-0.1-0.3-0.1-0.4,0c-0.1,0.1-0.1,0.1,0,0.3C686.6,222.7,686.7,222.7,686.8,222.7z"/>
			<path class="st16" d="M681.9,223.7c-0.2,0-0.4,0-0.6,0c0-0.3,0.2-0.5,0.2-0.7c-0.2-0.5-0.5-1.1-0.7-1.7c0.2-0.1,0.4,0,0.6,0
				c0.2,0.3,0.2,0.6,0.4,0.9c0.1-0.3,0.2-0.6,0.3-0.9c0.2,0,0.4,0,0.6,0c0.1,0.1,0,0.1,0,0.1c-0.3,0.7-0.5,1.5-0.8,2.2
				C682,223.6,681.9,223.7,681.9,223.7z"/>
			<path class="st16" d="M690.3,222.6c0,0.2,0,0.4,0,0.5c-0.5,0.3-1,0-1-0.5c0-0.2,0-0.4,0-0.6c0-0.1,0-0.2,0-0.2
				c-0.1-0.1-0.2,0-0.2-0.1c-0.1-0.2,0-0.3,0-0.5c0.1-0.1,0.2,0,0.3-0.1c0-0.1,0-0.3,0-0.5c0.2-0.1,0.3-0.2,0.5-0.2
				c0.1,0.2,0,0.5,0,0.7c0.1,0.1,0.3,0,0.4,0.1c0.1,0.2,0,0.3,0,0.5c-0.1,0.1-0.3,0-0.4,0.1c0,0.2,0,0.4,0,0.6
				c0,0.1,0.1,0.2,0.2,0.2C690.2,222.6,690.3,222.6,690.3,222.6z"/>
			<path class="st16" d="M680.7,223.2c-0.2,0.1-0.3,0-0.5,0c-0.1-0.1-0.1-0.1-0.1-0.2c0-0.9,0-1.7,0-2.6c0,0,0-0.1,0-0.1
				c0.2-0.1,0.3,0,0.5,0c0,0,0,0,0,0c0,0,0,0,0,0c0,0,0,0.1,0,0.1C680.7,221.4,680.7,222.2,680.7,223.2
				C680.7,223.1,680.7,223.1,680.7,223.2z"/>
			<path class="st16" d="M687.8,221.2c0.2,0,0.3,0,0.4,0c0.1,0,0.1,0.1,0.1,0.1c0.2-0.1,0.4-0.2,0.7-0.1c0,0.2,0,0.4,0,0.6
				c-0.2-0.1-0.5-0.2-0.7,0.1c0,0.2,0,0.4,0,0.6c0,0.2,0,0.4,0,0.6c-0.2,0.1-0.3,0-0.5,0C687.7,223.1,687.7,221.5,687.8,221.2z"/>
			<path class="st16" d="M679.7,223.2c-0.2,0-0.3,0-0.5,0c-0.1,0-0.1-0.1-0.1-0.2c0-0.6,0-1.2,0-1.7c0,0,0,0,0-0.1
				c0.2-0.1,0.3,0,0.5,0C679.8,221.4,679.8,222.9,679.7,223.2z"/>
			<path class="st16" d="M679.2,220.8c-0.1-0.4,0.1-0.6,0.5-0.5c0.1,0,0.1,0.1,0.2,0.2c0,0.3,0,0.4-0.2,0.5
				C679.5,221.1,679.3,221.1,679.2,220.8z"/>
		</g>
	</g>
	<g id="g2862_00000102521516292498845380000015301278248147310497_" transform="translate(-14.3907,-17.5756)">
		<polygon id="polygon10_00000137094436754314737750000009263897255433971615_" class="st17" points="308.1,278.4 327.4,278.4 
			327.4,297.1 308.1,297.1 		"/>
		<polygon id="polygon12_00000117674851842549544370000011379816292444507572_" class="st18" points="308,278.3 327.5,278.3 
			327.5,297.2 308,297.2 		"/>
		<path id="path14_00000135685968145069195120000014917123658918869635_" class="st17" d="M320,296v0.8h-4.7V296h-3.5
			c-0.3,0-0.6-0.4-0.6-0.8l-1.5-15c0-0.4,0.3-0.8,0.8-0.8h14.3c0.4,0,0.8,0.4,0.8,0.8l-1.5,15c0,0.4-0.3,0.8-0.6,0.8L320,296
			L320,296z"/>
		<path id="path16_00000132049591025385507020000003837096702870571701_" class="st19" d="M312.3,281.6h9.6
			c-0.9,0.4-3.8,2.3-4.5,3.6h-5L312.3,281.6L312.3,281.6z"/>
		<path id="path18_00000082341487095214738000000001879663748724133297_" class="st20" d="M319.9,291.9c-0.1,1.3-0.1,2.9-0.1,4.6
			h-4.1c0-1.7,0.1-3.3,0.2-4.6H319.9L319.9,291.9z"/>
		<polygon id="polygon20_00000060732158674384569720000014917783508563336869_" class="st18" points="313.5,290 313.5,290.5 
			312.8,290.5 312.8,291 313.5,291 313.5,291.6 312,291.6 312,288.9 313.5,288.9 313.5,289.5 312.8,289.5 312.8,290 		"/>
		<polygon id="polygon22_00000179636339175581879100000008019905430626351788_" class="st18" points="317,290 317,290.5 
			316.4,290.5 316.4,291 317,291 317,291.6 315.5,291.6 315.5,288.9 317,288.9 317,289.5 316.4,289.5 316.4,290 		"/>
		<polygon id="polygon24_00000049193946589094522290000009168981929160315279_" class="st18" points="320.9,290 320.9,290.5 
			320.2,290.5 320.2,291 320.9,291 320.9,291.6 319.4,291.6 319.4,288.9 320.9,288.9 320.9,289.5 320.2,289.5 320.2,290 		"/>
		<polygon id="polygon26_00000015343206351825471380000009270343692272855185_" class="st18" points="314.6,288.9 314.6,291 
			315.3,291 315.3,291.6 313.8,291.6 313.8,288.9 		"/>
		<polygon id="polygon28_00000183239536331802051700000003619801994803548347_" class="st18" points="318.3,290.7 317.9,288.9 
			317.2,288.9 317.6,291.6 318.7,291.6 319.2,288.9 318.6,288.9 		"/>
		<polygon id="polygon30_00000088119768477569586040000000672005712856548017_" class="st18" points="321.3,288.9 322.1,288.9 
			322.1,291.6 321.3,291.6 		"/>
		<path id="path32_00000140008773602623377000000012346986134749146500_" class="st18" d="M322.1,289.7c0-0.3,0.5-0.2,0.5,0v1.9h0.8
			v-2.3c0-0.5-0.7-0.7-1.3-0.3L322.1,289.7L322.1,289.7z"/>
		<path id="path34_00000121958148317755445440000014596040162412439429_" class="st20" d="M320.3,288.5c0.1-1,1.5-2.7,2.9-3.2v-4
			c-3.8,1.7-6.2,4.2-6.7,7.1L320.3,288.5L320.3,288.5z"/>
	</g>
	<g>
		<circle class="st21" cx="719" cy="296.6" r="9"/>
		<g>
			<path class="st17" d="M715.8,291.3c0.8-0.1,1.8-0.2,3.3-0.2c1.5,0,2.6,0.3,3.3,0.9c0.7,0.6,1.2,1.5,1.2,2.5c0,1.1-0.4,2-1,2.6
				c-0.8,0.8-2.1,1.2-3.5,1.2c-0.3,0-0.6,0-0.8,0v3.9h-2.4V291.3z M718.3,296.3c0.2,0,0.5,0.1,0.8,0.1c1.3,0,2.1-0.7,2.1-1.8
				c0-1-0.7-1.6-1.9-1.6c-0.5,0-0.8,0-1,0.1V296.3z"/>
		</g>
	</g>
	<text transform="matrix(1 0 0 1 578.6089 423.3578)" class="st22 st23">正門 Entrance</text>
	<g>
		<text transform="matrix(0.2449 -0.9696 0.9696 0.2449 147.1874 225.8535)" class="st3 st24 st25">基隆路三段155巷</text>
	</g>
	<g>
		<text transform="matrix(0.1222 -0.9925 0.9925 0.1222 784.5944 297.4384)" class="st3 st24 st25">基隆路四段41巷</text>
	</g>
	<g>
		<text transform="matrix(0.9975 7.091000e-02 -7.091000e-02 0.9975 451.5402 93.0532)" class="st3 st24 st25">基隆路四段41巷68弄</text>
	</g>
	<g>
		<linearGradient id="SVGID_1_" gradientUnits="userSpaceOnUse" x1="0" y1="446.8431" x2="838.5855" y2="446.8431">
			<stop  offset="0" style="stop-color:#FFFFFF;stop-opacity:0"/>
			<stop  offset="0.1931" style="stop-color:#D3D3D3"/>
			<stop  offset="0.8286" style="stop-color:#D9D9D9"/>
			<stop  offset="0.9951" style="stop-color:#FFFFFF;stop-opacity:0"/>
		</linearGradient>
		<rect y="440.7" class="st26" width="838.6" height="12.3"/>
		
			<linearGradient id="SVGID_00000151515352311876560300000000920514240663114658_" gradientUnits="userSpaceOnUse" x1="0" y1="463.5038" x2="838.5855" y2="463.5038">
			<stop  offset="0" style="stop-color:#FFFFFF;stop-opacity:0"/>
			<stop  offset="0.1931" style="stop-color:#D3D3D3"/>
			<stop  offset="0.8286" style="stop-color:#D9D9D9"/>
			<stop  offset="0.9951" style="stop-color:#FFFFFF;stop-opacity:0"/>
		</linearGradient>
		
			<rect y="457.4" style="opacity:0.5;fill:url(#SVGID_00000151515352311876560300000000920514240663114658_);" width="838.6" height="12.3"/>
	</g>
	<g>
		<text transform="matrix(1 0 0 1 366.377 459.5014)" class="st3 st24 st28">基隆路四段</text>
	</g>
	<g>
		<g id="RIr5tz_00000090291119895107838090000017730627252231341230_">
			<g>
				<g>
					<path class="st29" d="M223,209.7c0.1,0,0.2,0.1,0.2,0.1c0.1,0,0.1,0.1,0,0.1c0,0-0.1,0.1-0.1,0.1c-0.1,0.1-0.3,0.3-0.4,0.4
						c-0.2,0.2-0.4,0.4-0.6,0.6c-0.1,0.1-0.2,0.2-0.4,0.4c-0.1,0.1-0.1,0.2,0,0.3c0.1,0.1,0.1,0,0.2,0c0.1-0.1,0.2-0.2,0.3-0.2
						c0.3-0.3,0.6-0.5,0.9-0.8c0.1-0.1,0.2-0.2,0.4-0.3c0.1-0.1,0.1-0.1,0.2,0c0,0,0.1,0.1,0.1,0.1c0.1,0.1,0.1,0.1,0,0.2
						c-0.1,0.1-0.1,0.2-0.2,0.2c-0.3,0.3-0.5,0.6-0.8,0.9c-0.1,0.1-0.2,0.2-0.3,0.4c0,0,0,0,0,0.1c-0.1,0.1,0,0.2,0,0.2
						c0.1,0.1,0.2,0.1,0.2,0c0.2-0.1,0.3-0.3,0.4-0.4c0.3-0.3,0.6-0.6,1-0.9c0,0,0.1,0,0.1-0.1c0.1,0,0.1,0,0.2,0
						c0.1,0.1,0.1,0.2,0.1,0.4c0,0,0,0.1,0,0.1c-0.1,0.2-0.2,0.3-0.3,0.4c-0.2,0.2-0.3,0.4-0.5,0.6c-0.1,0.2-0.3,0.3-0.4,0.4
						c-0.2,0.2-0.4,0.4-0.7,0.5c-0.4,0.2-0.7,0.2-1.1,0c-0.1,0-0.1,0-0.2,0.1c-0.2,0.2-0.4,0.5-0.6,0.7c-0.1,0.1-0.3,0.3-0.4,0.4
						c-0.3,0.3-0.5,0.6-0.8,0.8c-0.3,0.3-0.6,0.6-0.9,0.9c-0.4,0.4-0.7,0.8-1.1,1.2c-0.4,0.4-0.7,0.8-1.1,1.2
						c-0.1,0.1-0.1,0.1-0.2,0.2c-0.1,0.1-0.2,0.1-0.3,0.1c-0.3-0.1-0.5-0.4-0.7-0.7c0-0.1,0-0.2,0.1-0.3c0.1-0.1,0.3-0.3,0.4-0.4
						c0.2-0.2,0.5-0.5,0.7-0.7c0.1-0.1,0.3-0.3,0.5-0.4c0.1-0.1,0.3-0.3,0.4-0.4c0.1-0.1,0.2-0.2,0.4-0.3c0.1-0.1,0.3-0.3,0.4-0.4
						c0.2-0.2,0.5-0.5,0.7-0.7c0.1-0.1,0.3-0.3,0.4-0.4c0.2-0.2,0.4-0.4,0.6-0.6c0.3-0.2,0.5-0.5,0.8-0.8c0.1-0.1,0.1-0.1,0-0.2
						c-0.1-0.3-0.2-0.6-0.1-0.9c0.1-0.2,0.2-0.5,0.4-0.7c0.1-0.2,0.3-0.3,0.5-0.5c0.1-0.1,0.3-0.2,0.4-0.4c0.2-0.1,0.3-0.3,0.5-0.4
						c0.1-0.1,0.3-0.2,0.4-0.3C222.9,209.7,223,209.7,223,209.7z"/>
					<path class="st29" d="M213.9,211c0-0.1,0.1-0.2,0.1-0.3c0.2-0.3,0.5-0.6,0.9-0.6c0.2,0,0.4,0,0.6,0.1c0.3,0.1,0.6,0.2,0.9,0.4
						c0.3,0.2,0.6,0.4,0.8,0.7c0.2,0.2,0.3,0.4,0.4,0.7c0.1,0.3,0.1,0.6-0.1,0.9c0,0,0,0,0,0.1c0,0.1,0,0.1,0,0.1
						c0.2,0.2,0.5,0.5,0.7,0.7c0.2,0.2,0.3,0.3,0.5,0.5c0.1,0.1,0.1,0.1,0,0.2c-0.1,0.1-0.2,0.2-0.3,0.3c-0.1,0.1-0.2,0.1-0.2,0.2
						c-0.1,0.1-0.1,0.1-0.2,0c-0.2-0.2-0.3-0.3-0.5-0.5c-0.2-0.2-0.4-0.4-0.6-0.6c-0.1-0.1-0.1-0.1-0.2,0c-0.3,0.1-0.6,0.2-0.9,0.1
						c-0.2-0.1-0.5-0.2-0.7-0.3c-0.2-0.2-0.5-0.4-0.6-0.6c-0.2-0.3-0.4-0.6-0.5-0.9c-0.1-0.2-0.1-0.5-0.2-0.7
						C213.9,211.2,213.9,211.1,213.9,211z"/>
					<path class="st29" d="M223,218.4c0,0.1,0,0.1-0.1,0.2c-0.1,0.2-0.3,0.4-0.4,0.5c-0.2,0.1-0.4,0.1-0.5-0.1
						c-0.1-0.1-0.2-0.3-0.4-0.4c-0.2-0.2-0.3-0.3-0.5-0.5c-0.3-0.3-0.6-0.7-0.9-1c-0.2-0.2-0.4-0.4-0.5-0.6c0-0.1-0.1-0.1-0.1-0.2
						c-0.1-0.1-0.1-0.1,0-0.2c0.1-0.1,0.3-0.3,0.4-0.4c0.1-0.1,0.1-0.1,0.2-0.2c0.1-0.1,0.1-0.1,0.2,0c0,0,0.1,0.1,0.1,0.1
						c0.4,0.4,0.8,0.7,1.1,1.1c0.2,0.2,0.4,0.4,0.7,0.6c0.2,0.2,0.5,0.4,0.7,0.7C223,218.2,223,218.3,223,218.4z"/>
				</g>
			</g>
		</g>
		<text transform="matrix(1 0 0 1 226.575 211.6454)" class="st29 st30 st31">第二學餐</text>
		<text transform="matrix(1 0 0 1 227.3622 220.06)" class="st29 st30 st32">The second school cafeteria</text>
	</g>
	<g>
		<g id="RIr5tz_00000152957935981444237760000007401614732491473545_">
			<g>
				<g>
					<path class="st29" d="M691,226c0.1,0,0.2,0.1,0.2,0.1c0.1,0,0.1,0.1,0,0.1c0,0-0.1,0.1-0.1,0.1c-0.1,0.1-0.3,0.3-0.4,0.4
						c-0.2,0.2-0.4,0.4-0.5,0.6c-0.1,0.1-0.2,0.2-0.4,0.4c-0.1,0.1-0.1,0.2,0,0.3c0.1,0.1,0.1,0,0.2,0c0.1-0.1,0.2-0.2,0.3-0.2
						c0.3-0.3,0.6-0.5,0.9-0.8c0.1-0.1,0.2-0.2,0.4-0.3c0.1-0.1,0.1-0.1,0.2,0c0,0,0.1,0.1,0.1,0.1c0.1,0.1,0.1,0.1,0,0.2
						c-0.1,0.1-0.1,0.2-0.2,0.2c-0.3,0.3-0.5,0.6-0.8,0.9c-0.1,0.1-0.2,0.2-0.3,0.3c0,0,0,0,0,0.1c-0.1,0.1,0,0.2,0,0.2
						c0.1,0.1,0.1,0.1,0.2,0c0.1-0.1,0.3-0.3,0.4-0.4c0.3-0.3,0.6-0.6,1-0.9c0,0,0.1,0,0.1-0.1c0.1,0,0.1,0,0.2,0
						c0.1,0.1,0.1,0.2,0.1,0.4c0,0,0,0.1,0,0.1c-0.1,0.2-0.2,0.3-0.3,0.4c-0.2,0.2-0.3,0.4-0.5,0.6c-0.1,0.2-0.3,0.3-0.4,0.4
						c-0.2,0.2-0.4,0.4-0.7,0.5c-0.3,0.2-0.7,0.2-1.1,0c-0.1,0-0.1,0-0.2,0c-0.2,0.2-0.4,0.4-0.6,0.7c-0.1,0.1-0.3,0.3-0.4,0.4
						c-0.3,0.3-0.5,0.6-0.8,0.8c-0.3,0.3-0.6,0.6-0.8,0.9c-0.4,0.4-0.7,0.8-1.1,1.1c-0.4,0.4-0.7,0.8-1.1,1.1
						c-0.1,0.1-0.1,0.1-0.2,0.2c-0.1,0.1-0.2,0.1-0.3,0.1c-0.3-0.1-0.5-0.4-0.6-0.7c0-0.1,0-0.2,0.1-0.3c0.1-0.1,0.3-0.3,0.4-0.4
						c0.2-0.2,0.5-0.5,0.7-0.7c0.1-0.1,0.3-0.3,0.4-0.4c0.1-0.1,0.3-0.3,0.4-0.4c0.1-0.1,0.2-0.2,0.4-0.3c0.1-0.1,0.3-0.3,0.4-0.4
						c0.2-0.2,0.5-0.5,0.7-0.7c0.1-0.1,0.3-0.3,0.4-0.4c0.2-0.2,0.4-0.4,0.6-0.5c0.3-0.2,0.5-0.5,0.8-0.7c0.1-0.1,0.1-0.1,0-0.2
						c-0.1-0.3-0.2-0.6-0.1-0.9c0.1-0.2,0.2-0.5,0.4-0.7c0.1-0.2,0.3-0.3,0.5-0.5c0.1-0.1,0.2-0.2,0.4-0.4c0.1-0.1,0.3-0.3,0.5-0.4
						c0.1-0.1,0.3-0.2,0.4-0.3C690.9,226,690.9,226,691,226z"/>
					<path class="st29" d="M682,227.2c0-0.1,0.1-0.2,0.1-0.3c0.2-0.3,0.5-0.5,0.8-0.6c0.2,0,0.4,0,0.6,0.1c0.3,0.1,0.6,0.2,0.9,0.4
						c0.3,0.2,0.6,0.4,0.8,0.7c0.2,0.2,0.3,0.4,0.4,0.7c0.1,0.3,0.1,0.6-0.1,0.9c0,0,0,0,0,0.1c0,0.1,0,0.1,0,0.1
						c0.2,0.2,0.5,0.5,0.7,0.7c0.2,0.2,0.3,0.3,0.5,0.5c0.1,0.1,0.1,0.1,0,0.2c-0.1,0.1-0.2,0.2-0.3,0.3c-0.1,0.1-0.1,0.1-0.2,0.2
						c-0.1,0.1-0.1,0.1-0.2,0c-0.2-0.2-0.3-0.3-0.5-0.5c-0.2-0.2-0.4-0.4-0.6-0.6c-0.1-0.1-0.1-0.1-0.2,0c-0.3,0.1-0.6,0.2-0.8,0.1
						c-0.2-0.1-0.5-0.2-0.7-0.3c-0.2-0.2-0.4-0.4-0.6-0.6c-0.2-0.3-0.3-0.6-0.5-0.9c-0.1-0.2-0.1-0.5-0.2-0.7
						C682,227.4,682,227.3,682,227.2z"/>
					<path class="st29" d="M691,234.5c0,0.1,0,0.1-0.1,0.2c-0.1,0.2-0.2,0.4-0.4,0.5c-0.2,0.1-0.3,0.1-0.5-0.1
						c-0.1-0.1-0.2-0.2-0.4-0.4c-0.2-0.2-0.3-0.3-0.5-0.5c-0.3-0.3-0.6-0.6-0.9-1c-0.2-0.2-0.3-0.4-0.5-0.6c0-0.1-0.1-0.1-0.1-0.2
						c-0.1-0.1-0.1-0.1,0-0.2c0.1-0.1,0.2-0.3,0.4-0.4c0.1-0.1,0.1-0.1,0.2-0.2c0.1-0.1,0.1-0.1,0.2,0c0,0,0.1,0.1,0.1,0.1
						c0.4,0.4,0.8,0.7,1.1,1.1c0.2,0.2,0.4,0.4,0.7,0.6c0.2,0.2,0.5,0.4,0.7,0.7C690.9,234.3,691,234.4,691,234.5z"/>
				</g>
			</g>
		</g>
		<text transform="matrix(1 0 0 1 682.1777 251.1555)" class="st29 st30 st33">The third school cafeteria</text>
		<text transform="matrix(1 0 0 1 681.7011 243.9392)" class="st29 st30 st34">第三學餐</text>
	</g>
	<g id="rBKKI1_00000132060222287186414760000002494149563704987789_">
		
			<image style="overflow:visible;" width="360" height="344" id="rBKKI1_00000121250920852601411120000000039028728610131886_" xlink:href="72B2FF1A.png"  transform="matrix(7.199042e-02 0 0 7.199042e-02 627.5508 445.5681)">
		</image>
	</g>
	<text transform="matrix(1 0 0 1 663.7623 462.5785)" class="st35 st22 st23">往捷運 公館站</text>
	<text transform="matrix(1 0 0 1 113.441 474.6117)"><tspan x="0" y="0" class="st35 st22 st36">公車站</tspan><tspan x="0" y="15.7" class="st35 st22 st23">台大癌醫 (基隆路)</tspan></text>
	<g id="m51p2f_00000109727608875534404410000006243760265212603288_">
		<g>
			<g>
				<path class="st37" d="M94.8,468.8c0.4,0,0.7,0,1.1,0c0,0,0,0,0.1,0c0.4,0,0.7,0.1,1.1,0.1c2.1,0.4,3.9,1.3,5.5,2.8
					c0.8,0.8,1.4,1.6,1.9,2.6c0.5,1,0.9,2.1,1.1,3.2c0,0.3,0.1,0.5,0.1,0.8c0,0.7,0,1.4,0,2.1c0,0.2,0,0.4-0.1,0.5
					c-0.2,1.2-0.6,2.4-1.1,3.5c-0.9,1.7-2.2,3.1-3.9,4.1c-1.8,1.1-3.8,1.5-5.9,1.4c-0.6,0-1.2-0.1-1.8-0.3c-2.3-0.6-4.2-1.9-5.6-3.8
					c-1.4-1.8-2.1-3.8-2.2-6c0-0.7,0-1.4,0.1-2.1c0.2-1.3,0.6-2.5,1.2-3.6c1.2-2.2,3-3.8,5.4-4.8c0.8-0.3,1.7-0.5,2.6-0.6
					C94.5,468.8,94.7,468.8,94.8,468.8z M95.4,484.9c1.1,0,2.2,0,3.3,0c0,0,0.1,0,0.1,0c0.1,0,0.1,0,0.1,0.1c0,0.1,0,0.3,0,0.4
					c0,0.2,0,0.3,0,0.5c0.1,0.4,0.4,0.8,0.9,0.7c0.4,0,0.8-0.4,0.8-0.8c0-0.3,0-0.5,0-0.8c0-0.2,0-0.2,0.2-0.2c0.1,0,0.1,0,0.2,0
					c0.2-0.1,0.3-0.2,0.3-0.5c0-1,0-2,0-3c0-0.6,0-1.2-0.1-1.8c-0.1-0.6-0.1-1.2-0.2-1.9c-0.1-0.7-0.2-1.4-0.3-2.2
					c-0.1-0.7-0.2-1.5-0.3-2.2c-0.1-0.6-0.5-1-1.1-1.1c-0.4,0-0.9-0.1-1.3-0.1c-0.8-0.1-1.6-0.1-2.3-0.1c-0.8,0-1.6,0-2.4,0.1
					c-0.3,0-0.6,0-0.9,0.1c-0.4,0-0.7,0.1-1.1,0.1c-0.6,0-1.1,0.5-1.1,1c-0.1,0.5-0.1,1-0.2,1.5c-0.1,0.5-0.1,1-0.2,1.5
					c-0.1,0.5-0.1,1.1-0.2,1.6c-0.1,0.5-0.1,1-0.2,1.5c-0.1,0.5-0.1,1-0.1,1.4c0,1.1,0,2.2,0,3.3c0,0.1,0,0.1,0,0.2
					c0,0.3,0.2,0.5,0.5,0.5c0.1,0,0.1,0,0.2,0c0.1,0,0.1,0,0.1,0.1c0,0.2,0,0.5,0,0.7c0,0.1,0,0.2,0,0.3c0.2,0.6,0.9,0.9,1.4,0.5
					c0.2-0.2,0.3-0.4,0.3-0.6c0-0.3,0-0.5,0-0.8c0-0.1,0-0.1,0.1-0.1c0,0,0.1,0,0.1,0C93.2,484.9,94.3,484.9,95.4,484.9z"/>
				<path class="st37" d="M95.4,480c-1.5,0-3,0-4.5,0c-0.3,0-0.4-0.2-0.4-0.4c0-0.1,0-0.2,0-0.3c0-0.4,0.1-0.8,0.1-1.3
					c0-0.4,0.1-0.9,0.1-1.3c0-0.4,0.1-0.8,0.1-1.2c0-0.3,0-0.5,0.1-0.8c0-0.2,0.2-0.3,0.3-0.3c0.1,0,0.1,0,0.2,0c2.6,0,5.3,0,7.9,0
					c0.1,0,0.1,0,0.2,0c0.2,0,0.3,0.2,0.4,0.4c0.1,0.6,0.1,1.2,0.2,1.8c0,0.5,0.1,1.1,0.1,1.6c0,0.5,0.1,0.9,0.1,1.4
					c0,0.2-0.1,0.4-0.4,0.4C98.4,480,96.9,480,95.4,480z"/>
				<path class="st37" d="M95.4,473.9c-1.2,0-2.5,0-3.7,0c-0.2,0-0.3,0-0.4-0.2c-0.1-0.1-0.1-0.3,0-0.5c0.1-0.2,0.2-0.2,0.4-0.2
					c0,0,0.1,0,0.1,0c2.4,0,4.9,0,7.3,0c0.1,0,0.2,0,0.2,0c0.2,0.1,0.3,0.3,0.3,0.5c0,0.2-0.2,0.3-0.4,0.3
					C97.9,473.9,96.6,473.9,95.4,473.9z"/>
				<path class="st37" d="M100.4,482.5c0,0.5-0.4,0.9-0.9,0.9c-0.5,0-0.9-0.4-0.9-0.9c0-0.5,0.4-0.9,0.9-0.9
					C100,481.6,100.4,482,100.4,482.5z"/>
				<path class="st37" d="M91.3,481.6c0.5,0,0.9,0.4,0.9,0.9c0,0.5-0.4,0.9-0.9,0.9c-0.5,0-0.9-0.4-0.9-0.9
					C90.4,482,90.8,481.6,91.3,481.6z"/>
			</g>
		</g>
	</g>
	<text transform="matrix(1 0 0 1 501.2632 474.6117)"><tspan x="0" y="0" class="st35 st22 st36">公車站</tspan><tspan x="0" y="15.7" class="st35 st22 st23">臺灣科技大學</tspan></text>
	<g id="m51p2f_00000040560045590903965730000009907679257079342220_">
		<g>
			<g>
				<path class="st37" d="M482.6,468.8c0.4,0,0.7,0,1.1,0c0,0,0,0,0.1,0c0.4,0,0.7,0.1,1.1,0.1c2.1,0.4,3.9,1.3,5.5,2.8
					c0.8,0.8,1.4,1.6,1.9,2.6c0.5,1,0.9,2.1,1.1,3.2c0,0.3,0.1,0.5,0.1,0.8c0,0.7,0,1.4,0,2.1c0,0.2,0,0.4-0.1,0.5
					c-0.2,1.2-0.6,2.4-1.1,3.5c-0.9,1.7-2.2,3.1-3.9,4.1c-1.8,1.1-3.8,1.5-5.9,1.4c-0.6,0-1.2-0.1-1.8-0.3c-2.3-0.6-4.2-1.9-5.6-3.8
					c-1.4-1.8-2.1-3.8-2.2-6c0-0.7,0-1.4,0.1-2.1c0.2-1.3,0.6-2.5,1.2-3.6c1.2-2.2,3-3.8,5.4-4.8c0.8-0.3,1.7-0.5,2.6-0.6
					C482.3,468.8,482.5,468.8,482.6,468.8z M483.2,484.9c1.1,0,2.2,0,3.3,0c0,0,0.1,0,0.1,0c0.1,0,0.1,0,0.1,0.1c0,0.1,0,0.3,0,0.4
					c0,0.2,0,0.3,0,0.5c0.1,0.4,0.4,0.8,0.9,0.7c0.4,0,0.8-0.4,0.8-0.8c0-0.3,0-0.5,0-0.8c0-0.2,0-0.2,0.2-0.2c0.1,0,0.1,0,0.2,0
					c0.2-0.1,0.3-0.2,0.3-0.5c0-1,0-2,0-3c0-0.6,0-1.2-0.1-1.8c-0.1-0.6-0.1-1.2-0.2-1.9c-0.1-0.7-0.2-1.4-0.3-2.2
					c-0.1-0.7-0.2-1.5-0.3-2.2c-0.1-0.6-0.5-1-1.1-1.1c-0.4,0-0.9-0.1-1.3-0.1c-0.8-0.1-1.6-0.1-2.3-0.1c-0.8,0-1.6,0-2.4,0.1
					c-0.3,0-0.6,0-0.9,0.1c-0.4,0-0.7,0.1-1.1,0.1c-0.6,0-1.1,0.5-1.1,1c-0.1,0.5-0.1,1-0.2,1.5c-0.1,0.5-0.1,1-0.2,1.5
					c-0.1,0.5-0.1,1.1-0.2,1.6c-0.1,0.5-0.1,1-0.2,1.5c-0.1,0.5-0.1,1-0.1,1.4c0,1.1,0,2.2,0,3.3c0,0.1,0,0.1,0,0.2
					c0,0.3,0.2,0.5,0.5,0.5c0.1,0,0.1,0,0.2,0c0.1,0,0.1,0,0.1,0.1c0,0.2,0,0.5,0,0.7c0,0.1,0,0.2,0,0.3c0.2,0.6,0.9,0.9,1.4,0.5
					c0.2-0.2,0.3-0.4,0.3-0.6c0-0.3,0-0.5,0-0.8c0-0.1,0-0.1,0.1-0.1c0,0,0.1,0,0.1,0C481,484.9,482.1,484.9,483.2,484.9z"/>
				<path class="st37" d="M483.2,480c-1.5,0-3,0-4.5,0c-0.3,0-0.4-0.2-0.4-0.4c0-0.1,0-0.2,0-0.3c0-0.4,0.1-0.8,0.1-1.3
					c0-0.4,0.1-0.9,0.1-1.3c0-0.4,0.1-0.8,0.1-1.2c0-0.3,0-0.5,0.1-0.8c0-0.2,0.2-0.3,0.3-0.3c0.1,0,0.1,0,0.2,0c2.6,0,5.3,0,7.9,0
					c0.1,0,0.1,0,0.2,0c0.2,0,0.3,0.2,0.4,0.4c0.1,0.6,0.1,1.2,0.2,1.8c0,0.5,0.1,1.1,0.1,1.6c0,0.5,0.1,0.9,0.1,1.4
					c0,0.2-0.1,0.4-0.4,0.4C486.2,480,484.7,480,483.2,480z"/>
				<path class="st37" d="M483.2,473.9c-1.2,0-2.5,0-3.7,0c-0.2,0-0.3,0-0.4-0.2c-0.1-0.1-0.1-0.3,0-0.5c0.1-0.2,0.2-0.2,0.4-0.2
					c0,0,0.1,0,0.1,0c2.4,0,4.9,0,7.3,0c0.1,0,0.2,0,0.2,0c0.2,0.1,0.3,0.3,0.3,0.5c0,0.2-0.2,0.3-0.4,0.3
					C485.7,473.9,484.5,473.9,483.2,473.9z"/>
				<path class="st37" d="M488.2,482.5c0,0.5-0.4,0.9-0.9,0.9c-0.5,0-0.9-0.4-0.9-0.9c0-0.5,0.4-0.9,0.9-0.9
					C487.8,481.6,488.2,482,488.2,482.5z"/>
				<path class="st37" d="M479.1,481.6c0.5,0,0.9,0.4,0.9,0.9c0,0.5-0.4,0.9-0.9,0.9c-0.5,0-0.9-0.4-0.9-0.9
					C478.2,482,478.7,481.6,479.1,481.6z"/>
			</g>
		</g>
	</g>
	<text transform="matrix(1 0 0 1 358.1426 420.5775)"><tspan x="0" y="0" class="st30 st38">綜合教學大樓</tspan><tspan x="82.9" y="21.2" class="st30 st38">RB</tspan></text>
	<text transform="matrix(1 0 0 1 63.9468 392.1454)"><tspan x="0" y="0" class="st30 st38">研揚大樓</tspan><tspan x="48.5" y="21.2" class="st30 st38">TR</tspan></text>
</g>
<g id="標示">
	<g>
		<rect x="571.8" y="523.8" class="st48" width="17.8" height="17.8"/>
		<g>
			<path class="st49" d="M580.7,531.4c0.8-0.8,1.3-1.5,2.6-1.6c2.3-0.3,4.4,2.1,3.2,4.4c-0.3,0.7-1,1.4-1.7,2.2
				c-1.3,1.4-2.7,2.7-4.1,4c-2-2-5.9-4.9-6-7.7c-0.1-1.8,1.4-3,3-2.9C579.1,529.8,579.7,530.4,580.7,531.4z M581.3,535.2l0.5-1.7
				h-1.3l0.5-1.3h-1.2l-0.8,2.5h1.4l-0.6,1.6h1.3l-0.9,2.3l2.4-3.4H581.3z"/>
			<path class="st17" d="M576.6,528.6h-1.3l1-3.7h1.8l1,3.7h-1.3l-0.1-0.6h-1L576.6,528.6z M577.1,526l-0.2,1h0.5l-0.2-1H577.1z
				 M581.8,527.2h-1.2v0.5h1.5v0.9h-2.6v-3.7h2.6l-0.1,0.9h-1.3v0.6h1.2V527.2L581.8,527.2z M582.7,528.6v-3.7h1.7
				c0.7,0,1.1,0.1,1.4,0.4c0.2,0.3,0.4,0.8,0.4,1.4c0,0.7-0.1,1.1-0.4,1.4c-0.2,0.3-0.7,0.4-1.4,0.4H582.7z M584.4,525.8h-0.6v1.9
				h0.6c0.2,0,0.3,0,0.4-0.1c0.1,0,0.1-0.1,0.1-0.3v-1.3c0-0.1,0-0.2-0.1-0.3C584.6,525.8,584.5,525.8,584.4,525.8L584.4,525.8z"/>
		</g>
	</g>
	<g>
		<rect x="158.5" y="346.1" class="st48" width="14.5" height="14.5"/>
		<g>
			<path class="st49" d="M165.7,352.3c0.6-0.7,1.1-1.2,2.1-1.3c1.9-0.2,3.6,1.7,2.6,3.6c-0.3,0.5-0.8,1.2-1.4,1.8
				c-1.1,1.1-2.2,2.2-3.3,3.3c-1.7-1.6-4.8-4-4.9-6.2c-0.1-1.5,1.1-2.4,2.4-2.4C164.4,351,164.9,351.6,165.7,352.3z M166.2,355.4
				l0.4-1.4h-1.1l0.4-1.1h-1l-0.7,2h1.1l-0.5,1.3h1l-0.7,1.9l2-2.8H166.2z"/>
			<path class="st17" d="M162.4,350.1h-1l0.8-3h1.5l0.8,3h-1l-0.1-0.5h-0.8L162.4,350.1z M162.8,348l-0.1,0.8h0.4L163,348H162.8z
				 M166.6,348.9h-1v0.4h1.2v0.7h-2.2v-3h2.1l-0.1,0.7h-1v0.5h1V348.9L166.6,348.9z M167.4,350.1v-3h1.4c0.5,0,0.9,0.1,1.1,0.3
				c0.2,0.2,0.3,0.6,0.3,1.2c0,0.5-0.1,0.9-0.3,1.2c-0.2,0.2-0.6,0.3-1.1,0.3C168.7,350.1,167.4,350.1,167.4,350.1z M168.7,347.8
				h-0.5v1.5h0.5c0.1,0,0.2,0,0.3,0c0.1,0,0.1-0.1,0.1-0.2v-1c0-0.1,0-0.2-0.1-0.2C168.9,347.8,168.9,347.8,168.7,347.8L168.7,347.8
				z"/>
		</g>
	</g>
	<g>
		<rect x="177.8" y="234.2" class="st48" width="14.5" height="14.5"/>
		<g>
			<path class="st49" d="M185,240.3c0.6-0.7,1.1-1.2,2.1-1.3c1.9-0.2,3.6,1.7,2.6,3.6c-0.3,0.5-0.8,1.2-1.4,1.8
				c-1.1,1.1-2.2,2.2-3.3,3.3c-1.7-1.6-4.8-4-4.9-6.2c-0.1-1.5,1.1-2.4,2.4-2.4C183.7,239,184.2,239.6,185,240.3z M185.5,243.5
				l0.4-1.4h-1.1l0.4-1.1h-1l-0.7,2h1.1l-0.5,1.3h1l-0.7,1.9l2-2.8H185.5z"/>
			<path class="st17" d="M181.7,238.1h-1l0.8-3h1.5l0.8,3h-1l-0.1-0.5h-0.8L181.7,238.1z M182.1,236l-0.1,0.8h0.4l-0.1-0.8H182.1z
				 M186,236.9h-1v0.4h1.2v0.7H184v-3h2.1l-0.1,0.7h-1v0.5h1V236.9L186,236.9z M186.7,238.1v-3h1.4c0.5,0,0.9,0.1,1.1,0.3
				c0.2,0.2,0.3,0.6,0.3,1.2c0,0.5-0.1,0.9-0.3,1.2c-0.2,0.2-0.6,0.3-1.1,0.3H186.7z M188,235.8h-0.5v1.5h0.5c0.1,0,0.2,0,0.3,0
				c0.1,0,0.1-0.1,0.1-0.2v-1c0-0.1,0-0.2-0.1-0.2C188.3,235.8,188.2,235.8,188,235.8L188,235.8z"/>
		</g>
	</g>
	<g>
		<rect x="312.5" y="208" class="st48" width="14.5" height="14.5"/>
		<g>
			<path class="st49" d="M319.7,214.2c0.6-0.7,1.1-1.2,2.1-1.3c1.9-0.2,3.6,1.7,2.6,3.6c-0.3,0.5-0.8,1.2-1.4,1.8
				c-1.1,1.1-2.2,2.2-3.3,3.3c-1.7-1.6-4.8-4-4.9-6.2c-0.1-1.5,1.1-2.4,2.4-2.4C318.4,212.9,318.9,213.4,319.7,214.2z M320.2,217.3
				l0.4-1.4h-1.1l0.4-1.1h-1l-0.7,2h1.1l-0.5,1.3h1l-0.7,1.9l2-2.8H320.2z"/>
			<path class="st17" d="M316.4,211.9h-1l0.8-3h1.5l0.8,3h-1l-0.1-0.5h-0.8L316.4,211.9z M316.8,209.8l-0.1,0.8h0.4l-0.1-0.8H316.8z
				 M320.6,210.8h-1v0.4h1.2v0.7h-2.2v-3h2.1l-0.1,0.7h-1v0.5h1V210.8L320.6,210.8z M321.3,211.9v-3h1.4c0.5,0,0.9,0.1,1.1,0.3
				c0.2,0.2,0.3,0.6,0.3,1.2c0,0.5-0.1,0.9-0.3,1.2c-0.2,0.2-0.6,0.3-1.1,0.3H321.3z M322.7,209.6h-0.5v1.5h0.5c0.1,0,0.2,0,0.3,0
				c0.1,0,0.1-0.1,0.1-0.2v-1c0-0.1,0-0.2-0.1-0.2C322.9,209.6,322.8,209.6,322.7,209.6L322.7,209.6z"/>
		</g>
	</g>
	<g>
		<rect x="405.8" y="360.7" class="st48" width="14.5" height="14.5"/>
		<g>
			<path class="st49" d="M413,366.9c0.6-0.7,1.1-1.2,2.1-1.3c1.9-0.2,3.6,1.7,2.6,3.6c-0.3,0.5-0.8,1.2-1.4,1.8
				c-1.1,1.1-2.2,2.2-3.3,3.3c-1.7-1.6-4.8-4-4.9-6.2c-0.1-1.5,1.1-2.4,2.4-2.4C411.7,365.6,412.2,366.1,413,366.9z M413.4,370
				l0.4-1.4h-1.1l0.4-1.1h-1l-0.7,2h1.1l-0.5,1.3h1l-0.7,1.9l2-2.8H413.4z"/>
			<path class="st17" d="M409.7,364.6h-1l0.8-3h1.5l0.8,3h-1l-0.1-0.5h-0.8L409.7,364.6z M410.1,362.5l-0.1,0.8h0.4l-0.1-0.8H410.1z
				 M413.9,363.5h-1v0.4h1.2v0.7H412v-3h2.1l-0.1,0.7h-1v0.5h1V363.5L413.9,363.5z M414.6,364.6v-3h1.4c0.5,0,0.9,0.1,1.1,0.3
				c0.2,0.2,0.3,0.6,0.3,1.2c0,0.5-0.1,0.9-0.3,1.2c-0.2,0.2-0.6,0.3-1.1,0.3H414.6z M416,362.3h-0.5v1.5h0.5c0.1,0,0.2,0,0.3,0
				c0.1,0,0.1-0.1,0.1-0.2v-1c0-0.1,0-0.2-0.1-0.2C416.2,362.4,416.1,362.3,416,362.3L416,362.3z"/>
		</g>
	</g>
	<g>
		<rect x="239.7" y="234.2" class="st48" width="14.5" height="14.5"/>
		<g>
			<path class="st49" d="M246.9,240.3c0.6-0.7,1.1-1.2,2.1-1.3c1.9-0.2,3.6,1.7,2.6,3.6c-0.3,0.5-0.8,1.2-1.4,1.8
				c-1.1,1.1-2.2,2.2-3.3,3.3c-1.7-1.6-4.8-4-4.9-6.2c-0.1-1.5,1.1-2.4,2.4-2.4C245.6,239,246.1,239.6,246.9,240.3z M247.3,243.5
				l0.4-1.4h-1.1l0.4-1.1h-1l-0.7,2h1.1l-0.5,1.3h1l-0.7,1.9l2-2.8H247.3z"/>
			<path class="st17" d="M243.6,238.1h-1l0.8-3h1.5l0.8,3h-1l-0.1-0.5h-0.8L243.6,238.1z M244,236l-0.1,0.8h0.4l-0.1-0.8H244z
				 M247.8,236.9h-1v0.4h1.2v0.7h-2.2v-3h2.1l-0.1,0.7h-1v0.5h1V236.9L247.8,236.9z M248.5,238.1v-3h1.4c0.5,0,0.9,0.1,1.1,0.3
				c0.2,0.2,0.3,0.6,0.3,1.2c0,0.5-0.1,0.9-0.3,1.2c-0.2,0.2-0.6,0.3-1.1,0.3H248.5z M249.9,235.8h-0.5v1.5h0.5c0.1,0,0.2,0,0.3,0
				c0.1,0,0.1-0.1,0.1-0.2v-1c0-0.1,0-0.2-0.1-0.2C250.1,235.8,250,235.8,249.9,235.8L249.9,235.8z"/>
		</g>
	</g>
	<text transform="matrix(1 0 0 1 541.6529 531.6874)" class="st50 st51">AED</text>
	<g>
		<text transform="matrix(1 0 0 1 541.6348 542.2353)" class="st50 st52">AED</text>
	</g>
	<text transform="matrix(1 0 0 1 621.1827 531.6865)" class="st50 st51">急救箱</text>
	<g>
		<text transform="matrix(1 0 0 1 621.1646 542.1577)" class="st50 st52">First aid kit</text>
	</g>
	<text transform="matrix(1 0 0 1 336.4273 532.437)" class="st50 st51">風雨走廊</text>
	<g>
		<text transform="matrix(1 0 0 1 336.6602 542.1577)" class="st50 st52">Corridor</text>
	</g>
	<text transform="matrix(1 0 0 1 426.3336 532.4472)" class="st50 st51">通用廁所</text>
	<g>
		<text transform="matrix(1 0 0 1 426.316 542.1572)" class="st50 st52">Universal restroom</text>
	</g>
	<text transform="matrix(1 0 0 1 259.524 532.4169)" class="st50 st51">電梯</text>
	<g>
		<text transform="matrix(1 0 0 1 259.8502 542.1572)" class="st50 st52">Elevator</text>
	</g>
	<text transform="matrix(1 0 0 1 158.3702 532.4365)" class="st50 st51">出入口坡道</text>
	<g>
		<text transform="matrix(1 0 0 1 159.6886 540.7372)" class="st50 st52">Ramp</text>
	</g>
	<g>
		<g>
			<path class="st53" d="M498.3,530.7h0.8l0.8,3.1l0.8-3.1h0.6l0.7,3.1l0.8-3.1h0.8l-1.3,4.4h-0.7l-0.7-2.9l-0.7,2.9h-0.7
				L498.3,530.7z"/>
			<path class="st53" d="M508.2,534c-0.2,0.4-0.4,0.7-0.8,1c-0.4,0.2-0.8,0.4-1.2,0.4h0c-0.6,0-1.2-0.2-1.6-0.7
				c-0.5-0.5-0.7-1-0.7-1.6c0-0.6,0.2-1.2,0.7-1.6c0.5-0.5,1-0.7,1.6-0.7c0.4,0,0.9,0.1,1.3,0.4c0.4,0.2,0.7,0.6,0.9,1l-0.9,0
				c-0.1-0.2-0.3-0.3-0.5-0.4c-0.2-0.1-0.4-0.2-0.6-0.2c-0.4,0-0.7,0.2-1,0.5c-0.3,0.3-0.4,0.7-0.4,1.1c0,0.4,0.1,0.7,0.4,1
				c0.3,0.3,0.6,0.5,1,0.5c0.2,0,0.4,0,0.6-0.1c0.2-0.1,0.4-0.2,0.5-0.4H508.2z"/>
		</g>
		<path class="st53" d="M503.1,540.2c-4.2,0-7.5-3.4-7.5-7.5s3.4-7.5,7.5-7.5s7.5,3.4,7.5,7.5S507.2,540.2,503.1,540.2z
			 M503.1,526.5c-3.4,0-6.1,2.8-6.1,6.1c0,3.4,2.8,6.1,6.1,6.1s6.1-2.8,6.1-6.1C509.2,529.3,506.4,526.5,503.1,526.5z"/>
	</g>
	<g>
		<g>
			<path class="st53" d="M357.7,314.7h0.8l0.7,2.9l0.7-2.9h0.6l0.7,2.9l0.7-2.9h0.8l-1.2,4.1h-0.6l-0.7-2.7l-0.7,2.7h-0.6
				L357.7,314.7z"/>
			<path class="st53" d="M366.9,317.7c-0.2,0.4-0.4,0.7-0.8,0.9c-0.4,0.2-0.7,0.3-1.1,0.3h0c-0.6,0-1.1-0.2-1.5-0.6
				c-0.4-0.4-0.6-0.9-0.6-1.5c0-0.6,0.2-1.1,0.6-1.5c0.4-0.4,0.9-0.6,1.5-0.6c0.4,0,0.8,0.1,1.2,0.3c0.4,0.2,0.6,0.5,0.8,0.9l-0.9,0
				c-0.1-0.2-0.3-0.3-0.5-0.4c-0.2-0.1-0.4-0.1-0.6-0.1c-0.4,0-0.7,0.1-1,0.4c-0.3,0.3-0.4,0.6-0.4,1c0,0.4,0.1,0.7,0.4,1
				c0.3,0.3,0.6,0.4,1,0.4c0.2,0,0.4,0,0.6-0.1c0.2-0.1,0.3-0.2,0.5-0.4H366.9z"/>
		</g>
		<path class="st53" d="M362.1,323.4c-3.9,0-7-3.1-7-7c0-3.9,3.1-7,7-7c3.9,0,7,3.1,7,7C369.1,320.3,365.9,323.4,362.1,323.4z
			 M362.1,310.8c-3.1,0-5.7,2.6-5.7,5.7c0,3.1,2.6,5.7,5.7,5.7c3.1,0,5.7-2.6,5.7-5.7C367.8,313.3,365.2,310.8,362.1,310.8z"/>
	</g>
	<g>
		<path class="st54" d="M299.3,540.8c-4.3,0-7.8-3.5-7.8-7.8c0-4.3,3.5-7.8,7.8-7.8s7.8,3.5,7.8,7.8
			C307.1,537.3,303.6,540.8,299.3,540.8z M299.3,526.7c-3.5,0-6.3,2.8-6.3,6.3c0,3.5,2.8,6.3,6.3,6.3s6.3-2.8,6.3-6.3
			C305.6,529.5,302.8,526.7,299.3,526.7z"/>
		<polygon class="st54" points="296.9,529.8 294.8,534.3 299,534.3 		"/>
		<polygon class="st54" points="301.1,536 303.2,531.5 299,531.5 		"/>
	</g>
	<g>
		<path class="st54" d="M413.3,393.6c-4,0-7.2-3.2-7.2-7.2c0-4,3.2-7.2,7.2-7.2s7.2,3.2,7.2,7.2
			C420.5,390.3,417.3,393.6,413.3,393.6z M413.3,380.5c-3.2,0-5.9,2.6-5.9,5.9c0,3.2,2.6,5.9,5.9,5.9s5.9-2.6,5.9-5.9
			C419.2,383.1,416.5,380.5,413.3,380.5z"/>
		<polygon class="st54" points="411.1,383.4 409.1,387.5 413,387.5 		"/>
		<polygon class="st54" points="414.9,389.1 416.9,385 413,385 		"/>
	</g>
	<g>
		<path class="st54" d="M461.2,378.1c-4,0-7.2-3.2-7.2-7.2s3.2-7.2,7.2-7.2s7.2,3.2,7.2,7.2S465.2,378.1,461.2,378.1z M461.2,365
			c-3.2,0-5.9,2.6-5.9,5.9s2.6,5.9,5.9,5.9s5.9-2.6,5.9-5.9S464.5,365,461.2,365z"/>
		<polygon class="st54" points="459,367.9 457.1,372.1 461,372.1 		"/>
		<polygon class="st54" points="462.9,373.7 464.8,369.5 461,369.5 		"/>
	</g>
	<g>
		<path class="st54" d="M381.6,332.8c-4,0-7.2-3.2-7.2-7.2s3.2-7.2,7.2-7.2s7.2,3.2,7.2,7.2S385.6,332.8,381.6,332.8z M381.6,319.7
			c-3.2,0-5.9,2.6-5.9,5.9s2.6,5.9,5.9,5.9s5.9-2.6,5.9-5.9S384.9,319.7,381.6,319.7z"/>
		<polygon class="st54" points="379.4,322.6 377.5,326.8 381.3,326.8 		"/>
		<polygon class="st54" points="383.3,328.3 385.2,324.2 381.3,324.2 		"/>
	</g>
	<g>
		<g>
			<path class="st53" d="M142.8,332.4h0.8l0.7,2.9l0.7-2.9h0.6l0.7,2.9l0.7-2.9h0.8l-1.2,4.1H146l-0.7-2.7l-0.7,2.7H144L142.8,332.4
				z"/>
			<path class="st53" d="M152,335.4c-0.2,0.4-0.4,0.7-0.8,0.9c-0.4,0.2-0.7,0.3-1.1,0.3h0c-0.6,0-1.1-0.2-1.5-0.6
				c-0.4-0.4-0.6-0.9-0.6-1.5c0-0.6,0.2-1.1,0.6-1.5c0.4-0.4,0.9-0.6,1.5-0.6c0.4,0,0.8,0.1,1.2,0.3c0.4,0.2,0.6,0.5,0.8,0.9l-0.9,0
				c-0.1-0.2-0.3-0.3-0.5-0.4c-0.2-0.1-0.4-0.1-0.6-0.1c-0.4,0-0.7,0.1-1,0.4c-0.3,0.3-0.4,0.6-0.4,1c0,0.4,0.1,0.7,0.4,1
				c0.3,0.3,0.6,0.4,1,0.4c0.2,0,0.4,0,0.6-0.1c0.2-0.1,0.3-0.2,0.5-0.4H152z"/>
		</g>
		<path class="st53" d="M147.2,341.2c-3.9,0-7-3.1-7-7c0-3.9,3.1-7,7-7c3.9,0,7,3.1,7,7C154.2,338.1,151.1,341.2,147.2,341.2z
			 M147.2,328.5c-3.1,0-5.7,2.6-5.7,5.7c0,3.1,2.6,5.7,5.7,5.7c3.1,0,5.7-2.6,5.7-5.7C152.9,331.1,150.4,328.5,147.2,328.5z"/>
	</g>
	<g>
		<path class="st54" d="M165.7,341.7c-4,0-7.2-3.2-7.2-7.2c0-4,3.2-7.2,7.2-7.2c4,0,7.2,3.2,7.2,7.2
			C172.9,338.5,169.7,341.7,165.7,341.7z M165.7,328.6c-3.2,0-5.9,2.6-5.9,5.9c0,3.2,2.6,5.9,5.9,5.9c3.2,0,5.9-2.6,5.9-5.9
			C171.6,331.2,168.9,328.6,165.7,328.6z"/>
		<polygon class="st54" points="163.5,331.6 161.5,335.7 165.4,335.7 		"/>
		<polygon class="st54" points="167.3,337.3 169.3,333.1 165.4,333.1 		"/>
	</g>
	<g>
		<g>
			<path class="st53" d="M386.3,271h0.8l0.7,2.9l0.7-2.9h0.6l0.7,2.9l0.7-2.9h0.8l-1.2,4.1h-0.6l-0.7-2.7l-0.7,2.7h-0.6L386.3,271z"
				/>
			<path class="st53" d="M395.5,274c-0.2,0.4-0.4,0.7-0.8,0.9c-0.4,0.2-0.7,0.3-1.1,0.3h0c-0.6,0-1.1-0.2-1.5-0.6
				c-0.4-0.4-0.6-0.9-0.6-1.5c0-0.6,0.2-1.1,0.6-1.5c0.4-0.4,0.9-0.6,1.5-0.6c0.4,0,0.8,0.1,1.2,0.3c0.4,0.2,0.6,0.5,0.8,0.9l-0.9,0
				c-0.1-0.2-0.3-0.3-0.5-0.4c-0.2-0.1-0.4-0.1-0.6-0.1c-0.4,0-0.7,0.1-1,0.4c-0.3,0.3-0.4,0.6-0.4,1c0,0.4,0.1,0.7,0.4,1
				c0.3,0.3,0.6,0.4,1,0.4c0.2,0,0.4,0,0.6-0.1c0.2-0.1,0.3-0.2,0.5-0.4H395.5z"/>
		</g>
		<path class="st53" d="M390.7,279.8c-3.9,0-7-3.1-7-7c0-3.9,3.1-7,7-7c3.9,0,7,3.1,7,7C397.7,276.7,394.6,279.8,390.7,279.8z
			 M390.7,267.1c-3.1,0-5.7,2.6-5.7,5.7c0,3.1,2.6,5.7,5.7,5.7c3.1,0,5.7-2.6,5.7-5.7C396.4,269.7,393.9,267.1,390.7,267.1z"/>
	</g>
	<g>
		<path class="st54" d="M410.3,289.1c-4,0-7.2-3.2-7.2-7.2c0-4,3.2-7.2,7.2-7.2c4,0,7.2,3.2,7.2,7.2
			C417.5,285.9,414.3,289.1,410.3,289.1z M410.3,276c-3.2,0-5.9,2.6-5.9,5.9c0,3.2,2.6,5.9,5.9,5.9c3.2,0,5.9-2.6,5.9-5.9
			C416.2,278.7,413.5,276,410.3,276z"/>
		<polygon class="st54" points="408.1,279 406.1,283.1 410,283.1 		"/>
		<polygon class="st54" points="412,284.7 413.9,280.6 410,280.6 		"/>
	</g>
	<g>
		<path class="st54" d="M319.8,239.9c-4,0-7.2-3.2-7.2-7.2c0-4,3.2-7.2,7.2-7.2s7.2,3.2,7.2,7.2C327,236.7,323.8,239.9,319.8,239.9z
			 M319.8,226.8c-3.2,0-5.9,2.6-5.9,5.9c0,3.2,2.6,5.9,5.9,5.9s5.9-2.6,5.9-5.9C325.7,229.4,323,226.8,319.8,226.8z"/>
		<polygon class="st54" points="317.6,229.8 315.6,233.9 319.5,233.9 		"/>
		<polygon class="st54" points="321.5,235.5 323.4,231.3 319.5,231.3 		"/>
	</g>
	<polygon class="st55" points="231.1,526 215.9,538.1 231.1,538.1 	"/>
	<polygon class="st55" points="144.9,349.2 130.8,360.5 144.9,360.5 	"/>
	<polygon class="st55" points="154.2,297.6 140.2,308.9 154.2,308.9 	"/>
	<polygon class="st55" points="171.3,309.9 157.3,321.2 171.3,321.2 	"/>
	<polygon class="st55" points="269.2,241.2 255.2,252.5 269.2,252.5 	"/>
	<polygon class="st55" points="325.7,241.2 311.7,252.5 325.7,252.5 	"/>
	<polygon class="st55" points="397.8,376 383.7,387.3 397.8,387.3 	"/>
	<polygon class="st55" points="438.9,358 424.8,369.3 438.9,369.3 	"/>
	<g>
		<circle class="st56" cx="383.7" cy="536.9" r="1.7"/>
		<circle class="st56" cx="388.6" cy="532" r="1.7"/>
		<circle class="st56" cx="393.5" cy="527" r="1.7"/>
	</g>
	<g>
		<g>
			<path class="st56" d="M167.6,312.2h-0.5c-0.3,0-0.5-0.3-0.5-0.6c0-0.3,0.2-0.6,0.5-0.6h0.5c0.3,0,0.5,0.3,0.5,0.6
				C168.1,311.9,167.9,312.2,167.6,312.2z"/>
			<path class="st56" d="M335.3,312.2h-1c-0.3,0-0.5-0.3-0.5-0.6c0-0.3,0.2-0.6,0.5-0.6h1c0.3,0,0.5,0.3,0.5,0.6
				C335.8,311.9,335.6,312.2,335.3,312.2z M332.3,312.2h-1c-0.3,0-0.5-0.3-0.5-0.6c0-0.3,0.2-0.6,0.5-0.6h1c0.3,0,0.5,0.3,0.5,0.6
				C332.8,311.9,332.6,312.2,332.3,312.2z M329.3,312.2h-1c-0.3,0-0.5-0.3-0.5-0.6c0-0.3,0.2-0.6,0.5-0.6h1c0.3,0,0.5,0.3,0.5,0.6
				C329.8,311.9,329.6,312.2,329.3,312.2z M326.3,312.2h-1c-0.3,0-0.5-0.3-0.5-0.6c0-0.3,0.2-0.6,0.5-0.6h1c0.3,0,0.5,0.3,0.5,0.6
				C326.8,311.9,326.6,312.2,326.3,312.2z M323.3,312.2h-1c-0.3,0-0.5-0.3-0.5-0.6c0-0.3,0.2-0.6,0.5-0.6h1c0.3,0,0.5,0.3,0.5,0.6
				C323.8,311.9,323.6,312.2,323.3,312.2z M320.3,312.2h-1c-0.3,0-0.5-0.3-0.5-0.6c0-0.3,0.2-0.6,0.5-0.6h1c0.3,0,0.5,0.3,0.5,0.6
				C320.8,311.9,320.6,312.2,320.3,312.2z M317.3,312.2h-1c-0.3,0-0.5-0.3-0.5-0.6c0-0.3,0.2-0.6,0.5-0.6h1c0.3,0,0.5,0.3,0.5,0.6
				C317.8,311.9,317.6,312.2,317.3,312.2z M314.3,312.2h-1c-0.3,0-0.5-0.3-0.5-0.6c0-0.3,0.2-0.6,0.5-0.6h1c0.3,0,0.5,0.3,0.5,0.6
				C314.8,311.9,314.6,312.2,314.3,312.2z M311.3,312.2h-1c-0.3,0-0.5-0.3-0.5-0.6c0-0.3,0.2-0.6,0.5-0.6h1c0.3,0,0.5,0.3,0.5,0.6
				C311.8,311.9,311.6,312.2,311.3,312.2z M308.4,312.2h-1c-0.3,0-0.5-0.3-0.5-0.6c0-0.3,0.2-0.6,0.5-0.6h1c0.3,0,0.5,0.3,0.5,0.6
				C308.9,311.9,308.6,312.2,308.4,312.2z M305.4,312.2h-1c-0.3,0-0.5-0.3-0.5-0.6c0-0.3,0.2-0.6,0.5-0.6h1c0.3,0,0.5,0.3,0.5,0.6
				C305.9,311.9,305.6,312.2,305.4,312.2z M302.4,312.2h-1c-0.3,0-0.5-0.3-0.5-0.6c0-0.3,0.2-0.6,0.5-0.6h1c0.3,0,0.5,0.3,0.5,0.6
				C302.9,311.9,302.6,312.2,302.4,312.2z M299.4,312.2h-1c-0.3,0-0.5-0.3-0.5-0.6c0-0.3,0.2-0.6,0.5-0.6h1c0.3,0,0.5,0.3,0.5,0.6
				C299.9,311.9,299.6,312.2,299.4,312.2z M296.4,312.2h-1c-0.3,0-0.5-0.3-0.5-0.6c0-0.3,0.2-0.6,0.5-0.6h1c0.3,0,0.5,0.3,0.5,0.6
				C296.9,311.9,296.7,312.2,296.4,312.2z M293.4,312.2h-1c-0.3,0-0.5-0.3-0.5-0.6c0-0.3,0.2-0.6,0.5-0.6h1c0.3,0,0.5,0.3,0.5,0.6
				C293.9,311.9,293.7,312.2,293.4,312.2z M290.4,312.2h-1c-0.3,0-0.5-0.3-0.5-0.6c0-0.3,0.2-0.6,0.5-0.6h1c0.3,0,0.5,0.3,0.5,0.6
				C290.9,311.9,290.7,312.2,290.4,312.2z M287.4,312.2h-1c-0.3,0-0.5-0.3-0.5-0.6c0-0.3,0.2-0.6,0.5-0.6h1c0.3,0,0.5,0.3,0.5,0.6
				C287.9,311.9,287.7,312.2,287.4,312.2z M284.4,312.2h-1c-0.3,0-0.5-0.3-0.5-0.6c0-0.3,0.2-0.6,0.5-0.6h1c0.3,0,0.5,0.3,0.5,0.6
				C284.9,311.9,284.7,312.2,284.4,312.2z M281.4,312.2h-1c-0.3,0-0.5-0.3-0.5-0.6c0-0.3,0.2-0.6,0.5-0.6h1c0.3,0,0.5,0.3,0.5,0.6
				C281.9,311.9,281.7,312.2,281.4,312.2z M278.4,312.2h-1c-0.3,0-0.5-0.3-0.5-0.6c0-0.3,0.2-0.6,0.5-0.6h1c0.3,0,0.5,0.3,0.5,0.6
				C278.9,311.9,278.7,312.2,278.4,312.2z M275.4,312.2h-1c-0.3,0-0.5-0.3-0.5-0.6c0-0.3,0.2-0.6,0.5-0.6h1c0.3,0,0.5,0.3,0.5,0.6
				C275.9,311.9,275.7,312.2,275.4,312.2z M272.4,312.2h-1c-0.3,0-0.5-0.3-0.5-0.6c0-0.3,0.2-0.6,0.5-0.6h1c0.3,0,0.5,0.3,0.5,0.6
				C272.9,311.9,272.7,312.2,272.4,312.2z M269.4,312.2h-1c-0.3,0-0.5-0.3-0.5-0.6c0-0.3,0.2-0.6,0.5-0.6h1c0.3,0,0.5,0.3,0.5,0.6
				C269.9,311.9,269.7,312.2,269.4,312.2z M266.4,312.2h-1c-0.3,0-0.5-0.3-0.5-0.6c0-0.3,0.2-0.6,0.5-0.6h1c0.3,0,0.5,0.3,0.5,0.6
				C266.9,311.9,266.7,312.2,266.4,312.2z M263.4,312.2h-1c-0.3,0-0.5-0.3-0.5-0.6c0-0.3,0.2-0.6,0.5-0.6h1c0.3,0,0.5,0.3,0.5,0.6
				C263.9,311.9,263.7,312.2,263.4,312.2z M260.4,312.2h-1c-0.3,0-0.5-0.3-0.5-0.6c0-0.3,0.2-0.6,0.5-0.6h1c0.3,0,0.5,0.3,0.5,0.6
				C260.9,311.9,260.7,312.2,260.4,312.2z M257.4,312.2h-1c-0.3,0-0.5-0.3-0.5-0.6c0-0.3,0.2-0.6,0.5-0.6h1c0.3,0,0.5,0.3,0.5,0.6
				C258,311.9,257.7,312.2,257.4,312.2z M254.5,312.2h-1c-0.3,0-0.5-0.3-0.5-0.6c0-0.3,0.2-0.6,0.5-0.6h1c0.3,0,0.5,0.3,0.5,0.6
				C255,311.9,254.7,312.2,254.5,312.2z M251.5,312.2h-1c-0.3,0-0.5-0.3-0.5-0.6c0-0.3,0.2-0.6,0.5-0.6h1c0.3,0,0.5,0.3,0.5,0.6
				C252,311.9,251.7,312.2,251.5,312.2z M248.5,312.2h-1c-0.3,0-0.5-0.3-0.5-0.6c0-0.3,0.2-0.6,0.5-0.6h1c0.3,0,0.5,0.3,0.5,0.6
				C249,311.9,248.7,312.2,248.5,312.2z M245.5,312.2h-1c-0.3,0-0.5-0.3-0.5-0.6c0-0.3,0.2-0.6,0.5-0.6h1c0.3,0,0.5,0.3,0.5,0.6
				C246,311.9,245.7,312.2,245.5,312.2z M242.5,312.2h-1c-0.3,0-0.5-0.3-0.5-0.6c0-0.3,0.2-0.6,0.5-0.6h1c0.3,0,0.5,0.3,0.5,0.6
				C243,311.9,242.8,312.2,242.5,312.2z M239.5,312.2h-1c-0.3,0-0.5-0.3-0.5-0.6c0-0.3,0.2-0.6,0.5-0.6h1c0.3,0,0.5,0.3,0.5,0.6
				C240,311.9,239.8,312.2,239.5,312.2z M236.5,312.2h-1c-0.3,0-0.5-0.3-0.5-0.6c0-0.3,0.2-0.6,0.5-0.6h1c0.3,0,0.5,0.3,0.5,0.6
				C237,311.9,236.8,312.2,236.5,312.2z M233.5,312.2h-1c-0.3,0-0.5-0.3-0.5-0.6c0-0.3,0.2-0.6,0.5-0.6h1c0.3,0,0.5,0.3,0.5,0.6
				C234,311.9,233.8,312.2,233.5,312.2z M230.5,312.2h-1c-0.3,0-0.5-0.3-0.5-0.6c0-0.3,0.2-0.6,0.5-0.6h1c0.3,0,0.5,0.3,0.5,0.6
				C231,311.9,230.8,312.2,230.5,312.2z M227.5,312.2h-1c-0.3,0-0.5-0.3-0.5-0.6c0-0.3,0.2-0.6,0.5-0.6h1c0.3,0,0.5,0.3,0.5,0.6
				C228,311.9,227.8,312.2,227.5,312.2z M224.5,312.2h-1c-0.3,0-0.5-0.3-0.5-0.6c0-0.3,0.2-0.6,0.5-0.6h1c0.3,0,0.5,0.3,0.5,0.6
				C225,311.9,224.8,312.2,224.5,312.2z M221.5,312.2h-1c-0.3,0-0.5-0.3-0.5-0.6c0-0.3,0.2-0.6,0.5-0.6h1c0.3,0,0.5,0.3,0.5,0.6
				C222,311.9,221.8,312.2,221.5,312.2z M218.5,312.2h-1c-0.3,0-0.5-0.3-0.5-0.6c0-0.3,0.2-0.6,0.5-0.6h1c0.3,0,0.5,0.3,0.5,0.6
				C219,311.9,218.8,312.2,218.5,312.2z M215.5,312.2h-1c-0.3,0-0.5-0.3-0.5-0.6c0-0.3,0.2-0.6,0.5-0.6h1c0.3,0,0.5,0.3,0.5,0.6
				C216,311.9,215.8,312.2,215.5,312.2z M212.5,312.2h-1c-0.3,0-0.5-0.3-0.5-0.6c0-0.3,0.2-0.6,0.5-0.6h1c0.3,0,0.5,0.3,0.5,0.6
				C213,311.9,212.8,312.2,212.5,312.2z M209.5,312.2h-1c-0.3,0-0.5-0.3-0.5-0.6c0-0.3,0.2-0.6,0.5-0.6h1c0.3,0,0.5,0.3,0.5,0.6
				C210,311.9,209.8,312.2,209.5,312.2z M206.5,312.2h-1c-0.3,0-0.5-0.3-0.5-0.6c0-0.3,0.2-0.6,0.5-0.6h1c0.3,0,0.5,0.3,0.5,0.6
				C207,311.9,206.8,312.2,206.5,312.2z M203.6,312.2h-1c-0.3,0-0.5-0.3-0.5-0.6c0-0.3,0.2-0.6,0.5-0.6h1c0.3,0,0.5,0.3,0.5,0.6
				C204.1,311.9,203.8,312.2,203.6,312.2z M200.6,312.2h-1c-0.3,0-0.5-0.3-0.5-0.6c0-0.3,0.2-0.6,0.5-0.6h1c0.3,0,0.5,0.3,0.5,0.6
				C201.1,311.9,200.8,312.2,200.6,312.2z M197.6,312.2h-1c-0.3,0-0.5-0.3-0.5-0.6c0-0.3,0.2-0.6,0.5-0.6h1c0.3,0,0.5,0.3,0.5,0.6
				C198.1,311.9,197.8,312.2,197.6,312.2z M194.6,312.2h-1c-0.3,0-0.5-0.3-0.5-0.6c0-0.3,0.2-0.6,0.5-0.6h1c0.3,0,0.5,0.3,0.5,0.6
				C195.1,311.9,194.8,312.2,194.6,312.2z M191.6,312.2h-1c-0.3,0-0.5-0.3-0.5-0.6c0-0.3,0.2-0.6,0.5-0.6h1c0.3,0,0.5,0.3,0.5,0.6
				C192.1,311.9,191.9,312.2,191.6,312.2z M188.6,312.2h-1c-0.3,0-0.5-0.3-0.5-0.6c0-0.3,0.2-0.6,0.5-0.6h1c0.3,0,0.5,0.3,0.5,0.6
				C189.1,311.9,188.9,312.2,188.6,312.2z M185.6,312.2h-1c-0.3,0-0.5-0.3-0.5-0.6c0-0.3,0.2-0.6,0.5-0.6h1c0.3,0,0.5,0.3,0.5,0.6
				C186.1,311.9,185.9,312.2,185.6,312.2z M182.6,312.2h-1c-0.3,0-0.5-0.3-0.5-0.6c0-0.3,0.2-0.6,0.5-0.6h1c0.3,0,0.5,0.3,0.5,0.6
				C183.1,311.9,182.9,312.2,182.6,312.2z M179.6,312.2h-1c-0.3,0-0.5-0.3-0.5-0.6c0-0.3,0.2-0.6,0.5-0.6h1c0.3,0,0.5,0.3,0.5,0.6
				C180.1,311.9,179.9,312.2,179.6,312.2z M176.6,312.2h-1c-0.3,0-0.5-0.3-0.5-0.6c0-0.3,0.2-0.6,0.5-0.6h1c0.3,0,0.5,0.3,0.5,0.6
				C177.1,311.9,176.9,312.2,176.6,312.2z M173.6,312.2h-1c-0.3,0-0.5-0.3-0.5-0.6c0-0.3,0.2-0.6,0.5-0.6h1c0.3,0,0.5,0.3,0.5,0.6
				C174.1,311.9,173.9,312.2,173.6,312.2z M170.6,312.2h-1c-0.3,0-0.5-0.3-0.5-0.6c0-0.3,0.2-0.6,0.5-0.6h1c0.3,0,0.5,0.3,0.5,0.6
				C171.1,311.9,170.9,312.2,170.6,312.2z"/>
			<path class="st56" d="M337.8,312.2h-0.5c-0.3,0-0.5-0.3-0.5-0.6c0-0.3,0.2-0.6,0.5-0.6h0.5c0.3,0,0.5,0.3,0.5,0.6
				C338.3,311.9,338.1,312.2,337.8,312.2z"/>
		</g>
		<g>
			<path class="st56" d="M323.9,296.2h-0.5c-0.3,0-0.5-0.3-0.5-0.6c0-0.3,0.2-0.6,0.5-0.6h0.5c0.3,0,0.5,0.3,0.5,0.6
				C324.4,296,324.1,296.2,323.9,296.2z"/>
			<path class="st56" d="M333.7,296.2h-1.1c-0.3,0-0.5-0.3-0.5-0.6c0-0.3,0.2-0.6,0.5-0.6h1.1c0.3,0,0.5,0.3,0.5,0.6
				C334.2,296,334,296.2,333.7,296.2z M330.4,296.2h-1.1c-0.3,0-0.5-0.3-0.5-0.6c0-0.3,0.2-0.6,0.5-0.6h1.1c0.3,0,0.5,0.3,0.5,0.6
				C330.9,296,330.7,296.2,330.4,296.2z M327.1,296.2h-1.1c-0.3,0-0.5-0.3-0.5-0.6c0-0.3,0.2-0.6,0.5-0.6h1.1c0.3,0,0.5,0.3,0.5,0.6
				C327.7,296,327.4,296.2,327.1,296.2z"/>
			<path class="st56" d="M336.4,296.8c-0.3,0-0.5-0.3-0.5-0.6c-0.3,0-0.5-0.3-0.5-0.6c0-0.3,0.2-0.6,0.5-0.6h1v1.2
				C336.9,296.6,336.7,296.8,336.4,296.8z"/>
			<path class="st56" d="M336.4,308.9c-0.3,0-0.5-0.3-0.5-0.6v-1.3c0-0.3,0.2-0.6,0.5-0.6s0.5,0.3,0.5,0.6v1.3
				C336.9,308.6,336.7,308.9,336.4,308.9z M336.4,304.9c-0.3,0-0.5-0.3-0.5-0.6v-1.3c0-0.3,0.2-0.6,0.5-0.6s0.5,0.3,0.5,0.6v1.3
				C336.9,304.6,336.7,304.9,336.4,304.9z M336.4,300.9c-0.3,0-0.5-0.3-0.5-0.6v-1.3c0-0.3,0.2-0.6,0.5-0.6s0.5,0.3,0.5,0.6v1.3
				C336.9,300.6,336.7,300.9,336.4,300.9z"/>
			<path class="st56" d="M336.4,312.2c-0.3,0-0.5-0.3-0.5-0.6v-0.6c0-0.3,0.2-0.6,0.5-0.6s0.5,0.3,0.5,0.6v0.6
				C336.9,311.9,336.7,312.2,336.4,312.2z"/>
		</g>
	</g>
	<g>
		<path class="st57" d="M152.4,324.6H142c-0.5,0-0.9-0.4-0.9-0.9v-7.4c0-0.5,0.4-0.9,0.9-0.9h10.4c0.5,0,0.9,0.4,0.9,0.9v7.4
			C153.4,324.2,152.9,324.6,152.4,324.6z"/>
		<polygon class="st17" points="150.5,319.1 148.1,319.1 148.1,316.7 146.4,316.7 146.4,319.1 143.9,319.1 143.9,320.8 146.4,320.8 
			146.4,323.2 148.1,323.2 148.1,320.8 150.5,320.8 		"/>
		<path class="st58" d="M150.7,315.3h-0.9v-1.6l-5,0l0,1.6h-0.9v-1.6c0-0.5,0.4-0.9,0.9-0.9h5c0.5,0,0.9,0.4,0.9,0.9V315.3z"/>
	</g>
	<g>
		<path class="st57" d="M681.4,540.7h-15.8c-0.5,0-0.9-0.4-0.9-0.9v-11.5c0-0.5,0.4-0.9,0.9-0.9h15.8c0.5,0,0.9,0.4,0.9,0.9v11.5
			C682.3,540.2,681.9,540.7,681.4,540.7z"/>
		<polygon class="st17" points="678.2,532.8 674.7,532.8 674.7,529.2 672.3,529.2 672.3,532.8 668.7,532.8 668.7,535.2 672.3,535.2 
			672.3,538.7 674.7,538.7 674.7,535.2 678.2,535.2 		"/>
		<path class="st58" d="M678.4,527.3h-1.2V525l-7.2,0l0,2.3h-1.2V525c0-0.7,0.6-1.2,1.3-1.2h7.2c0.7,0,1.3,0.5,1.3,1.2V527.3z"/>
	</g>
</g>
<g id="文字資訊">
</g>
<g id="樓層位置">
</g>
<g id="輸出佈置" class="st68">
	<text transform="matrix(1 0 0 1 389.604 48.9598)" class="st70 st30 st82">12個旗座</text>
</g>
<g id="指標" class="st68">
	<path class="st84" d="M329.2,300.6H168.1c-1.3,0-2.4,1.1-2.4,2.4v0.5c0,1.3,1.1,2.4,2.4,2.4h161.1c1.3,0,2.4-1.1,2.4-2.4v-0.5
		C331.5,301.6,330.5,300.6,329.2,300.6z"/>
	<circle class="st85" cx="335.2" cy="292.4" r="4.3"/>
	<circle class="st85" cx="350.7" cy="300.6" r="4.3"/>
	<circle class="st85" cx="378.8" cy="354.1" r="4.3"/>
	<circle class="st85" cx="358.7" cy="339.9" r="4.3"/>
	<circle class="st85" cx="394.5" cy="371.3" r="4.3"/>
	<circle class="st85" cx="410.1" cy="375.6" r="4.3"/>
	<circle class="st85" cx="341.6" cy="321" r="4.3"/>
	<circle class="st85" cx="159.2" cy="309.9" r="4.3"/>
	<circle class="st85" cx="164.6" cy="333.4" r="4.3"/>
	<circle class="st85" cx="146.5" cy="347.2" r="4.3"/>
	<circle class="st85" cx="162.8" cy="357.4" r="4.3"/>
	<circle class="st85" cx="367.4" cy="372.4" r="4.3"/>
</g>
</svg>
