<?xml version="1.0" encoding="utf-8"?>
<!-- Generator: Adobe Illustrator 27.7.0, SVG Export Plug-In . SVG Version: 6.00 Build 0)  -->
<svg version="1.0" xmlns="http://www.w3.org/2000/svg" xmlns:xlink="http://www.w3.org/1999/xlink" x="0px" y="0px"
	 viewBox="0 0 841.9 595.3" style="enable-background:new 0 0 841.9 595.3;" xml:space="preserve">
<style type="text/css">
	.st0{fill:none;stroke:#B3B3B3;stroke-width:4.4344;stroke-linecap:round;stroke-miterlimit:10;}
	.st1{fill:#E6E6E6;}
	.st2{fill:#FFFEFF;}
	.st3{fill:#B3B3B3;}
	.st4{fill:none;stroke:#B3B3B3;stroke-width:4.4344;stroke-miterlimit:10;}
	.st5{fill:none;stroke:#FFFEFF;stroke-width:3;stroke-miterlimit:10;}
	.st6{fill:#3B9838;}
	.st7{fill:none;stroke:#FFFFFF;stroke-width:2;stroke-linecap:round;stroke-linejoin:bevel;}
	.st8{opacity:0.73;}
	.st9{fill:#EAEAEA;stroke:#FFFFFF;stroke-width:2;stroke-linecap:round;stroke-linejoin:bevel;}
	.st10{fill:#EAEAEA;stroke:#FFFFFF;stroke-width:5;stroke-linecap:round;stroke-linejoin:bevel;}
	.st11{font-family:'NotoSansCJKtc-Medium-B5pc-H';}
	.st12{font-size:24px;}
	.st13{fill:#579B57;}
	.st14{opacity:0.1;fill:#70931B;}
	.st15{fill:none;stroke:#FFFEFF;stroke-miterlimit:10;}
	.st16{fill:#C1272D;}
	.st17{fill:#30AF00;}
	.st18{fill:#0076CB;}
	.st19{fill:#FFFFFF;}
	.st20{fill:#008061;}
	.st21{fill:#F5821F;}
	.st22{fill:#ED1B2D;}
	.st23{fill:#12344C;}
	.st24{opacity:0.5;fill:url(#SVGID_1_);}
	.st25{opacity:0.5;fill:url(#SVGID_00000031181816093275536800000000970653649229342134_);}
	.st26{fill:#E98025;}
	.st27{fill:#0071BC;}
	.st28{font-family:'NotoSansMonoCJKtc-Regular-B5pc-H';}
	.st29{font-size:14.7934px;}
	.st30{fill:#808080;}
	.st31{fill:#FFE9BA;}
	.st32{fill:#3E3D4D;}
	.st33{fill:#BCC4C6;}
	.st34{fill:#D24635;}
	.st35{fill:#FCF3EE;}
	.st36{fill:#E8C72E;}
	.st37{fill:#E0A911;}
	.st38{font-family:'GenSenRoundedTW-B';}
	.st39{font-size:12px;}
	.st40{font-family:'GenSenRoundedTW-R';}
	.st41{font-size:9px;}
	.st42{opacity:0.2;fill:none;stroke:#70931B;stroke-width:2;stroke-miterlimit:10;stroke-dasharray:4,4;}
	.st43{font-family:'NotoSansCJKtc-Bold-B5pc-H';}
	.st44{font-size:16.569px;}
	.st45{font-size:12.8777px;}
	.st46{opacity:0.2;fill:none;stroke:#70931B;stroke-width:1.78;stroke-miterlimit:10;stroke-dasharray:3.56,3.56;}
	.st47{fill:#EE2041;}
	.st48{fill-rule:evenodd;clip-rule:evenodd;fill:#FFFFFF;}
	.st49{fill:#0074A9;}
	.st50{fill:#EB6101;}
	.st51{fill:#E4007F;}
	.st52{fill:#EB6877;}
	.st53{fill:#CC0000;}
	.st54{fill:#474747;}
	.st55{font-size:20.6523px;}
	.st56{font-family:'MicrosoftJhengHeiBold';}
	.st57{font-size:17px;}
	.st58{font-size:10px;}
	.st59{fill:#6B6B6B;}
	.st60{opacity:0.8;}
	.st61{fill:none;stroke:#3B9838;stroke-width:3;stroke-miterlimit:10;}
	.st62{fill-rule:evenodd;clip-rule:evenodd;fill:#040000;}
	.st63{fill:#040000;}
	.st64{fill:none;stroke:#040000;stroke-width:0.75;stroke-linejoin:round;stroke-miterlimit:8;}
	
		.st65{opacity:0;fill-rule:evenodd;clip-rule:evenodd;fill:none;stroke:#040000;stroke-width:0.75;stroke-linejoin:round;stroke-miterlimit:8;}
	
		.st66{fill-rule:evenodd;clip-rule:evenodd;fill:none;stroke:#040000;stroke-width:0.75;stroke-linejoin:round;stroke-miterlimit:8;}
	.st67{fill:#E2E2E2;stroke:#040000;stroke-width:0.75;stroke-linejoin:round;stroke-miterlimit:8;}
	
		.st68{fill-rule:evenodd;clip-rule:evenodd;fill:#E2E2E2;stroke:#040000;stroke-width:0.75;stroke-linejoin:round;stroke-miterlimit:8;}
	.st69{font-size:43px;}
	.st70{display:none;}
	.st71{display:inline;fill:none;stroke:#F90000;stroke-width:8;stroke-miterlimit:10;}
	.st72{display:inline;fill:#F90000;}
	.st73{font-size:10.7118px;}
	.st74{display:inline;}
	.st75{fill:#F90000;}
	.st76{display:inline;fill:none;stroke:#000000;stroke-miterlimit:10;}
	.st77{font-family:'NotoSansCJKtc-Thin-B5pc-H';}
	.st78{font-size:9.3394px;}
	.st79{font-size:9.7871px;}
	.st80{font-size:32.8161px;}
	.st81{font-size:12.2339px;glyph-orientation-vertical:0;writing-mode:tb;}
	.st82{font-family:'SourceHanSansTW-Medium-B5pc-H';}
	.st83{display:inline;fill:none;stroke:#232323;stroke-miterlimit:10;}
	.st84{display:inline;fill:none;stroke:#F90000;stroke-width:3;stroke-miterlimit:10;}
	.st85{display:inline;fill:#FFFEFF;}
	.st86{display:inline;fill:none;stroke:#B3B3B3;stroke-width:4.4344;stroke-linecap:round;stroke-miterlimit:10;}
	.st87{display:inline;fill:#E6E6E6;}
	.st88{display:inline;fill:#B3B3B3;}
	.st89{display:inline;fill:none;stroke:#B3B3B3;stroke-width:4.4344;stroke-miterlimit:10;}
	.st90{display:inline;opacity:0.2;fill:none;stroke:#70931B;stroke-width:2;stroke-miterlimit:10;stroke-dasharray:4,4;}
	.st91{display:inline;fill:none;stroke:#333131;stroke-miterlimit:10;}
	.st92{fill:none;stroke:#000000;stroke-miterlimit:10;}
	.st93{display:inline;fill:#F5EB31;stroke:#231815;stroke-miterlimit:10;}
	.st94{display:inline;fill:#BE611C;stroke:#231815;stroke-miterlimit:10;}
</style>
<g id="建築">
	<polyline class="st0" points="541.3,224.2 571.9,224.2 571.9,278.4 802,278.4 802,69.2 587.1,69.2 571.9,69.2 336.1,69.2 
		336.1,69.2 49.8,69.2 49.8,278.4 336.1,278.4 336.1,224.2 412.1,224.2 	"/>
	<rect x="56.8" y="82.9" class="st1" width="135.7" height="93.2"/>
	<rect x="195.3" y="82.9" class="st1" width="124.2" height="93.2"/>
	<rect x="322.4" y="82.9" class="st1" width="136" height="93.2"/>
	<rect x="461.2" y="82.9" class="st1" width="117.3" height="93.2"/>
	<rect x="581.4" y="82.9" class="st1" width="82.7" height="93.2"/>
	<polygon class="st1" points="795.4,75.3 795.4,176.1 667,176.1 667,82.9 751.6,82.9 751.6,75.3 	"/>
	<g>
		<rect x="601.4" y="211.9" class="st1" width="43.7" height="14.5"/>
		<polygon class="st1" points="646.1,229.3 646.1,272.2 579.5,272.2 579.5,210.4 598.5,210.4 598.5,229.3 		"/>
	</g>
	<rect x="213.5" y="210.9" class="st1" width="33.9" height="15.5"/>
	<polygon class="st1" points="210.6,229.3 247.8,229.3 247.8,272.2 173,272.2 173,210.4 210.6,210.4 	"/>
	<rect x="250.7" y="210.4" class="st1" width="75.4" height="61.8"/>
	<rect x="648.8" y="247" class="st1" width="27.4" height="25.2"/>
	<rect x="679.1" y="210.4" class="st1" width="69.2" height="61.8"/>
	<rect x="751.2" y="210.4" class="st1" width="44.2" height="61.8"/>
	<rect x="56.3" y="219" class="st1" width="85.6" height="53.3"/>
	<rect x="144.7" y="247.5" class="st1" width="25.2" height="24.7"/>
	<rect x="748.3" y="272.2" class="st2" width="2.9" height="0.2"/>
	<rect x="250.2" y="209.8" class="st2" width="0.4" height="0.6"/>
	
		<rect x="565.3" y="212.4" transform="matrix(-1 -1.224647e-16 1.224647e-16 -1 1139.2333 435.8999)" class="st3" width="8.6" height="11.2"/>
	<line class="st0" x1="491.6" y1="224.2" x2="455.5" y2="224.2"/>
	<g>
		<text transform="matrix(1 0 0 1 163.8618 54.0324)" class="st6 st11 st12">TR Building</text>
	</g>
</g>
<g id="標示">
	<text transform="matrix(1 0 0 1 697.4188 260.3975)" class="st23 st28 st29">Toilet</text>
	<g id="o3AOjT_00000181065522027545791630000003879297803953879721_">
		<g>
			<g>
				<path class="st23" d="M715.1,228.4c0.4-0.4,0.8-0.7,1.1-1.1c0.5-0.6,1.1-0.5,1.4,0.2c1.5,3.8,2.9,7.6,4.4,11.4
					c0.3,0.8-0.2,1.5-1,1.6c-0.2,0-0.4,0-0.6,0c-3.4,0-6.9,0-10.3,0c-0.2,0-0.4,0-0.6,0c-1-0.1-1.4-0.8-1.1-1.7
					c0.7-1.9,1.5-3.9,2.2-5.8c0.7-1.8,1.4-3.6,2.1-5.4c0.3-0.7,0.8-0.8,1.4-0.3C714.5,227.7,714.8,228.1,715.1,228.4z"/>
				<path class="st23" d="M715.2,226c-2.1,0-3.9-1.6-3.8-3.9c0-2.1,1.6-3.8,3.9-3.8c2.1,0,3.8,1.7,3.8,3.8
					C719.1,224.3,717.3,226,715.2,226z"/>
			</g>
		</g>
	</g>
	<g id="s8VYHe_00000145754914235520103540000000741890679947784578_">
		<g>
			<path class="st26" d="M663.5,242.7c1.4,0,2.8,0,4.1,0c0.5,0,0.9,0.3,1,0.8c0.1,0.6-0.3,1.1-1,1.1c-1,0-1.9,0-2.9,0
				c-0.2,0-0.2,0-0.2,0.2c0,0.9,0,1.8,0,2.7c0,0.1,0,0.2,0.2,0.2c0.5,0,0.9,0.5,1,1c0,0.2,0,0.2,0.2,0.2c1.3,0,2.6,0,3.9,0
				c0.2,0,0.2,0,0.2-0.2c0-0.8,0-1.6,0-2.5c0-0.4,0.2-0.6,0.7-0.6c0.3,0,0.6,0,1,0c0.1,0,0.1,0,0.2,0.2c0,0.5,0,1.1,0,1.6
				c0,0.5,0,0.9,0,1.4c0,0.5,0,1.1,0,1.6c0,0.5,0,1,0,1.6c0,0.2,0,0.4,0,0.6c0,0.5,0,1,0,1.6c0,0.3,0,0.5,0,0.8c0,0.2,0,0.2-0.2,0.2
				c-0.3,0-0.6,0-1,0c-0.4,0-0.6-0.2-0.6-0.6c0-0.8,0-1.7,0-2.5c0-0.2,0-0.2-0.2-0.2c-0.5,0-1.1,0-1.6,0c-0.5,0-1,0-1.4,0
				c-0.3,0-0.6,0-0.8,0c-0.2,0-0.2,0-0.2,0.2c-0.1,0.6-0.6,1-1.2,1c-0.6,0-1.3,0-1.9,0c-0.6,0-1.1-0.4-1.2-1c0-0.1-0.1-0.1-0.2-0.1
				c-0.3,0-0.7,0-1,0c-0.6,0-1.2,0-1.8,0c-0.2,0-0.5,0-0.7,0.1c-0.5,0.2-0.9,0.7-0.9,1.3c0,0.5,0,1,0,1.6c0,0.6,0,1.1,0,1.7
				c0,0.1,0,0.1-0.1,0.1c-0.9,0-1.9,0-2.8,0c-0.1,0-0.1-0.1-0.1-0.2c0-0.5,0-1,0-1.5c0-0.8,0-1.6,0-2.4c0-0.6,0.2-1.1,0.5-1.5
				c0.6-0.9,1.5-1.5,2.5-1.8c0.7-0.2,1.4-0.3,2.1-0.3c0.8,0,1.6,0,2.4,0c0.1,0,0.2,0,0.2-0.1c0.1-0.6,0.5-1,1-1
				c0.1,0,0.1-0.1,0.1-0.2c0-0.9,0-1.9,0-2.8c0-0.1,0-0.2-0.2-0.2c-1,0-1.9,0-2.9,0c-0.5,0-0.8-0.3-1-0.7c-0.2-0.6,0.3-1.2,0.9-1.2
				c0.8,0,1.5,0,2.3,0C662.2,242.7,662.9,242.7,663.5,242.7C663.5,242.7,663.5,242.7,663.5,242.7z"/>
			<path class="st26" d="M655,259.2c1.6,0,3.2,0,4.8,0c0.2,0,0.2,0,0.2,0.2c-0.1,0.9-0.2,1.8-0.3,2.7c-0.1,0.9-0.2,1.8-0.3,2.7
				c-0.1,0.7-0.2,1.4-0.2,2.1c0,0.5-0.1,1-0.2,1.6c-0.1,0.8-0.2,1.6-0.3,2.4c0,0.2,0,0.2-0.2,0.2c-0.5,0-1,0-1.5,0c-0.5,0-1,0-1.6,0
				c-0.5,0-1.1,0-1.6,0c-0.2,0-0.4,0-0.6,0c-0.5,0-1.1,0-1.6,0c-0.1,0-0.2,0-0.2-0.1c-0.1-0.7-0.2-1.3-0.2-2
				c-0.1-0.7-0.2-1.4-0.2-2.2c-0.1-0.5-0.1-1.1-0.2-1.6c-0.1-0.7-0.2-1.4-0.2-2.2c-0.1-0.6-0.1-1.1-0.2-1.7c-0.1-0.7-0.1-1.3-0.2-2
				c0-0.1,0.1-0.1,0.2-0.1c0.8,0,1.7,0,2.5,0C653.5,259.2,654.3,259.2,655,259.2C655,259.2,655,259.2,655,259.2z M655.1,262.6
				c1.1,0,2.2,0,3.4,0c0.1,0,0.2,0,0.2-0.2c0.1-0.6,0.1-1.3,0.2-1.9c0-0.2,0-0.2-0.2-0.2c-0.6,0-1.2,0-1.8,0c-0.2,0-0.5,0-0.7,0
				c-0.5,0-1,0-1.6,0c-0.5,0-1,0-1.6,0c-0.5,0-1,0-1.6,0c-0.2,0-0.2,0-0.2,0.2c0,0.3,0.1,0.6,0.1,1c0,0.3,0.1,0.6,0.1,1
				c0,0.1,0.1,0.2,0.2,0.2c0.1,0,0.1,0,0.2,0C653,262.6,654,262.6,655.1,262.6z"/>
		</g>
	</g>
	<g id="BbVIEC_00000044873841191634841430000001225632239567369654_">
		<g>
			<g>
				<path class="st30" d="M599.2,262.6c0-8.3,0-16.5,0-24.8c0-0.5,0.1-0.5,0.5-0.5c1.5,0,3,0,4.5,0c0.3,0.2,0.3,0.5,0.3,0.8
					c0,1.2,0,2.4,0,3.6c0,0.6,0.1,0.8,0.8,0.8c1.2,0,2.4,0,3.6,0c0.8,0,0.9,0.1,0.9,0.9c0,1.2,0,2.3,0,3.5c0,0.8,0.1,0.9,0.9,0.9
					c1.2,0,2.4,0,3.6,0c0.6,0,0.8,0.2,0.8,0.8c0,1.2,0,2.4,0,3.6c0,0.7,0.1,0.8,0.8,0.8c1.2,0,2.3,0,3.5,0c0.9,0,1,0.1,1,1
					c0,1.2,0,2.3,0,3.5c0,0.7,0.1,0.8,0.9,0.8c1.2,0,2.4,0,3.6,0c0.7,0,0.8,0.2,0.8,0.8c0,1.1,0,2.3,0,3.4c0,1.1-0.1,1.1-1.1,1.1
					c-7.7,0-15.5,0-23.2,0C600.4,263.7,599.7,263.4,599.2,262.6z M605.6,254.7C605.6,254.7,605.6,254.7,605.6,254.7
					c0,0.7,0,1.4,0,2.2c0,0.6,0.4,0.6,0.8,0.6c0.4,0,0.8,0,0.8-0.6c0-0.4,0-0.9,0-1.3c0-0.2-0.1-0.4,0.1-0.5
					c0.2-0.1,0.3,0.1,0.4,0.2c1.3,1.2,2.5,2.5,3.7,3.7c0.6,0.6,0.7,0.6,1.2,0.1c0.5-0.5,0.5-0.7-0.1-1.2c-0.1-0.1-0.2-0.2-0.4-0.4
					c-1.1-1.1-2.3-2.3-3.4-3.4c-0.1-0.1-0.3-0.2-0.2-0.4c0.1-0.1,0.2-0.1,0.4-0.1c0.4,0,0.9,0,1.3,0c0.5,0,0.7-0.2,0.7-0.7
					c0-0.7-0.1-0.9-0.7-0.9c-1.4,0-2.7,0-4.1,0c-0.5,0-0.7,0.2-0.7,0.7C605.6,253.3,605.6,254,605.6,254.7z"/>
				<path class="st30" d="M620.1,244.9c0-0.7,0-1.2,0-1.7c0-0.6,0.2-0.8,0.8-0.8c0.7,0,1,0.1,1.1,0.7c0,1.4,0,2.9,0,4.3
					c0,0.5-0.3,0.7-0.8,0.7c-1.4,0-2.8,0-4.2,0c-0.6,0-0.8-0.3-0.8-1c0-0.7,0.2-0.9,0.8-0.9c0.5,0,1,0,1.5,0
					c0.1-0.3-0.2-0.4-0.3-0.6c-1.2-1.2-2.3-2.3-3.5-3.5c-0.7-0.7-0.5-1.4,0.4-1.8c0.4-0.2,0.6,0.1,0.8,0.3c1.2,1.2,2.4,2.4,3.6,3.6
					C619.7,244.5,619.8,244.7,620.1,244.9z"/>
			</g>
		</g>
	</g>
	<g>
		<path class="st31" d="M72.4,195.3c-4.2,0-7.6,2.7-7.5,3.1c0.7,3.4,3.7,5.9,7.4,5.9c3.7,0,6.7-2.5,7.4-5.9
			C79.9,198,76.6,195.3,72.4,195.3z"/>
		<g>
			<g>
				<g>
					<path class="st32" d="M68.2,200.8c1.7,0,3.2-1.1,3.5-2.6c-0.6-1.2-1.9-2-3.4-2c-1.5,0-2.8,0.8-3.4,1.9
						C65.1,199.6,66.5,200.8,68.2,200.8z"/>
				</g>
			</g>
			<path class="st33" d="M68.9,196.2c0,0,0.3,1.1,0.3,1.8c0,0.7-0.1,2.5-0.1,2.5s1-0.5,1.3-1.5C70.8,197.9,70.5,196.4,68.9,196.2z"
				/>
			<path class="st32" d="M79.4,197.9c0,0.1,0,0.2,0,0.3c-0.4,1.3-2.4,2.5-2.4,2.5s0.1-1.8,0.1-2.5c0-0.7-0.3-1.8-0.3-1.8
				c0.3,0,0.6,0.1,0.8,0.2c-0.4-0.1-0.8-0.2-1.2-0.2c-1.5,0-2.8,0.8-3.4,1.9c0.2,1.5,1.6,2.7,3.3,2.7c1.7,0,3.2-1.1,3.5-2.6
				C79.6,198.2,79.5,198.1,79.4,197.9z"/>
			<path class="st33" d="M77.1,198.2c0,0.7-0.1,2.5-0.1,2.5s2-1.2,2.4-2.5c0-0.1,0-0.2,0-0.3c-0.4-0.6-1.1-1-1.8-1.3
				c-0.3-0.1-0.5-0.1-0.8-0.2C76.8,196.4,77.1,197.5,77.1,198.2z"/>
			<path class="st34" d="M81.1,190.6c0-0.1,0-0.2,0-0.3c0-0.1-0.1-0.2-0.2-0.1l-2.5,0.5c0,0,0,0,0,0c0.5-0.5,1.1-2.5,1.2-3
				c0.1-0.3,0.1-0.6,0.1-0.7c0-0.1-0.1-0.1-0.2-0.1l-3.5,1.2c0.1-0.5,0-3-0.1-3.6c0-0.2-0.2-0.3-0.2-0.3c0,0-0.1,0-0.1,0l-4.7,3.9
				c-3.9,0.7-6.9,4.2-6.9,8.5c0,4.7,3.7,8.6,8.4,8.6c4.6,0,8.4-3.8,8.4-8.6c0-1.1-0.2-2.2-0.6-3.1c0-0.2,0.1-0.3,0.3-0.6
				C80.8,192.1,81.1,191,81.1,190.6z M79.8,198.5c-0.7,3.4-3.7,5.9-7.4,5.9c-3.7,0-6.8-2.6-7.4-5.9c-0.1-0.4,3.3-3.1,7.5-3.1
				S79.9,198,79.8,198.5z"/>
		</g>
		<g>
			<circle class="st35" cx="68.7" cy="192.2" r="2.5"/>
			<g>
				<path class="st32" d="M69.9,191.2c0,0.4-0.4,0.7-0.8,0.7c-0.4,0-0.8-0.3-0.8-0.8c0-0.2,0.1-0.4,0.2-0.5
					c-0.8,0.1-1.4,0.7-1.4,1.6c0,0.9,0.7,1.6,1.6,1.6s1.6-0.7,1.6-1.6C70.3,191.9,70.2,191.5,69.9,191.2z"/>
			</g>
		</g>
		<g>
			<circle class="st35" cx="76.2" cy="192.5" r="2.5"/>
			<g>
				<path class="st32" d="M75,191.5c0,0.4,0.4,0.7,0.8,0.7c0.4,0,0.8-0.3,0.8-0.8c0-0.2-0.1-0.4-0.2-0.5c0.8,0.1,1.4,0.7,1.4,1.6
					c0,0.9-0.7,1.6-1.6,1.6s-1.6-0.7-1.6-1.6C74.6,192.1,74.7,191.7,75,191.5z"/>
			</g>
		</g>
		<g>
			<path class="st36" d="M79.1,196.9c-0.1-0.4-0.6-0.8-1.9-1.3c-0.9-0.4-3.1-1.3-4.1-1.6c-0.3-0.1-0.6-0.1-0.9,0
				c-0.9,0.3-3.1,0.9-4.1,1.3c-1.2,0.5-1.8,0.7-1.9,1.1c-0.1,0.3,0,0.6,0.3,0.9c0.3,0.3,2.3,2.1,2.9,2.6s2,1.5,2.3,1.7
				c0.2,0.1,0.5,0.2,0.7,0.3l0,0c0,0,0,0,0,0c0.1,0,0.4,0,0.5,0c0,0,0,0,0,0l0,0c0.2,0,0.5-0.2,0.7-0.3c0.3-0.2,1.8-1.2,2.4-1.7
				c0.6-0.5,2.4-1.8,2.6-2.1C79,197.5,79.2,197.2,79.1,196.9z"/>
			<path class="st37" d="M72.8,194.5c0,0,0,0.1,0.1,0.1c0.1,0.1,0.1,0.2,0.1,0.2s0.1,1.6,0,2.9s-0.2,3.4-0.2,3.4s0.4-3,0.5-3.5
				c0.1-0.5,0.3-2.3,0.2-2.5S73.2,194.5,72.8,194.5z"/>
		</g>
	</g>
	<g>
		<g>
			<path class="st23" d="M96.8,234.2c0,0.3-0.3,0.4-0.3,0.7c0,0.2,0.1,0.4,0.3,0.6c0.5,0.3,0.5,0.8,0.4,1.3
				c-0.2,1.5-0.3,2.9-0.5,4.4c-0.1,0.6,0.3,0.9,0.5,1.4c0.9-0.8,0.6-1.7,0.5-2.6c-0.1-1.2-0.3-2.3-0.4-3.5c0-0.4,0-0.6,0.3-0.9
				c0.2-0.1,0.4-0.3,0.5-0.6c-0.1-0.2-0.3-0.4-0.4-0.6c0.1-0.2,0.3-0.2,0.5-0.2c1,0,2,0,3,0c1.5,0,2.5,1.4,2,2.8
				c-0.9,2.4-1.8,4.7-2.7,7c-0.4,1-0.7,2-1.2,2.9c-0.5,0.8-1.4,1.1-2.3,0.9c-1.1-0.2-1.6-0.9-2-1.9c-0.8-2.1-1.6-4.1-2.4-6.2
				c-0.4-1-0.7-1.9-1.1-2.9c-0.5-1.4,0.4-2.8,1.9-2.8C94.4,234.2,95.6,234.2,96.8,234.2z"/>
			<path class="st23" d="M97.3,233.6c-2.3,0-4.1-1.7-4.1-3.9c0-2.2,1.7-4,3.9-4c2.2,0,4,1.7,4.1,3.9
				C101.2,231.4,99.8,233.4,97.3,233.6z"/>
		</g>
	</g>
	<text transform="matrix(1 0 0 1 78.8943 263.6074)" class="st23 st28 st29">Toilet</text>
	<g id="mGfqoG_00000176755958755038265900000009637447765964351634_">
		<g>
			<path class="st27" d="M276.2,230.8c0,1.7,0,3.4,0,5.1c0,2.1-1.4,3.4-3.5,3.5c-3.4,0-6.8,0-10.2,0c-2.2,0-3.5-1.4-3.5-3.5
				c0-3.4,0-6.8,0-10.1c0-2.2,1.4-3.6,3.6-3.6c3.4,0,6.7,0,10.1,0c2.2,0,3.6,1.4,3.6,3.6c0,0.8,0,1.7,0,2.5
				C276.2,229.1,276.2,229.9,276.2,230.8z M267.6,223.3C267.6,223.3,267.6,223.3,267.6,223.3c-1.7,0-3.4,0-5.1,0
				c-1.5,0-2.3,0.8-2.3,2.3c0,3.4,0,6.7,0,10.1c0,1.5,0.8,2.4,2.3,2.4c3.4,0,6.9,0,10.3,0c1.4,0,2.3-0.9,2.3-2.3c0-3.4,0-6.9,0-10.3
				c0-1.4-0.9-2.2-2.3-2.2C271,223.3,269.3,223.3,267.6,223.3z"/>
			<path class="st27" d="M263,218.7c0-0.8,0-1.5,0-2.3c0-0.4,0-0.8,0-1.2c0-0.7,0.2-1.1,0.7-1.1c0.4,0,0.7,0.4,0.7,1.1
				c0,0.9,0,1.9,0,2.8c0,0.2-0.1,0.4,0.1,0.5c0.2,0.1,0.3-0.2,0.4-0.3c0.4-0.4,0.7-0.7,1.1-1.1c0.3-0.3,0.6-0.3,0.9,0
				c0.3,0.3,0.4,0.6,0.1,0.9c-1,1.1-2,2.1-3,3.1c-0.2,0.2-0.6,0.2-0.8-0.1c-0.9-1-1.9-2-2.8-3c-0.3-0.3-0.2-0.7,0.1-1
				c0.3-0.3,0.6-0.2,0.9,0.1c0.5,0.5,0.9,1,1.4,1.5C262.9,218.7,262.9,218.7,263,218.7z"/>
			<path class="st27" d="M270.7,216.6c-0.6,0.6-1,1-1.4,1.5c-0.4,0.4-0.7,0.5-1.1,0.2c-0.3-0.3-0.3-0.7,0.1-1.1
				c0.8-0.9,1.7-1.8,2.5-2.7c0.4-0.4,0.7-0.5,1.1,0c0.9,0.9,1.7,1.8,2.5,2.7c0.4,0.4,0.4,0.9,0.1,1.2c-0.4,0.4-0.7,0.1-1.1-0.2
				c-0.4-0.4-0.9-0.8-1.4-1.3c-0.1,0.3,0,0.6-0.1,0.9c0,0.9,0,1.9,0,2.8c0,0.5-0.1,0.9-0.7,0.9c-0.5,0-0.7-0.4-0.7-0.8
				c0-1.1,0-2.2,0-3.3C270.7,217,270.7,216.9,270.7,216.6z"/>
			<path class="st27" d="M271.9,233.3c0,0.9,0,1.8,0,2.7c0,0.2,0,0.4,0,0.6c0,0.4,0,0.8-0.6,0.8c-0.5,0-0.5-0.4-0.5-0.8
				c0-0.9,0-1.8,0-2.6c0-0.4,0-0.9-0.4-1.2c-0.2-0.1-0.2-0.4-0.2-0.6c0-1.1,0-2.3,0-3.4c0-0.7,0.3-1,0.9-1c0.5,0,1.1,0,1.6,0
				c0.6,0,0.8,0.3,0.8,0.9c0,1.2,0,2.4,0,3.6c0,0.2,0,0.5-0.2,0.6c-0.4,0.3-0.4,0.6-0.4,1c0,0.9,0,1.7,0,2.6c0,0.4,0.1,0.9-0.5,0.9
				c-0.6,0-0.5-0.5-0.5-0.9c0-1,0-2.1,0-3.1C272,233.3,272,233.3,271.9,233.3z"/>
			<path class="st27" d="M263,233.2c0,1.1,0,2.3,0,3.4c0,0.4-0.1,0.7-0.6,0.7c-0.4,0-0.5-0.3-0.5-0.7c0-1,0-2,0-3
				c0-0.3,0-0.7-0.3-0.9c-0.2-0.2-0.2-0.4-0.2-0.7c0-1.1,0-2.3,0-3.4c0-0.7,0.3-1,1-1c0.5,0,1,0,1.5,0c0.6,0,0.9,0.3,0.9,0.9
				c0,1.2,0,2.4,0,3.5c0,0.2,0,0.5-0.2,0.6c-0.4,0.3-0.4,0.7-0.4,1c0,0.9,0,1.9,0,2.8c0,0.3,0,0.5-0.3,0.7c-0.4,0.2-0.7,0-0.7-0.6
				c0-1,0-2,0-3c0-0.1,0-0.3,0-0.4C263.1,233.2,263.1,233.2,263,233.2z"/>
			<path class="st27" d="M267.5,233.2c0,1.1,0,2.2,0,3.3c0,0.2,0,0.4-0.1,0.6c-0.2,0.2-0.4,0.2-0.6,0.1c-0.3-0.1-0.4-0.3-0.4-0.6
				c0-1,0-1.9,0-2.9c0-0.4,0-0.7-0.4-1c-0.2-0.1-0.2-0.4-0.2-0.6c0-1.2,0-2.4,0-3.5c0-0.6,0.3-0.9,1-0.9c0.5,0,1,0,1.5,0
				c0.6,0,0.9,0.3,0.9,1c0,1.2,0,2.4,0,3.5c0,0.2,0,0.4-0.2,0.6c-0.4,0.3-0.4,0.7-0.4,1.2c0,0.9,0,1.7,0,2.6c0,0.4,0,0.8-0.6,0.8
				c-0.6,0-0.5-0.4-0.5-0.8c0-1.1,0-2.2,0-3.3C267.5,233.2,267.5,233.2,267.5,233.2z"/>
			<path class="st27" d="M268.8,226.3c0,0.7-0.6,1.3-1.3,1.2c-0.6,0-1.2-0.6-1.2-1.2c0-0.7,0.6-1.3,1.2-1.3
				C268.2,225,268.8,225.6,268.8,226.3z"/>
			<path class="st27" d="M273.2,226.3c0,0.7-0.6,1.3-1.2,1.3c-0.6,0-1.2-0.6-1.3-1.2c0-0.7,0.6-1.3,1.2-1.3
				C272.6,225,273.2,225.6,273.2,226.3z"/>
			<path class="st27" d="M263.1,227.5c-0.7,0-1.2-0.6-1.2-1.3c0-0.6,0.6-1.2,1.2-1.2c0.7,0,1.3,0.6,1.3,1.2
				C264.4,226.9,263.8,227.5,263.1,227.5z"/>
		</g>
	</g>
	<g id="mGfqoG_00000089551410476241659600000004465935553333692814_">
		<g>
			<path class="st27" d="M276.2,260.4c0,1.7,0,3.4,0,5.1c0,2.1-1.4,3.4-3.5,3.5c-3.4,0-6.8,0-10.2,0c-2.2,0-3.5-1.4-3.5-3.5
				c0-3.4,0-6.8,0-10.1c0-2.2,1.4-3.6,3.6-3.6c3.4,0,6.7,0,10.1,0c2.2,0,3.6,1.4,3.6,3.6c0,0.8,0,1.7,0,2.5S276.2,259.6,276.2,260.4
				z M267.6,253C267.6,253,267.6,253,267.6,253c-1.7,0-3.4,0-5.1,0c-1.5,0-2.3,0.8-2.3,2.3c0,3.4,0,6.7,0,10.1
				c0,1.5,0.8,2.4,2.3,2.4c3.4,0,6.9,0,10.3,0c1.4,0,2.3-0.9,2.3-2.3c0-3.4,0-6.9,0-10.3c0-1.4-0.9-2.2-2.3-2.2
				C271,253,269.3,253,267.6,253z"/>
			<path class="st27" d="M263,248.3c0-0.8,0-1.5,0-2.3c0-0.4,0-0.8,0-1.2c0-0.7,0.2-1.1,0.7-1.1c0.4,0,0.7,0.4,0.7,1.1
				c0,0.9,0,1.9,0,2.8c0,0.2-0.1,0.4,0.1,0.5c0.2,0.1,0.3-0.2,0.4-0.3c0.4-0.4,0.7-0.7,1.1-1.1c0.3-0.3,0.6-0.3,0.9,0
				c0.3,0.3,0.4,0.6,0.1,0.9c-1,1.1-2,2.1-3,3.1c-0.2,0.2-0.6,0.2-0.8-0.1c-0.9-1-1.9-2-2.8-3c-0.3-0.3-0.2-0.7,0.1-1
				c0.3-0.3,0.6-0.2,0.9,0.1c0.5,0.5,0.9,1,1.4,1.5C262.9,248.3,262.9,248.3,263,248.3z"/>
			<path class="st27" d="M270.7,246.2c-0.6,0.6-1,1-1.4,1.5c-0.4,0.4-0.7,0.5-1.1,0.2c-0.3-0.3-0.3-0.7,0.1-1.1
				c0.8-0.9,1.7-1.8,2.5-2.7c0.4-0.4,0.7-0.5,1.1,0c0.9,0.9,1.7,1.8,2.5,2.7c0.4,0.4,0.4,0.9,0.1,1.2c-0.4,0.4-0.7,0.1-1.1-0.2
				c-0.4-0.4-0.9-0.8-1.4-1.3c-0.1,0.3,0,0.6-0.1,0.9c0,0.9,0,1.9,0,2.8c0,0.5-0.1,0.9-0.7,0.9c-0.5,0-0.7-0.4-0.7-0.8
				c0-1.1,0-2.2,0-3.3C270.7,246.7,270.7,246.5,270.7,246.2z"/>
			<path class="st27" d="M271.9,262.9c0,0.9,0,1.8,0,2.7c0,0.2,0,0.4,0,0.6c0,0.4,0,0.8-0.6,0.8c-0.5,0-0.5-0.4-0.5-0.8
				c0-0.9,0-1.8,0-2.6c0-0.4,0-0.9-0.4-1.2c-0.2-0.1-0.2-0.4-0.2-0.6c0-1.1,0-2.3,0-3.4c0-0.7,0.3-1,0.9-1c0.5,0,1.1,0,1.6,0
				c0.6,0,0.8,0.3,0.8,0.9c0,1.2,0,2.4,0,3.6c0,0.2,0,0.5-0.2,0.6c-0.4,0.3-0.4,0.6-0.4,1c0,0.9,0,1.7,0,2.6c0,0.4,0.1,0.9-0.5,0.9
				c-0.6,0-0.5-0.5-0.5-0.9c0-1,0-2.1,0-3.1C272,262.9,272,262.9,271.9,262.9z"/>
			<path class="st27" d="M263,262.9c0,1.1,0,2.3,0,3.4c0,0.4-0.1,0.7-0.6,0.7c-0.4,0-0.5-0.3-0.5-0.7c0-1,0-2,0-3
				c0-0.3,0-0.7-0.3-0.9c-0.2-0.2-0.2-0.4-0.2-0.7c0-1.1,0-2.3,0-3.4c0-0.7,0.3-1,1-1c0.5,0,1,0,1.5,0c0.6,0,0.9,0.3,0.9,0.9
				c0,1.2,0,2.4,0,3.5c0,0.2,0,0.5-0.2,0.6c-0.4,0.3-0.4,0.7-0.4,1c0,0.9,0,1.9,0,2.8c0,0.3,0,0.5-0.3,0.7c-0.4,0.2-0.7,0-0.7-0.6
				c0-1,0-2,0-3c0-0.1,0-0.3,0-0.4C263.1,262.9,263.1,262.9,263,262.9z"/>
			<path class="st27" d="M267.5,262.9c0,1.1,0,2.2,0,3.3c0,0.2,0,0.4-0.1,0.6c-0.2,0.2-0.4,0.2-0.6,0.1c-0.3-0.1-0.4-0.3-0.4-0.6
				c0-1,0-1.9,0-2.9c0-0.4,0-0.7-0.4-1c-0.2-0.1-0.2-0.4-0.2-0.6c0-1.2,0-2.4,0-3.5c0-0.6,0.3-0.9,1-0.9c0.5,0,1,0,1.5,0
				c0.6,0,0.9,0.3,0.9,1c0,1.2,0,2.4,0,3.5c0,0.2,0,0.4-0.2,0.6c-0.4,0.3-0.4,0.7-0.4,1.2c0,0.9,0,1.7,0,2.6c0,0.4,0,0.8-0.6,0.8
				c-0.6,0-0.5-0.4-0.5-0.8c0-1.1,0-2.2,0-3.3C267.5,262.9,267.5,262.9,267.5,262.9z"/>
			<path class="st27" d="M268.8,255.9c0,0.7-0.6,1.3-1.3,1.2c-0.6,0-1.2-0.6-1.2-1.2c0-0.7,0.6-1.3,1.2-1.3
				C268.2,254.7,268.8,255.2,268.8,255.9z"/>
			<path class="st27" d="M273.2,255.9c0,0.7-0.6,1.3-1.2,1.3c-0.6,0-1.2-0.6-1.3-1.2c0-0.7,0.6-1.3,1.2-1.3
				C272.6,254.7,273.2,255.2,273.2,255.9z"/>
			<path class="st27" d="M263.1,257.2c-0.7,0-1.2-0.6-1.2-1.3c0-0.6,0.6-1.2,1.2-1.2c0.7,0,1.3,0.6,1.3,1.2
				C264.4,256.6,263.8,257.2,263.1,257.2z"/>
		</g>
	</g>
	<g id="mGfqoG_00000140700646501747684530000005880546467494094509_">
		<g>
			<path class="st27" d="M320.8,230.8c0,1.7,0,3.4,0,5.1c0,2.1-1.4,3.4-3.5,3.5c-3.4,0-6.8,0-10.2,0c-2.2,0-3.5-1.4-3.5-3.5
				c0-3.4,0-6.8,0-10.1c0-2.2,1.4-3.6,3.6-3.6c3.4,0,6.7,0,10.1,0c2.2,0,3.6,1.4,3.6,3.6c0,0.8,0,1.7,0,2.5S320.8,229.9,320.8,230.8
				z M312.2,223.3C312.2,223.3,312.2,223.3,312.2,223.3c-1.7,0-3.4,0-5.1,0c-1.5,0-2.3,0.8-2.3,2.3c0,3.4,0,6.7,0,10.1
				c0,1.5,0.8,2.4,2.3,2.4c3.4,0,6.9,0,10.3,0c1.4,0,2.3-0.9,2.3-2.3c0-3.4,0-6.9,0-10.3c0-1.4-0.9-2.2-2.3-2.2
				C315.6,223.3,313.9,223.3,312.2,223.3z"/>
			<path class="st27" d="M307.6,218.7c0-0.8,0-1.5,0-2.3c0-0.4,0-0.8,0-1.2c0-0.7,0.2-1.1,0.7-1.1c0.4,0,0.7,0.4,0.7,1.1
				c0,0.9,0,1.9,0,2.8c0,0.2-0.1,0.4,0.1,0.5c0.2,0.1,0.3-0.2,0.4-0.3c0.4-0.4,0.7-0.7,1.1-1.1c0.3-0.3,0.6-0.3,0.9,0
				c0.3,0.3,0.4,0.6,0.1,0.9c-1,1.1-2,2.1-3,3.1c-0.2,0.2-0.6,0.2-0.8-0.1c-0.9-1-1.9-2-2.8-3c-0.3-0.3-0.2-0.7,0.1-1
				c0.3-0.3,0.6-0.2,0.9,0.1c0.5,0.5,0.9,1,1.4,1.5C307.5,218.7,307.5,218.7,307.6,218.7z"/>
			<path class="st27" d="M315.3,216.6c-0.6,0.6-1,1-1.4,1.5c-0.4,0.4-0.7,0.5-1.1,0.2c-0.3-0.3-0.3-0.7,0.1-1.1
				c0.8-0.9,1.7-1.8,2.5-2.7c0.4-0.4,0.7-0.5,1.1,0c0.9,0.9,1.7,1.8,2.5,2.7c0.4,0.4,0.4,0.9,0.1,1.2c-0.4,0.4-0.7,0.1-1.1-0.2
				c-0.4-0.4-0.9-0.8-1.4-1.3c-0.1,0.3,0,0.6-0.1,0.9c0,0.9,0,1.9,0,2.8c0,0.5-0.1,0.9-0.7,0.9c-0.5,0-0.7-0.4-0.7-0.8
				c0-1.1,0-2.2,0-3.3C315.3,217,315.3,216.9,315.3,216.6z"/>
			<path class="st27" d="M316.5,233.3c0,0.9,0,1.8,0,2.7c0,0.2,0,0.4,0,0.6c0,0.4,0,0.8-0.6,0.8c-0.5,0-0.5-0.4-0.5-0.8
				c0-0.9,0-1.8,0-2.6c0-0.4,0-0.9-0.4-1.2c-0.2-0.1-0.2-0.4-0.2-0.6c0-1.1,0-2.3,0-3.4c0-0.7,0.3-1,0.9-1c0.5,0,1.1,0,1.6,0
				c0.6,0,0.8,0.3,0.8,0.9c0,1.2,0,2.4,0,3.6c0,0.2,0,0.5-0.2,0.6c-0.4,0.3-0.4,0.6-0.4,1c0,0.9,0,1.7,0,2.6c0,0.4,0.1,0.9-0.5,0.9
				c-0.6,0-0.5-0.5-0.5-0.9c0-1,0-2.1,0-3.1C316.6,233.3,316.6,233.3,316.5,233.3z"/>
			<path class="st27" d="M307.6,233.2c0,1.1,0,2.3,0,3.4c0,0.4-0.1,0.7-0.6,0.7c-0.4,0-0.5-0.3-0.5-0.7c0-1,0-2,0-3
				c0-0.3,0-0.7-0.3-0.9c-0.2-0.2-0.2-0.4-0.2-0.7c0-1.1,0-2.3,0-3.4c0-0.7,0.3-1,1-1c0.5,0,1,0,1.5,0c0.6,0,0.9,0.3,0.9,0.9
				c0,1.2,0,2.4,0,3.5c0,0.2,0,0.5-0.2,0.6c-0.4,0.3-0.4,0.7-0.4,1c0,0.9,0,1.9,0,2.8c0,0.3,0,0.5-0.3,0.7c-0.4,0.2-0.7,0-0.7-0.6
				c0-1,0-2,0-3c0-0.1,0-0.3,0-0.4C307.7,233.2,307.7,233.2,307.6,233.2z"/>
			<path class="st27" d="M312.1,233.2c0,1.1,0,2.2,0,3.3c0,0.2,0,0.4-0.1,0.6c-0.2,0.2-0.4,0.2-0.6,0.1c-0.3-0.1-0.4-0.3-0.4-0.6
				c0-1,0-1.9,0-2.9c0-0.4,0-0.7-0.4-1c-0.2-0.1-0.2-0.4-0.2-0.6c0-1.2,0-2.4,0-3.5c0-0.6,0.3-0.9,1-0.9c0.5,0,1,0,1.5,0
				c0.6,0,0.9,0.3,0.9,1c0,1.2,0,2.4,0,3.5c0,0.2,0,0.4-0.2,0.6c-0.4,0.3-0.4,0.7-0.4,1.2c0,0.9,0,1.7,0,2.6c0,0.4,0,0.8-0.6,0.8
				c-0.6,0-0.5-0.4-0.5-0.8c0-1.1,0-2.2,0-3.3C312.2,233.2,312.1,233.2,312.1,233.2z"/>
			<path class="st27" d="M313.4,226.3c0,0.7-0.6,1.3-1.3,1.2c-0.6,0-1.2-0.6-1.2-1.2c0-0.7,0.6-1.3,1.2-1.3
				C312.8,225,313.4,225.6,313.4,226.3z"/>
			<path class="st27" d="M317.8,226.3c0,0.7-0.6,1.3-1.2,1.3c-0.6,0-1.2-0.6-1.3-1.2c0-0.7,0.6-1.3,1.2-1.3
				C317.2,225,317.8,225.6,317.8,226.3z"/>
			<path class="st27" d="M307.7,227.5c-0.7,0-1.2-0.6-1.2-1.3c0-0.6,0.6-1.2,1.2-1.2c0.7,0,1.3,0.6,1.3,1.2
				C309,226.9,308.4,227.5,307.7,227.5z"/>
		</g>
	</g>
	<g id="mGfqoG_00000013874550252012433920000004632081848138198925_">
		<g>
			<path class="st27" d="M320.8,260.4c0,1.7,0,3.4,0,5.1c0,2.1-1.4,3.4-3.5,3.5c-3.4,0-6.8,0-10.2,0c-2.2,0-3.5-1.4-3.5-3.5
				c0-3.4,0-6.8,0-10.1c0-2.2,1.4-3.6,3.6-3.6c3.4,0,6.7,0,10.1,0c2.2,0,3.6,1.4,3.6,3.6c0,0.8,0,1.7,0,2.5
				C320.8,258.7,320.8,259.6,320.8,260.4z M312.2,253C312.2,253,312.2,253,312.2,253c-1.7,0-3.4,0-5.1,0c-1.5,0-2.3,0.8-2.3,2.3
				c0,3.4,0,6.7,0,10.1c0,1.5,0.8,2.4,2.3,2.4c3.4,0,6.9,0,10.3,0c1.4,0,2.3-0.9,2.3-2.3c0-3.4,0-6.9,0-10.3c0-1.4-0.9-2.2-2.3-2.2
				C315.6,253,313.9,253,312.2,253z"/>
			<path class="st27" d="M307.6,248.3c0-0.8,0-1.5,0-2.3c0-0.4,0-0.8,0-1.2c0-0.7,0.2-1.1,0.7-1.1c0.4,0,0.7,0.4,0.7,1.1
				c0,0.9,0,1.9,0,2.8c0,0.2-0.1,0.4,0.1,0.5c0.2,0.1,0.3-0.2,0.4-0.3c0.4-0.4,0.7-0.7,1.1-1.1c0.3-0.3,0.6-0.3,0.9,0
				c0.3,0.3,0.4,0.6,0.1,0.9c-1,1.1-2,2.1-3,3.1c-0.2,0.2-0.6,0.2-0.8-0.1c-0.9-1-1.9-2-2.8-3c-0.3-0.3-0.2-0.7,0.1-1
				c0.3-0.3,0.6-0.2,0.9,0.1c0.5,0.5,0.9,1,1.4,1.5C307.5,248.3,307.5,248.3,307.6,248.3z"/>
			<path class="st27" d="M315.3,246.2c-0.6,0.6-1,1-1.4,1.5c-0.4,0.4-0.7,0.5-1.1,0.2c-0.3-0.3-0.3-0.7,0.1-1.1
				c0.8-0.9,1.7-1.8,2.5-2.7c0.4-0.4,0.7-0.5,1.1,0c0.9,0.9,1.7,1.8,2.5,2.7c0.4,0.4,0.4,0.9,0.1,1.2c-0.4,0.4-0.7,0.1-1.1-0.2
				c-0.4-0.4-0.9-0.8-1.4-1.3c-0.1,0.3,0,0.6-0.1,0.9c0,0.9,0,1.9,0,2.8c0,0.5-0.1,0.9-0.7,0.9c-0.5,0-0.7-0.4-0.7-0.8
				c0-1.1,0-2.2,0-3.3C315.3,246.7,315.3,246.5,315.3,246.2z"/>
			<path class="st27" d="M316.5,262.9c0,0.9,0,1.8,0,2.7c0,0.2,0,0.4,0,0.6c0,0.4,0,0.8-0.6,0.8c-0.5,0-0.5-0.4-0.5-0.8
				c0-0.9,0-1.8,0-2.6c0-0.4,0-0.9-0.4-1.2c-0.2-0.1-0.2-0.4-0.2-0.6c0-1.1,0-2.3,0-3.4c0-0.7,0.3-1,0.9-1c0.5,0,1.1,0,1.6,0
				c0.6,0,0.8,0.3,0.8,0.9c0,1.2,0,2.4,0,3.6c0,0.2,0,0.5-0.2,0.6c-0.4,0.3-0.4,0.6-0.4,1c0,0.9,0,1.7,0,2.6c0,0.4,0.1,0.9-0.5,0.9
				c-0.6,0-0.5-0.5-0.5-0.9c0-1,0-2.1,0-3.1C316.6,262.9,316.6,262.9,316.5,262.9z"/>
			<path class="st27" d="M307.6,262.9c0,1.1,0,2.3,0,3.4c0,0.4-0.1,0.7-0.6,0.7c-0.4,0-0.5-0.3-0.5-0.7c0-1,0-2,0-3
				c0-0.3,0-0.7-0.3-0.9c-0.2-0.2-0.2-0.4-0.2-0.7c0-1.1,0-2.3,0-3.4c0-0.7,0.3-1,1-1c0.5,0,1,0,1.5,0c0.6,0,0.9,0.3,0.9,0.9
				c0,1.2,0,2.4,0,3.5c0,0.2,0,0.5-0.2,0.6c-0.4,0.3-0.4,0.7-0.4,1c0,0.9,0,1.9,0,2.8c0,0.3,0,0.5-0.3,0.7c-0.4,0.2-0.7,0-0.7-0.6
				c0-1,0-2,0-3c0-0.1,0-0.3,0-0.4C307.7,262.9,307.7,262.9,307.6,262.9z"/>
			<path class="st27" d="M312.1,262.9c0,1.1,0,2.2,0,3.3c0,0.2,0,0.4-0.1,0.6c-0.2,0.2-0.4,0.2-0.6,0.1c-0.3-0.1-0.4-0.3-0.4-0.6
				c0-1,0-1.9,0-2.9c0-0.4,0-0.7-0.4-1c-0.2-0.1-0.2-0.4-0.2-0.6c0-1.2,0-2.4,0-3.5c0-0.6,0.3-0.9,1-0.9c0.5,0,1,0,1.5,0
				c0.6,0,0.9,0.3,0.9,1c0,1.2,0,2.4,0,3.5c0,0.2,0,0.4-0.2,0.6c-0.4,0.3-0.4,0.7-0.4,1.2c0,0.9,0,1.7,0,2.6c0,0.4,0,0.8-0.6,0.8
				c-0.6,0-0.5-0.4-0.5-0.8c0-1.1,0-2.2,0-3.3C312.2,262.9,312.1,262.9,312.1,262.9z"/>
			<path class="st27" d="M313.4,255.9c0,0.7-0.6,1.3-1.3,1.2c-0.6,0-1.2-0.6-1.2-1.2c0-0.7,0.6-1.3,1.2-1.3
				C312.8,254.7,313.4,255.2,313.4,255.9z"/>
			<path class="st27" d="M317.8,255.9c0,0.7-0.6,1.3-1.2,1.3c-0.6,0-1.2-0.6-1.3-1.2c0-0.7,0.6-1.3,1.2-1.3
				C317.2,254.7,317.8,255.2,317.8,255.9z"/>
			<path class="st27" d="M307.7,257.2c-0.7,0-1.2-0.6-1.2-1.3c0-0.6,0.6-1.2,1.2-1.2c0.7,0,1.3,0.6,1.3,1.2
				C309,256.6,308.4,257.2,307.7,257.2z"/>
		</g>
	</g>
	<g id="p7iPoC_00000118395744252954797840000008370864609787454384_">
		<g>
			<path class="st23" d="M158.9,261.1c0.7,0,1.4,0,2.2,0c0.6,0,0.9,0.3,1.1,0.9c0.4,1.4,0.9,2.8,1.3,4.2c0.1,0.4,0.3,0.8,0.4,1.2
				c0.1,0.5-0.1,0.8-0.5,1c-0.4,0.1-0.9-0.1-1-0.5c-0.5-1.5-1-3-1.5-4.5c-0.1-0.2-0.2-0.3-0.4-0.3c-1.5,0.1-3,0-4.5,0
				c-0.3,0-0.7,0-1-0.1c-0.4-0.1-0.7-0.3-0.8-0.8c-0.3-1.4-0.5-2.9-0.7-4.4c-0.1-0.5-0.1-1-0.2-1.5c-0.1-0.7,0.2-1.2,0.9-1.4
				c0.3-0.1,0.6-0.1,0.8-0.1c0.6,0.1,1,0.4,1.1,1c0.1,0.6,0.3,1.2,0.4,1.8c0,0.2,0.1,0.2,0.3,0.2c0.8,0,1.6,0,2.5,0
				c0.6,0,1,0.6,0.7,1.2c-0.1,0.2-0.3,0.3-0.5,0.3c-0.8,0-1.6,0-2.4,0c-0.2,0-0.2,0.1-0.2,0.3c0.1,0.4,0.1,0.7,0.2,1.1
				c0,0.2,0.1,0.2,0.3,0.2C157.7,261.1,158.3,261.1,158.9,261.1z"/>
			<path class="st23" d="M149.4,263.5c0-2.3,1.4-4.2,3.4-5.1c0.2-0.1,0.3-0.1,0.3,0.2c0,0.2,0.1,0.5,0.1,0.7c0,0.2,0,0.3-0.2,0.3
				c-1,0.5-1.7,1.2-2.1,2.2c-1,2.6,0.5,5,3,5.6c2.7,0.6,4.7-1.2,5.1-3.5c0.1-0.5,0.1-0.5,0.6-0.5c0.2,0,0.4,0,0.6,0
				c0.1,0,0.2,0.1,0.2,0.2c-0.1,1.4-0.6,2.7-1.7,3.7c-1.2,1.1-2.6,1.6-4.2,1.5c-2.5-0.2-4.6-1.9-5-4.6
				C149.4,264,149.4,263.7,149.4,263.5z"/>
			<path class="st23" d="M155,251.6c0.8,0,1.5,0.7,1.5,1.5c0,0.8-0.7,1.5-1.5,1.5c-0.8,0-1.5-0.7-1.5-1.5
				C153.5,252.2,154.2,251.6,155,251.6z"/>
		</g>
	</g>
	<g id="BbVIEC_00000156576306544401499050000006563159193714628744_">
		<g>
			<g>
				<path class="st30" d="M221.4,263.7c-8.3,0-16.5,0-24.8,0c-0.5,0-0.5-0.1-0.5-0.5c0-1.5,0-3,0-4.5c0.2-0.3,0.5-0.3,0.8-0.3
					c1.2,0,2.4,0,3.6,0c0.6,0,0.8-0.1,0.8-0.8c0-1.2,0-2.4,0-3.6c0-0.8,0.1-0.9,0.9-0.9c1.2,0,2.3,0,3.5,0c0.8,0,0.9-0.1,0.9-0.9
					c0-1.2,0-2.4,0-3.6c0-0.6,0.2-0.8,0.8-0.8c1.2,0,2.4,0,3.6,0c0.7,0,0.8-0.1,0.8-0.8c0-1.2,0-2.3,0-3.5c0-0.9,0.1-1,1-1
					c1.2,0,2.3,0,3.5,0c0.7,0,0.8-0.1,0.8-0.9c0-1.2,0-2.4,0-3.6c0-0.7,0.2-0.8,0.8-0.8c1.1,0,2.3,0,3.4,0c1.1,0,1.1,0.1,1.1,1.1
					c0,7.7,0,15.5,0,23.2C222.5,262.5,222.2,263.2,221.4,263.7z M213.5,257.3C213.5,257.3,213.5,257.3,213.5,257.3
					c0.7,0,1.4,0,2.2,0c0.6,0,0.6-0.4,0.6-0.8c0-0.4,0-0.8-0.6-0.8c-0.4,0-0.9,0-1.3,0c-0.2,0-0.4,0.1-0.5-0.1
					c-0.1-0.2,0.1-0.3,0.2-0.4c1.2-1.3,2.5-2.5,3.7-3.7c0.6-0.6,0.6-0.7,0.1-1.2c-0.5-0.5-0.7-0.5-1.2,0.1c-0.1,0.1-0.2,0.2-0.4,0.4
					c-1.1,1.1-2.3,2.3-3.4,3.4c-0.1,0.1-0.2,0.3-0.4,0.2c-0.1-0.1-0.1-0.2-0.1-0.4c0-0.4,0-0.9,0-1.3c0-0.5-0.2-0.7-0.7-0.7
					c-0.7,0-0.9,0.1-0.9,0.7c0,1.4,0,2.7,0,4.1c0,0.5,0.2,0.7,0.7,0.7C212.1,257.3,212.8,257.3,213.5,257.3z"/>
				<path class="st30" d="M203.7,242.9c-0.7,0-1.2,0-1.7,0c-0.6,0-0.8-0.2-0.8-0.8c0-0.7,0.1-1,0.7-1.1c1.4,0,2.9,0,4.3,0
					c0.5,0,0.7,0.3,0.7,0.8c0,1.4,0,2.8,0,4.2c0,0.6-0.3,0.8-1,0.8c-0.7,0-0.9-0.2-0.9-0.8c0-0.5,0-1,0-1.5
					c-0.3-0.1-0.4,0.2-0.6,0.3c-1.2,1.2-2.3,2.3-3.5,3.5c-0.7,0.7-1.4,0.5-1.8-0.4c-0.2-0.4,0.1-0.6,0.3-0.8
					c1.2-1.2,2.4-2.4,3.6-3.6C203.3,243.2,203.5,243.1,203.7,242.9z"/>
			</g>
		</g>
	</g>
	<g>
		<text transform="matrix(1 0 0 1 85.2404 195.2861)" class="st6 st38 st39">會眾服務台</text>
	</g>
	<g>
		<text transform="matrix(1 0 0 1 85.2404 206.1037)" class="st6 st40 st41">Information Desk</text>
	</g>
	
		<rect x="56.6" y="179.8" transform="matrix(-1 -1.224647e-16 1.224647e-16 -1 217.9684 393.0201)" class="st42" width="104.7" height="33.5"/>
	<g>
		<text transform="matrix(1 0 0 1 716.5731 126.4531)" class="st6 st43 st44">209</text>
	</g>
	<g>
		<text transform="matrix(1 0 0 1 505.5711 126.4531)" class="st6 st43 st44">211</text>
	</g>
	<g>
		<text transform="matrix(1 0 0 1 375.9901 126.4531)" class="st6 st43 st44">212</text>
	</g>
	<g>
		<text transform="matrix(1 0 0 1 242.66 126.4531)" class="st6 st43 st44">213</text>
	</g>
	<g>
		<text transform="matrix(1 0 0 1 109.9637 126.4531)" class="st6 st43 st44">214</text>
	</g>
	<g>
		<text transform="matrix(1 0 0 1 494.4539 149.2881)" class="st28 st45">議程教室</text>
	</g>
	<g>
		<text transform="matrix(1 0 0 1 608.1443 126.4531)" class="st6 st43 st44">210</text>
	</g>
	<g>
		<text transform="matrix(1 0 0 1 597.0281 149.2881)" class="st28 st45">議程教室</text>
	</g>
	<g>
		<text transform="matrix(1 0 0 1 705.4559 149.2881)" class="st28 st45">議程教室</text>
	</g>
	<g>
		<text transform="matrix(1 0 0 1 364.8734 149.2881)" class="st28 st45">議程教室</text>
	</g>
	<g>
		<text transform="matrix(1 0 0 1 231.5423 149.2881)" class="st28 st45">議程教室</text>
	</g>
	<g>
		<text transform="matrix(1 0 0 1 98.847 149.2881)" class="st28 st45">議程教室</text>
	</g>
	<g>
		<circle class="st46" cx="179.4" cy="190" r="11.1"/>
		<g>
			<g>
				<path class="st6" d="M177.9,184.7c0-0.8,0.6-1.4,1.5-1.4c0.9,0,1.5,0.6,1.5,1.4c0,0.8-0.6,1.4-1.5,1.4
					C178.5,186,177.9,185.5,177.9,184.7z M178.1,187.2h2.7v8.5h-2.7V187.2z"/>
			</g>
		</g>
	</g>
	<g>
		<circle class="st46" cx="496.4" cy="450.3" r="11.1"/>
		<g>
			<g>
				<path class="st6" d="M494.9,445c0-0.8,0.6-1.4,1.5-1.4c0.9,0,1.5,0.6,1.5,1.4c0,0.8-0.6,1.4-1.5,1.4
					C495.5,446.4,494.9,445.8,494.9,445z M495.1,447.6h2.7v8.5h-2.7V447.6z"/>
			</g>
		</g>
	</g>
</g>
<g id="文字資訊">
	<rect x="45.7" y="24.8" class="st6" width="111" height="37.3"/>
	<g>
		<text transform="matrix(1 0 0 1 60.2981 52.0706)" class="st19 st43 st55">研揚大樓</text>
	</g>
	<g>
		<text transform="matrix(1 0 0 1 144.0025 480.3399)" class="st6 st56 st57">211</text>
	</g>
	<g>
		<text transform="matrix(1 0 0 1 482.2398 317.611)" class="st6 st56 st57">212</text>
	</g>
	<g>
		<text transform="matrix(1 0 0 1 482.2393 361.907)" class="st6 st56 st57">213</text>
	</g>
	<g>
		<text transform="matrix(1 0 0 1 482.2399 407.9769)" class="st6 st56 st57">214</text>
	</g>
	<g>
		<text transform="matrix(1 0 0 1 144.0025 319.3123)" class="st6 st56 st57">209</text>
	</g>
	<g>
		<text transform="matrix(1 0 0 1 243.9247 313.9994)"><tspan x="0" y="0" class="st56 st58">開源韌體 </tspan><tspan x="0" y="13.8" class="st56 st58">Open Source Firmware</tspan></text>
	</g>
	<g>
		<text transform="matrix(1 0 0 1 144.0025 392.5777)" class="st6 st56 st57">210</text>
	</g>
	<g>
		<text transform="matrix(1 0 0 1 201.1283 313.4235)" class="st59 st56 st58">Day01</text>
	</g>
	<g>
		<text transform="matrix(1 0 0 1 201.1283 347.1859)" class="st59 st56 st58">Day02</text>
	</g>
	<text transform="matrix(1 0 0 1 243.4363 347.8258)" class="st56 st58">Hacking Room &amp; 議程調度空間</text>
	<g>
		<text transform="matrix(1 0 0 1 624.7482 356.7846)" class="st56 st58">Blockchain and Distributed Ledger</text>
	</g>
	<g>
		<text transform="matrix(1 0 0 1 243.8025 388.2369)"><tspan x="0" y="0" class="st56 st58">參與或建立開源專案的故事分享</tspan><tspan x="0" y="13.8" class="st56 st58">Sharing Stories of Establishing or </tspan><tspan x="0" y="27.6" class="st56 st58">Participating in Open Source Projects</tspan></text>
	</g>
	<g>
		<text transform="matrix(1 0 0 1 201.1283 388.2369)" class="st59 st56 st58">Day01</text>
	</g>
	<g>
		<text transform="matrix(1 0 0 1 625.105 405.7827)"><tspan x="0" y="0" class="st56 st58">學生社群大亂鬥</tspan><tspan x="0" y="13.8" class="st56 st58">Student Education Track (SED)</tspan></text>
	</g>
	<g>
		<text transform="matrix(1 0 0 1 519.4764 455.0976)" class="st56 st58">Digital Gold Card Information Desk</text>
	</g>
	<text transform="matrix(1 0 0 1 538.9961 405.6503)" class="st59 st56 st58">Day01 / Day02</text>
	<g>
		<text transform="matrix(1 0 0 1 624.7487 311.7023)" class="st56 st58">Kubernetes Community Day Taipei</text>
	</g>
	<text transform="matrix(1 0 0 1 538.9959 311.4237)" class="st59 st56 st58">Day01 / Day02</text>
	<text transform="matrix(1 0 0 1 538.9967 356.5065)" class="st59 st56 st58">Day01 / Day02</text>
	<g>
		<text transform="matrix(1 0 0 1 201.1281 435.6867)" class="st59 st56 st58">Day02</text>
	</g>
	<g>
		<text transform="matrix(1 0 0 1 243.4363 435.6866)" class="st56 st58">Hacking Room &amp; 議程調度空間</text>
	</g>
	<g>
		<text transform="matrix(1 0 0 1 243.9247 475.2057)"><tspan x="0" y="0" class="st56 st58">OpenStreet x Wikidata 開放內容議程軌</tspan><tspan x="0" y="13.8" class="st56 st58">OpenStreetMap x Wikidata Open Content Track</tspan></text>
	</g>
	<g>
		<text transform="matrix(1 0 0 1 201.1283 474.9392)" class="st59 st56 st58">Day01</text>
	</g>
	<g>
		<text transform="matrix(1 0 0 1 201.1281 517.5714)" class="st59 st56 st58">Day02</text>
	</g>
	<g>
		<text transform="matrix(1 0 0 1 243.7343 517.8527)"><tspan x="0" y="0" class="st56 st58">帶您讀源碼</tspan><tspan x="0" y="13.8" class="st56 st58">Let&apos;s Read the Source Code</tspan></text>
	</g>
	<rect x="49.7" y="304.2" class="st61" width="63" height="56.2"/>
</g>
<g id="樓層位置">
	<g>
		<text transform="matrix(1 0 0 1 56.2725 347.5057)" class="st6 st43 st69">2F</text>
	</g>
</g>
<g id="輸出佈置" class="st70">
	<line class="st71" x1="387.6" y1="180.1" x2="446.5" y2="180.1"/>
	<text transform="matrix(1 0 0 1 482.0361 251.675)" class="st72 st43 st73">樓層議程告知</text>
	<text transform="matrix(1 0 0 1 477.1669 197.9338)" class="st72 st43 st73">主視覺</text>
	<text transform="matrix(1 0 0 1 276.1662 198.177)" class="st72 st43 st73">徵才看板B</text>
	<line class="st71" x1="284.2" y1="181.5" x2="319.4" y2="181.5"/>
	<line class="st71" x1="467.1" y1="181.5" x2="520.3" y2="181.5"/>
	<line class="st71" x1="569.1" y1="258.9" x2="569.1" y2="221.3"/>
	<text transform="matrix(1 0 0 1 190.2089 289.0725)" class="st72 st43 st73">樓層議程告知</text>
	<line class="st71" x1="173" y1="259.2" x2="173" y2="221.6"/>
	<text transform="matrix(1 0 0 1 408.5102 194.927)" class="st74"><tspan x="0" y="0" class="st75 st43 st73">2樓</tspan><tspan x="-26.8" y="12.9" class="st75 st43 st73">議程看板+地圖</tspan></text>
	<g class="st74">
		<text transform="matrix(1 0 0 1 696.7242 575.1687)" class="st77 st78">D.門口的議程軌布告欄</text>
	</g>
	<text transform="matrix(1 0 0 1 696.556 528.8746)" class="st74 st77 st79">A.贊助商海報</text>
	<g class="st74">
		<text transform="matrix(1 0 0 1 696.2738 545.1695)" class="st77 st79">B.主視覺海報</text>
	</g>
	<g class="st74">
		<text transform="matrix(1 0 0 1 696.8842 561.4654)" class="st77 st79">C.講桌前背板(上方)</text>
	</g>
	<g class="st74">
		<text transform="matrix(1 0 0 1 786.1 561.983)" class="st77 st80">6間</text>
	</g>
	<text transform="matrix(1 0 0 1 680.3529 517.3482)" class="st74 st77 st81">議程教室</text>
	<polygon class="st76" points="664.2,512 664.2,545.2 581.3,545.2 581.3,538.1 574.6,538.1 574.6,512 	"/>
	<rect x="560.1" y="538.1" class="st76" width="21.1" height="29.3"/>
	<rect x="556.3" y="516.2" class="st76" width="14.4" height="20.3"/>
	<rect x="645.5" y="516.2" class="st76" width="14.4" height="20.3"/>
	<g class="st74">
		<text transform="matrix(1 0 0 1 649.6967 529.9351)" class="st82 st79">A</text>
	</g>
	<g class="st74">
		<text transform="matrix(1 0 0 1 559.4945 529.4459)" class="st82 st79">B</text>
	</g>
	<g class="st74">
		<text transform="matrix(1 0 0 1 567.0326 556.4644)" class="st82 st79">C</text>
	</g>
</g>
<g id="指標" class="st70">
</g>
</svg>
