<?xml version="1.0" encoding="utf-8"?>
<!-- Generator: Adobe Illustrator 27.7.0, SVG Export Plug-In . SVG Version: 6.00 Build 0)  -->
<svg version="1.0" xmlns="http://www.w3.org/2000/svg" xmlns:xlink="http://www.w3.org/1999/xlink" x="0px" y="0px"
	 viewBox="0 0 841.9 595.3" style="enable-background:new 0 0 841.9 595.3;" xml:space="preserve">
<style type="text/css">
	.st0{fill:none;stroke:#B3B3B3;stroke-width:4.4344;stroke-linecap:round;stroke-miterlimit:10;}
	.st1{fill:#E6E6E6;}
	.st2{fill:#FFFEFF;}
	.st3{fill:#B3B3B3;}
	.st4{fill:none;stroke:#B3B3B3;stroke-width:4.4344;stroke-miterlimit:10;}
	.st5{fill:none;stroke:#FFFEFF;stroke-width:3;stroke-miterlimit:10;}
	.st6{fill:#3B9838;}
	.st7{fill:none;stroke:#FFFFFF;stroke-width:2;stroke-linecap:round;stroke-linejoin:bevel;}
	.st8{opacity:0.73;}
	.st9{fill:#EAEAEA;stroke:#FFFFFF;stroke-width:2;stroke-linecap:round;stroke-linejoin:bevel;}
	.st10{fill:#EAEAEA;stroke:#FFFFFF;stroke-width:5;stroke-linecap:round;stroke-linejoin:bevel;}
	.st11{fill:#579B57;}
	.st12{opacity:0.1;fill:#70931B;}
	.st13{fill:none;stroke:#FFFEFF;stroke-miterlimit:10;}
	.st14{fill:#C1272D;}
	.st15{fill:#30AF00;}
	.st16{fill:#0076CB;}
	.st17{fill:#FFFFFF;}
	.st18{fill:#008061;}
	.st19{fill:#F5821F;}
	.st20{fill:#ED1B2D;}
	.st21{fill:#12344C;}
	.st22{opacity:0.5;fill:url(#SVGID_1_);}
	.st23{opacity:0.5;fill:url(#SVGID_00000056417568913356493650000016738497008774804912_);}
	.st24{fill:#E98025;}
	.st25{fill:#0071BC;}
	.st26{font-family:'NotoSansCJKtc-Medium-B5pc-H';}
	.st27{font-size:24px;}
	.st28{fill:#808080;}
	.st29{fill:#FFE9BA;}
	.st30{fill:#3E3D4D;}
	.st31{fill:#BCC4C6;}
	.st32{fill:#D24635;}
	.st33{fill:#FCF3EE;}
	.st34{fill:#E8C72E;}
	.st35{fill:#E0A911;}
	.st36{font-family:'GenSenRoundedTW-R';}
	.st37{font-size:9px;}
	.st38{opacity:0.2;fill:none;stroke:#70931B;stroke-width:2;stroke-miterlimit:10;stroke-dasharray:4,4;}
	.st39{font-family:'NotoSansMonoCJKtc-Regular-B5pc-H';}
	.st40{font-size:14.4177px;}
	.st41{font-family:'GenSenRoundedTW-B';}
	.st42{font-size:12px;}
	.st43{font-size:8.4814px;}
	.st44{opacity:0.2;fill:none;stroke:#70931B;stroke-width:1.78;stroke-miterlimit:10;stroke-dasharray:3.56,3.56;}
	.st45{font-family:'NotoSansCJKtc-Bold-B5pc-H';}
	.st46{font-size:16.1483px;}
	.st47{font-size:16.1173px;}
	.st48{font-size:12.8777px;}
	.st49{fill:#EE2041;}
	.st50{fill-rule:evenodd;clip-rule:evenodd;fill:#FFFFFF;}
	.st51{fill:#0074A9;}
	.st52{fill:#EB6101;}
	.st53{fill:#E4007F;}
	.st54{fill:#EB6877;}
	.st55{fill:#CC0000;}
	.st56{fill:#474747;}
	.st57{font-family:'MicrosoftJhengHeiBold';}
	.st58{font-size:17px;}
	.st59{font-size:10px;}
	.st60{fill:#6B6B6B;}
	.st61{opacity:0.8;}
	.st62{fill:none;stroke:#3B9838;stroke-width:3;stroke-miterlimit:10;}
	.st63{font-size:20.6523px;}
	.st64{fill-rule:evenodd;clip-rule:evenodd;fill:#040000;}
	.st65{fill:#040000;}
	.st66{fill:none;stroke:#040000;stroke-width:0.75;stroke-linejoin:round;stroke-miterlimit:8;}
	
		.st67{opacity:0;fill-rule:evenodd;clip-rule:evenodd;fill:none;stroke:#040000;stroke-width:0.75;stroke-linejoin:round;stroke-miterlimit:8;}
	
		.st68{fill-rule:evenodd;clip-rule:evenodd;fill:none;stroke:#040000;stroke-width:0.75;stroke-linejoin:round;stroke-miterlimit:8;}
	.st69{fill:#E2E2E2;stroke:#040000;stroke-width:0.75;stroke-linejoin:round;stroke-miterlimit:8;}
	
		.st70{fill-rule:evenodd;clip-rule:evenodd;fill:#E2E2E2;stroke:#040000;stroke-width:0.75;stroke-linejoin:round;stroke-miterlimit:8;}
	.st71{font-size:43px;}
	.st72{display:none;}
	.st73{display:inline;fill:none;stroke:#F90000;stroke-width:8;stroke-miterlimit:10;}
	.st74{display:inline;fill:#F90000;}
	.st75{font-size:10.7118px;}
	.st76{display:inline;}
	.st77{font-size:10.6247px;}
	.st78{fill:#F90000;}
	.st79{font-family:'NotoSansCJKtc-Thin-B5pc-H';}
	.st80{font-size:9.7075px;}
	.st81{font-size:32.5492px;}
	.st82{font-size:12.1344px;glyph-orientation-vertical:0;writing-mode:tb;}
	.st83{display:inline;fill:none;stroke:#000000;stroke-miterlimit:10;}
	.st84{font-family:'SourceHanSansTW-Medium-B5pc-H';}
	.st85{font-size:9.3394px;}
	.st86{display:inline;fill:none;stroke:#232323;stroke-miterlimit:10;}
	.st87{display:inline;fill:none;stroke:#F90000;stroke-width:3;stroke-miterlimit:10;}
	.st88{display:inline;fill:#FFFEFF;}
	.st89{display:inline;fill:none;stroke:#B3B3B3;stroke-width:4.4344;stroke-linecap:round;stroke-miterlimit:10;}
	.st90{display:inline;fill:#E6E6E6;}
	.st91{display:inline;fill:#B3B3B3;}
	.st92{display:inline;fill:none;stroke:#B3B3B3;stroke-width:4.4344;stroke-miterlimit:10;}
	.st93{display:inline;opacity:0.2;fill:none;stroke:#70931B;stroke-width:2;stroke-miterlimit:10;stroke-dasharray:4,4;}
	.st94{font-size:4.6943px;}
	.st95{display:inline;fill:none;stroke:#333131;stroke-miterlimit:10;}
	.st96{fill:none;stroke:#000000;stroke-miterlimit:10;}
	.st97{display:inline;fill:#F5EB31;stroke:#231815;stroke-miterlimit:10;}
	.st98{display:inline;fill:#BE611C;stroke:#231815;stroke-miterlimit:10;}
</style>
<g id="建築">
	<polygon class="st4" points="336.6,278.1 336.6,224.5 569.7,224.5 569.7,278.1 797.3,278.1 797.3,71.2 584.8,71.2 569.7,71.2 
		336.6,71.2 336.6,71.2 53.5,71.2 53.5,175.2 31.4,175.2 31.4,220.7 53.5,220.7 53.5,278.1 	"/>
	<rect x="60.4" y="85.6" class="st1" width="140.2" height="92.1"/>
	<rect x="203.4" y="85.6" class="st1" width="137.9" height="92.1"/>
	<rect x="344.1" y="85.6" class="st1" width="128.8" height="92.1"/>
	<rect x="475.7" y="85.6" class="st1" width="71.8" height="92.1"/>
	<rect x="550.3" y="85.6" class="st1" width="106.4" height="92.1"/>
	<polygon class="st1" points="790.7,78.1 790.7,177.7 659.5,177.7 659.5,85.6 747.4,85.6 747.4,78.1 	"/>
	<g>
		
			<rect x="577.3" y="210.9" transform="matrix(-1 -1.224647e-16 1.224647e-16 -1 1220.334 482.8194)" class="st1" width="65.8" height="61.1"/>
		<g>
			<rect x="597.5" y="210.9" class="st5" width="46.1" height="17.2"/>
		</g>
	</g>
	<g>
		<rect x="213.9" y="209.9" class="st5" width="36.3" height="18.1"/>
	</g>
	<polygon class="st1" points="645.8,272 670.3,272 689.6,272 790.7,272 790.7,210.9 673.7,210.9 673.7,247.1 645.8,247.1 	"/>
	<polygon class="st1" points="146.2,272 172.3,272 172.3,247.5 146.2,247.5 146.2,219.3 59.9,219.3 59.9,272 	"/>
	<line class="st5" x1="745.6" y1="272.1" x2="745.6" y2="210.2"/>
	
		<rect x="175.3" y="210.9" transform="matrix(-1 -1.224647e-16 1.224647e-16 -1 501.9883 482.8194)" class="st1" width="151.4" height="61.1"/>
	<g>
		<text transform="matrix(1 0 0 1 163.8618 54.0324)" class="st6 st26 st27">TR Building</text>
	</g>
</g>
<g id="標示">
	<g>
		<text transform="matrix(1 0 0 1 725.3048 203.4476)" class="st6 st36 st37">Souvenir Booth</text>
	</g>
	<g>
		<path class="st29" d="M714.5,194.8c-3.6,0-6.6,2.3-6.5,2.7c0.6,2.9,3.2,5.2,6.4,5.2c3.2,0,5.8-2.2,6.4-5.1
			C720.9,197.2,718.1,194.8,714.5,194.8z"/>
		<g>
			<g>
				<g>
					<path class="st30" d="M710.8,199.6c1.4,0,2.8-1,3-2.2c-0.5-1-1.6-1.8-3-1.8c-1.3,0-2.4,0.7-2.9,1.7
						C708.2,198.6,709.3,199.6,710.8,199.6z"/>
				</g>
			</g>
			<path class="st31" d="M711.4,195.6c0,0,0.3,1,0.3,1.6c0,0.6-0.1,2.1-0.1,2.1s0.9-0.5,1.2-1.3
				C713.1,197.1,712.8,195.8,711.4,195.6z"/>
			<path class="st30" d="M720.6,197.1c0,0.1,0,0.2,0,0.3c-0.3,1.1-2.1,2.2-2.1,2.2s0.1-1.5,0.1-2.1s-0.3-1.6-0.3-1.6
				c0.3,0,0.5,0.1,0.7,0.1c-0.3-0.1-0.7-0.2-1.1-0.2c-1.3,0-2.4,0.7-2.9,1.7c0.2,1.3,1.4,2.3,2.8,2.3c1.4,0,2.8-1,3-2.2
				C720.8,197.4,720.7,197.2,720.6,197.1z"/>
			<path class="st31" d="M718.5,197.4c0,0.6-0.1,2.1-0.1,2.1s1.8-1,2.1-2.2c0-0.1,0-0.2,0-0.3c-0.4-0.5-0.9-0.9-1.6-1.1
				c-0.2-0.1-0.5-0.1-0.7-0.1C718.3,195.8,718.5,196.8,718.5,197.4z"/>
			<path class="st32" d="M722.1,190.7c0-0.1,0-0.2,0-0.3c0-0.1-0.1-0.1-0.1-0.1l-2.1,0.4c0,0,0,0,0,0c0.4-0.4,1-2.2,1.1-2.6
				c0.1-0.3,0.1-0.5,0-0.6c0-0.1-0.1-0.1-0.2-0.1l-3.1,1c0.1-0.5,0-2.6-0.1-3.1c0-0.2-0.1-0.3-0.2-0.3c0,0-0.1,0-0.1,0l-4.1,3.4
				c-3.4,0.6-6,3.7-6,7.4c0,4.1,3.3,7.5,7.3,7.5s7.3-3.3,7.3-7.5c0-1-0.2-1.9-0.5-2.7c0-0.2,0.1-0.3,0.2-0.5
				C721.8,192,722,191.1,722.1,190.7z M720.9,197.6c-0.6,2.9-3.2,5.1-6.4,5.1c-3.2,0-5.9-2.2-6.4-5.2c-0.1-0.4,2.9-2.7,6.5-2.7
				C718.1,194.8,720.9,197.2,720.9,197.6z"/>
		</g>
		<g>
			<circle class="st33" cx="711.3" cy="192.2" r="2.2"/>
			<g>
				<path class="st30" d="M712.3,191.3c0,0.3-0.3,0.6-0.7,0.6c-0.4,0-0.7-0.3-0.7-0.7c0-0.2,0.1-0.3,0.2-0.4
					c-0.7,0.1-1.2,0.6-1.2,1.4c0,0.8,0.6,1.4,1.4,1.4s1.4-0.6,1.4-1.4C712.7,191.8,712.5,191.5,712.3,191.3z"/>
			</g>
		</g>
		<g>
			<circle class="st33" cx="717.7" cy="192.4" r="2.2"/>
			<g>
				<path class="st30" d="M716.7,191.5c0,0.3,0.3,0.6,0.7,0.6c0.4,0,0.7-0.3,0.7-0.7c0-0.2-0.1-0.3-0.2-0.4c0.7,0.1,1.2,0.6,1.2,1.4
					c0,0.8-0.6,1.4-1.4,1.4s-1.4-0.6-1.4-1.4C716.4,192.1,716.5,191.7,716.7,191.5z"/>
			</g>
		</g>
		<g>
			<path class="st34" d="M720.3,196.2c-0.1-0.3-0.5-0.7-1.6-1.2c-0.8-0.3-2.7-1.1-3.5-1.4c-0.3-0.1-0.5-0.1-0.8,0
				c-0.8,0.2-2.7,0.8-3.6,1.2c-1.1,0.4-1.5,0.6-1.7,1c-0.1,0.3,0,0.5,0.3,0.8c0.3,0.3,2,1.8,2.5,2.2s1.8,1.3,2,1.5
				c0.2,0.1,0.4,0.2,0.6,0.3l0,0c0,0,0,0,0,0c0.1,0,0.3,0,0.4,0c0,0,0,0,0,0l0,0c0.2,0,0.4-0.1,0.6-0.3c0.3-0.2,1.5-1.1,2.1-1.5
				c0.6-0.4,2-1.6,2.3-1.8C720.2,196.7,720.4,196.5,720.3,196.2z"/>
			<path class="st35" d="M714.8,194.2c0,0,0,0.1,0.1,0.1c0.1,0.1,0.1,0.2,0.1,0.2s0.1,1.4,0,2.5s-0.2,3-0.2,3s0.4-2.6,0.4-3
				c0.1-0.5,0.3-2,0.2-2.2C715.4,194.5,715.2,194.1,714.8,194.2z"/>
		</g>
	</g>
	<g>
		<text transform="matrix(1 0 0 1 692.9297 258.2653)" class="st21 st39 st40">Toilet</text>
	</g>
	<g id="o3AOjT_00000004533061654436622890000005591447082427451054_">
		<g>
			<g>
				<path class="st21" d="M713.8,228.7c0.4-0.4,0.8-0.7,1.1-1.1c0.5-0.5,1.1-0.5,1.4,0.2c1.5,3.8,2.9,7.5,4.3,11.3
					c0.3,0.8-0.2,1.5-1,1.6c-0.2,0-0.4,0-0.5,0c-3.4,0-6.8,0-10.2,0c-0.2,0-0.4,0-0.6,0c-1-0.1-1.4-0.8-1.1-1.7
					c0.7-1.9,1.5-3.8,2.2-5.8c0.7-1.8,1.4-3.6,2.1-5.4c0.3-0.7,0.8-0.8,1.3-0.3C713.2,227.9,713.5,228.3,713.8,228.7z"/>
				<path class="st21" d="M713.9,226.3c-2,0-3.8-1.6-3.8-3.9c0-2,1.6-3.7,3.8-3.7c2.1,0,3.8,1.7,3.8,3.8
					C717.7,224.6,716,226.3,713.9,226.3z"/>
			</g>
		</g>
	</g>
	<g>
		<g>
			<path class="st21" d="M108.9,230.8c0,0.3-0.3,0.4-0.3,0.7c0,0.2,0.1,0.4,0.3,0.6c0.5,0.3,0.5,0.8,0.4,1.3
				c-0.2,1.4-0.3,2.9-0.5,4.3c-0.1,0.6,0.3,0.9,0.5,1.4c0.9-0.8,0.6-1.7,0.5-2.6c-0.1-1.1-0.3-2.3-0.4-3.4c0-0.4,0-0.6,0.3-0.9
				c0.2-0.1,0.4-0.3,0.5-0.6c-0.1-0.2-0.3-0.4-0.4-0.6c0.1-0.2,0.3-0.2,0.5-0.2c1,0,2,0,2.9,0c1.5,0,2.5,1.4,1.9,2.8
				c-0.9,2.3-1.8,4.6-2.7,7c-0.4,1-0.6,2-1.2,2.9c-0.5,0.8-1.3,1.1-2.3,0.9c-1.1-0.2-1.6-0.9-1.9-1.8c-0.8-2-1.6-4.1-2.3-6.1
				c-0.4-0.9-0.7-1.9-1.1-2.8c-0.5-1.4,0.4-2.7,1.9-2.8C106.6,230.8,107.7,230.8,108.9,230.8z"/>
			<path class="st21" d="M109.4,230.1c-2.2,0-4-1.7-4-3.9c0-2.2,1.7-3.9,3.8-4c2.2,0,4,1.7,4,3.8C113.3,228,111.9,230,109.4,230.1z"
				/>
		</g>
	</g>
	<g>
		<text transform="matrix(1 0 0 1 88.5508 261.2731)" class="st21 st39 st40">Toilet</text>
	</g>
	<g id="mGfqoG_00000124120913831604672390000000066494190400510347_">
		<g>
			<path class="st25" d="M277.3,231c0,1.7,0,3.4,0,5.1c0,2-1.4,3.4-3.5,3.4c-3.4,0-6.8,0-10.1,0c-2.1,0-3.5-1.4-3.5-3.5
				c0-3.3,0-6.7,0-10c0-2.2,1.4-3.5,3.6-3.5c3.3,0,6.6,0,10,0c2.2,0,3.6,1.4,3.6,3.6c0,0.8,0,1.7,0,2.5S277.3,230.1,277.3,231z
				 M268.8,223.6C268.8,223.6,268.8,223.6,268.8,223.6c-1.7,0-3.4,0-5.1,0c-1.5,0-2.3,0.8-2.3,2.3c0,3.3,0,6.7,0,10
				c0,1.5,0.8,2.3,2.3,2.3c3.4,0,6.8,0,10.2,0c1.4,0,2.2-0.9,2.2-2.2c0-3.4,0-6.8,0-10.2c0-1.4-0.8-2.2-2.2-2.2
				C272.2,223.6,270.5,223.6,268.8,223.6z"/>
			<path class="st25" d="M264.3,219c0-0.8,0-1.5,0-2.3c0-0.4,0-0.8,0-1.2c0-0.7,0.2-1.1,0.7-1.1c0.4,0,0.7,0.4,0.7,1.1
				c0,0.9,0,1.9,0,2.8c0,0.2-0.1,0.4,0.1,0.5c0.2,0.1,0.3-0.1,0.4-0.3c0.4-0.3,0.7-0.7,1.1-1.1c0.3-0.3,0.6-0.3,0.9,0
				c0.3,0.3,0.4,0.6,0.1,0.9c-1,1-1.9,2.1-2.9,3.1c-0.2,0.2-0.6,0.2-0.8-0.1c-0.9-1-1.8-1.9-2.7-2.9c-0.3-0.3-0.2-0.7,0.1-1
				c0.3-0.3,0.6-0.2,0.9,0.1c0.5,0.5,0.9,1,1.4,1.5C264.2,219,264.2,219,264.3,219z"/>
			<path class="st25" d="M271.9,216.9c-0.5,0.6-1,1-1.4,1.5c-0.4,0.4-0.7,0.5-1.1,0.2c-0.3-0.3-0.3-0.7,0.1-1.1
				c0.8-0.9,1.7-1.8,2.5-2.6c0.4-0.4,0.7-0.4,1.1,0c0.8,0.9,1.7,1.7,2.5,2.6c0.4,0.4,0.4,0.9,0.1,1.2c-0.4,0.4-0.7,0.1-1-0.2
				c-0.4-0.4-0.9-0.8-1.4-1.3c-0.1,0.3,0,0.6,0,0.9c0,0.9,0,1.9,0,2.8c0,0.4-0.1,0.9-0.7,0.9c-0.5,0-0.7-0.4-0.7-0.8
				c0-1.1,0-2.2,0-3.3C271.9,217.4,271.9,217.2,271.9,216.9z"/>
			<path class="st25" d="M273.1,233.4c0,0.9,0,1.8,0,2.6c0,0.2,0,0.4,0,0.6c0,0.4,0,0.8-0.6,0.8c-0.5,0-0.5-0.4-0.5-0.8
				c0-0.9,0-1.7,0-2.6c0-0.4,0-0.8-0.4-1.1c-0.2-0.1-0.2-0.4-0.2-0.6c0-1.1,0-2.3,0-3.4c0-0.7,0.3-0.9,0.9-1c0.5,0,1.1,0,1.6,0
				c0.6,0,0.8,0.3,0.8,0.9c0,1.2,0,2.4,0,3.6c0,0.2,0,0.5-0.2,0.6c-0.4,0.3-0.4,0.6-0.4,1c0,0.9,0,1.7,0,2.6c0,0.4,0.1,0.9-0.5,0.9
				c-0.6,0-0.5-0.5-0.5-0.9c0-1,0-2,0-3C273.2,233.4,273.2,233.4,273.1,233.4z"/>
			<path class="st25" d="M264.4,233.4c0,1.1,0,2.3,0,3.4c0,0.4-0.1,0.7-0.6,0.7c-0.4,0-0.5-0.3-0.5-0.7c0-1,0-2,0-2.9
				c0-0.3,0-0.7-0.3-0.9c-0.2-0.2-0.2-0.4-0.2-0.7c0-1.1,0-2.3,0-3.4c0-0.7,0.3-1,1-1c0.5,0,1,0,1.5,0c0.6,0,0.9,0.3,0.9,0.9
				c0,1.2,0,2.3,0,3.5c0,0.2,0,0.5-0.2,0.6c-0.4,0.3-0.4,0.6-0.4,1c0,0.9,0,1.9,0,2.8c0,0.3,0,0.5-0.3,0.7c-0.4,0.2-0.7,0-0.7-0.6
				c0-1,0-2,0-3c0-0.1,0-0.3,0-0.4C264.4,233.4,264.4,233.4,264.4,233.4z"/>
			<path class="st25" d="M268.7,233.4c0,1.1,0,2.2,0,3.3c0,0.2,0,0.4-0.1,0.6c-0.2,0.2-0.4,0.2-0.6,0.1c-0.3-0.1-0.4-0.3-0.4-0.6
				c0-1,0-1.9,0-2.9c0-0.4,0-0.7-0.4-1c-0.2-0.1-0.2-0.4-0.2-0.6c0-1.2,0-2.3,0-3.5c0-0.6,0.3-0.9,0.9-0.9c0.5,0,1,0,1.5,0
				c0.6,0,0.9,0.3,0.9,0.9c0,1.2,0,2.3,0,3.5c0,0.2,0,0.4-0.2,0.6c-0.4,0.3-0.4,0.7-0.4,1.2c0,0.9,0,1.7,0,2.6c0,0.4,0,0.8-0.6,0.8
				c-0.6,0-0.5-0.4-0.5-0.8c0-1.1,0-2.1,0-3.2C268.8,233.4,268.8,233.4,268.7,233.4z"/>
			<path class="st25" d="M270,226.5c0,0.7-0.6,1.2-1.2,1.2c-0.6,0-1.2-0.6-1.2-1.2c0-0.6,0.6-1.3,1.2-1.3
				C269.4,225.3,270,225.8,270,226.5z"/>
			<path class="st25" d="M274.4,226.5c0,0.7-0.6,1.2-1.2,1.2c-0.6,0-1.2-0.6-1.2-1.2c0-0.7,0.6-1.3,1.2-1.3
				C273.8,225.3,274.4,225.8,274.4,226.5z"/>
			<path class="st25" d="M264.4,227.7c-0.7,0-1.2-0.6-1.2-1.2c0-0.6,0.6-1.2,1.2-1.2c0.7,0,1.3,0.6,1.3,1.2
				C265.7,227.2,265.1,227.7,264.4,227.7z"/>
		</g>
	</g>
	<g id="mGfqoG_00000177446304067995444010000004060405645296727999_">
		<g>
			<path class="st25" d="M277.3,260.3c0,1.7,0,3.4,0,5.1c0,2-1.4,3.4-3.5,3.4c-3.4,0-6.8,0-10.1,0c-2.1,0-3.5-1.4-3.5-3.5
				c0-3.3,0-6.7,0-10c0-2.2,1.4-3.5,3.6-3.5c3.3,0,6.6,0,10,0c2.2,0,3.6,1.4,3.6,3.6c0,0.8,0,1.7,0,2.5S277.3,259.4,277.3,260.3z
				 M268.8,252.9C268.8,252.9,268.8,252.9,268.8,252.9c-1.7,0-3.4,0-5.1,0c-1.5,0-2.3,0.8-2.3,2.3c0,3.3,0,6.7,0,10
				c0,1.5,0.8,2.3,2.3,2.3c3.4,0,6.8,0,10.2,0c1.4,0,2.2-0.9,2.2-2.2c0-3.4,0-6.8,0-10.2c0-1.4-0.8-2.2-2.2-2.2
				C272.2,252.9,270.5,252.9,268.8,252.9z"/>
			<path class="st25" d="M264.3,248.3c0-0.8,0-1.5,0-2.3c0-0.4,0-0.8,0-1.2c0-0.7,0.2-1.1,0.7-1.1c0.4,0,0.7,0.4,0.7,1.1
				c0,0.9,0,1.9,0,2.8c0,0.2-0.1,0.4,0.1,0.5c0.2,0.1,0.3-0.1,0.4-0.3c0.4-0.3,0.7-0.7,1.1-1.1c0.3-0.3,0.6-0.3,0.9,0
				c0.3,0.3,0.4,0.6,0.1,0.9c-1,1-1.9,2.1-2.9,3.1c-0.2,0.2-0.6,0.2-0.8-0.1c-0.9-1-1.8-1.9-2.7-2.9c-0.3-0.3-0.2-0.7,0.1-1
				c0.3-0.3,0.6-0.2,0.9,0.1c0.5,0.5,0.9,1,1.4,1.5C264.2,248.3,264.2,248.3,264.3,248.3z"/>
			<path class="st25" d="M271.9,246.2c-0.5,0.6-1,1-1.4,1.5c-0.4,0.4-0.7,0.5-1.1,0.2c-0.3-0.3-0.3-0.7,0.1-1.1
				c0.8-0.9,1.7-1.8,2.5-2.6c0.4-0.4,0.7-0.4,1.1,0c0.8,0.9,1.7,1.7,2.5,2.6c0.4,0.4,0.4,0.9,0.1,1.2c-0.4,0.4-0.7,0.1-1-0.2
				c-0.4-0.4-0.9-0.8-1.4-1.3c-0.1,0.3,0,0.6,0,0.9c0,0.9,0,1.9,0,2.8c0,0.4-0.1,0.9-0.7,0.9c-0.5,0-0.7-0.4-0.7-0.8
				c0-1.1,0-2.2,0-3.3C271.9,246.7,271.9,246.5,271.9,246.2z"/>
			<path class="st25" d="M273.1,262.7c0,0.9,0,1.8,0,2.6c0,0.2,0,0.4,0,0.6c0,0.4,0,0.8-0.6,0.8c-0.5,0-0.5-0.4-0.5-0.8
				c0-0.9,0-1.7,0-2.6c0-0.4,0-0.8-0.4-1.1c-0.2-0.1-0.2-0.4-0.2-0.6c0-1.1,0-2.3,0-3.4c0-0.7,0.3-0.9,0.9-1c0.5,0,1.1,0,1.6,0
				c0.6,0,0.8,0.3,0.8,0.9c0,1.2,0,2.4,0,3.6c0,0.2,0,0.5-0.2,0.6c-0.4,0.3-0.4,0.6-0.4,1c0,0.9,0,1.7,0,2.6c0,0.4,0.1,0.9-0.5,0.9
				c-0.6,0-0.5-0.5-0.5-0.9c0-1,0-2,0-3C273.2,262.7,273.2,262.7,273.1,262.7z"/>
			<path class="st25" d="M264.4,262.7c0,1.1,0,2.3,0,3.4c0,0.4-0.1,0.7-0.6,0.7c-0.4,0-0.5-0.3-0.5-0.7c0-1,0-2,0-2.9
				c0-0.3,0-0.7-0.3-0.9c-0.2-0.2-0.2-0.4-0.2-0.7c0-1.1,0-2.3,0-3.4c0-0.7,0.3-1,1-1c0.5,0,1,0,1.5,0c0.6,0,0.9,0.3,0.9,0.9
				c0,1.2,0,2.3,0,3.5c0,0.2,0,0.5-0.2,0.6c-0.4,0.3-0.4,0.6-0.4,1c0,0.9,0,1.9,0,2.8c0,0.3,0,0.5-0.3,0.7c-0.4,0.2-0.7,0-0.7-0.6
				c0-1,0-2,0-3c0-0.1,0-0.3,0-0.4C264.4,262.7,264.4,262.7,264.4,262.7z"/>
			<path class="st25" d="M268.7,262.7c0,1.1,0,2.2,0,3.3c0,0.2,0,0.4-0.1,0.6c-0.2,0.2-0.4,0.2-0.6,0.1c-0.3-0.1-0.4-0.3-0.4-0.6
				c0-1,0-1.9,0-2.9c0-0.4,0-0.7-0.4-1c-0.2-0.1-0.2-0.4-0.2-0.6c0-1.2,0-2.3,0-3.5c0-0.6,0.3-0.9,0.9-0.9c0.5,0,1,0,1.5,0
				c0.6,0,0.9,0.3,0.9,0.9c0,1.2,0,2.3,0,3.5c0,0.2,0,0.4-0.2,0.6c-0.4,0.3-0.4,0.7-0.4,1.2c0,0.9,0,1.7,0,2.6c0,0.4,0,0.8-0.6,0.8
				c-0.6,0-0.5-0.4-0.5-0.8c0-1.1,0-2.1,0-3.2C268.8,262.7,268.8,262.7,268.7,262.7z"/>
			<path class="st25" d="M270,255.8c0,0.7-0.6,1.2-1.2,1.2c-0.6,0-1.2-0.6-1.2-1.2c0-0.6,0.6-1.3,1.2-1.3
				C269.4,254.6,270,255.2,270,255.8z"/>
			<path class="st25" d="M274.4,255.8c0,0.7-0.6,1.2-1.2,1.2c-0.6,0-1.2-0.6-1.2-1.2c0-0.7,0.6-1.3,1.2-1.3
				C273.8,254.6,274.4,255.1,274.4,255.8z"/>
			<path class="st25" d="M264.4,257.1c-0.7,0-1.2-0.6-1.2-1.2c0-0.6,0.6-1.2,1.2-1.2c0.7,0,1.3,0.6,1.3,1.2
				C265.7,256.5,265.1,257.1,264.4,257.1z"/>
		</g>
	</g>
	<g id="mGfqoG_00000090275751892388773720000000266224313530847154_">
		<g>
			<path class="st25" d="M321.4,231c0,1.7,0,3.4,0,5.1c0,2-1.4,3.4-3.5,3.4c-3.4,0-6.8,0-10.1,0c-2.1,0-3.5-1.4-3.5-3.5
				c0-3.3,0-6.7,0-10c0-2.2,1.4-3.5,3.6-3.5c3.3,0,6.6,0,10,0c2.2,0,3.6,1.4,3.6,3.6c0,0.8,0,1.7,0,2.5S321.4,230.1,321.4,231z
				 M312.9,223.6C312.9,223.6,312.9,223.6,312.9,223.6c-1.7,0-3.4,0-5.1,0c-1.5,0-2.3,0.8-2.3,2.3c0,3.3,0,6.7,0,10
				c0,1.5,0.8,2.3,2.3,2.3c3.4,0,6.8,0,10.2,0c1.4,0,2.2-0.9,2.2-2.2c0-3.4,0-6.8,0-10.2c0-1.4-0.8-2.2-2.2-2.2
				C316.3,223.6,314.6,223.6,312.9,223.6z"/>
			<path class="st25" d="M308.4,219c0-0.8,0-1.5,0-2.3c0-0.4,0-0.8,0-1.2c0-0.7,0.2-1.1,0.7-1.1c0.4,0,0.7,0.4,0.7,1.1
				c0,0.9,0,1.9,0,2.8c0,0.2-0.1,0.4,0.1,0.5c0.2,0.1,0.3-0.1,0.4-0.3c0.4-0.3,0.7-0.7,1.1-1.1c0.3-0.3,0.6-0.3,0.9,0
				c0.3,0.3,0.4,0.6,0.1,0.9c-1,1-1.9,2.1-2.9,3.1c-0.2,0.2-0.6,0.2-0.8-0.1c-0.9-1-1.8-1.9-2.7-2.9c-0.3-0.3-0.2-0.7,0.1-1
				c0.3-0.3,0.6-0.2,0.9,0.1c0.5,0.5,0.9,1,1.4,1.5C308.3,219,308.3,219,308.4,219z"/>
			<path class="st25" d="M316,216.9c-0.5,0.6-1,1-1.4,1.5c-0.4,0.4-0.7,0.5-1.1,0.2c-0.3-0.3-0.3-0.7,0.1-1.1
				c0.8-0.9,1.7-1.8,2.5-2.6c0.4-0.4,0.7-0.4,1.1,0c0.8,0.9,1.7,1.7,2.5,2.6c0.4,0.4,0.4,0.9,0.1,1.2c-0.4,0.4-0.7,0.1-1-0.2
				c-0.4-0.4-0.9-0.8-1.4-1.3c-0.1,0.3,0,0.6,0,0.9c0,0.9,0,1.9,0,2.8c0,0.4-0.1,0.9-0.7,0.9c-0.5,0-0.7-0.4-0.7-0.8
				c0-1.1,0-2.2,0-3.3C316,217.4,316,217.2,316,216.9z"/>
			<path class="st25" d="M317.3,233.4c0,0.9,0,1.8,0,2.6c0,0.2,0,0.4,0,0.6c0,0.4,0,0.8-0.6,0.8c-0.5,0-0.5-0.4-0.5-0.8
				c0-0.9,0-1.7,0-2.6c0-0.4,0-0.8-0.4-1.1c-0.2-0.1-0.2-0.4-0.2-0.6c0-1.1,0-2.3,0-3.4c0-0.7,0.3-0.9,0.9-1c0.5,0,1.1,0,1.6,0
				c0.6,0,0.8,0.3,0.8,0.9c0,1.2,0,2.4,0,3.6c0,0.2,0,0.5-0.2,0.6c-0.4,0.3-0.4,0.6-0.4,1c0,0.9,0,1.7,0,2.6c0,0.4,0.1,0.9-0.5,0.9
				c-0.6,0-0.5-0.5-0.5-0.9c0-1,0-2,0-3C317.3,233.4,317.3,233.4,317.3,233.4z"/>
			<path class="st25" d="M308.5,233.4c0,1.1,0,2.3,0,3.4c0,0.4-0.1,0.7-0.6,0.7c-0.4,0-0.5-0.3-0.5-0.7c0-1,0-2,0-2.9
				c0-0.3,0-0.7-0.3-0.9c-0.2-0.2-0.2-0.4-0.2-0.7c0-1.1,0-2.3,0-3.4c0-0.7,0.3-1,1-1c0.5,0,1,0,1.5,0c0.6,0,0.9,0.3,0.9,0.9
				c0,1.2,0,2.3,0,3.5c0,0.2,0,0.5-0.2,0.6c-0.4,0.3-0.4,0.6-0.4,1c0,0.9,0,1.9,0,2.8c0,0.3,0,0.5-0.3,0.7c-0.4,0.2-0.7,0-0.7-0.6
				c0-1,0-2,0-3c0-0.1,0-0.3,0-0.4C308.5,233.4,308.5,233.4,308.5,233.4z"/>
			<path class="st25" d="M312.8,233.4c0,1.1,0,2.2,0,3.3c0,0.2,0,0.4-0.1,0.6c-0.2,0.2-0.4,0.2-0.6,0.1c-0.3-0.1-0.4-0.3-0.4-0.6
				c0-1,0-1.9,0-2.9c0-0.4,0-0.7-0.4-1c-0.2-0.1-0.2-0.4-0.2-0.6c0-1.2,0-2.3,0-3.5c0-0.6,0.3-0.9,0.9-0.9c0.5,0,1,0,1.5,0
				c0.6,0,0.9,0.3,0.9,0.9c0,1.2,0,2.3,0,3.5c0,0.2,0,0.4-0.2,0.6c-0.4,0.3-0.4,0.7-0.4,1.2c0,0.9,0,1.7,0,2.6c0,0.4,0,0.8-0.6,0.8
				c-0.6,0-0.5-0.4-0.5-0.8c0-1.1,0-2.1,0-3.2C312.9,233.4,312.9,233.4,312.8,233.4z"/>
			<path class="st25" d="M314.1,226.5c0,0.7-0.6,1.2-1.2,1.2c-0.6,0-1.2-0.6-1.2-1.2c0-0.6,0.6-1.3,1.2-1.3
				C313.5,225.3,314.1,225.8,314.1,226.5z"/>
			<path class="st25" d="M318.5,226.5c0,0.7-0.6,1.2-1.2,1.2c-0.6,0-1.2-0.6-1.2-1.2c0-0.7,0.6-1.3,1.2-1.3
				C317.9,225.3,318.5,225.8,318.5,226.5z"/>
			<path class="st25" d="M308.5,227.7c-0.7,0-1.2-0.6-1.2-1.2c0-0.6,0.6-1.2,1.2-1.2c0.7,0,1.3,0.6,1.3,1.2
				C309.8,227.2,309.2,227.7,308.5,227.7z"/>
		</g>
	</g>
	<g id="mGfqoG_00000088103085647367058530000006570581239449551235_">
		<g>
			<path class="st25" d="M321.4,260.3c0,1.7,0,3.4,0,5.1c0,2-1.4,3.4-3.5,3.4c-3.4,0-6.8,0-10.1,0c-2.1,0-3.5-1.4-3.5-3.5
				c0-3.3,0-6.7,0-10c0-2.2,1.4-3.5,3.6-3.5c3.3,0,6.6,0,10,0c2.2,0,3.6,1.4,3.6,3.6c0,0.8,0,1.7,0,2.5
				C321.4,258.6,321.4,259.4,321.4,260.3z M312.9,252.9C312.9,252.9,312.9,252.9,312.9,252.9c-1.7,0-3.4,0-5.1,0
				c-1.5,0-2.3,0.8-2.3,2.3c0,3.3,0,6.7,0,10c0,1.5,0.8,2.3,2.3,2.3c3.4,0,6.8,0,10.2,0c1.4,0,2.2-0.9,2.2-2.2c0-3.4,0-6.8,0-10.2
				c0-1.4-0.8-2.2-2.2-2.2C316.3,252.9,314.6,252.9,312.9,252.9z"/>
			<path class="st25" d="M308.4,248.3c0-0.8,0-1.5,0-2.3c0-0.4,0-0.8,0-1.2c0-0.7,0.2-1.1,0.7-1.1c0.4,0,0.7,0.4,0.7,1.1
				c0,0.9,0,1.9,0,2.8c0,0.2-0.1,0.4,0.1,0.5c0.2,0.1,0.3-0.1,0.4-0.3c0.4-0.3,0.7-0.7,1.1-1.1c0.3-0.3,0.6-0.3,0.9,0
				c0.3,0.3,0.4,0.6,0.1,0.9c-1,1-1.9,2.1-2.9,3.1c-0.2,0.2-0.6,0.2-0.8-0.1c-0.9-1-1.8-1.9-2.7-2.9c-0.3-0.3-0.2-0.7,0.1-1
				c0.3-0.3,0.6-0.2,0.9,0.1c0.5,0.5,0.9,1,1.4,1.5C308.3,248.3,308.3,248.3,308.4,248.3z"/>
			<path class="st25" d="M316,246.2c-0.5,0.6-1,1-1.4,1.5c-0.4,0.4-0.7,0.5-1.1,0.2c-0.3-0.3-0.3-0.7,0.1-1.1
				c0.8-0.9,1.7-1.8,2.5-2.6c0.4-0.4,0.7-0.4,1.1,0c0.8,0.9,1.7,1.7,2.5,2.6c0.4,0.4,0.4,0.9,0.1,1.2c-0.4,0.4-0.7,0.1-1-0.2
				c-0.4-0.4-0.9-0.8-1.4-1.3c-0.1,0.3,0,0.6,0,0.9c0,0.9,0,1.9,0,2.8c0,0.4-0.1,0.9-0.7,0.9c-0.5,0-0.7-0.4-0.7-0.8
				c0-1.1,0-2.2,0-3.3C316,246.7,316,246.5,316,246.2z"/>
			<path class="st25" d="M317.3,262.7c0,0.9,0,1.8,0,2.6c0,0.2,0,0.4,0,0.6c0,0.4,0,0.8-0.6,0.8c-0.5,0-0.5-0.4-0.5-0.8
				c0-0.9,0-1.7,0-2.6c0-0.4,0-0.8-0.4-1.1c-0.2-0.1-0.2-0.4-0.2-0.6c0-1.1,0-2.3,0-3.4c0-0.7,0.3-0.9,0.9-1c0.5,0,1.1,0,1.6,0
				c0.6,0,0.8,0.3,0.8,0.9c0,1.2,0,2.4,0,3.6c0,0.2,0,0.5-0.2,0.6c-0.4,0.3-0.4,0.6-0.4,1c0,0.9,0,1.7,0,2.6c0,0.4,0.1,0.9-0.5,0.9
				c-0.6,0-0.5-0.5-0.5-0.9c0-1,0-2,0-3C317.3,262.7,317.3,262.7,317.3,262.7z"/>
			<path class="st25" d="M308.5,262.7c0,1.1,0,2.3,0,3.4c0,0.4-0.1,0.7-0.6,0.7c-0.4,0-0.5-0.3-0.5-0.7c0-1,0-2,0-2.9
				c0-0.3,0-0.7-0.3-0.9c-0.2-0.2-0.2-0.4-0.2-0.7c0-1.1,0-2.3,0-3.4c0-0.7,0.3-1,1-1c0.5,0,1,0,1.5,0c0.6,0,0.9,0.3,0.9,0.9
				c0,1.2,0,2.3,0,3.5c0,0.2,0,0.5-0.2,0.6c-0.4,0.3-0.4,0.6-0.4,1c0,0.9,0,1.9,0,2.8c0,0.3,0,0.5-0.3,0.7c-0.4,0.2-0.7,0-0.7-0.6
				c0-1,0-2,0-3c0-0.1,0-0.3,0-0.4C308.5,262.7,308.5,262.7,308.5,262.7z"/>
			<path class="st25" d="M312.8,262.7c0,1.1,0,2.2,0,3.3c0,0.2,0,0.4-0.1,0.6c-0.2,0.2-0.4,0.2-0.6,0.1c-0.3-0.1-0.4-0.3-0.4-0.6
				c0-1,0-1.9,0-2.9c0-0.4,0-0.7-0.4-1c-0.2-0.1-0.2-0.4-0.2-0.6c0-1.2,0-2.3,0-3.5c0-0.6,0.3-0.9,0.9-0.9c0.5,0,1,0,1.5,0
				c0.6,0,0.9,0.3,0.9,0.9c0,1.2,0,2.3,0,3.5c0,0.2,0,0.4-0.2,0.6c-0.4,0.3-0.4,0.7-0.4,1.2c0,0.9,0,1.7,0,2.6c0,0.4,0,0.8-0.6,0.8
				c-0.6,0-0.5-0.4-0.5-0.8c0-1.1,0-2.1,0-3.2C312.9,262.7,312.9,262.7,312.8,262.7z"/>
			<path class="st25" d="M314.1,255.8c0,0.7-0.6,1.2-1.2,1.2c-0.6,0-1.2-0.6-1.2-1.2c0-0.6,0.6-1.3,1.2-1.3
				C313.5,254.6,314.1,255.2,314.1,255.8z"/>
			<path class="st25" d="M318.5,255.8c0,0.7-0.6,1.2-1.2,1.2c-0.6,0-1.2-0.6-1.2-1.2c0-0.7,0.6-1.3,1.2-1.3
				C317.9,254.6,318.5,255.1,318.5,255.8z"/>
			<path class="st25" d="M308.5,257.1c-0.7,0-1.2-0.6-1.2-1.2c0-0.6,0.6-1.2,1.2-1.2c0.7,0,1.3,0.6,1.3,1.2
				C309.8,256.5,309.2,257.1,308.5,257.1z"/>
		</g>
	</g>
	<line class="st5" x1="250.7" y1="272.1" x2="250.7" y2="210.2"/>
	<line class="st5" x1="674.3" y1="272.1" x2="674.3" y2="210.2"/>
	<g id="s8VYHe_00000127725196796028141350000000385432383897413260_">
		<g>
			<path class="st24" d="M660.3,244.5c1.4,0,2.7,0,4.1,0c0.5,0,0.9,0.3,1,0.8c0.1,0.6-0.3,1.1-0.9,1.1c-1,0-1.9,0-2.9,0
				c-0.2,0-0.2,0-0.2,0.2c0,0.9,0,1.8,0,2.7c0,0.1,0,0.2,0.2,0.2c0.5,0,0.9,0.5,1,1c0,0.2,0,0.2,0.2,0.2c1.3,0,2.6,0,3.8,0
				c0.2,0,0.2,0,0.2-0.2c0-0.8,0-1.6,0-2.4c0-0.4,0.2-0.6,0.6-0.6c0.3,0,0.6,0,1,0c0.1,0,0.1,0,0.1,0.1c0,0.5,0,1.1,0,1.6
				c0,0.5,0,0.9,0,1.4c0,0.5,0,1.1,0,1.6c0,0.5,0,1,0,1.5c0,0.2,0,0.4,0,0.6c0,0.5,0,1,0,1.5c0,0.3,0,0.5,0,0.8c0,0.2,0,0.2-0.2,0.2
				c-0.3,0-0.6,0-1,0c-0.4,0-0.6-0.2-0.6-0.6c0-0.8,0-1.6,0-2.4c0-0.2,0-0.2-0.2-0.2c-0.5,0-1.1,0-1.6,0c-0.5,0-0.9,0-1.4,0
				c-0.3,0-0.6,0-0.8,0c-0.2,0-0.2,0-0.2,0.2c-0.1,0.6-0.6,1-1.2,1c-0.6,0-1.3,0-1.9,0c-0.6,0-1.1-0.4-1.2-1c0-0.1-0.1-0.1-0.2-0.1
				c-0.3,0-0.7,0-1,0c-0.6,0-1.2,0-1.8,0c-0.2,0-0.5,0-0.7,0.1c-0.5,0.2-0.9,0.7-0.9,1.3c0,0.5,0,1,0,1.5c0,0.6,0,1.1,0,1.7
				c0,0.1,0,0.1-0.1,0.1c-0.9,0-1.9,0-2.8,0c-0.1,0-0.1-0.1-0.1-0.2c0-0.5,0-1,0-1.5c0-0.8,0-1.6,0-2.3c0-0.6,0.2-1.1,0.5-1.5
				c0.6-0.9,1.5-1.5,2.5-1.8c0.7-0.2,1.4-0.3,2.1-0.3c0.8,0,1.6,0,2.4,0c0.1,0,0.2,0,0.2-0.1c0.1-0.6,0.5-0.9,1-1
				c0.1,0,0.1-0.1,0.1-0.2c0-0.9,0-1.8,0-2.8c0-0.1,0-0.2-0.2-0.2c-1,0-1.9,0-2.9,0c-0.5,0-0.8-0.3-1-0.7c-0.2-0.6,0.3-1.2,0.9-1.2
				c0.8,0,1.5,0,2.3,0C659.1,244.5,659.7,244.5,660.3,244.5C660.3,244.5,660.3,244.5,660.3,244.5z"/>
			<path class="st24" d="M651.9,260.8c1.6,0,3.1,0,4.7,0c0.2,0,0.2,0,0.2,0.2c-0.1,0.9-0.2,1.8-0.3,2.7c-0.1,0.9-0.2,1.8-0.3,2.6
				c-0.1,0.7-0.2,1.4-0.2,2.1c0,0.5-0.1,1-0.2,1.5c-0.1,0.8-0.2,1.6-0.3,2.3c0,0.2,0,0.2-0.2,0.2c-0.5,0-1,0-1.4,0c-0.5,0-1,0-1.5,0
				c-0.5,0-1.1,0-1.6,0c-0.2,0-0.4,0-0.6,0c-0.5,0-1.1,0-1.6,0c-0.1,0-0.2,0-0.2-0.1c-0.1-0.7-0.1-1.3-0.2-2
				c-0.1-0.7-0.2-1.4-0.2-2.1c-0.1-0.5-0.1-1.1-0.2-1.6c-0.1-0.7-0.2-1.4-0.2-2.1c-0.1-0.5-0.1-1.1-0.2-1.6
				c-0.1-0.6-0.1-1.3-0.2-1.9c0-0.1,0.1-0.1,0.2-0.1c0.8,0,1.6,0,2.5,0C650.4,260.8,651.2,260.8,651.9,260.8
				C651.9,260.8,651.9,260.8,651.9,260.8z M652,264.1c1.1,0,2.2,0,3.3,0c0.1,0,0.2,0,0.2-0.2c0.1-0.6,0.1-1.3,0.2-1.9
				c0-0.2,0-0.2-0.2-0.2c-0.6,0-1.2,0-1.8,0c-0.2,0-0.5,0-0.7,0c-0.5,0-1,0-1.5,0c-0.5,0-1,0-1.5,0c-0.5,0-1,0-1.5,0
				c-0.2,0-0.2,0-0.2,0.2c0,0.3,0.1,0.6,0.1,1c0,0.3,0.1,0.6,0.1,0.9c0,0.1,0.1,0.2,0.2,0.2c0.1,0,0.1,0,0.2,0
				C649.9,264.1,650.9,264.1,652,264.1z"/>
		</g>
	</g>
	<line class="st5" x1="145.9" y1="272.1" x2="145.9" y2="214.5"/>
	<g id="p7iPoC_00000023981896207850334110000012219539652560023690_">
		<g>
			<path class="st21" d="M161.4,261c0.7,0,1.4,0,2.1,0c0.6,0,0.9,0.3,1.1,0.8c0.4,1.4,0.9,2.8,1.3,4.2c0.1,0.4,0.3,0.8,0.4,1.2
				c0.1,0.5-0.1,0.8-0.5,1c-0.4,0.1-0.9-0.1-1-0.5c-0.5-1.5-1-3-1.5-4.5c-0.1-0.2-0.2-0.3-0.4-0.3c-1.5,0.1-3,0-4.5,0
				c-0.3,0-0.7,0-1-0.1c-0.4-0.1-0.7-0.3-0.8-0.8c-0.3-1.4-0.5-2.9-0.7-4.3c-0.1-0.5-0.1-1-0.2-1.5c-0.1-0.7,0.2-1.2,0.8-1.4
				c0.3-0.1,0.5-0.1,0.8-0.1c0.6,0.1,1,0.4,1.1,1c0.1,0.6,0.3,1.2,0.4,1.8c0,0.2,0.1,0.2,0.3,0.2c0.8,0,1.6,0,2.4,0
				c0.6,0,1,0.6,0.7,1.1c-0.1,0.2-0.3,0.3-0.5,0.3c-0.8,0-1.6,0-2.3,0c-0.2,0-0.2,0.1-0.2,0.3c0.1,0.4,0.1,0.7,0.2,1.1
				c0,0.2,0.1,0.2,0.3,0.2C160.2,261,160.8,261,161.4,261z"/>
			<path class="st21" d="M152,263.3c0-2.3,1.4-4.2,3.4-5c0.2-0.1,0.3-0.1,0.3,0.2c0,0.2,0.1,0.5,0.1,0.7c0,0.2,0,0.3-0.2,0.3
				c-1,0.5-1.7,1.2-2.1,2.2c-1,2.5,0.5,5,3,5.6c2.6,0.6,4.7-1.2,5-3.4c0.1-0.5,0.1-0.5,0.6-0.5c0.2,0,0.4,0,0.5,0
				c0.1,0,0.2,0.1,0.2,0.2c-0.1,1.4-0.6,2.7-1.7,3.7c-1.2,1.1-2.6,1.6-4.1,1.5c-2.5-0.2-4.6-1.9-5-4.5
				C152,263.8,152,263.6,152,263.3z"/>
			<path class="st21" d="M157.6,251.5c0.8,0,1.5,0.7,1.5,1.5c0,0.8-0.7,1.5-1.5,1.5c-0.8,0-1.5-0.7-1.5-1.5
				C156.1,252.2,156.8,251.5,157.6,251.5z"/>
		</g>
	</g>
	<g id="BbVIEC_00000177482793033589810560000017156714324783023791_">
		<g>
			<g>
				<path class="st28" d="M223.2,263.5c-8.2,0-16.4,0-24.5,0c-0.5,0-0.5-0.1-0.5-0.5c0-1.5,0-3,0-4.5c0.2-0.3,0.5-0.3,0.8-0.3
					c1.2,0,2.4,0,3.6,0c0.6,0,0.8-0.1,0.8-0.8c0-1.2,0-2.4,0-3.5c0-0.8,0.1-0.9,0.9-0.9c1.2,0,2.3,0,3.5,0c0.7,0,0.9-0.1,0.9-0.9
					c0-1.2,0-2.4,0-3.5c0-0.6,0.2-0.8,0.8-0.8c1.2,0,2.4,0,3.6,0c0.7,0,0.8-0.1,0.8-0.8c0-1.1,0-2.3,0-3.4c0-0.9,0.1-1,1-1
					c1.1,0,2.3,0,3.4,0c0.7,0,0.8-0.1,0.8-0.9c0-1.2,0-2.4,0-3.5c0-0.7,0.2-0.8,0.8-0.8c1.1,0,2.2,0,3.4,0c1.1,0,1.1,0.1,1.1,1.1
					c0,7.7,0,15.3,0,23C224.3,262.4,224,263.1,223.2,263.5z M215.4,257.2C215.4,257.2,215.4,257.2,215.4,257.2c0.7,0,1.4,0,2.1,0
					c0.6,0,0.6-0.4,0.6-0.8c0-0.4,0-0.8-0.6-0.8c-0.4,0-0.8,0-1.3,0c-0.2,0-0.4,0.1-0.5-0.1c-0.1-0.2,0.1-0.3,0.2-0.4
					c1.2-1.2,2.4-2.5,3.7-3.7c0.5-0.6,0.6-0.7,0.1-1.2c-0.5-0.5-0.7-0.5-1.2,0.1c-0.1,0.1-0.2,0.2-0.4,0.4c-1.1,1.1-2.2,2.2-3.4,3.4
					c-0.1,0.1-0.2,0.3-0.4,0.2c-0.1-0.1-0.1-0.2-0.1-0.4c0-0.4,0-0.9,0-1.3c0-0.5-0.2-0.7-0.7-0.7c-0.7,0-0.9,0.1-0.9,0.7
					c0,1.4,0,2.7,0,4.1c0,0.5,0.2,0.7,0.7,0.7C214,257.2,214.7,257.2,215.4,257.2z"/>
				<path class="st28" d="M205.7,242.9c-0.7,0-1.2,0-1.7,0c-0.6,0-0.8-0.2-0.8-0.8c0-0.7,0.1-1,0.7-1c1.4,0,2.9,0,4.3,0
					c0.5,0,0.7,0.3,0.7,0.7c0,1.4,0,2.8,0,4.2c0,0.6-0.3,0.8-1,0.8c-0.7,0-0.9-0.2-0.9-0.8c0-0.5,0-1,0-1.4
					c-0.3-0.1-0.4,0.2-0.6,0.3c-1.2,1.1-2.3,2.3-3.4,3.4c-0.6,0.6-1.4,0.5-1.7-0.4c-0.1-0.4,0.1-0.6,0.3-0.8
					c1.2-1.2,2.4-2.4,3.6-3.6C205.3,243.3,205.5,243.2,205.7,242.9z"/>
			</g>
		</g>
	</g>
	<g id="BbVIEC_00000133527498748456361350000010696862587020678321_">
		<g>
			<g>
				<path class="st28" d="M621.8,263.5c-8.2,0-16.4,0-24.5,0c-0.5,0-0.5-0.1-0.5-0.5c0-1.5,0-3,0-4.5c0.2-0.3,0.5-0.3,0.8-0.3
					c1.2,0,2.4,0,3.6,0c0.6,0,0.8-0.1,0.8-0.8c0-1.2,0-2.4,0-3.5c0-0.8,0.1-0.9,0.9-0.9c1.2,0,2.3,0,3.5,0c0.7,0,0.9-0.1,0.9-0.9
					c0-1.2,0-2.4,0-3.5c0-0.6,0.2-0.8,0.8-0.8c1.2,0,2.4,0,3.6,0c0.7,0,0.8-0.1,0.8-0.8c0-1.1,0-2.3,0-3.4c0-0.9,0.1-1,1-1
					c1.1,0,2.3,0,3.4,0c0.7,0,0.8-0.1,0.8-0.9c0-1.2,0-2.4,0-3.5c0-0.7,0.2-0.8,0.8-0.8c1.1,0,2.2,0,3.4,0c1.1,0,1.1,0.1,1.1,1.1
					c0,7.7,0,15.3,0,23C622.9,262.4,622.6,263.1,621.8,263.5z M614,257.2C614,257.2,614,257.2,614,257.2c0.7,0,1.4,0,2.1,0
					c0.6,0,0.6-0.4,0.6-0.8c0-0.4,0-0.8-0.6-0.8c-0.4,0-0.8,0-1.3,0c-0.2,0-0.4,0.1-0.5-0.1c-0.1-0.2,0.1-0.3,0.2-0.4
					c1.2-1.2,2.4-2.5,3.7-3.7c0.5-0.6,0.6-0.7,0.1-1.2c-0.5-0.5-0.7-0.5-1.2,0.1c-0.1,0.1-0.2,0.2-0.4,0.4c-1.1,1.1-2.2,2.2-3.4,3.4
					c-0.1,0.1-0.2,0.3-0.4,0.2c-0.1-0.1-0.1-0.2-0.1-0.4c0-0.4,0-0.9,0-1.3c0-0.5-0.2-0.7-0.7-0.7c-0.7,0-0.9,0.1-0.9,0.7
					c0,1.4,0,2.7,0,4.1c0,0.5,0.2,0.7,0.7,0.7C612.7,257.2,613.3,257.2,614,257.2z"/>
				<path class="st28" d="M604.3,242.9c-0.7,0-1.2,0-1.7,0c-0.6,0-0.8-0.2-0.8-0.8c0-0.7,0.1-1,0.7-1c1.4,0,2.9,0,4.3,0
					c0.5,0,0.7,0.3,0.7,0.7c0,1.4,0,2.8,0,4.2c0,0.6-0.3,0.8-1,0.8c-0.7,0-0.9-0.2-0.9-0.8c0-0.5,0-1,0-1.4
					c-0.3-0.1-0.4,0.2-0.6,0.3c-1.2,1.1-2.3,2.3-3.4,3.4c-0.6,0.6-1.4,0.5-1.7-0.4c-0.1-0.4,0.1-0.6,0.3-0.8
					c1.2-1.2,2.4-2.4,3.6-3.6C604,243.3,604.1,243.2,604.3,242.9z"/>
			</g>
		</g>
	</g>
	<g>
		<text transform="matrix(1 0 0 1 725.3043 193.7654)" class="st6 st41 st42">紀念品攤位</text>
	</g>
	<g>
		<text transform="matrix(1 0 0 1 662.1237 202.0874)" class="st6 st41 st43">結緣品</text>
	</g>
	<rect x="656.3" y="191.6" class="st44" width="36.8" height="15.3"/>
	<rect x="702.4" y="181.4" class="st44" width="87.3" height="25.4"/>
	<g>
		<text transform="matrix(1 0 0 1 711.2652 126.7419)" class="st6 st45 st46">309</text>
	</g>
	<g>
		<text transform="matrix(1 0 0 1 580.7498 126.7419)" class="st6 st45 st46">310-1</text>
	</g>
	<g>
		<text transform="matrix(1 0 0 1 391.4756 126.7419)" class="st6 st45 st46">311</text>
	</g>
	<g>
		<text transform="matrix(1 0 0 1 489.6328 126.7419)" class="st6 st45 st46">310-2</text>
	</g>
	<g>
		<text transform="matrix(1 0 0 1 258.1016 126.7304)" class="st6 st45 st47">312</text>
	</g>
	<g>
		<text transform="matrix(1 0 0 1 116.2383 126.7419)" class="st6 st45 st46">313</text>
	</g>
	<g>
		<text transform="matrix(1 0 0 1 683.6148 149.0119)" class="st39 st48">社群/贊助攤位</text>
	</g>
	<g>
		<text transform="matrix(1 0 0 1 492.2593 145.8053)"><tspan x="0" y="0" class="st39 st48">形象照</tspan><tspan x="0" y="16" class="st39 st48">拍攝室</tspan></text>
	</g>
	<g>
		<text transform="matrix(1 0 0 1 228.6301 149.0119)" class="st39 st48">社群/贊助攤位</text>
	</g>
	<g>
		<text transform="matrix(1 0 0 1 104.751 149.6362)" class="st39 st48">議程教室</text>
	</g>
	<g>
		<text transform="matrix(1 0 0 1 575.3503 148.3739)" class="st39 st48">Staff only</text>
	</g>
	<g>
		<text transform="matrix(1 0 0 1 373.1674 148.3739)" class="st39 st48">Staff only</text>
	</g>
</g>
<g id="文字資訊">
	<g>
		<text transform="matrix(1 0 0 1 141.1674 429.8969)" class="st6 st57 st58">312</text>
	</g>
	<g>
		<text transform="matrix(1 0 0 1 141.1674 485.699)" class="st6 st57 st58">313</text>
	</g>
	<g>
		<text transform="matrix(1 0 0 1 141.1673 317.8445)" class="st6 st57 st58">309</text>
	</g>
	<g>
		<text transform="matrix(1 0 0 1 286.0825 313.1297)"><tspan x="0" y="0" class="st57 st59">社群/贊助攤位</tspan><tspan x="0" y="13.8" class="st57 st59">Community/Sponsor Booth</tspan></text>
	</g>
	<g>
		<text transform="matrix(1 0 0 1 285.9702 368.9521)"><tspan x="0" y="0" class="st57 st59">形象照拍攝室</tspan><tspan x="0" y="13.8" class="st57 st59">Professional Portrait</tspan></text>
	</g>
	<g>
		<text transform="matrix(1 0 0 1 141.1673 373.7466)" class="st6 st57 st58">310-2</text>
	</g>
	<g>
		<text transform="matrix(1 0 0 1 286.0823 425.1408)"><tspan x="0" y="0" class="st57 st59">社群/贊助攤位</tspan><tspan x="0" y="13.8" class="st57 st59">Community/Sponsor Booth</tspan></text>
	</g>
	<g>
		<text transform="matrix(1 0 0 1 202.8218 424.4965)" class="st60 st57 st59">Day01 / Day02</text>
	</g>
	<g>
		<text transform="matrix(1 0 0 1 202.8215 480.2985)" class="st60 st57 st59">Day01 / Day02</text>
	</g>
	<g>
		<text transform="matrix(1 0 0 1 202.8218 312.4851)" class="st60 st57 st59">Day01 / Day02</text>
	</g>
	<g>
		<text transform="matrix(1 0 0 1 202.822 368.3463)" class="st60 st57 st59">Day01 / Day02</text>
	</g>
	<g>
		<text transform="matrix(1 0 0 1 286.0827 480.8945)"><tspan x="0" y="0" class="st57 st59">開源新手村</tspan><tspan x="0" y="13.8" class="st57 st59">Open Source For Beginners</tspan></text>
	</g>
	<rect x="45.7" y="24.8" class="st6" width="111" height="37.3"/>
	<g>
		<text transform="matrix(1 0 0 1 60.2981 52.0706)" class="st17 st45 st63">研揚大樓</text>
	</g>
</g>
<g id="樓層位置">
	<rect x="49.7" y="304.2" class="st62" width="63" height="56.2"/>
	<g>
		<text transform="matrix(1 0 0 1 56.2726 347.5057)" class="st6 st45 st71">3F</text>
	</g>
</g>
<g id="輸出佈置" class="st72">
	<text transform="matrix(1 0 0 1 278.0352 199.0286)" class="st74 st26 st75">徵才看板B</text>
	<line class="st73" x1="286.1" y1="182.3" x2="321.3" y2="182.3"/>
	<line class="st73" x1="657" y1="181.5" x2="692.2" y2="181.5"/>
	<text transform="matrix(1 0 0 1 626.8218 198.5909)" class="st74 st26 st77">社群交流看板</text>
	<text transform="matrix(1 0 0 1 489.8949 259.7529)" class="st74 st26 st77">樓層議程告知</text>
	<line class="st73" x1="566.5" y1="264.9" x2="566.5" y2="241"/>
	<text transform="matrix(1 0 0 1 190.7074 290.7372)" class="st74 st26 st77">樓層議程告知</text>
	<line class="st73" x1="411" y1="182.6" x2="469.4" y2="182.6"/>
	<text transform="matrix(1 0 0 1 363.8827 200.424)" class="st74 st26 st77">主視覺</text>
	<text transform="matrix(1 0 0 1 438.0016 197.4416)" class="st76"><tspan x="0" y="0" class="st78 st26 st77">3樓</tspan><tspan x="-26.6" y="12.7" class="st78 st26 st77">議程看板+地圖</tspan></text>
	<text transform="matrix(1 0 0 1 730.2386 222.4843)" class="st74 st26 st77">商品價目表</text>
	<text transform="matrix(1 0 0 1 679.0008 527.4454)" class="st76 st79 st80">A.贊助商海報</text>
	<g class="st76">
		<text transform="matrix(1 0 0 1 678.7205 543.6085)" class="st79 st80">B.主視覺海報</text>
	</g>
	<g class="st76">
		<text transform="matrix(1 0 0 1 679.327 559.7716)" class="st79 st80">C.講桌前背板(上方)</text>
	</g>
	<g class="st76">
		<text transform="matrix(1 0 0 1 781.6655 560.2853)" class="st79 st81">1間</text>
	</g>
	<text transform="matrix(1 0 0 1 662.9295 516.0133)" class="st76 st79 st82">議程教室</text>
	<polygon class="st83" points="646.9,510.8 646.9,543.6 564.7,543.6 564.7,536.6 558.1,536.6 558.1,510.8 	"/>
	<rect x="543.7" y="536.6" class="st83" width="21" height="29.1"/>
	<rect x="539.9" y="514.9" class="st83" width="14.3" height="20.1"/>
	<rect x="628.4" y="514.9" class="st83" width="14.3" height="20.1"/>
	<g class="st76">
		<text transform="matrix(1 0 0 1 632.5233 528.4982)" class="st84 st80">A</text>
	</g>
	<g class="st76">
		<text transform="matrix(1 0 0 1 543.0535 528.0123)" class="st84 st80">B</text>
	</g>
	<g class="st76">
		<text transform="matrix(1 0 0 1 550.5301 554.8116)" class="st84 st80">C</text>
	</g>
	<g class="st76">
		<text transform="matrix(1 0 0 1 674.2645 574.0759)" class="st79 st85">D.門口的議程軌布告欄</text>
	</g>
	<line class="st73" x1="192.5" y1="264.9" x2="192.5" y2="241"/>
	<line class="st73" x1="352.7" y1="182.6" x2="404.7" y2="182.6"/>
	<text transform="matrix(1 0 0 1 695.0894 182.4388)" class="st74 st26 st94">桌前背板</text>
	<rect x="716.9" y="172.5" class="st74" width="2.4" height="19.1"/>
	<text transform="matrix(1 0 0 1 695.0894 205.8851)" class="st74 st26 st94">桌前背板</text>
	<rect x="716.9" y="195.9" class="st74" width="2.4" height="19.1"/>
</g>
<g id="指標" class="st72">
</g>
</svg>
