<?xml version="1.0" encoding="utf-8"?>
<!-- Generator: Adobe Illustrator 27.7.0, SVG Export Plug-In . SVG Version: 6.00 Build 0)  -->
<svg version="1.0" xmlns="http://www.w3.org/2000/svg" xmlns:xlink="http://www.w3.org/1999/xlink" x="0px" y="0px"
	 viewBox="0 0 841.9 595.3" style="enable-background:new 0 0 841.9 595.3;" xml:space="preserve">
<style type="text/css">
	.st0{fill:none;stroke:#B3B3B3;stroke-width:4.4344;stroke-linecap:round;stroke-miterlimit:10;}
	.st1{fill:#E6E6E6;}
	.st2{fill:#FFFEFF;}
	.st3{fill:#B3B3B3;}
	.st4{fill:none;stroke:#B3B3B3;stroke-width:4.4344;stroke-miterlimit:10;}
	.st5{fill:none;stroke:#FFFEFF;stroke-width:3;stroke-miterlimit:10;}
	.st6{fill:#3B9838;}
	.st7{fill:none;stroke:#FFFFFF;stroke-width:2;stroke-linecap:round;stroke-linejoin:bevel;}
	.st8{opacity:0.73;}
	.st9{fill:#EAEAEA;stroke:#FFFFFF;stroke-width:2;stroke-linecap:round;stroke-linejoin:bevel;}
	.st10{fill:#EAEAEA;stroke:#FFFFFF;stroke-width:5;stroke-linecap:round;stroke-linejoin:bevel;}
	.st11{fill:#579B57;}
	.st12{opacity:0.1;fill:#70931B;}
	.st13{fill:none;stroke:#FFFEFF;stroke-miterlimit:10;}
	.st14{fill:#C1272D;}
	.st15{fill:#30AF00;}
	.st16{fill:#0076CB;}
	.st17{fill:#FFFFFF;}
	.st18{fill:#008061;}
	.st19{fill:#F5821F;}
	.st20{fill:#ED1B2D;}
	.st21{fill:#12344C;}
	.st22{opacity:0.5;fill:url(#SVGID_1_);}
	.st23{opacity:0.5;fill:url(#SVGID_00000046313547508465929040000009883849628547491247_);}
	.st24{fill:#E98025;}
	.st25{fill:#0071BC;}
	.st26{font-family:'NotoSansCJKtc-Medium-B5pc-H';}
	.st27{font-size:24px;}
	.st28{fill:#808080;}
	.st29{fill:#FFE9BA;}
	.st30{fill:#3E3D4D;}
	.st31{fill:#BCC4C6;}
	.st32{fill:#D24635;}
	.st33{fill:#FCF3EE;}
	.st34{fill:#E8C72E;}
	.st35{fill:#E0A911;}
	.st36{opacity:0.2;fill:none;stroke:#70931B;stroke-width:2;stroke-miterlimit:10;stroke-dasharray:4,4;}
	.st37{font-family:'NotoSansCJKtc-Bold-B5pc-H';}
	.st38{font-size:16.1873px;}
	.st39{font-family:'NotoSansMonoCJKtc-Regular-B5pc-H';}
	.st40{font-size:10.8149px;}
	.st41{opacity:0.2;fill:none;stroke:#70931B;stroke-width:1.78;stroke-miterlimit:10;stroke-dasharray:3.56,3.56;}
	.st42{font-size:14.4525px;}
	.st43{fill:#EE2041;}
	.st44{fill-rule:evenodd;clip-rule:evenodd;fill:#FFFFFF;}
	.st45{fill:#0074A9;}
	.st46{fill:#EB6101;}
	.st47{fill:#E4007F;}
	.st48{fill:#EB6877;}
	.st49{fill:#CC0000;}
	.st50{fill:#474747;}
	.st51{font-family:'MicrosoftJhengHeiBold';}
	.st52{font-size:17px;}
	.st53{font-size:10px;}
	.st54{fill:#6B6B6B;}
	.st55{opacity:0.8;}
	.st56{fill:none;stroke:#3B9838;stroke-width:3;stroke-miterlimit:10;}
	.st57{font-size:20.6523px;}
	.st58{fill-rule:evenodd;clip-rule:evenodd;fill:#040000;}
	.st59{fill:#040000;}
	.st60{fill:none;stroke:#040000;stroke-width:0.75;stroke-linejoin:round;stroke-miterlimit:8;}
	
		.st61{opacity:0;fill-rule:evenodd;clip-rule:evenodd;fill:none;stroke:#040000;stroke-width:0.75;stroke-linejoin:round;stroke-miterlimit:8;}
	
		.st62{fill-rule:evenodd;clip-rule:evenodd;fill:none;stroke:#040000;stroke-width:0.75;stroke-linejoin:round;stroke-miterlimit:8;}
	.st63{fill:#E2E2E2;stroke:#040000;stroke-width:0.75;stroke-linejoin:round;stroke-miterlimit:8;}
	
		.st64{fill-rule:evenodd;clip-rule:evenodd;fill:#E2E2E2;stroke:#040000;stroke-width:0.75;stroke-linejoin:round;stroke-miterlimit:8;}
	.st65{font-size:43px;}
	.st66{display:none;}
	.st67{display:inline;fill:none;stroke:#F90000;stroke-width:8;stroke-miterlimit:10;}
	.st68{display:inline;}
	.st69{fill:#F90000;}
	.st70{font-size:10.7118px;}
	.st71{display:inline;fill:#F90000;}
	.st72{font-size:10.3841px;}
	.st73{display:inline;fill:none;stroke:#000000;stroke-miterlimit:10;}
	.st74{font-family:'NotoSansCJKtc-Thin-B5pc-H';}
	.st75{font-size:9.4877px;}
	.st76{font-family:'SourceHanSansTW-Medium-B5pc-H';}
	.st77{font-size:31.8123px;}
	.st78{font-size:11.8596px;glyph-orientation-vertical:0;writing-mode:tb;}
	.st79{font-size:9.3394px;}
	.st80{display:inline;fill:none;stroke:#232323;stroke-miterlimit:10;}
	.st81{display:inline;fill:none;stroke:#F90000;stroke-width:3;stroke-miterlimit:10;}
	.st82{display:inline;fill:#FFFEFF;}
	.st83{display:inline;fill:none;stroke:#B3B3B3;stroke-width:4.4344;stroke-linecap:round;stroke-miterlimit:10;}
	.st84{display:inline;fill:#E6E6E6;}
	.st85{display:inline;fill:#B3B3B3;}
	.st86{display:inline;fill:none;stroke:#B3B3B3;stroke-width:4.4344;stroke-miterlimit:10;}
	.st87{display:inline;opacity:0.2;fill:none;stroke:#70931B;stroke-width:2;stroke-miterlimit:10;stroke-dasharray:4,4;}
	.st88{display:inline;fill:none;stroke:#333131;stroke-miterlimit:10;}
	.st89{fill:none;stroke:#000000;stroke-miterlimit:10;}
	.st90{display:inline;fill:#F5EB31;stroke:#231815;stroke-miterlimit:10;}
	.st91{display:inline;fill:#BE611C;stroke:#231815;stroke-miterlimit:10;}
</style>
<g id="建築">
	<polygon class="st4" points="334.8,282.7 334.8,228.8 569.8,228.8 569.8,282.7 799,282.7 799,74.3 584.9,74.3 569.8,74.3 
		334.8,74.3 334.8,74.3 49.7,74.3 49.7,179.1 27.4,179.1 27.4,224.9 49.7,224.9 49.7,282.7 	"/>
	<rect x="56.6" y="88" class="st1" width="84.9" height="92.8"/>
	<rect x="144.3" y="88" class="st1" width="97.7" height="92.8"/>
	<rect x="244.8" y="88" class="st1" width="101.1" height="92.8"/>
	<rect x="348.7" y="88" class="st1" width="75.5" height="92.8"/>
	<rect x="427" y="88" class="st1" width="89.6" height="92.8"/>
	<rect x="519.4" y="88" class="st1" width="85" height="92.8"/>
	<rect x="607.2" y="88" class="st1" width="103.2" height="92.8"/>
	<polygon class="st1" points="792.4,80.4 792.4,180.8 713.2,180.8 713.2,88 748.8,88 748.8,80.4 	"/>
	<g>
		
			<rect x="577.3" y="215" transform="matrix(-1 -1.224647e-16 1.224647e-16 -1 1220.9763 491.6065)" class="st1" width="66.3" height="61.6"/>
		<g>
			<rect x="597.7" y="215" class="st5" width="46.4" height="17.3"/>
		</g>
	</g>
	
		<rect x="172.3" y="215" transform="matrix(-1 -1.224647e-16 1.224647e-16 -1 497.219 491.6065)" class="st1" width="152.5" height="61.6"/>
	<g>
		<rect x="211.3" y="214.1" class="st5" width="36.6" height="18.3"/>
	</g>
	<polygon class="st1" points="646.4,276.6 671.1,276.6 690.5,276.6 792.4,276.6 792.4,215 674.5,215 674.5,251.5 646.4,251.5 	"/>
	<polygon class="st1" points="143,276.6 169.3,276.6 169.3,252 143,252 143,223.5 56.1,223.5 56.1,276.6 	"/>
	<line class="st5" x1="746.9" y1="276.8" x2="746.9" y2="214.4"/>
	<line class="st5" x1="248.3" y1="276.8" x2="248.3" y2="214.4"/>
	<line class="st5" x1="675.1" y1="276.8" x2="675.1" y2="214.4"/>
	<line class="st5" x1="142.8" y1="276.8" x2="142.8" y2="218.7"/>
	<g>
		<rect x="710.4" y="180.8" class="st2" width="2.8" height="11.8"/>
	</g>
	<g>
		<text transform="matrix(1 0 0 1 163.8618 54.0324)" class="st6 st26 st27">TR Building</text>
	</g>
</g>
<g id="標示">
	<g>
		<text transform="matrix(1 0 0 1 730.7115 132.2681)" class="st6 st37 st38">409-1</text>
	</g>
	<g>
		<text transform="matrix(1 0 0 1 547.5987 132.2681)" class="st6 st37 st38">410</text>
	</g>
	<g>
		<text transform="matrix(1 0 0 1 457.4727 132.2681)" class="st6 st37 st38">411</text>
	</g>
	<g>
		<text transform="matrix(1 0 0 1 273.2232 132.2681)" class="st6 st37 st38">412-2</text>
	</g>
	<g>
		<text transform="matrix(1 0 0 1 171.0338 132.2681)" class="st6 st37 st38">413-1</text>
	</g>
	<g>
		<text transform="matrix(1 0 0 1 636.5655 132.2681)" class="st6 st37 st38">409-2</text>
	</g>
	<g>
		<text transform="matrix(1 0 0 1 364.4166 132.2681)" class="st6 st37 st38">412-1</text>
	</g>
	<g>
		<text transform="matrix(1 0 0 1 76.9532 132.4869)" class="st6 st37 st38">413-2</text>
	</g>
	<g>
		<text transform="matrix(1 0 0 1 540.2701 154.5758)" class="st39 st40">議程教室</text>
	</g>
	<g>
		<text transform="matrix(1 0 0 1 638.5681 154.5758)" class="st39 st40">議程教室</text>
	</g>
	<g>
		<text transform="matrix(1 0 0 1 450.1441 154.5758)" class="st39 st40">議程教室</text>
	</g>
	<g>
		<text transform="matrix(1 0 0 1 364.8487 154.5758)" class="st39 st40">議程教室</text>
	</g>
	<g>
		<text transform="matrix(1 0 0 1 273.6563 154.5758)" class="st39 st40">議程教室</text>
	</g>
	<g>
		<text transform="matrix(1 0 0 1 171.4649 154.5758)" class="st39 st40">議程教室</text>
	</g>
	<g>
		<text transform="matrix(1 0 0 1 88.2003 154.5758)"><tspan x="0" y="0" class="st39 st40">市集</tspan><tspan x="-27" y="10.4" class="st39 st40">（開．源遊會）</tspan></text>
	</g>
	<g>
		<text transform="matrix(1 0 0 1 717.6259 154.5758)" class="st39 st40">社群/贊助攤位</text>
	</g>
	<g>
		<g>
			<path class="st21" d="M99.1,238.3c0,0.3-0.3,0.4-0.3,0.7c0,0.2,0.1,0.4,0.3,0.6c0.5,0.3,0.5,0.8,0.4,1.3
				c-0.2,1.4-0.3,2.9-0.5,4.3c-0.1,0.6,0.3,0.9,0.5,1.4c0.9-0.8,0.6-1.7,0.5-2.6c-0.1-1.2-0.3-2.3-0.4-3.5c0-0.4,0-0.6,0.3-0.9
				c0.2-0.1,0.4-0.3,0.5-0.6c-0.1-0.2-0.3-0.4-0.4-0.6c0.1-0.2,0.3-0.2,0.5-0.2c1,0,2,0,3,0c1.5,0,2.5,1.4,2,2.8
				c-0.9,2.3-1.8,4.7-2.7,7c-0.4,1-0.7,2-1.2,2.9c-0.5,0.8-1.4,1.1-2.3,0.9c-1.1-0.2-1.6-0.9-1.9-1.9c-0.8-2-1.6-4.1-2.4-6.1
				c-0.4-0.9-0.7-1.9-1.1-2.8c-0.5-1.4,0.4-2.7,1.9-2.8C96.8,238.3,98,238.3,99.1,238.3z"/>
			<path class="st21" d="M99.7,237.6c-2.3,0-4.1-1.7-4.1-3.9c0-2.2,1.7-4,3.9-4c2.2,0,4,1.7,4.1,3.9
				C103.6,235.5,102.2,237.5,99.7,237.6z"/>
		</g>
	</g>
	<g>
		<text transform="matrix(1 0 0 1 80.6993 269.0259)" class="st21 st39 st42">Toilet</text>
	</g>
	<g id="p7iPoC_00000090994706756435836920000014165513735331880096_">
		<g>
			<path class="st21" d="M158.3,265.5c0.7,0,1.4,0,2.2,0c0.6,0,0.9,0.3,1.1,0.8c0.4,1.4,0.9,2.8,1.3,4.2c0.1,0.4,0.3,0.8,0.4,1.2
				c0.1,0.5-0.1,0.8-0.5,1c-0.4,0.1-0.9-0.1-1-0.5c-0.5-1.5-1-3-1.5-4.5c-0.1-0.2-0.2-0.3-0.4-0.3c-1.5,0.1-3,0-4.5,0
				c-0.3,0-0.7,0-1-0.1c-0.4-0.1-0.7-0.3-0.8-0.8c-0.3-1.4-0.5-2.9-0.7-4.3c-0.1-0.5-0.1-1-0.2-1.5c-0.1-0.7,0.2-1.2,0.8-1.4
				c0.3-0.1,0.6-0.1,0.8-0.1c0.6,0.1,1,0.4,1.1,1c0.1,0.6,0.3,1.2,0.4,1.8c0,0.2,0.1,0.2,0.3,0.2c0.8,0,1.6,0,2.5,0
				c0.6,0,1,0.6,0.7,1.2c-0.1,0.2-0.3,0.3-0.5,0.3c-0.8,0-1.6,0-2.4,0c-0.2,0-0.2,0.1-0.2,0.3c0.1,0.4,0.1,0.7,0.2,1.1
				c0,0.2,0.1,0.2,0.3,0.2C157.2,265.5,157.7,265.5,158.3,265.5z"/>
			<path class="st21" d="M148.8,267.8c0-2.3,1.4-4.2,3.4-5.1c0.2-0.1,0.3-0.1,0.3,0.2c0,0.2,0.1,0.5,0.1,0.7c0,0.2,0,0.3-0.2,0.3
				c-1,0.5-1.7,1.2-2.1,2.2c-1,2.6,0.5,5,3,5.6c2.7,0.6,4.7-1.2,5.1-3.5c0.1-0.5,0.1-0.5,0.6-0.5c0.2,0,0.4,0,0.6,0
				c0.1,0,0.2,0.1,0.2,0.2c-0.1,1.4-0.6,2.7-1.7,3.7c-1.2,1.1-2.6,1.6-4.2,1.5c-2.5-0.2-4.6-1.9-5-4.6
				C148.8,268.4,148.8,268.1,148.8,267.8z"/>
			<path class="st21" d="M154.5,256c0.8,0,1.5,0.7,1.5,1.5c0,0.8-0.7,1.5-1.5,1.5c-0.8,0-1.5-0.7-1.5-1.5
				C153,256.7,153.7,256,154.5,256z"/>
		</g>
	</g>
	<g id="BbVIEC_00000049925765590053741400000005475686707647791496_">
		<g>
			<g>
				<path class="st28" d="M220.6,268.1c-8.2,0-16.5,0-24.7,0c-0.5,0-0.5-0.1-0.5-0.5c0-1.5,0-3,0-4.5c0.2-0.3,0.5-0.3,0.8-0.3
					c1.2,0,2.4,0,3.6,0c0.6,0,0.8-0.1,0.8-0.8c0-1.2,0-2.4,0-3.6c0-0.8,0.1-0.9,0.9-0.9c1.2,0,2.3,0,3.5,0c0.7,0,0.9-0.1,0.9-0.9
					c0-1.2,0-2.4,0-3.6c0-0.6,0.2-0.8,0.8-0.8c1.2,0,2.4,0,3.6,0c0.7,0,0.8-0.1,0.8-0.8c0-1.1,0-2.3,0-3.4c0-0.9,0.1-1,1-1
					c1.1,0,2.3,0,3.4,0c0.7,0,0.8-0.1,0.8-0.9c0-1.2,0-2.4,0-3.6c0-0.7,0.2-0.8,0.8-0.8c1.1,0,2.3,0,3.4,0c1.1,0,1.1,0.1,1.1,1.1
					c0,7.7,0,15.4,0,23.1C221.7,266.9,221.4,267.6,220.6,268.1z M212.7,261.7C212.7,261.7,212.7,261.7,212.7,261.7
					c0.7,0,1.4,0,2.2,0c0.6,0,0.6-0.4,0.6-0.8c0-0.4,0-0.8-0.6-0.8c-0.4,0-0.9,0-1.3,0c-0.2,0-0.4,0.1-0.5-0.1
					c-0.1-0.2,0.1-0.3,0.2-0.4c1.2-1.2,2.5-2.5,3.7-3.7c0.6-0.6,0.6-0.7,0.1-1.2c-0.5-0.5-0.7-0.5-1.2,0.1c-0.1,0.1-0.2,0.2-0.4,0.4
					c-1.1,1.1-2.3,2.3-3.4,3.4c-0.1,0.1-0.2,0.3-0.4,0.2c-0.1-0.1-0.1-0.2-0.1-0.4c0-0.4,0-0.9,0-1.3c0-0.5-0.2-0.7-0.7-0.7
					c-0.7,0-0.9,0.1-0.9,0.7c0,1.4,0,2.7,0,4.1c0,0.5,0.2,0.7,0.7,0.7C211.4,261.7,212.1,261.7,212.7,261.7z"/>
				<path class="st28" d="M203,247.3c-0.7,0-1.2,0-1.7,0c-0.6,0-0.8-0.2-0.8-0.8c0-0.7,0.1-1,0.7-1c1.4,0,2.9,0,4.3,0
					c0.5,0,0.7,0.3,0.7,0.8c0,1.4,0,2.8,0,4.2c0,0.6-0.3,0.8-1,0.8c-0.7,0-0.9-0.2-0.9-0.8c0-0.5,0-1,0-1.5
					c-0.3-0.1-0.4,0.2-0.6,0.3c-1.2,1.1-2.3,2.3-3.5,3.5c-0.7,0.6-1.4,0.5-1.8-0.4c-0.2-0.4,0.1-0.6,0.3-0.8
					c1.2-1.2,2.4-2.4,3.6-3.6C202.6,247.7,202.7,247.6,203,247.3z"/>
			</g>
		</g>
	</g>
	<g>
		<text transform="matrix(1 0 0 1 693.4673 264.8531)" class="st21 st39 st42">Toilet</text>
	</g>
	<g id="o3AOjT_00000120520824521941958480000008755782669822029980_">
		<g>
			<g>
				<path class="st21" d="M712.2,235c0.4-0.4,0.8-0.7,1.1-1.1c0.5-0.6,1.1-0.5,1.4,0.2c1.5,3.8,2.9,7.6,4.4,11.3
					c0.3,0.8-0.2,1.5-1,1.6c-0.2,0-0.4,0-0.6,0c-3.4,0-6.8,0-10.3,0c-0.2,0-0.4,0-0.6,0c-1-0.1-1.4-0.8-1.1-1.7
					c0.7-1.9,1.5-3.9,2.2-5.8c0.7-1.8,1.4-3.6,2.1-5.4c0.3-0.7,0.8-0.8,1.4-0.3C711.6,234.3,711.9,234.7,712.2,235z"/>
				<path class="st21" d="M712.3,232.6c-2.1,0-3.8-1.6-3.8-3.9c0-2.1,1.6-3.8,3.9-3.7c2.1,0,3.8,1.7,3.8,3.8
					C716.2,230.9,714.4,232.6,712.3,232.6z"/>
			</g>
		</g>
	</g>
	<g>
		<g id="mGfqoG_00000015344580720251581080000012621139445003219889_">
			<g>
				<path class="st25" d="M275.1,235.3c0,1.7,0,3.4,0,5.1c0,2.1-1.4,3.4-3.5,3.4c-3.4,0-6.8,0-10.2,0c-2.2,0-3.5-1.4-3.5-3.5
					c0-3.4,0-6.7,0-10.1c0-2.2,1.4-3.6,3.6-3.6c3.3,0,6.7,0,10,0c2.2,0,3.6,1.4,3.6,3.6c0,0.8,0,1.7,0,2.5
					C275.1,233.6,275.1,234.4,275.1,235.3z M266.6,227.9C266.6,227.9,266.6,227.9,266.6,227.9c-1.7,0-3.4,0-5.1,0
					c-1.5,0-2.3,0.8-2.3,2.3c0,3.4,0,6.7,0,10.1c0,1.5,0.8,2.3,2.3,2.3c3.4,0,6.8,0,10.3,0c1.4,0,2.3-0.9,2.3-2.3
					c0-3.4,0-6.8,0-10.3c0-1.4-0.8-2.2-2.2-2.2C270,227.9,268.3,227.9,266.6,227.9z"/>
				<path class="st25" d="M262,223.2c0-0.8,0-1.5,0-2.3c0-0.4,0-0.8,0-1.2c0-0.7,0.2-1.1,0.7-1.1c0.4,0,0.7,0.4,0.7,1.1
					c0,0.9,0,1.9,0,2.8c0,0.2-0.1,0.4,0.1,0.5c0.2,0.1,0.3-0.2,0.4-0.3c0.4-0.4,0.7-0.7,1.1-1.1c0.3-0.3,0.6-0.3,0.9,0
					c0.3,0.3,0.4,0.6,0.1,0.9c-1,1-1.9,2.1-2.9,3.1c-0.2,0.2-0.6,0.2-0.8-0.1c-0.9-1-1.9-2-2.8-2.9c-0.3-0.3-0.2-0.7,0.1-1
					c0.3-0.3,0.6-0.2,0.9,0.1c0.5,0.5,0.9,1,1.4,1.5C261.9,223.2,262,223.2,262,223.2z"/>
				<path class="st25" d="M269.7,221.1c-0.6,0.6-1,1-1.4,1.5c-0.4,0.4-0.7,0.5-1.1,0.2c-0.3-0.3-0.3-0.7,0.1-1.1
					c0.8-0.9,1.7-1.8,2.5-2.6c0.4-0.4,0.7-0.4,1.1,0c0.8,0.9,1.7,1.8,2.5,2.6c0.4,0.4,0.4,0.9,0.1,1.2c-0.4,0.4-0.7,0.1-1.1-0.2
					c-0.4-0.4-0.9-0.8-1.4-1.3c-0.1,0.3,0,0.6,0,0.9c0,0.9,0,1.9,0,2.8c0,0.5-0.1,0.9-0.7,0.9c-0.5,0-0.7-0.4-0.7-0.8
					c0-1.1,0-2.2,0-3.3C269.7,221.6,269.7,221.4,269.7,221.1z"/>
				<path class="st25" d="M270.9,237.8c0,0.9,0,1.8,0,2.7c0,0.2,0,0.4,0,0.6c0,0.4,0,0.8-0.6,0.8c-0.5,0-0.5-0.4-0.5-0.8
					c0-0.9,0-1.8,0-2.6c0-0.4,0-0.9-0.4-1.2c-0.2-0.1-0.2-0.4-0.2-0.6c0-1.1,0-2.3,0-3.4c0-0.7,0.3-1,0.9-1c0.5,0,1.1,0,1.6,0
					c0.6,0,0.8,0.3,0.8,0.9c0,1.2,0,2.4,0,3.6c0,0.2,0,0.5-0.2,0.6c-0.4,0.3-0.4,0.6-0.4,1c0,0.9,0,1.7,0,2.6c0,0.4,0.1,0.9-0.5,0.9
					c-0.6,0-0.5-0.5-0.5-0.9c0-1,0-2,0-3.1C271,237.8,271,237.8,270.9,237.8z"/>
				<path class="st25" d="M262.1,237.7c0,1.1,0,2.3,0,3.4c0,0.4-0.1,0.7-0.6,0.7c-0.4,0-0.5-0.3-0.5-0.7c0-1,0-2,0-3
					c0-0.3,0-0.7-0.3-0.9c-0.2-0.2-0.2-0.4-0.2-0.7c0-1.1,0-2.3,0-3.4c0-0.7,0.3-1,1-1c0.5,0,1,0,1.5,0c0.6,0,0.9,0.3,0.9,0.9
					c0,1.2,0,2.4,0,3.5c0,0.2,0,0.5-0.2,0.6c-0.4,0.3-0.4,0.6-0.4,1c0,0.9,0,1.9,0,2.8c0,0.3,0,0.5-0.3,0.7c-0.4,0.2-0.7,0-0.7-0.6
					c0-1,0-2,0-3c0-0.1,0-0.3,0-0.4C262.2,237.7,262.1,237.7,262.1,237.7z"/>
				<path class="st25" d="M266.5,237.7c0,1.1,0,2.2,0,3.3c0,0.2,0,0.4-0.1,0.6c-0.2,0.2-0.4,0.2-0.6,0.1c-0.3-0.1-0.4-0.3-0.4-0.6
					c0-1,0-1.9,0-2.9c0-0.4,0-0.7-0.4-1c-0.2-0.1-0.2-0.4-0.2-0.6c0-1.2,0-2.4,0-3.5c0-0.6,0.3-0.9,0.9-0.9c0.5,0,1,0,1.5,0
					c0.6,0,0.9,0.3,0.9,0.9c0,1.2,0,2.4,0,3.5c0,0.2,0,0.4-0.2,0.6c-0.4,0.3-0.4,0.7-0.4,1.2c0,0.9,0,1.7,0,2.6c0,0.4,0,0.8-0.6,0.8
					c-0.6,0-0.5-0.4-0.5-0.8c0-1.1,0-2.2,0-3.2C266.6,237.7,266.5,237.7,266.5,237.7z"/>
				<path class="st25" d="M267.8,230.8c0,0.7-0.6,1.2-1.3,1.2c-0.6,0-1.2-0.6-1.2-1.2c0-0.7,0.6-1.3,1.2-1.3
					C267.2,229.5,267.8,230.1,267.8,230.8z"/>
				<path class="st25" d="M272.2,230.8c0,0.7-0.6,1.3-1.2,1.3c-0.6,0-1.2-0.6-1.2-1.2c0-0.7,0.6-1.3,1.2-1.3
					C271.6,229.5,272.2,230.1,272.2,230.8z"/>
				<path class="st25" d="M262.1,232c-0.7,0-1.2-0.6-1.2-1.3c0-0.6,0.6-1.2,1.2-1.2c0.7,0,1.3,0.6,1.3,1.2
					C263.4,231.4,262.8,232,262.1,232z"/>
			</g>
		</g>
		<g id="mGfqoG_00000181789755651022312280000009476214263098739854_">
			<g>
				<path class="st25" d="M275.1,264.8c0,1.7,0,3.4,0,5.1c0,2.1-1.4,3.4-3.5,3.4c-3.4,0-6.8,0-10.2,0c-2.2,0-3.5-1.4-3.5-3.5
					c0-3.4,0-6.7,0-10.1c0-2.2,1.4-3.6,3.6-3.6c3.3,0,6.7,0,10,0c2.2,0,3.6,1.4,3.6,3.6c0,0.8,0,1.7,0,2.5
					C275.1,263.1,275.1,264,275.1,264.8z M266.6,257.4C266.6,257.4,266.6,257.4,266.6,257.4c-1.7,0-3.4,0-5.1,0
					c-1.5,0-2.3,0.8-2.3,2.3c0,3.4,0,6.7,0,10.1c0,1.5,0.8,2.3,2.3,2.3c3.4,0,6.8,0,10.3,0c1.4,0,2.3-0.9,2.3-2.3
					c0-3.4,0-6.8,0-10.3c0-1.4-0.8-2.2-2.2-2.2C270,257.4,268.3,257.4,266.6,257.4z"/>
				<path class="st25" d="M262,252.7c0-0.8,0-1.5,0-2.3c0-0.4,0-0.8,0-1.2c0-0.7,0.2-1.1,0.7-1.1c0.4,0,0.7,0.4,0.7,1.1
					c0,0.9,0,1.9,0,2.8c0,0.2-0.1,0.4,0.1,0.5c0.2,0.1,0.3-0.2,0.4-0.3c0.4-0.4,0.7-0.7,1.1-1.1c0.3-0.3,0.6-0.3,0.9,0
					c0.3,0.3,0.4,0.6,0.1,0.9c-1,1-1.9,2.1-2.9,3.1c-0.2,0.2-0.6,0.2-0.8-0.1c-0.9-1-1.9-2-2.8-2.9c-0.3-0.3-0.2-0.7,0.1-1
					c0.3-0.3,0.6-0.2,0.9,0.1c0.5,0.5,0.9,1,1.4,1.5C261.9,252.8,262,252.8,262,252.7z"/>
				<path class="st25" d="M269.7,250.7c-0.6,0.6-1,1-1.4,1.5c-0.4,0.4-0.7,0.5-1.1,0.2c-0.3-0.3-0.3-0.7,0.1-1.1
					c0.8-0.9,1.7-1.8,2.5-2.6c0.4-0.4,0.7-0.4,1.1,0c0.8,0.9,1.7,1.8,2.5,2.6c0.4,0.4,0.4,0.9,0.1,1.2c-0.4,0.4-0.7,0.1-1.1-0.2
					c-0.4-0.4-0.9-0.8-1.4-1.3c-0.1,0.3,0,0.6,0,0.9c0,0.9,0,1.9,0,2.8c0,0.5-0.1,0.9-0.7,0.9c-0.5,0-0.7-0.4-0.7-0.8
					c0-1.1,0-2.2,0-3.3C269.7,251.1,269.7,251,269.7,250.7z"/>
				<path class="st25" d="M270.9,267.3c0,0.9,0,1.8,0,2.7c0,0.2,0,0.4,0,0.6c0,0.4,0,0.8-0.6,0.8c-0.5,0-0.5-0.4-0.5-0.8
					c0-0.9,0-1.8,0-2.6c0-0.4,0-0.9-0.4-1.2c-0.2-0.1-0.2-0.4-0.2-0.6c0-1.1,0-2.3,0-3.4c0-0.7,0.3-1,0.9-1c0.5,0,1.1,0,1.6,0
					c0.6,0,0.8,0.3,0.8,0.9c0,1.2,0,2.4,0,3.6c0,0.2,0,0.5-0.2,0.6c-0.4,0.3-0.4,0.6-0.4,1c0,0.9,0,1.7,0,2.6c0,0.4,0.1,0.9-0.5,0.9
					c-0.6,0-0.5-0.5-0.5-0.9c0-1,0-2,0-3.1C271,267.3,271,267.3,270.9,267.3z"/>
				<path class="st25" d="M262.1,267.2c0,1.1,0,2.3,0,3.4c0,0.4-0.1,0.7-0.6,0.7c-0.4,0-0.5-0.3-0.5-0.7c0-1,0-2,0-3
					c0-0.3,0-0.7-0.3-0.9c-0.2-0.2-0.2-0.4-0.2-0.7c0-1.1,0-2.3,0-3.4c0-0.7,0.3-1,1-1c0.5,0,1,0,1.5,0c0.6,0,0.9,0.3,0.9,0.9
					c0,1.2,0,2.4,0,3.5c0,0.2,0,0.5-0.2,0.6c-0.4,0.3-0.4,0.6-0.4,1c0,0.9,0,1.9,0,2.8c0,0.3,0,0.5-0.3,0.7c-0.4,0.2-0.7,0-0.7-0.6
					c0-1,0-2,0-3c0-0.1,0-0.3,0-0.4C262.2,267.2,262.1,267.2,262.1,267.2z"/>
				<path class="st25" d="M266.5,267.2c0,1.1,0,2.2,0,3.3c0,0.2,0,0.4-0.1,0.6c-0.2,0.2-0.4,0.2-0.6,0.1c-0.3-0.1-0.4-0.3-0.4-0.6
					c0-1,0-1.9,0-2.9c0-0.4,0-0.7-0.4-1c-0.2-0.1-0.2-0.4-0.2-0.6c0-1.2,0-2.4,0-3.5c0-0.6,0.3-0.9,0.9-0.9c0.5,0,1,0,1.5,0
					c0.6,0,0.9,0.3,0.9,0.9c0,1.2,0,2.4,0,3.5c0,0.2,0,0.4-0.2,0.6c-0.4,0.3-0.4,0.7-0.4,1.2c0,0.9,0,1.7,0,2.6c0,0.4,0,0.8-0.6,0.8
					c-0.6,0-0.5-0.4-0.5-0.8c0-1.1,0-2.2,0-3.2C266.6,267.3,266.5,267.2,266.5,267.2z"/>
				<path class="st25" d="M267.8,260.3c0,0.7-0.6,1.2-1.3,1.2c-0.6,0-1.2-0.6-1.2-1.2c0-0.7,0.6-1.3,1.2-1.3
					C267.2,259.1,267.8,259.7,267.8,260.3z"/>
				<path class="st25" d="M272.2,260.3c0,0.7-0.6,1.3-1.2,1.3c-0.6,0-1.2-0.6-1.2-1.2c0-0.7,0.6-1.3,1.2-1.3
					C271.6,259.1,272.2,259.6,272.2,260.3z"/>
				<path class="st25" d="M262.1,261.6c-0.7,0-1.2-0.6-1.2-1.3c0-0.6,0.6-1.2,1.2-1.2c0.7,0,1.3,0.6,1.3,1.2
					C263.4,261,262.8,261.6,262.1,261.6z"/>
			</g>
		</g>
		<g id="mGfqoG_00000093897333206614154650000014470695590657581463_">
			<g>
				<path class="st25" d="M319.6,235.3c0,1.7,0,3.4,0,5.1c0,2.1-1.4,3.4-3.5,3.4c-3.4,0-6.8,0-10.2,0c-2.2,0-3.5-1.4-3.5-3.5
					c0-3.4,0-6.7,0-10.1c0-2.2,1.4-3.6,3.6-3.6c3.3,0,6.7,0,10,0c2.2,0,3.6,1.4,3.6,3.6c0,0.8,0,1.7,0,2.5
					C319.6,233.6,319.6,234.4,319.6,235.3z M311,227.9C311,227.9,311,227.9,311,227.9c-1.7,0-3.4,0-5.1,0c-1.5,0-2.3,0.8-2.3,2.3
					c0,3.4,0,6.7,0,10.1c0,1.5,0.8,2.3,2.3,2.3c3.4,0,6.8,0,10.3,0c1.4,0,2.3-0.9,2.3-2.3c0-3.4,0-6.8,0-10.3c0-1.4-0.8-2.2-2.2-2.2
					C314.4,227.9,312.7,227.9,311,227.9z"/>
				<path class="st25" d="M306.4,223.2c0-0.8,0-1.5,0-2.3c0-0.4,0-0.8,0-1.2c0-0.7,0.2-1.1,0.7-1.1c0.4,0,0.7,0.4,0.7,1.1
					c0,0.9,0,1.9,0,2.8c0,0.2-0.1,0.4,0.1,0.5c0.2,0.1,0.3-0.2,0.4-0.3c0.4-0.4,0.7-0.7,1.1-1.1c0.3-0.3,0.6-0.3,0.9,0
					c0.3,0.3,0.4,0.6,0.1,0.9c-1,1-1.9,2.1-2.9,3.1c-0.2,0.2-0.6,0.2-0.8-0.1c-0.9-1-1.9-2-2.8-2.9c-0.3-0.3-0.2-0.7,0.1-1
					c0.3-0.3,0.6-0.2,0.9,0.1c0.5,0.5,0.9,1,1.4,1.5C306.3,223.2,306.4,223.2,306.4,223.2z"/>
				<path class="st25" d="M314.2,221.1c-0.6,0.6-1,1-1.4,1.5c-0.4,0.4-0.7,0.5-1.1,0.2c-0.3-0.3-0.3-0.7,0.1-1.1
					c0.8-0.9,1.7-1.8,2.5-2.6c0.4-0.4,0.7-0.4,1.1,0c0.8,0.9,1.7,1.8,2.5,2.6c0.4,0.4,0.4,0.9,0.1,1.2c-0.4,0.4-0.7,0.1-1.1-0.2
					c-0.4-0.4-0.9-0.8-1.4-1.3c-0.1,0.3,0,0.6,0,0.9c0,0.9,0,1.9,0,2.8c0,0.5-0.1,0.9-0.7,0.9c-0.5,0-0.7-0.4-0.7-0.8
					c0-1.1,0-2.2,0-3.3C314.1,221.6,314.2,221.4,314.2,221.1z"/>
				<path class="st25" d="M315.4,237.8c0,0.9,0,1.8,0,2.7c0,0.2,0,0.4,0,0.6c0,0.4,0,0.8-0.6,0.8c-0.5,0-0.5-0.4-0.5-0.8
					c0-0.9,0-1.8,0-2.6c0-0.4,0-0.9-0.4-1.2c-0.2-0.1-0.2-0.4-0.2-0.6c0-1.1,0-2.3,0-3.4c0-0.7,0.3-1,0.9-1c0.5,0,1.1,0,1.6,0
					c0.6,0,0.8,0.3,0.8,0.9c0,1.2,0,2.4,0,3.6c0,0.2,0,0.5-0.2,0.6c-0.4,0.3-0.4,0.6-0.4,1c0,0.9,0,1.7,0,2.6c0,0.4,0.1,0.9-0.5,0.9
					c-0.6,0-0.5-0.5-0.5-0.9c0-1,0-2,0-3.1C315.4,237.8,315.4,237.8,315.4,237.8z"/>
				<path class="st25" d="M306.5,237.7c0,1.1,0,2.3,0,3.4c0,0.4-0.1,0.7-0.6,0.7c-0.4,0-0.5-0.3-0.5-0.7c0-1,0-2,0-3
					c0-0.3,0-0.7-0.3-0.9c-0.2-0.2-0.2-0.4-0.2-0.7c0-1.1,0-2.3,0-3.4c0-0.7,0.3-1,1-1c0.5,0,1,0,1.5,0c0.6,0,0.9,0.3,0.9,0.9
					c0,1.2,0,2.4,0,3.5c0,0.2,0,0.5-0.2,0.6c-0.4,0.3-0.4,0.6-0.4,1c0,0.9,0,1.9,0,2.8c0,0.3,0,0.5-0.3,0.7c-0.4,0.2-0.7,0-0.7-0.6
					c0-1,0-2,0-3c0-0.1,0-0.3,0-0.4C306.6,237.7,306.5,237.7,306.5,237.7z"/>
				<path class="st25" d="M310.9,237.7c0,1.1,0,2.2,0,3.3c0,0.2,0,0.4-0.1,0.6c-0.2,0.2-0.4,0.2-0.6,0.1c-0.3-0.1-0.4-0.3-0.4-0.6
					c0-1,0-1.9,0-2.9c0-0.4,0-0.7-0.4-1c-0.2-0.1-0.2-0.4-0.2-0.6c0-1.2,0-2.4,0-3.5c0-0.6,0.3-0.9,0.9-0.9c0.5,0,1,0,1.5,0
					c0.6,0,0.9,0.3,0.9,0.9c0,1.2,0,2.4,0,3.5c0,0.2,0,0.4-0.2,0.6c-0.4,0.3-0.4,0.7-0.4,1.2c0,0.9,0,1.7,0,2.6c0,0.4,0,0.8-0.6,0.8
					c-0.6,0-0.5-0.4-0.5-0.8c0-1.1,0-2.2,0-3.2C311,237.7,311,237.7,310.9,237.7z"/>
				<path class="st25" d="M312.2,230.8c0,0.7-0.6,1.2-1.3,1.2c-0.6,0-1.2-0.6-1.2-1.2c0-0.7,0.6-1.3,1.2-1.3
					C311.6,229.5,312.2,230.1,312.2,230.8z"/>
				<path class="st25" d="M316.6,230.8c0,0.7-0.6,1.3-1.2,1.3c-0.6,0-1.2-0.6-1.2-1.2c0-0.7,0.6-1.3,1.2-1.3
					C316,229.5,316.6,230.1,316.6,230.8z"/>
				<path class="st25" d="M306.6,232c-0.7,0-1.2-0.6-1.2-1.3c0-0.6,0.6-1.2,1.2-1.2c0.7,0,1.3,0.6,1.3,1.2
					C307.8,231.4,307.2,232,306.6,232z"/>
			</g>
		</g>
		<g id="mGfqoG_00000055683530421287678700000006593159444055891085_">
			<g>
				<path class="st25" d="M319.6,264.8c0,1.7,0,3.4,0,5.1c0,2.1-1.4,3.4-3.5,3.4c-3.4,0-6.8,0-10.2,0c-2.2,0-3.5-1.4-3.5-3.5
					c0-3.4,0-6.7,0-10.1c0-2.2,1.4-3.6,3.6-3.6c3.3,0,6.7,0,10,0c2.2,0,3.6,1.4,3.6,3.6c0,0.8,0,1.7,0,2.5
					C319.6,263.1,319.6,264,319.6,264.8z M311,257.4C311,257.4,311,257.4,311,257.4c-1.7,0-3.4,0-5.1,0c-1.5,0-2.3,0.8-2.3,2.3
					c0,3.4,0,6.7,0,10.1c0,1.5,0.8,2.3,2.3,2.3c3.4,0,6.8,0,10.3,0c1.4,0,2.3-0.9,2.3-2.3c0-3.4,0-6.8,0-10.3c0-1.4-0.8-2.2-2.2-2.2
					C314.4,257.4,312.7,257.4,311,257.4z"/>
				<path class="st25" d="M306.4,252.7c0-0.8,0-1.5,0-2.3c0-0.4,0-0.8,0-1.2c0-0.7,0.2-1.1,0.7-1.1c0.4,0,0.7,0.4,0.7,1.1
					c0,0.9,0,1.9,0,2.8c0,0.2-0.1,0.4,0.1,0.5c0.2,0.1,0.3-0.2,0.4-0.3c0.4-0.4,0.7-0.7,1.1-1.1c0.3-0.3,0.6-0.3,0.9,0
					c0.3,0.3,0.4,0.6,0.1,0.9c-1,1-1.9,2.1-2.9,3.1c-0.2,0.2-0.6,0.2-0.8-0.1c-0.9-1-1.9-2-2.8-2.9c-0.3-0.3-0.2-0.7,0.1-1
					c0.3-0.3,0.6-0.2,0.9,0.1c0.5,0.5,0.9,1,1.4,1.5C306.3,252.8,306.4,252.8,306.4,252.7z"/>
				<path class="st25" d="M314.2,250.7c-0.6,0.6-1,1-1.4,1.5c-0.4,0.4-0.7,0.5-1.1,0.2c-0.3-0.3-0.3-0.7,0.1-1.1
					c0.8-0.9,1.7-1.8,2.5-2.6c0.4-0.4,0.7-0.4,1.1,0c0.8,0.9,1.7,1.8,2.5,2.6c0.4,0.4,0.4,0.9,0.1,1.2c-0.4,0.4-0.7,0.1-1.1-0.2
					c-0.4-0.4-0.9-0.8-1.4-1.3c-0.1,0.3,0,0.6,0,0.9c0,0.9,0,1.9,0,2.8c0,0.5-0.1,0.9-0.7,0.9c-0.5,0-0.7-0.4-0.7-0.8
					c0-1.1,0-2.2,0-3.3C314.1,251.1,314.2,251,314.2,250.7z"/>
				<path class="st25" d="M315.4,267.3c0,0.9,0,1.8,0,2.7c0,0.2,0,0.4,0,0.6c0,0.4,0,0.8-0.6,0.8c-0.5,0-0.5-0.4-0.5-0.8
					c0-0.9,0-1.8,0-2.6c0-0.4,0-0.9-0.4-1.2c-0.2-0.1-0.2-0.4-0.2-0.6c0-1.1,0-2.3,0-3.4c0-0.7,0.3-1,0.9-1c0.5,0,1.1,0,1.6,0
					c0.6,0,0.8,0.3,0.8,0.9c0,1.2,0,2.4,0,3.6c0,0.2,0,0.5-0.2,0.6c-0.4,0.3-0.4,0.6-0.4,1c0,0.9,0,1.7,0,2.6c0,0.4,0.1,0.9-0.5,0.9
					c-0.6,0-0.5-0.5-0.5-0.9c0-1,0-2,0-3.1C315.4,267.3,315.4,267.3,315.4,267.3z"/>
				<path class="st25" d="M306.5,267.2c0,1.1,0,2.3,0,3.4c0,0.4-0.1,0.7-0.6,0.7c-0.4,0-0.5-0.3-0.5-0.7c0-1,0-2,0-3
					c0-0.3,0-0.7-0.3-0.9c-0.2-0.2-0.2-0.4-0.2-0.7c0-1.1,0-2.3,0-3.4c0-0.7,0.3-1,1-1c0.5,0,1,0,1.5,0c0.6,0,0.9,0.3,0.9,0.9
					c0,1.2,0,2.4,0,3.5c0,0.2,0,0.5-0.2,0.6c-0.4,0.3-0.4,0.6-0.4,1c0,0.9,0,1.9,0,2.8c0,0.3,0,0.5-0.3,0.7c-0.4,0.2-0.7,0-0.7-0.6
					c0-1,0-2,0-3c0-0.1,0-0.3,0-0.4C306.6,267.2,306.5,267.2,306.5,267.2z"/>
				<path class="st25" d="M310.9,267.2c0,1.1,0,2.2,0,3.3c0,0.2,0,0.4-0.1,0.6c-0.2,0.2-0.4,0.2-0.6,0.1c-0.3-0.1-0.4-0.3-0.4-0.6
					c0-1,0-1.9,0-2.9c0-0.4,0-0.7-0.4-1c-0.2-0.1-0.2-0.4-0.2-0.6c0-1.2,0-2.4,0-3.5c0-0.6,0.3-0.9,0.9-0.9c0.5,0,1,0,1.5,0
					c0.6,0,0.9,0.3,0.9,0.9c0,1.2,0,2.4,0,3.5c0,0.2,0,0.4-0.2,0.6c-0.4,0.3-0.4,0.7-0.4,1.2c0,0.9,0,1.7,0,2.6c0,0.4,0,0.8-0.6,0.8
					c-0.6,0-0.5-0.4-0.5-0.8c0-1.1,0-2.2,0-3.2C311,267.3,311,267.2,310.9,267.2z"/>
				<path class="st25" d="M312.2,260.3c0,0.7-0.6,1.2-1.3,1.2c-0.6,0-1.2-0.6-1.2-1.2c0-0.7,0.6-1.3,1.2-1.3
					C311.6,259.1,312.2,259.7,312.2,260.3z"/>
				<path class="st25" d="M316.6,260.3c0,0.7-0.6,1.3-1.2,1.3c-0.6,0-1.2-0.6-1.2-1.2c0-0.7,0.6-1.3,1.2-1.3
					C316,259.1,316.6,259.6,316.6,260.3z"/>
				<path class="st25" d="M306.6,261.6c-0.7,0-1.2-0.6-1.2-1.3c0-0.6,0.6-1.2,1.2-1.2c0.7,0,1.3,0.6,1.3,1.2
					C307.8,261,307.2,261.6,306.6,261.6z"/>
			</g>
		</g>
	</g>
	<g id="s8VYHe_00000080895358880622009370000016930856653078194594_">
		<g>
			<path class="st24" d="M661,244.9c1.4,0,2.7,0,4.1,0c0.5,0,0.9,0.3,1,0.8c0.1,0.6-0.3,1.1-1,1.1c-1,0-1.9,0-2.9,0
				c-0.2,0-0.2,0-0.2,0.2c0,0.9,0,1.8,0,2.7c0,0.1,0,0.2,0.2,0.2c0.5,0,0.9,0.5,1,1c0,0.2,0,0.2,0.2,0.2c1.3,0,2.6,0,3.9,0
				c0.2,0,0.2,0,0.2-0.2c0-0.8,0-1.6,0-2.5c0-0.4,0.2-0.6,0.6-0.6c0.3,0,0.6,0,1,0c0.1,0,0.1,0,0.2,0.1c0,0.5,0,1.1,0,1.6
				c0,0.5,0,0.9,0,1.4c0,0.5,0,1.1,0,1.6c0,0.5,0,1,0,1.6c0,0.2,0,0.4,0,0.6c0,0.5,0,1,0,1.5c0,0.3,0,0.5,0,0.8c0,0.2,0,0.2-0.2,0.2
				c-0.3,0-0.6,0-1,0c-0.4,0-0.6-0.2-0.6-0.6c0-0.8,0-1.6,0-2.5c0-0.2,0-0.2-0.2-0.2c-0.5,0-1.1,0-1.6,0c-0.5,0-1,0-1.4,0
				c-0.3,0-0.6,0-0.8,0c-0.2,0-0.2,0-0.2,0.2c-0.1,0.6-0.6,1-1.2,1c-0.6,0-1.3,0-1.9,0c-0.6,0-1.1-0.4-1.2-1c0-0.1-0.1-0.1-0.2-0.1
				c-0.3,0-0.7,0-1,0c-0.6,0-1.2,0-1.8,0c-0.2,0-0.5,0-0.7,0.1c-0.5,0.2-0.9,0.7-0.9,1.3c0,0.5,0,1,0,1.5c0,0.6,0,1.1,0,1.7
				c0,0.1,0,0.1-0.1,0.1c-0.9,0-1.9,0-2.8,0c-0.1,0-0.1-0.1-0.1-0.2c0-0.5,0-1,0-1.5c0-0.8,0-1.6,0-2.3c0-0.6,0.2-1.1,0.5-1.5
				c0.6-0.9,1.5-1.5,2.5-1.8c0.7-0.2,1.4-0.3,2.1-0.3c0.8,0,1.6,0,2.4,0c0.1,0,0.2,0,0.2-0.1c0.1-0.6,0.5-0.9,1-1
				c0.1,0,0.1-0.1,0.1-0.2c0-0.9,0-1.9,0-2.8c0-0.1,0-0.2-0.2-0.2c-1,0-1.9,0-2.9,0c-0.5,0-0.8-0.3-1-0.7c-0.2-0.6,0.3-1.2,0.9-1.2
				c0.8,0,1.5,0,2.3,0C659.7,244.9,660.4,244.9,661,244.9C661,244.9,661,244.9,661,244.9z"/>
			<path class="st24" d="M652.6,261.3c1.6,0,3.2,0,4.8,0c0.2,0,0.2,0,0.2,0.2c-0.1,0.9-0.2,1.8-0.3,2.7c-0.1,0.9-0.2,1.8-0.3,2.7
				c-0.1,0.7-0.2,1.4-0.2,2.1c0,0.5-0.1,1-0.2,1.6c-0.1,0.8-0.2,1.6-0.3,2.4c0,0.2,0,0.2-0.2,0.2c-0.5,0-1,0-1.5,0c-0.5,0-1,0-1.6,0
				c-0.5,0-1.1,0-1.6,0c-0.2,0-0.4,0-0.6,0c-0.5,0-1.1,0-1.6,0c-0.1,0-0.2,0-0.2-0.1c-0.1-0.7-0.2-1.3-0.2-2
				c-0.1-0.7-0.2-1.4-0.2-2.1c-0.1-0.5-0.1-1.1-0.2-1.6c-0.1-0.7-0.2-1.4-0.2-2.1c-0.1-0.5-0.1-1.1-0.2-1.6c-0.1-0.7-0.1-1.3-0.2-2
				c0-0.1,0.1-0.1,0.2-0.1c0.8,0,1.7,0,2.5,0C651,261.3,651.8,261.3,652.6,261.3C652.6,261.3,652.6,261.3,652.6,261.3z M652.6,264.7
				c1.1,0,2.2,0,3.3,0c0.1,0,0.2,0,0.2-0.2c0.1-0.6,0.1-1.3,0.2-1.9c0-0.2,0-0.2-0.2-0.2c-0.6,0-1.2,0-1.8,0c-0.2,0-0.5,0-0.7,0
				c-0.5,0-1,0-1.6,0c-0.5,0-1,0-1.6,0c-0.5,0-1,0-1.5,0c-0.2,0-0.2,0-0.2,0.2c0,0.3,0.1,0.6,0.1,1c0,0.3,0.1,0.6,0.1,0.9
				c0,0.1,0.1,0.2,0.2,0.2c0.1,0,0.1,0,0.2,0C650.5,264.7,651.6,264.7,652.6,264.7z"/>
		</g>
	</g>
	<g id="BbVIEC_00000003076436586341537940000010177962502107592844_">
		<g>
			<g>
				<path class="st28" d="M622.2,268.1c-8.2,0-16.5,0-24.7,0c-0.5,0-0.5-0.1-0.5-0.5c0-1.5,0-3,0-4.5c0.2-0.3,0.5-0.3,0.8-0.3
					c1.2,0,2.4,0,3.6,0c0.6,0,0.8-0.1,0.8-0.8c0-1.2,0-2.4,0-3.6c0-0.8,0.1-0.9,0.9-0.9c1.2,0,2.3,0,3.5,0c0.7,0,0.9-0.1,0.9-0.9
					c0-1.2,0-2.4,0-3.6c0-0.6,0.2-0.8,0.8-0.8c1.2,0,2.4,0,3.6,0c0.7,0,0.8-0.1,0.8-0.8c0-1.1,0-2.3,0-3.4c0-0.9,0.1-1,1-1
					c1.1,0,2.3,0,3.4,0c0.7,0,0.8-0.1,0.8-0.9c0-1.2,0-2.4,0-3.6c0-0.7,0.2-0.8,0.8-0.8c1.1,0,2.3,0,3.4,0c1.1,0,1.1,0.1,1.1,1.1
					c0,7.7,0,15.4,0,23.1C623.3,266.9,623,267.6,622.2,268.1z M614.4,261.7C614.4,261.7,614.4,261.7,614.4,261.7c0.7,0,1.4,0,2.2,0
					c0.6,0,0.6-0.4,0.6-0.8c0-0.4,0-0.8-0.6-0.8c-0.4,0-0.9,0-1.3,0c-0.2,0-0.4,0.1-0.5-0.1c-0.1-0.2,0.1-0.3,0.2-0.4
					c1.2-1.2,2.5-2.5,3.7-3.7c0.6-0.6,0.6-0.7,0.1-1.2c-0.5-0.5-0.7-0.5-1.2,0.1c-0.1,0.1-0.2,0.2-0.4,0.4c-1.1,1.1-2.3,2.3-3.4,3.4
					c-0.1,0.1-0.2,0.3-0.4,0.2c-0.1-0.1-0.1-0.2-0.1-0.4c0-0.4,0-0.9,0-1.3c0-0.5-0.2-0.7-0.7-0.7c-0.7,0-0.9,0.1-0.9,0.7
					c0,1.4,0,2.7,0,4.1c0,0.5,0.2,0.7,0.7,0.7C613,261.7,613.7,261.7,614.4,261.7z"/>
				<path class="st28" d="M604.6,247.3c-0.7,0-1.2,0-1.7,0c-0.6,0-0.8-0.2-0.8-0.8c0-0.7,0.1-1,0.7-1c1.4,0,2.9,0,4.3,0
					c0.5,0,0.7,0.3,0.7,0.8c0,1.4,0,2.8,0,4.2c0,0.6-0.3,0.8-1,0.8c-0.7,0-0.9-0.2-0.9-0.8c0-0.5,0-1,0-1.5
					c-0.3-0.1-0.4,0.2-0.6,0.3c-1.2,1.1-2.3,2.3-3.5,3.5c-0.7,0.6-1.4,0.5-1.8-0.4c-0.2-0.4,0.1-0.6,0.3-0.8
					c1.2-1.2,2.4-2.4,3.6-3.6C604.2,247.7,604.4,247.6,604.6,247.3z"/>
			</g>
		</g>
	</g>
</g>
<g id="文字資訊">
	<g>
		<text transform="matrix(1 0 0 1 142.3335 413.4218)" class="st6 st51 st52">410</text>
	</g>
	<g>
		<text transform="matrix(1 0 0 1 142.3335 502.6503)" class="st6 st51 st52">411</text>
	</g>
	<g>
		<text transform="matrix(1 0 0 1 142.3335 557.9694)" class="st6 st51 st52">412-1</text>
	</g>
	<g>
		<text transform="matrix(1 0 0 1 482.262 318.3423)" class="st6 st51 st52">412-2</text>
	</g>
	<g>
		<text transform="matrix(1 0 0 1 482.262 374.1025)" class="st6 st51 st52">413-1</text>
	</g>
	<g>
		<text transform="matrix(1 0 0 1 142.3335 317.0833)" class="st6 st51 st52">409-1</text>
	</g>
	<g>
		<text transform="matrix(1 0 0 1 142.3335 372.2061)" class="st6 st51 st52">409-2</text>
	</g>
	<g>
		<text transform="matrix(1 0 0 1 285.2136 312.4108)"><tspan x="0" y="0" class="st51 st53">社群/贊助攤位</tspan><tspan x="0" y="13.8" class="st51 st53">Community/Sponsor Booth</tspan></text>
	</g>
	<g>
		<text transform="matrix(1 0 0 1 284.8621 366.894)" class="st51 st53">postgreSQL.TW</text>
	</g>
	<g>
		<text transform="matrix(1 0 0 1 201.0659 365.777)" class="st54 st51 st53">Day01 / Day02</text>
	</g>
	<g>
		<text transform="matrix(1 0 0 1 285.082 497.9783)"><tspan x="0" y="0" class="st51 st53">系統軟體社群議程</tspan><tspan x="0" y="13.8" class="st51 st53">System Software Track</tspan></text>
	</g>
	<g>
		<text transform="matrix(1 0 0 1 201.066 495.4056)" class="st54 st51 st53">Day01 / Day02</text>
	</g>
	<g>
		<text transform="matrix(1 0 0 1 201.066 551.5104)" class="st54 st51 st53">Day01 / Day02</text>
	</g>
	<g>
		<text transform="matrix(1 0 0 1 201.066 310.6246)" class="st54 st51 st53">Day01 / Day02</text>
	</g>
	<g>
		<text transform="matrix(1 0 0 1 285.072 553.326)"><tspan x="0" y="0" class="st51 st53">綜合議程 - 各種開源議題</tspan><tspan x="0" y="13.8" class="st51 st53">Miscellaneous Open Source Topics</tspan></text>
	</g>
	<g>
		<text transform="matrix(1 0 0 1 625.4527 313.616)"><tspan x="0" y="0" class="st51 st53">綜合議程 - 各種開源議題</tspan><tspan x="0" y="13.8" class="st51 st53">Miscellaneous Open Source Topics</tspan></text>
	</g>
	<g>
		<text transform="matrix(1 0 0 1 482.9601 462.3349)" class="st6 st51 st52">413-2</text>
	</g>
	<g>
		<text transform="matrix(1 0 0 1 543.6771 456.9342)" class="st54 st51 st53">Day01 / Day02</text>
	</g>
	<g>
		<text transform="matrix(1 0 0 1 626.673 457.5596)"><tspan x="0" y="0" class="st51 st53">市集（開．源遊會）</tspan><tspan x="0" y="13.8" class="st51 st53">Vendor</tspan></text>
	</g>
	<g>
		<text transform="matrix(1 0 0 1 542.9791 312.9421)" class="st54 st51 st53">Day01 / Day02</text>
	</g>
	<g>
		<text transform="matrix(1 0 0 1 625.5941 368.2794)"><tspan x="0" y="0" class="st51 st53">開源政策</tspan><tspan x="0" y="13.8" class="st51 st53">Open Source Policy</tspan></text>
	</g>
	<g>
		<text transform="matrix(1 0 0 1 542.9789 367.6836)" class="st54 st51 st53">Day01</text>
	</g>
	<g>
		<text transform="matrix(1 0 0 1 542.9792 401.0909)" class="st54 st51 st53">Day02</text>
	</g>
	<g>
		<text transform="matrix(1 0 0 1 625.9215 401.74)"><tspan x="0" y="0" class="st51 st53">JVM 集會所</tspan><tspan x="0" y="13.8" class="st51 st53">JVM Assembly Hall</tspan></text>
	</g>
	<g>
		<text transform="matrix(1 0 0 1 285.2625 408.7193)"><tspan x="0" y="0" class="st51 st53">MySQL創新與應用的分享平台</tspan><tspan x="0" y="13.8" class="st51 st53">MySQL innovation and </tspan><tspan x="0" y="27.6" class="st51 st53">application sharing session track</tspan></text>
	</g>
	<g>
		<text transform="matrix(1 0 0 1 201.066 406.9623)" class="st54 st51 st53">Day01</text>
	</g>
	<g>
		<text transform="matrix(1 0 0 1 201.0662 454.7124)" class="st54 st51 st53">Day02</text>
	</g>
	<g>
		<text transform="matrix(1 0 0 1 285.2136 456.0836)" class="st51 st53">Open Source Firmware</text>
	</g>
	<rect x="45.7" y="24.8" class="st6" width="111" height="37.3"/>
	<g>
		<text transform="matrix(1 0 0 1 60.2981 52.0706)" class="st17 st37 st57">研揚大樓</text>
	</g>
</g>
<g id="樓層位置">
	<rect x="49.7" y="304.2" class="st56" width="63" height="56.2"/>
	<g>
		<text transform="matrix(1 0 0 1 56.2725 347.5057)" class="st6 st37 st65">4F</text>
	</g>
</g>
<g id="輸出佈置" class="st66">
	<g class="st68">
		<text transform="matrix(1 0 0 1 372.606 198.348)" class="st69 st26 st70">徵才看板B</text>
	</g>
	<line class="st67" x1="387.3" y1="184.6" x2="422.5" y2="184.6"/>
	<line class="st67" x1="700" y1="184.6" x2="735.2" y2="184.6"/>
	<text transform="matrix(1 0 0 1 517.3044 293.4222)" class="st71 st26 st72">樓層議程告知</text>
	<text transform="matrix(1 0 0 1 180.925 298.7202)" class="st71 st26 st72">樓層議程告知</text>
	<text transform="matrix(1 0 0 1 697.1707 201.8295)" class="st71 st26 st72">社群交流看板</text>
	<line class="st67" x1="443.9" y1="185.3" x2="501" y2="185.3"/>
	<text transform="matrix(1 0 0 1 464.2703 199.6947)" class="st68"><tspan x="0" y="0" class="st69 st26 st72">4樓</tspan><tspan x="-26" y="12.5" class="st69 st26 st72">議程看板+地圖</tspan></text>
	<text transform="matrix(1 0 0 1 682.311 526.187)" class="st68 st74 st75">A.贊助商海報</text>
	<g class="st68">
		<text transform="matrix(1 0 0 1 682.0356 541.9833)" class="st74 st75">B.主視覺海報</text>
	</g>
	<g class="st68">
		<text transform="matrix(1 0 0 1 682.6294 557.7807)" class="st74 st75">C.講桌前背板(上方)</text>
	</g>
	<g class="st68">
		<text transform="matrix(1 0 0 1 768.3364 558.2827)" class="st76 st77">6間</text>
	</g>
	<text transform="matrix(1 0 0 1 666.604 515.0131)" class="st68 st74 st78">議程教室</text>
	<polygon class="st73" points="650.9,509.9 650.9,542 570.6,542 570.6,535.2 564.1,535.2 564.1,509.9 	"/>
	<rect x="550.1" y="535.2" class="st73" width="20.5" height="28.4"/>
	<rect x="546.4" y="513.9" class="st73" width="14" height="19.6"/>
	<rect x="632.9" y="513.9" class="st73" width="14" height="19.6"/>
	<g class="st68">
		<text transform="matrix(1 0 0 1 636.8853 527.2153)" class="st76 st75">A</text>
	</g>
	<g class="st68">
		<text transform="matrix(1 0 0 1 549.4419 526.7407)" class="st76 st75">B</text>
	</g>
	<g class="st68">
		<text transform="matrix(1 0 0 1 556.7495 552.9335)" class="st76 st75">C</text>
	</g>
	<g class="st68">
		<text transform="matrix(1 0 0 1 681.7651 571.6802)" class="st74 st79">D.門口的議程軌布告欄</text>
	</g>
	<line class="st67" x1="173.1" y1="258.4" x2="173.1" y2="235"/>
	<line class="st67" x1="571.7" y1="265.7" x2="571.7" y2="242.3"/>
</g>
<g id="指標" class="st66">
</g>
</svg>
