<?xml version="1.0" encoding="utf-8"?>
<!-- Generator: Adobe Illustrator 27.7.0, SVG Export Plug-In . SVG Version: 6.00 Build 0)  -->
<svg version="1.0" xmlns="http://www.w3.org/2000/svg" xmlns:xlink="http://www.w3.org/1999/xlink" x="0px" y="0px"
	 viewBox="0 0 841.9 595.3" style="enable-background:new 0 0 841.9 595.3;" xml:space="preserve">
<style type="text/css">
	.st0{fill:none;stroke:#B3B3B3;stroke-width:4.4344;stroke-linecap:round;stroke-miterlimit:10;}
	.st1{fill:#E6E6E6;}
	.st2{fill:#FFFEFF;}
	.st3{fill:#B3B3B3;}
	.st4{fill:none;stroke:#B3B3B3;stroke-width:4.4344;stroke-miterlimit:10;}
	.st5{fill:none;stroke:#FFFEFF;stroke-width:3;stroke-miterlimit:10;}
	.st6{fill:#3B9838;}
	.st7{fill:none;stroke:#FFFFFF;stroke-width:2;stroke-linecap:round;stroke-linejoin:bevel;}
	.st8{opacity:0.73;}
	.st9{fill:#EAEAEA;stroke:#FFFFFF;stroke-width:2;stroke-linecap:round;stroke-linejoin:bevel;}
	.st10{fill:#EAEAEA;stroke:#FFFFFF;stroke-width:5;stroke-linecap:round;stroke-linejoin:bevel;}
	.st11{fill:#579B57;}
	.st12{opacity:0.1;fill:#70931B;}
	.st13{fill:none;stroke:#FFFEFF;stroke-miterlimit:10;}
	.st14{fill:#C1272D;}
	.st15{fill:#30AF00;}
	.st16{fill:#0076CB;}
	.st17{fill:#FFFFFF;}
	.st18{fill:#008061;}
	.st19{fill:#F5821F;}
	.st20{fill:#ED1B2D;}
	.st21{fill:#12344C;}
	.st22{opacity:0.5;fill:url(#SVGID_1_);}
	.st23{opacity:0.5;fill:url(#SVGID_00000101807210509002728020000001460987266742420138_);}
	.st24{fill:#E98025;}
	.st25{fill:#0071BC;}
	.st26{font-family:'NotoSansCJKtc-Medium-B5pc-H';}
	.st27{font-size:24px;}
	.st28{fill:#808080;}
	.st29{fill:#FFE9BA;}
	.st30{fill:#3E3D4D;}
	.st31{fill:#BCC4C6;}
	.st32{fill:#D24635;}
	.st33{fill:#FCF3EE;}
	.st34{fill:#E8C72E;}
	.st35{fill:#E0A911;}
	.st36{opacity:0.2;fill:none;stroke:#70931B;stroke-width:2;stroke-miterlimit:10;stroke-dasharray:4,4;}
	.st37{opacity:0.2;fill:none;stroke:#70931B;stroke-width:1.78;stroke-miterlimit:10;stroke-dasharray:3.56,3.56;}
	.st38{font-family:'NotoSansMonoCJKtc-Regular-B5pc-H';}
	.st39{font-size:14.358px;}
	.st40{font-family:'NotoSansCJKtc-Bold-B5pc-H';}
	.st41{font-size:16.0814px;}
	.st42{font-size:10.9149px;}
	.st43{fill:#EE2041;}
	.st44{fill-rule:evenodd;clip-rule:evenodd;fill:#FFFFFF;}
	.st45{fill:#0074A9;}
	.st46{fill:#EB6101;}
	.st47{fill:#E4007F;}
	.st48{fill:#EB6877;}
	.st49{fill:#CC0000;}
	.st50{fill:#474747;}
	.st51{font-family:'MicrosoftJhengHeiBold';}
	.st52{font-size:17px;}
	.st53{font-size:10px;}
	.st54{fill:#6B6B6B;}
	.st55{opacity:0.8;}
	.st56{fill:none;stroke:#3B9838;stroke-width:3;stroke-miterlimit:10;}
	.st57{fill-rule:evenodd;clip-rule:evenodd;fill:#040000;}
	.st58{fill:#040000;}
	.st59{fill:none;stroke:#040000;stroke-width:0.75;stroke-linejoin:round;stroke-miterlimit:8;}
	
		.st60{opacity:0;fill-rule:evenodd;clip-rule:evenodd;fill:none;stroke:#040000;stroke-width:0.75;stroke-linejoin:round;stroke-miterlimit:8;}
	
		.st61{fill-rule:evenodd;clip-rule:evenodd;fill:none;stroke:#040000;stroke-width:0.75;stroke-linejoin:round;stroke-miterlimit:8;}
	.st62{fill:#E2E2E2;stroke:#040000;stroke-width:0.75;stroke-linejoin:round;stroke-miterlimit:8;}
	
		.st63{fill-rule:evenodd;clip-rule:evenodd;fill:#E2E2E2;stroke:#040000;stroke-width:0.75;stroke-linejoin:round;stroke-miterlimit:8;}
	.st64{font-size:20.6523px;}
	.st65{font-size:43px;}
	.st66{display:none;}
	.st67{display:inline;fill:none;stroke:#F90000;stroke-width:8;stroke-miterlimit:10;}
	.st68{display:inline;}
	.st69{fill:#F90000;}
	.st70{font-size:10.2218px;}
	.st71{display:inline;fill:#F90000;}
	.st72{display:inline;fill:none;stroke:#000000;stroke-miterlimit:10;}
	.st73{font-size:9.3394px;}
	.st74{font-family:'NotoSansCJKtc-Thin-B5pc-H';}
	.st75{font-size:31.3149px;}
	.st76{font-size:11.6742px;glyph-orientation-vertical:0;writing-mode:tb;}
	.st77{font-family:'SourceHanSansTW-Medium-B5pc-H';}
	.st78{display:inline;fill:none;stroke:#232323;stroke-miterlimit:10;}
	.st79{display:inline;fill:none;stroke:#F90000;stroke-width:3;stroke-miterlimit:10;}
	.st80{display:inline;fill:#FFFEFF;}
	.st81{display:inline;fill:none;stroke:#B3B3B3;stroke-width:4.4344;stroke-linecap:round;stroke-miterlimit:10;}
	.st82{display:inline;fill:#E6E6E6;}
	.st83{display:inline;fill:#B3B3B3;}
	.st84{display:inline;fill:none;stroke:#B3B3B3;stroke-width:4.4344;stroke-miterlimit:10;}
	.st85{display:inline;opacity:0.2;fill:none;stroke:#70931B;stroke-width:2;stroke-miterlimit:10;stroke-dasharray:4,4;}
	.st86{display:inline;fill:none;stroke:#333131;stroke-miterlimit:10;}
	.st87{fill:none;stroke:#000000;stroke-miterlimit:10;}
	.st88{display:inline;fill:#F5EB31;stroke:#231815;stroke-miterlimit:10;}
	.st89{display:inline;fill:#BE611C;stroke:#231815;stroke-miterlimit:10;}
</style>
<g id="建築">
	<polygon class="st4" points="334.8,281.9 334.8,228.1 569.1,228.1 569.1,281.9 797.7,281.9 797.7,74.1 584.2,74.1 569.1,74.1 
		334.8,74.1 334.8,74.1 50.4,74.1 50.4,178.6 28.2,178.6 28.2,224.2 50.4,224.2 50.4,281.9 	"/>
	<g>
		
			<rect x="576.7" y="214.4" transform="matrix(-1 -1.224647e-16 1.224647e-16 -1 1219.4348 490.1661)" class="st1" width="66.1" height="61.4"/>
		<g>
			<rect x="597" y="214.4" class="st5" width="46.3" height="17.3"/>
		</g>
	</g>
	<rect x="213" y="214.8" class="st1" width="33.7" height="15.4"/>
	<polygon class="st1" points="210.2,233 247.1,233 247.1,275.8 172.8,275.8 172.8,214.4 210.2,214.4 	"/>
	<rect x="249.9" y="214.4" class="st1" width="75" height="61.4"/>
	<polygon class="st1" points="645.5,275.8 670.2,275.8 689.6,275.8 791.1,275.8 791.1,214.4 673.6,214.4 673.6,250.8 645.5,250.8 	
		"/>
	<rect x="56.8" y="222.9" class="st1" width="85" height="52.9"/>
	<rect x="144.7" y="251.2" class="st1" width="25.1" height="24.6"/>
	<line class="st5" x1="745.8" y1="276" x2="745.8" y2="213.8"/>
	<rect x="247.1" y="275.8" class="st2" width="2.8" height="0.2"/>
	<line class="st5" x1="674.2" y1="276" x2="674.2" y2="213.8"/>
	<rect x="57.3" y="87.7" class="st1" width="80.7" height="92.6"/>
	<rect x="140.8" y="87.7" class="st1" width="78.5" height="92.6"/>
	<rect x="222.1" y="87.7" class="st1" width="78.5" height="92.6"/>
	<rect x="303.5" y="87.7" class="st1" width="78.5" height="92.6"/>
	<rect x="384.8" y="87.7" class="st1" width="78.5" height="92.6"/>
	<rect x="466.1" y="87.7" class="st1" width="78.5" height="92.6"/>
	<rect x="547.4" y="87.7" class="st1" width="78.5" height="92.6"/>
	<rect x="628.7" y="87.7" class="st1" width="78.5" height="92.6"/>
	<polygon class="st1" points="791.1,80.1 791.1,180.3 710.1,180.3 710.1,87.7 747.7,87.7 747.7,80.1 	"/>
	<g>
		<text transform="matrix(1 0 0 1 163.8618 54.0324)" class="st6 st26 st27">TR Building</text>
	</g>
</g>
<g id="標示">
	<g>
		<text transform="matrix(1 0 0 1 694.0535 262.0218)" class="st21 st38 st39">Toilet</text>
	</g>
	<g id="o3AOjT_00000045617371170577713190000004452688150536381849_">
		<g>
			<g>
				<path class="st21" d="M712.7,232.3c0.4-0.4,0.8-0.7,1.1-1.1c0.5-0.6,1.1-0.5,1.4,0.2c1.5,3.8,2.9,7.5,4.4,11.3
					c0.3,0.8-0.2,1.5-1,1.6c-0.2,0-0.4,0-0.6,0c-3.4,0-6.8,0-10.2,0c-0.2,0-0.4,0-0.6,0c-1-0.1-1.4-0.8-1.1-1.7
					c0.7-1.9,1.5-3.9,2.2-5.8c0.7-1.8,1.4-3.6,2.1-5.4c0.3-0.7,0.8-0.8,1.4-0.3C712.1,231.5,712.4,231.9,712.7,232.3z"/>
				<path class="st21" d="M712.8,229.9c-2.1,0-3.8-1.6-3.8-3.9c0-2.1,1.6-3.7,3.9-3.7c2.1,0,3.8,1.7,3.8,3.8
					C716.6,228.2,714.9,229.9,712.8,229.9z"/>
			</g>
		</g>
	</g>
	<g>
		<g>
			<path class="st21" d="M97.8,237.7c0,0.3-0.3,0.4-0.3,0.7c0,0.2,0.1,0.4,0.3,0.6c0.5,0.3,0.5,0.8,0.4,1.3
				c-0.2,1.4-0.3,2.9-0.5,4.3c-0.1,0.6,0.3,0.9,0.5,1.4c0.9-0.8,0.6-1.7,0.5-2.6c-0.1-1.2-0.3-2.3-0.4-3.5c0-0.4,0-0.6,0.3-0.9
				c0.2-0.1,0.4-0.3,0.5-0.6c-0.1-0.2-0.3-0.4-0.4-0.6c0.1-0.2,0.3-0.2,0.5-0.2c1,0,2,0,3,0c1.5,0,2.5,1.4,1.9,2.8
				c-0.9,2.3-1.8,4.7-2.7,7c-0.4,1-0.7,2-1.2,2.9c-0.5,0.8-1.4,1.1-2.3,0.9c-1.1-0.2-1.6-0.9-1.9-1.9c-0.8-2-1.6-4.1-2.3-6.1
				c-0.4-0.9-0.7-1.9-1.1-2.8c-0.5-1.4,0.4-2.7,1.9-2.8C95.5,237.7,96.6,237.7,97.8,237.7z"/>
			<path class="st21" d="M98.4,237c-2.3,0-4.1-1.7-4.1-3.9c0-2.2,1.7-4,3.9-4c2.2,0,4,1.7,4.1,3.9C102.2,234.9,100.8,236.9,98.4,237
				z"/>
		</g>
	</g>
	<g>
		<text transform="matrix(1 0 0 1 77.3904 268.3158)" class="st21 st38 st39">Toilet</text>
	</g>
	<g id="mGfqoG_00000134965145846634885970000006124102717554654887_">
		<g>
			<path class="st25" d="M275.3,234.6c0,1.7,0,3.4,0,5.1c0,2-1.4,3.4-3.5,3.4c-3.4,0-6.8,0-10.2,0c-2.1,0-3.5-1.4-3.5-3.5
				c0-3.4,0-6.7,0-10.1c0-2.2,1.4-3.6,3.6-3.6c3.3,0,6.7,0,10,0c2.2,0,3.6,1.4,3.6,3.6c0,0.8,0,1.7,0,2.5
				C275.3,232.9,275.3,233.7,275.3,234.6z M266.7,227.2C266.7,227.2,266.7,227.2,266.7,227.2c-1.7,0-3.4,0-5.1,0
				c-1.5,0-2.3,0.8-2.3,2.3c0,3.4,0,6.7,0,10.1c0,1.5,0.8,2.3,2.3,2.3c3.4,0,6.8,0,10.2,0c1.4,0,2.2-0.9,2.2-2.3c0-3.4,0-6.8,0-10.2
				c0-1.4-0.8-2.2-2.2-2.2C270.1,227.2,268.4,227.2,266.7,227.2z"/>
			<path class="st25" d="M262.2,222.6c0-0.8,0-1.5,0-2.3c0-0.4,0-0.8,0-1.2c0-0.7,0.2-1.1,0.7-1.1c0.4,0,0.7,0.4,0.7,1.1
				c0,0.9,0,1.9,0,2.8c0,0.2-0.1,0.4,0.1,0.5c0.2,0.1,0.3-0.1,0.4-0.3c0.4-0.3,0.7-0.7,1.1-1.1c0.3-0.3,0.6-0.3,0.9,0
				c0.3,0.3,0.4,0.6,0.1,0.9c-1,1-1.9,2.1-2.9,3.1c-0.2,0.2-0.6,0.2-0.8-0.1c-0.9-1-1.8-2-2.8-2.9c-0.3-0.3-0.2-0.7,0.1-1
				c0.3-0.3,0.6-0.2,0.9,0.1c0.5,0.5,0.9,1,1.4,1.5C262.1,222.6,262.1,222.6,262.2,222.6z"/>
			<path class="st25" d="M269.9,220.5c-0.5,0.6-1,1-1.4,1.5c-0.4,0.4-0.7,0.5-1.1,0.2c-0.3-0.3-0.3-0.7,0.1-1.1
				c0.8-0.9,1.7-1.8,2.5-2.6c0.4-0.4,0.7-0.4,1.1,0c0.8,0.9,1.7,1.7,2.5,2.6c0.4,0.4,0.4,0.9,0.1,1.2c-0.4,0.4-0.7,0.1-1-0.2
				c-0.4-0.4-0.9-0.8-1.4-1.3c-0.1,0.3,0,0.6,0,0.9c0,0.9,0,1.9,0,2.8c0,0.4-0.1,0.9-0.7,0.9c-0.5,0-0.7-0.4-0.7-0.8
				c0-1.1,0-2.2,0-3.3C269.9,220.9,269.9,220.8,269.9,220.5z"/>
			<path class="st25" d="M271.1,237.1c0,0.9,0,1.8,0,2.6c0,0.2,0,0.4,0,0.6c0,0.4,0,0.8-0.6,0.8c-0.5,0-0.5-0.4-0.5-0.8
				c0-0.9,0-1.7,0-2.6c0-0.4,0-0.8-0.4-1.1c-0.2-0.1-0.2-0.4-0.2-0.6c0-1.1,0-2.3,0-3.4c0-0.7,0.3-1,0.9-1c0.5,0,1.1,0,1.6,0
				c0.6,0,0.8,0.3,0.8,0.9c0,1.2,0,2.4,0,3.6c0,0.2,0,0.5-0.2,0.6c-0.4,0.3-0.4,0.6-0.4,1c0,0.9,0,1.7,0,2.6c0,0.4,0.1,0.9-0.5,0.9
				c-0.6,0-0.5-0.5-0.5-0.9c0-1,0-2,0-3.1C271.1,237.1,271.1,237.1,271.1,237.1z"/>
			<path class="st25" d="M262.2,237c0,1.1,0,2.3,0,3.4c0,0.4-0.1,0.7-0.6,0.7c-0.4,0-0.5-0.3-0.5-0.7c0-1,0-2,0-3
				c0-0.3,0-0.7-0.3-0.9c-0.2-0.2-0.2-0.4-0.2-0.7c0-1.1,0-2.3,0-3.4c0-0.7,0.3-1,1-1c0.5,0,1,0,1.5,0c0.6,0,0.9,0.3,0.9,0.9
				c0,1.2,0,2.3,0,3.5c0,0.2,0,0.5-0.2,0.6c-0.4,0.3-0.4,0.6-0.4,1c0,0.9,0,1.9,0,2.8c0,0.3,0,0.5-0.3,0.7c-0.4,0.2-0.7,0-0.7-0.6
				c0-1,0-2,0-3c0-0.1,0-0.3,0-0.4C262.3,237,262.3,237,262.2,237z"/>
			<path class="st25" d="M266.6,237c0,1.1,0,2.2,0,3.3c0,0.2,0,0.4-0.1,0.6c-0.2,0.2-0.4,0.2-0.6,0.1c-0.3-0.1-0.4-0.3-0.4-0.6
				c0-1,0-1.9,0-2.9c0-0.4,0-0.7-0.4-1c-0.2-0.1-0.2-0.4-0.2-0.6c0-1.2,0-2.3,0-3.5c0-0.6,0.3-0.9,0.9-0.9c0.5,0,1,0,1.5,0
				c0.6,0,0.9,0.3,0.9,0.9c0,1.2,0,2.3,0,3.5c0,0.2,0,0.4-0.2,0.6c-0.4,0.3-0.4,0.7-0.4,1.2c0,0.9,0,1.7,0,2.6c0,0.4,0,0.8-0.6,0.8
				c-0.6,0-0.5-0.4-0.5-0.8c0-1.1,0-2.2,0-3.2C266.7,237,266.7,237,266.6,237z"/>
			<path class="st25" d="M267.9,230.1c0,0.7-0.6,1.2-1.2,1.2c-0.6,0-1.2-0.6-1.2-1.2c0-0.7,0.6-1.3,1.2-1.3
				C267.4,228.9,267.9,229.4,267.9,230.1z"/>
			<path class="st25" d="M272.3,230.1c0,0.7-0.6,1.2-1.2,1.2c-0.6,0-1.2-0.6-1.2-1.2c0-0.7,0.6-1.3,1.2-1.3
				C271.8,228.9,272.3,229.4,272.3,230.1z"/>
			<path class="st25" d="M262.3,231.3c-0.7,0-1.2-0.6-1.2-1.3c0-0.6,0.6-1.2,1.2-1.2c0.7,0,1.3,0.6,1.3,1.2
				C263.5,230.8,263,231.4,262.3,231.3z"/>
		</g>
	</g>
	<g id="mGfqoG_00000176748857134356069630000017374620487954499764_">
		<g>
			<path class="st25" d="M275.3,264c0,1.7,0,3.4,0,5.1c0,2-1.4,3.4-3.5,3.4c-3.4,0-6.8,0-10.2,0c-2.1,0-3.5-1.4-3.5-3.5
				c0-3.4,0-6.7,0-10.1c0-2.2,1.4-3.6,3.6-3.6c3.3,0,6.7,0,10,0c2.2,0,3.6,1.4,3.6,3.6c0,0.8,0,1.7,0,2.5
				C275.3,262.4,275.3,263.2,275.3,264z M266.7,256.7C266.7,256.7,266.7,256.7,266.7,256.7c-1.7,0-3.4,0-5.1,0
				c-1.5,0-2.3,0.8-2.3,2.3c0,3.4,0,6.7,0,10.1c0,1.5,0.8,2.3,2.3,2.3c3.4,0,6.8,0,10.2,0c1.4,0,2.2-0.9,2.2-2.3c0-3.4,0-6.8,0-10.2
				c0-1.4-0.8-2.2-2.2-2.2C270.1,256.7,268.4,256.7,266.7,256.7z"/>
			<path class="st25" d="M262.2,252c0-0.8,0-1.5,0-2.3c0-0.4,0-0.8,0-1.2c0-0.7,0.2-1.1,0.7-1.1c0.4,0,0.7,0.4,0.7,1.1
				c0,0.9,0,1.9,0,2.8c0,0.2-0.1,0.4,0.1,0.5c0.2,0.1,0.3-0.1,0.4-0.3c0.4-0.3,0.7-0.7,1.1-1.1c0.3-0.3,0.6-0.3,0.9,0
				c0.3,0.3,0.4,0.6,0.1,0.9c-1,1-1.9,2.1-2.9,3.1c-0.2,0.2-0.6,0.2-0.8-0.1c-0.9-1-1.8-2-2.8-2.9c-0.3-0.3-0.2-0.7,0.1-1
				c0.3-0.3,0.6-0.2,0.9,0.1c0.5,0.5,0.9,1,1.4,1.5C262.1,252,262.1,252,262.2,252z"/>
			<path class="st25" d="M269.9,249.9c-0.5,0.6-1,1-1.4,1.5c-0.4,0.4-0.7,0.5-1.1,0.2c-0.3-0.3-0.3-0.7,0.1-1.1
				c0.8-0.9,1.7-1.8,2.5-2.6c0.4-0.4,0.7-0.4,1.1,0c0.8,0.9,1.7,1.7,2.5,2.6c0.4,0.4,0.4,0.9,0.1,1.2c-0.4,0.4-0.7,0.1-1-0.2
				c-0.4-0.4-0.9-0.8-1.4-1.3c-0.1,0.3,0,0.6,0,0.9c0,0.9,0,1.9,0,2.8c0,0.4-0.1,0.9-0.7,0.9c-0.5,0-0.7-0.4-0.7-0.8
				c0-1.1,0-2.2,0-3.3C269.9,250.4,269.9,250.2,269.9,249.9z"/>
			<path class="st25" d="M271.1,266.5c0,0.9,0,1.8,0,2.6c0,0.2,0,0.4,0,0.6c0,0.4,0,0.8-0.6,0.8c-0.5,0-0.5-0.4-0.5-0.8
				c0-0.9,0-1.7,0-2.6c0-0.4,0-0.8-0.4-1.1c-0.2-0.1-0.2-0.4-0.2-0.6c0-1.1,0-2.3,0-3.4c0-0.7,0.3-1,0.9-1c0.5,0,1.1,0,1.6,0
				c0.6,0,0.8,0.3,0.8,0.9c0,1.2,0,2.4,0,3.6c0,0.2,0,0.5-0.2,0.6c-0.4,0.3-0.4,0.6-0.4,1c0,0.9,0,1.7,0,2.6c0,0.4,0.1,0.9-0.5,0.9
				c-0.6,0-0.5-0.5-0.5-0.9c0-1,0-2,0-3.1C271.1,266.5,271.1,266.5,271.1,266.5z"/>
			<path class="st25" d="M262.2,266.5c0,1.1,0,2.3,0,3.4c0,0.4-0.1,0.7-0.6,0.7c-0.4,0-0.5-0.3-0.5-0.7c0-1,0-2,0-3
				c0-0.3,0-0.7-0.3-0.9c-0.2-0.2-0.2-0.4-0.2-0.7c0-1.1,0-2.3,0-3.4c0-0.7,0.3-1,1-1c0.5,0,1,0,1.5,0c0.6,0,0.9,0.3,0.9,0.9
				c0,1.2,0,2.3,0,3.5c0,0.2,0,0.5-0.2,0.6c-0.4,0.3-0.4,0.6-0.4,1c0,0.9,0,1.9,0,2.8c0,0.3,0,0.5-0.3,0.7c-0.4,0.2-0.7,0-0.7-0.6
				c0-1,0-2,0-3c0-0.1,0-0.3,0-0.4C262.3,266.5,262.3,266.5,262.2,266.5z"/>
			<path class="st25" d="M266.6,266.5c0,1.1,0,2.2,0,3.3c0,0.2,0,0.4-0.1,0.6c-0.2,0.2-0.4,0.2-0.6,0.1c-0.3-0.1-0.4-0.3-0.4-0.6
				c0-1,0-1.9,0-2.9c0-0.4,0-0.7-0.4-1c-0.2-0.1-0.2-0.4-0.2-0.6c0-1.2,0-2.3,0-3.5c0-0.6,0.3-0.9,0.9-0.9c0.5,0,1,0,1.5,0
				c0.6,0,0.9,0.3,0.9,0.9c0,1.2,0,2.3,0,3.5c0,0.2,0,0.4-0.2,0.6c-0.4,0.3-0.4,0.7-0.4,1.2c0,0.9,0,1.7,0,2.6c0,0.4,0,0.8-0.6,0.8
				c-0.6,0-0.5-0.4-0.5-0.8c0-1.1,0-2.2,0-3.2C266.7,266.5,266.7,266.5,266.6,266.5z"/>
			<path class="st25" d="M267.9,259.6c0,0.7-0.6,1.2-1.2,1.2c-0.6,0-1.2-0.6-1.2-1.2c0-0.7,0.6-1.3,1.2-1.3
				C267.4,258.3,267.9,258.9,267.9,259.6z"/>
			<path class="st25" d="M272.3,259.6c0,0.7-0.6,1.2-1.2,1.2c-0.6,0-1.2-0.6-1.2-1.2c0-0.7,0.6-1.3,1.2-1.3
				C271.8,258.3,272.3,258.9,272.3,259.6z"/>
			<path class="st25" d="M262.3,260.8c-0.7,0-1.2-0.6-1.2-1.3c0-0.6,0.6-1.2,1.2-1.2c0.7,0,1.3,0.6,1.3,1.2
				C263.5,260.2,263,260.8,262.3,260.8z"/>
		</g>
	</g>
	<g id="mGfqoG_00000098929257645167531120000008060728614378173878_">
		<g>
			<path class="st25" d="M319.6,234.6c0,1.7,0,3.4,0,5.1c0,2-1.4,3.4-3.5,3.4c-3.4,0-6.8,0-10.2,0c-2.1,0-3.5-1.4-3.5-3.5
				c0-3.4,0-6.7,0-10.1c0-2.2,1.4-3.6,3.6-3.6c3.3,0,6.7,0,10,0c2.2,0,3.6,1.4,3.6,3.6c0,0.8,0,1.7,0,2.5
				C319.6,232.9,319.6,233.7,319.6,234.6z M311.1,227.2C311.1,227.2,311.1,227.2,311.1,227.2c-1.7,0-3.4,0-5.1,0
				c-1.5,0-2.3,0.8-2.3,2.3c0,3.4,0,6.7,0,10.1c0,1.5,0.8,2.3,2.3,2.3c3.4,0,6.8,0,10.2,0c1.4,0,2.2-0.9,2.2-2.3c0-3.4,0-6.8,0-10.2
				c0-1.4-0.8-2.2-2.2-2.2C314.5,227.2,312.8,227.2,311.1,227.2z"/>
			<path class="st25" d="M306.5,222.6c0-0.8,0-1.5,0-2.3c0-0.4,0-0.8,0-1.2c0-0.7,0.2-1.1,0.7-1.1c0.4,0,0.7,0.4,0.7,1.1
				c0,0.9,0,1.9,0,2.8c0,0.2-0.1,0.4,0.1,0.5c0.2,0.1,0.3-0.1,0.4-0.3c0.4-0.3,0.7-0.7,1.1-1.1c0.3-0.3,0.6-0.3,0.9,0
				c0.3,0.3,0.4,0.6,0.1,0.9c-1,1-1.9,2.1-2.9,3.1c-0.2,0.2-0.6,0.2-0.8-0.1c-0.9-1-1.8-2-2.8-2.9c-0.3-0.3-0.2-0.7,0.1-1
				c0.3-0.3,0.6-0.2,0.9,0.1c0.5,0.5,0.9,1,1.4,1.5C306.4,222.6,306.4,222.6,306.5,222.6z"/>
			<path class="st25" d="M314.2,220.5c-0.5,0.6-1,1-1.4,1.5c-0.4,0.4-0.7,0.5-1.1,0.2c-0.3-0.3-0.3-0.7,0.1-1.1
				c0.8-0.9,1.7-1.8,2.5-2.6c0.4-0.4,0.7-0.4,1.1,0c0.8,0.9,1.7,1.7,2.5,2.6c0.4,0.4,0.4,0.9,0.1,1.2c-0.4,0.4-0.7,0.1-1-0.2
				c-0.4-0.4-0.9-0.8-1.4-1.3c-0.1,0.3,0,0.6,0,0.9c0,0.9,0,1.9,0,2.8c0,0.4-0.1,0.9-0.7,0.9c-0.5,0-0.7-0.4-0.7-0.8
				c0-1.1,0-2.2,0-3.3C314.2,220.9,314.2,220.8,314.2,220.5z"/>
			<path class="st25" d="M315.4,237.1c0,0.9,0,1.8,0,2.6c0,0.2,0,0.4,0,0.6c0,0.4,0,0.8-0.6,0.8c-0.5,0-0.5-0.4-0.5-0.8
				c0-0.9,0-1.7,0-2.6c0-0.4,0-0.8-0.4-1.1c-0.2-0.1-0.2-0.4-0.2-0.6c0-1.1,0-2.3,0-3.4c0-0.7,0.3-1,0.9-1c0.5,0,1.1,0,1.6,0
				c0.6,0,0.8,0.3,0.8,0.9c0,1.2,0,2.4,0,3.6c0,0.2,0,0.5-0.2,0.6c-0.4,0.3-0.4,0.6-0.4,1c0,0.9,0,1.7,0,2.6c0,0.4,0.1,0.9-0.5,0.9
				c-0.6,0-0.5-0.5-0.5-0.9c0-1,0-2,0-3.1C315.5,237.1,315.4,237.1,315.4,237.1z"/>
			<path class="st25" d="M306.6,237c0,1.1,0,2.3,0,3.4c0,0.4-0.1,0.7-0.6,0.7c-0.4,0-0.5-0.3-0.5-0.7c0-1,0-2,0-3
				c0-0.3,0-0.7-0.3-0.9c-0.2-0.2-0.2-0.4-0.2-0.7c0-1.1,0-2.3,0-3.4c0-0.7,0.3-1,1-1c0.5,0,1,0,1.5,0c0.6,0,0.9,0.3,0.9,0.9
				c0,1.2,0,2.3,0,3.5c0,0.2,0,0.5-0.2,0.6c-0.4,0.3-0.4,0.6-0.4,1c0,0.9,0,1.9,0,2.8c0,0.3,0,0.5-0.3,0.7c-0.4,0.2-0.7,0-0.7-0.6
				c0-1,0-2,0-3c0-0.1,0-0.3,0-0.4C306.6,237,306.6,237,306.6,237z"/>
			<path class="st25" d="M310.9,237c0,1.1,0,2.2,0,3.3c0,0.2,0,0.4-0.1,0.6c-0.2,0.2-0.4,0.2-0.6,0.1c-0.3-0.1-0.4-0.3-0.4-0.6
				c0-1,0-1.9,0-2.9c0-0.4,0-0.7-0.4-1c-0.2-0.1-0.2-0.4-0.2-0.6c0-1.2,0-2.3,0-3.5c0-0.6,0.3-0.9,0.9-0.9c0.5,0,1,0,1.5,0
				c0.6,0,0.9,0.3,0.9,0.9c0,1.2,0,2.3,0,3.5c0,0.2,0,0.4-0.2,0.6c-0.4,0.3-0.4,0.7-0.4,1.2c0,0.9,0,1.7,0,2.6c0,0.4,0,0.8-0.6,0.8
				c-0.6,0-0.5-0.4-0.5-0.8c0-1.1,0-2.2,0-3.2C311,237,311,237,310.9,237z"/>
			<path class="st25" d="M312.3,230.1c0,0.7-0.6,1.2-1.2,1.2c-0.6,0-1.2-0.6-1.2-1.2c0-0.7,0.6-1.3,1.2-1.3
				C311.7,228.9,312.2,229.4,312.3,230.1z"/>
			<path class="st25" d="M316.7,230.1c0,0.7-0.6,1.2-1.2,1.2c-0.6,0-1.2-0.6-1.2-1.2c0-0.7,0.6-1.3,1.2-1.3
				C316.1,228.9,316.6,229.4,316.7,230.1z"/>
			<path class="st25" d="M306.6,231.3c-0.7,0-1.2-0.6-1.2-1.3c0-0.6,0.6-1.2,1.2-1.2c0.7,0,1.3,0.6,1.3,1.2
				C307.9,230.8,307.3,231.4,306.6,231.3z"/>
		</g>
	</g>
	<g id="mGfqoG_00000101068168876928071570000012625158611186656398_">
		<g>
			<path class="st25" d="M319.6,264c0,1.7,0,3.4,0,5.1c0,2-1.4,3.4-3.5,3.4c-3.4,0-6.8,0-10.2,0c-2.1,0-3.5-1.4-3.5-3.5
				c0-3.4,0-6.7,0-10.1c0-2.2,1.4-3.6,3.6-3.6c3.3,0,6.7,0,10,0c2.2,0,3.6,1.4,3.6,3.6c0,0.8,0,1.7,0,2.5S319.6,263.2,319.6,264z
				 M311.1,256.7C311.1,256.7,311.1,256.7,311.1,256.7c-1.7,0-3.4,0-5.1,0c-1.5,0-2.3,0.8-2.3,2.3c0,3.4,0,6.7,0,10.1
				c0,1.5,0.8,2.3,2.3,2.3c3.4,0,6.8,0,10.2,0c1.4,0,2.2-0.9,2.2-2.3c0-3.4,0-6.8,0-10.2c0-1.4-0.8-2.2-2.2-2.2
				C314.5,256.7,312.8,256.7,311.1,256.7z"/>
			<path class="st25" d="M306.5,252c0-0.8,0-1.5,0-2.3c0-0.4,0-0.8,0-1.2c0-0.7,0.2-1.1,0.7-1.1c0.4,0,0.7,0.4,0.7,1.1
				c0,0.9,0,1.9,0,2.8c0,0.2-0.1,0.4,0.1,0.5c0.2,0.1,0.3-0.1,0.4-0.3c0.4-0.3,0.7-0.7,1.1-1.1c0.3-0.3,0.6-0.3,0.9,0
				c0.3,0.3,0.4,0.6,0.1,0.9c-1,1-1.9,2.1-2.9,3.1c-0.2,0.2-0.6,0.2-0.8-0.1c-0.9-1-1.8-2-2.8-2.9c-0.3-0.3-0.2-0.7,0.1-1
				c0.3-0.3,0.6-0.2,0.9,0.1c0.5,0.5,0.9,1,1.4,1.5C306.4,252,306.4,252,306.5,252z"/>
			<path class="st25" d="M314.2,249.9c-0.5,0.6-1,1-1.4,1.5c-0.4,0.4-0.7,0.5-1.1,0.2c-0.3-0.3-0.3-0.7,0.1-1.1
				c0.8-0.9,1.7-1.8,2.5-2.6c0.4-0.4,0.7-0.4,1.1,0c0.8,0.9,1.7,1.7,2.5,2.6c0.4,0.4,0.4,0.9,0.1,1.2c-0.4,0.4-0.7,0.1-1-0.2
				c-0.4-0.4-0.9-0.8-1.4-1.3c-0.1,0.3,0,0.6,0,0.9c0,0.9,0,1.9,0,2.8c0,0.4-0.1,0.9-0.7,0.9c-0.5,0-0.7-0.4-0.7-0.8
				c0-1.1,0-2.2,0-3.3C314.2,250.4,314.2,250.2,314.2,249.9z"/>
			<path class="st25" d="M315.4,266.5c0,0.9,0,1.8,0,2.6c0,0.2,0,0.4,0,0.6c0,0.4,0,0.8-0.6,0.8c-0.5,0-0.5-0.4-0.5-0.8
				c0-0.9,0-1.7,0-2.6c0-0.4,0-0.8-0.4-1.1c-0.2-0.1-0.2-0.4-0.2-0.6c0-1.1,0-2.3,0-3.4c0-0.7,0.3-1,0.9-1c0.5,0,1.1,0,1.6,0
				c0.6,0,0.8,0.3,0.8,0.9c0,1.2,0,2.4,0,3.6c0,0.2,0,0.5-0.2,0.6c-0.4,0.3-0.4,0.6-0.4,1c0,0.9,0,1.7,0,2.6c0,0.4,0.1,0.9-0.5,0.9
				c-0.6,0-0.5-0.5-0.5-0.9c0-1,0-2,0-3.1C315.5,266.5,315.4,266.5,315.4,266.5z"/>
			<path class="st25" d="M306.6,266.5c0,1.1,0,2.3,0,3.4c0,0.4-0.1,0.7-0.6,0.7c-0.4,0-0.5-0.3-0.5-0.7c0-1,0-2,0-3
				c0-0.3,0-0.7-0.3-0.9c-0.2-0.2-0.2-0.4-0.2-0.7c0-1.1,0-2.3,0-3.4c0-0.7,0.3-1,1-1c0.5,0,1,0,1.5,0c0.6,0,0.9,0.3,0.9,0.9
				c0,1.2,0,2.3,0,3.5c0,0.2,0,0.5-0.2,0.6c-0.4,0.3-0.4,0.6-0.4,1c0,0.9,0,1.9,0,2.8c0,0.3,0,0.5-0.3,0.7c-0.4,0.2-0.7,0-0.7-0.6
				c0-1,0-2,0-3c0-0.1,0-0.3,0-0.4C306.6,266.5,306.6,266.5,306.6,266.5z"/>
			<path class="st25" d="M310.9,266.5c0,1.1,0,2.2,0,3.3c0,0.2,0,0.4-0.1,0.6c-0.2,0.2-0.4,0.2-0.6,0.1c-0.3-0.1-0.4-0.3-0.4-0.6
				c0-1,0-1.9,0-2.9c0-0.4,0-0.7-0.4-1c-0.2-0.1-0.2-0.4-0.2-0.6c0-1.2,0-2.3,0-3.5c0-0.6,0.3-0.9,0.9-0.9c0.5,0,1,0,1.5,0
				c0.6,0,0.9,0.3,0.9,0.9c0,1.2,0,2.3,0,3.5c0,0.2,0,0.4-0.2,0.6c-0.4,0.3-0.4,0.7-0.4,1.2c0,0.9,0,1.7,0,2.6c0,0.4,0,0.8-0.6,0.8
				c-0.6,0-0.5-0.4-0.5-0.8c0-1.1,0-2.2,0-3.2C311,266.5,311,266.5,310.9,266.5z"/>
			<path class="st25" d="M312.3,259.6c0,0.7-0.6,1.2-1.2,1.2c-0.6,0-1.2-0.6-1.2-1.2c0-0.7,0.6-1.3,1.2-1.3
				C311.7,258.3,312.2,258.9,312.3,259.6z"/>
			<path class="st25" d="M316.7,259.6c0,0.7-0.6,1.2-1.2,1.2c-0.6,0-1.2-0.6-1.2-1.2c0-0.7,0.6-1.3,1.2-1.3
				C316.1,258.3,316.6,258.9,316.7,259.6z"/>
			<path class="st25" d="M306.6,260.8c-0.7,0-1.2-0.6-1.2-1.3c0-0.6,0.6-1.2,1.2-1.2c0.7,0,1.3,0.6,1.3,1.2
				C307.9,260.2,307.3,260.8,306.6,260.8z"/>
		</g>
	</g>
	<g id="s8VYHe_00000048478017237988221950000009001138913102681005_">
		<g>
			<path class="st24" d="M661.3,246c1.4,0,2.7,0,4.1,0c0.5,0,0.9,0.3,1,0.8c0.1,0.6-0.3,1.1-0.9,1.1c-1,0-1.9,0-2.9,0
				c-0.2,0-0.2,0-0.2,0.2c0,0.9,0,1.8,0,2.7c0,0.1,0,0.2,0.2,0.2c0.5,0,0.9,0.5,1,1c0,0.2,0,0.2,0.2,0.2c1.3,0,2.6,0,3.9,0
				c0.2,0,0.2,0,0.2-0.2c0-0.8,0-1.6,0-2.4c0-0.4,0.2-0.6,0.6-0.6c0.3,0,0.6,0,1,0c0.1,0,0.1,0,0.2,0.1c0,0.5,0,1.1,0,1.6
				c0,0.5,0,0.9,0,1.4c0,0.5,0,1.1,0,1.6c0,0.5,0,1,0,1.6c0,0.2,0,0.4,0,0.6c0,0.5,0,1,0,1.5c0,0.3,0,0.5,0,0.8c0,0.2,0,0.2-0.2,0.2
				c-0.3,0-0.6,0-1,0c-0.4,0-0.6-0.2-0.6-0.6c0-0.8,0-1.6,0-2.5c0-0.2,0-0.2-0.2-0.2c-0.5,0-1.1,0-1.6,0c-0.5,0-0.9,0-1.4,0
				c-0.3,0-0.6,0-0.8,0c-0.2,0-0.2,0-0.2,0.2c-0.1,0.6-0.6,1-1.2,1c-0.6,0-1.3,0-1.9,0c-0.6,0-1.1-0.4-1.2-1c0-0.1-0.1-0.1-0.2-0.1
				c-0.3,0-0.7,0-1,0c-0.6,0-1.2,0-1.8,0c-0.2,0-0.5,0-0.7,0.1c-0.5,0.2-0.9,0.7-0.9,1.3c0,0.5,0,1,0,1.5c0,0.6,0,1.1,0,1.7
				c0,0.1,0,0.1-0.1,0.1c-0.9,0-1.9,0-2.8,0c-0.1,0-0.1-0.1-0.1-0.2c0-0.5,0-1,0-1.5c0-0.8,0-1.6,0-2.3c0-0.6,0.2-1.1,0.5-1.5
				c0.6-0.9,1.5-1.5,2.5-1.8c0.7-0.2,1.4-0.3,2.1-0.3c0.8,0,1.6,0,2.4,0c0.1,0,0.2,0,0.2-0.1c0.1-0.6,0.5-0.9,1-1
				c0.1,0,0.1-0.1,0.1-0.2c0-0.9,0-1.9,0-2.8c0-0.1,0-0.2-0.2-0.2c-1,0-1.9,0-2.9,0c-0.5,0-0.8-0.3-1-0.7c-0.2-0.6,0.3-1.2,0.9-1.2
				c0.8,0,1.5,0,2.3,0C660,246,660.7,246,661.3,246C661.3,246,661.3,246,661.3,246z"/>
			<path class="st24" d="M652.9,262.4c1.6,0,3.2,0,4.7,0c0.2,0,0.2,0,0.2,0.2c-0.1,0.9-0.2,1.8-0.3,2.7c-0.1,0.9-0.2,1.8-0.3,2.7
				c-0.1,0.7-0.2,1.4-0.2,2.1c0,0.5-0.1,1-0.2,1.5c-0.1,0.8-0.2,1.6-0.3,2.3c0,0.2,0,0.2-0.2,0.2c-0.5,0-1,0-1.4,0c-0.5,0-1,0-1.6,0
				c-0.5,0-1.1,0-1.6,0c-0.2,0-0.4,0-0.6,0c-0.5,0-1.1,0-1.6,0c-0.1,0-0.2,0-0.2-0.1c-0.1-0.7-0.2-1.3-0.2-2
				c-0.1-0.7-0.2-1.4-0.2-2.1c-0.1-0.5-0.1-1.1-0.2-1.6c-0.1-0.7-0.2-1.4-0.2-2.1c-0.1-0.5-0.1-1.1-0.2-1.6
				c-0.1-0.6-0.1-1.3-0.2-1.9c0-0.1,0.1-0.1,0.2-0.1c0.8,0,1.6,0,2.5,0C651.4,262.4,652.1,262.4,652.9,262.4
				C652.9,262.4,652.9,262.4,652.9,262.4z M652.9,265.7c1.1,0,2.2,0,3.3,0c0.1,0,0.2,0,0.2-0.2c0.1-0.6,0.1-1.3,0.2-1.9
				c0-0.2,0-0.2-0.2-0.2c-0.6,0-1.2,0-1.8,0c-0.2,0-0.5,0-0.7,0c-0.5,0-1,0-1.6,0c-0.5,0-1,0-1.6,0c-0.5,0-1,0-1.5,0
				c-0.2,0-0.2,0-0.2,0.2c0,0.3,0.1,0.6,0.1,1c0,0.3,0.1,0.6,0.1,0.9c0,0.1,0.1,0.2,0.2,0.2c0.1,0,0.1,0,0.2,0
				C650.8,265.7,651.9,265.7,652.9,265.7z"/>
		</g>
	</g>
	<g id="p7iPoC_00000145760568178494813680000002702949986153560494_">
		<g>
			<path class="st21" d="M158.8,264.7c0.7,0,1.4,0,2.1,0c0.6,0,0.9,0.3,1.1,0.8c0.4,1.4,0.9,2.8,1.3,4.2c0.1,0.4,0.3,0.8,0.4,1.2
				c0.1,0.5-0.1,0.8-0.5,1c-0.4,0.1-0.9-0.1-1-0.5c-0.5-1.5-1-3-1.5-4.5c-0.1-0.2-0.2-0.3-0.4-0.3c-1.5,0.1-3,0-4.5,0
				c-0.3,0-0.7,0-1-0.1c-0.4-0.1-0.7-0.3-0.8-0.8c-0.3-1.4-0.5-2.9-0.7-4.3c-0.1-0.5-0.1-1-0.2-1.5c-0.1-0.7,0.2-1.2,0.8-1.4
				c0.3-0.1,0.6-0.1,0.8-0.1c0.6,0.1,1,0.4,1.1,1c0.1,0.6,0.3,1.2,0.4,1.8c0,0.2,0.1,0.2,0.3,0.2c0.8,0,1.6,0,2.4,0
				c0.6,0,1,0.6,0.7,1.1c-0.1,0.2-0.3,0.3-0.5,0.3c-0.8,0-1.6,0-2.3,0c-0.2,0-0.2,0.1-0.2,0.3c0.1,0.4,0.1,0.7,0.2,1.1
				c0,0.2,0.1,0.2,0.3,0.2C157.6,264.7,158.2,264.7,158.8,264.7z"/>
			<path class="st21" d="M149.3,267.1c0-2.3,1.4-4.2,3.4-5.1c0.2-0.1,0.3-0.1,0.3,0.2c0,0.2,0.1,0.5,0.1,0.7c0,0.2,0,0.3-0.2,0.3
				c-1,0.5-1.7,1.2-2.1,2.2c-1,2.6,0.5,5,3,5.6c2.6,0.6,4.7-1.2,5.1-3.4c0.1-0.5,0.1-0.5,0.6-0.5c0.2,0,0.4,0,0.5,0
				c0.1,0,0.2,0.1,0.2,0.2c-0.1,1.4-0.6,2.7-1.7,3.7c-1.2,1.1-2.6,1.6-4.2,1.5c-2.5-0.2-4.6-1.9-5-4.5
				C149.3,267.6,149.3,267.3,149.3,267.1z"/>
			<path class="st21" d="M154.9,255.2c0.8,0,1.5,0.7,1.5,1.5c0,0.8-0.7,1.5-1.5,1.5c-0.8,0-1.5-0.7-1.5-1.5
				C153.5,255.9,154.1,255.2,154.9,255.2z"/>
		</g>
	</g>
	<g id="BbVIEC_00000163057727265066478080000011042220585996847769_">
		<g>
			<g>
				<path class="st28" d="M220.9,267.3c-8.2,0-16.4,0-24.7,0c-0.5,0-0.5-0.1-0.5-0.5c0-1.5,0-3,0-4.5c0.2-0.3,0.5-0.3,0.8-0.3
					c1.2,0,2.4,0,3.6,0c0.6,0,0.8-0.1,0.8-0.8c0-1.2,0-2.4,0-3.6c0-0.8,0.1-0.9,0.9-0.9c1.2,0,2.3,0,3.5,0c0.7,0,0.9-0.1,0.9-0.9
					c0-1.2,0-2.4,0-3.6c0-0.6,0.2-0.8,0.8-0.8c1.2,0,2.4,0,3.6,0c0.7,0,0.8-0.1,0.8-0.8c0-1.1,0-2.3,0-3.4c0-0.9,0.1-1,1-1
					c1.1,0,2.3,0,3.4,0c0.7,0,0.8-0.1,0.8-0.9c0-1.2,0-2.4,0-3.6c0-0.7,0.2-0.8,0.8-0.8c1.1,0,2.3,0,3.4,0c1.1,0,1.1,0.1,1.1,1.1
					c0,7.7,0,15.4,0,23.1C222,266.2,221.7,266.8,220.9,267.3z M213,261C213,261,213,261,213,261c0.7,0,1.4,0,2.2,0
					c0.6,0,0.6-0.4,0.6-0.8c0-0.4,0-0.8-0.6-0.8c-0.4,0-0.9,0-1.3,0c-0.2,0-0.4,0.1-0.5-0.1c-0.1-0.2,0.1-0.3,0.2-0.4
					c1.2-1.2,2.5-2.5,3.7-3.7c0.6-0.6,0.6-0.7,0.1-1.2c-0.5-0.5-0.7-0.5-1.2,0.1c-0.1,0.1-0.2,0.2-0.4,0.4c-1.1,1.1-2.2,2.3-3.4,3.4
					c-0.1,0.1-0.2,0.3-0.4,0.2c-0.1-0.1-0.1-0.2-0.1-0.4c0-0.4,0-0.9,0-1.3c0-0.5-0.2-0.7-0.7-0.7c-0.7,0-0.9,0.1-0.9,0.7
					c0,1.4,0,2.7,0,4.1c0,0.5,0.2,0.7,0.7,0.7C211.7,261,212.4,261,213,261z"/>
				<path class="st28" d="M203.3,246.6c-0.7,0-1.2,0-1.7,0c-0.6,0-0.8-0.2-0.8-0.8c0-0.7,0.1-1,0.7-1c1.4,0,2.9,0,4.3,0
					c0.5,0,0.7,0.3,0.7,0.7c0,1.4,0,2.8,0,4.2c0,0.6-0.3,0.8-1,0.8c-0.7,0-0.9-0.2-0.9-0.8c0-0.5,0-1,0-1.4
					c-0.3-0.1-0.4,0.2-0.6,0.3c-1.2,1.1-2.3,2.3-3.5,3.5c-0.6,0.6-1.4,0.5-1.8-0.4c-0.1-0.4,0.1-0.6,0.3-0.8
					c1.2-1.2,2.4-2.4,3.6-3.6C202.9,247,203.1,246.8,203.3,246.6z"/>
			</g>
		</g>
	</g>
	<g id="BbVIEC_00000146487296711800252920000012043103342314207630_">
		<g>
			<g>
				<path class="st28" d="M621.4,267.3c-8.2,0-16.4,0-24.7,0c-0.5,0-0.5-0.1-0.5-0.5c0-1.5,0-3,0-4.5c0.2-0.3,0.5-0.3,0.8-0.3
					c1.2,0,2.4,0,3.6,0c0.6,0,0.8-0.1,0.8-0.8c0-1.2,0-2.4,0-3.6c0-0.8,0.1-0.9,0.9-0.9c1.2,0,2.3,0,3.5,0c0.7,0,0.9-0.1,0.9-0.9
					c0-1.2,0-2.4,0-3.6c0-0.6,0.2-0.8,0.8-0.8c1.2,0,2.4,0,3.6,0c0.7,0,0.8-0.1,0.8-0.8c0-1.1,0-2.3,0-3.4c0-0.9,0.1-1,1-1
					c1.1,0,2.3,0,3.4,0c0.7,0,0.8-0.1,0.8-0.9c0-1.2,0-2.4,0-3.6c0-0.7,0.2-0.8,0.8-0.8c1.1,0,2.3,0,3.4,0c1.1,0,1.1,0.1,1.1,1.1
					c0,7.7,0,15.4,0,23.1C622.5,266.2,622.2,266.8,621.4,267.3z M613.6,261C613.6,261,613.6,261,613.6,261c0.7,0,1.4,0,2.2,0
					c0.6,0,0.6-0.4,0.6-0.8c0-0.4,0-0.8-0.6-0.8c-0.4,0-0.9,0-1.3,0c-0.2,0-0.4,0.1-0.5-0.1c-0.1-0.2,0.1-0.3,0.2-0.4
					c1.2-1.2,2.5-2.5,3.7-3.7c0.6-0.6,0.6-0.7,0.1-1.2c-0.5-0.5-0.7-0.5-1.2,0.1c-0.1,0.1-0.2,0.2-0.4,0.4c-1.1,1.1-2.2,2.3-3.4,3.4
					c-0.1,0.1-0.2,0.3-0.4,0.2c-0.1-0.1-0.1-0.2-0.1-0.4c0-0.4,0-0.9,0-1.3c0-0.5-0.2-0.7-0.7-0.7c-0.7,0-0.9,0.1-0.9,0.7
					c0,1.4,0,2.7,0,4.1c0,0.5,0.2,0.7,0.7,0.7C612.2,261,612.9,261,613.6,261z"/>
				<path class="st28" d="M603.8,246.6c-0.7,0-1.2,0-1.7,0c-0.6,0-0.8-0.2-0.8-0.8c0-0.7,0.1-1,0.7-1c1.4,0,2.9,0,4.3,0
					c0.5,0,0.7,0.3,0.7,0.7c0,1.4,0,2.8,0,4.2c0,0.6-0.3,0.8-1,0.8c-0.7,0-0.9-0.2-0.9-0.8c0-0.5,0-1,0-1.4
					c-0.3-0.1-0.4,0.2-0.6,0.3c-1.2,1.1-2.3,2.3-3.5,3.5c-0.6,0.6-1.4,0.5-1.8-0.4c-0.1-0.4,0.1-0.6,0.3-0.8
					c1.2-1.2,2.4-2.4,3.6-3.6C603.5,247,603.6,246.8,603.8,246.6z"/>
			</g>
		</g>
	</g>
	<g>
		<text transform="matrix(1 0 0 1 653.7801 128.3099)" class="st6 st40 st41">510</text>
	</g>
	<g>
		<text transform="matrix(1 0 0 1 646.157 150.472)" class="st38 st42">議程教室</text>
	</g>
	<g>
		<text transform="matrix(1 0 0 1 736.3826 128.3099)" class="st6 st40 st41">509</text>
	</g>
	<g>
		<text transform="matrix(1 0 0 1 409.8489 128.3099)" class="st6 st40 st41">513</text>
	</g>
	<g>
		<text transform="matrix(1 0 0 1 402.2234 150.472)" class="st38 st42">議程教室</text>
	</g>
	<g>
		<text transform="matrix(1 0 0 1 320.9036 150.472)" class="st38 st42">議程教室</text>
	</g>
	<g>
		<text transform="matrix(1 0 0 1 491.1629 128.3099)" class="st6 st40 st41">512</text>
	</g>
	<g>
		<text transform="matrix(1 0 0 1 483.5418 150.472)" class="st38 st42">議程教室</text>
	</g>
	<g>
		<text transform="matrix(1 0 0 1 572.4842 128.3099)" class="st6 st40 st41">511</text>
	</g>
	<g>
		<text transform="matrix(1 0 0 1 564.8592 150.472)" class="st38 st42">議程教室</text>
	</g>
	<g>
		<text transform="matrix(1 0 0 1 328.3997 128.3099)" class="st6 st40 st41">514</text>
	</g>
	<g>
		<text transform="matrix(1 0 0 1 247.3187 128.3099)" class="st6 st40 st41">515</text>
	</g>
	<g>
		<text transform="matrix(1 0 0 1 226.0526 150.472)" class="st38 st42">社群/贊助攤位</text>
	</g>
	<g>
		<text transform="matrix(1 0 0 1 83.0037 128.7806)" class="st6 st40 st41">517</text>
	</g>
	<g>
		<text transform="matrix(1 0 0 1 69.9251 150.9447)" class="st38 st42">行李寄放處</text>
	</g>
	<g>
		<text transform="matrix(1 0 0 1 723.3047 150.9447)" class="st38 st42">Staff only</text>
	</g>
	<g>
		<text transform="matrix(1 0 0 1 165.9124 128.3099)" class="st6 st40 st41">516</text>
	</g>
	<g>
		<text transform="matrix(1 0 0 1 144.6483 150.472)" class="st38 st42">社群/贊助攤位</text>
	</g>
</g>
<g id="文字資訊">
	<g>
		<text transform="matrix(1 0 0 1 140.9337 403.5804)" class="st6 st51 st52">511</text>
	</g>
	<g>
		<text transform="matrix(1 0 0 1 140.9878 501.5186)" class="st6 st51 st52">512</text>
	</g>
	<g>
		<text transform="matrix(1 0 0 1 492.7604 318.3423)" class="st6 st51 st52">513</text>
	</g>
	<g>
		<text transform="matrix(1 0 0 1 492.7604 432.9071)" class="st6 st51 st52">514</text>
	</g>
	<g>
		<text transform="matrix(1 0 0 1 492.761 477.1045)" class="st6 st51 st52">515</text>
	</g>
	<g>
		<text transform="matrix(1 0 0 1 492.7605 522.5872)" class="st6 st51 st52">516</text>
	</g>
	<g>
		<text transform="matrix(1 0 0 1 140.7842 317.4737)" class="st6 st51 st52">510</text>
	</g>
	<g>
		<text transform="matrix(1 0 0 1 634.507 427.7845)"><tspan x="0" y="0" class="st51 st53">Open Source people Network (OSPN) </tspan><tspan x="0" y="13.8" class="st51 st53">Japan Special Track</tspan></text>
	</g>
	<g>
		<text transform="matrix(1 0 0 1 552.2441 427.5068)" class="st54 st51 st53">Day01 / Day02</text>
	</g>
	<g>
		<text transform="matrix(1 0 0 1 634.1801 516.083)"><tspan x="0" y="0" class="st51 st53">社群/贊助攤位</tspan><tspan x="0" y="13.8" class="st51 st53">Community/Sponsor Booth</tspan></text>
	</g>
	<g>
		<text transform="matrix(1 0 0 1 552.2435 515.4382)" class="st54 st51 st53">Day01 / Day02</text>
	</g>
	<g>
		<text transform="matrix(1 0 0 1 634.0383 559.1624)"><tspan x="0" y="0" class="st51 st53">行李寄放處</tspan><tspan x="0" y="13.8" class="st51 st53">baggage room</tspan></text>
	</g>
	<g>
		<text transform="matrix(1 0 0 1 552.2435 558.5081)" class="st54 st51 st53">Day01 / Day02</text>
	</g>
	<g>
		<text transform="matrix(1 0 0 1 492.7607 565.6557)" class="st6 st51 st52">517</text>
	</g>
	<g>
		<text transform="matrix(1 0 0 1 634.1795 312.8891)"><tspan x="0" y="0" class="st51 st53">開源與職涯</tspan><tspan x="0" y="13.8" class="st51 st53">Open Source and Career Growth </tspan></text>
	</g>
	<g>
		<text transform="matrix(1 0 0 1 634.0818 345.1013)" class="st51 st53">sciwork scisprint</text>
	</g>
	<g>
		<text transform="matrix(1 0 0 1 552.2435 312.9887)" class="st54 st51 st53">Day01</text>
	</g>
	<g>
		<text transform="matrix(1 0 0 1 552.244 364.5078)" class="st54 st51 st53">Day02</text>
	</g>
	<g>
		<text transform="matrix(1 0 0 1 633.8279 365.1768)"><tspan x="0" y="0" class="st51 st53">pyCon TW 社群聚</tspan><tspan x="0" y="13.8" class="st51 st53">PyCon TW</tspan></text>
	</g>
	<g>
		<text transform="matrix(1 0 0 1 634.18 472.3483)"><tspan x="0" y="0" class="st51 st53">社群/贊助攤位</tspan><tspan x="0" y="13.8" class="st51 st53">Community/Sponsor Booth</tspan></text>
	</g>
	<g>
		<text transform="matrix(1 0 0 1 552.2441 471.7039)" class="st54 st51 st53">Day01 / Day02</text>
	</g>
	<g>
		<text transform="matrix(1 0 0 1 243.9247 312.3803)" class="st51 st53">Open Source Design TW Region</text>
	</g>
	<g>
		<text transform="matrix(1 0 0 1 243.9246 333.4445)"><tspan x="0" y="0" class="st51 st53">開放授權的克萊兜史夠普</tspan><tspan x="0" y="13.8" class="st51 st53">Open Licensing Kaleidoscope</tspan></text>
	</g>
	<text transform="matrix(1 0 0 1 201.1285 311.7661)" class="st54 st51 st53">Day01</text>
	<g>
		<text transform="matrix(1 0 0 1 201.1282 367.0344)" class="st54 st51 st53">Day02</text>
	</g>
	<g>
		<text transform="matrix(1 0 0 1 244.2663 367.6834)"><tspan x="0" y="0" class="st51 st53">g0v 黑客松，怎麼辦？</tspan><tspan x="0" y="13.8" class="st51 st53">What about g0v hackathons?</tspan></text>
	</g>
	<g>
		<text transform="matrix(1 0 0 1 243.436 496.3752)" class="st51 st53">LibreOffice Asia Conf 2024</text>
	</g>
	<text transform="matrix(1 0 0 1 201.1284 495.975)" class="st54 st51 st53">Day01</text>
	<g>
		<text transform="matrix(1 0 0 1 201.1282 516.6489)" class="st54 st51 st53">Day02</text>
	</g>
	<g>
		<text transform="matrix(1 0 0 1 243.8124 517.3087)"><tspan x="0" y="0" class="st51 st53">藝術、文化、地方脈絡與開放資料的跨域練習</tspan><tspan x="0" y="13.8" class="st51 st53">Interdisciplinary Practice of Art, Culture, </tspan><tspan x="0" y="27.6" class="st51 st53">Local Context, and Open Data.</tspan></text>
	</g>
	<g>
		<text transform="matrix(1 0 0 1 244.1199 418.5195)"><tspan x="0" y="0" class="st51 st53">2024農業開源人年會</tspan><tspan x="0" y="13.8" class="st51 st53">Conference for 2024 Community of open data </tspan><tspan x="0" y="27.6" class="st51 st53">for agriculture</tspan></text>
	</g>
	<g>
		<text transform="matrix(1 0 0 1 243.4362 465.8465)" class="st51 st53">Hacking Room</text>
	</g>
	<text transform="matrix(1 0 0 1 201.1284 397.616)" class="st54 st51 st53">Day01</text>
	<g>
		<text transform="matrix(1 0 0 1 201.1285 418.5202)" class="st54 st51 st53">Day02</text>
	</g>
	<g>
		<text transform="matrix(1 0 0 1 243.9247 398.2211)" class="st51 st53">Open World Tour - 國際開源導遊</text>
	</g>
	<rect x="45.7" y="24.8" class="st6" width="111" height="37.3"/>
	<g>
		<text transform="matrix(1 0 0 1 60.2981 52.0706)" class="st17 st40 st64">研揚大樓</text>
	</g>
	<g>
		<text transform="matrix(1 0 0 1 634.1802 399.32)" class="st51 st53">O-RAN in B5G/6G</text>
	</g>
</g>
<g id="樓層位置">
	<rect x="49.7" y="304.2" class="st56" width="63" height="56.2"/>
	<g>
		<text transform="matrix(1 0 0 1 56.2725 347.5057)" class="st6 st40 st65">5F</text>
	</g>
</g>
<g id="輸出佈置" class="st66">
	<g class="st68">
		<text transform="matrix(1 0 0 1 339.862 203.9606)" class="st69 st26 st70">徵才看板B</text>
	</g>
	<line class="st67" x1="346" y1="185.9" x2="381.2" y2="185.9"/>
	<line class="st67" x1="253.6" y1="185.9" x2="288.8" y2="185.9"/>
	<text transform="matrix(1 0 0 1 493.3602 254.5522)" class="st71 st26 st70">樓層議程告知</text>
	<text transform="matrix(1 0 0 1 179.7845 290.2705)" class="st71 st26 st70">樓層議程告知</text>
	<text transform="matrix(1 0 0 1 234.0145 200.9782)" class="st71 st26 st70">社群交流看板</text>
	<line class="st67" x1="411.1" y1="181.9" x2="467.3" y2="181.9"/>
	<text transform="matrix(1 0 0 1 431.1766 196.1156)" class="st68"><tspan x="0" y="0" class="st69 st26 st70">5樓</tspan><tspan x="-25.6" y="12.3" class="st69 st26 st70">議程看板+地圖</tspan></text>
	<text transform="matrix(1 0 0 1 669.7628 534.3795)" class="st68 st26 st73">A.贊助商海報</text>
	<g class="st68">
		<text transform="matrix(1 0 0 1 669.5528 549.9293)" class="st26 st73">B.主視覺海報</text>
	</g>
	<g class="st68">
		<text transform="matrix(1 0 0 1 669.6505 565.4791)" class="st26 st73">C.講桌前背板(上方)</text>
	</g>
	<g class="st68">
		<text transform="matrix(1 0 0 1 779.9561 561.1464)" class="st74 st75">5間</text>
	</g>
	<text transform="matrix(1 0 0 1 654.837 523.38)" class="st68 st26 st76">議程教室</text>
	<polygon class="st72" points="639.4,518.3 639.4,550 560.3,550 560.3,543.2 554,543.2 554,518.3 	"/>
	<rect x="540.1" y="543.2" class="st72" width="20.2" height="28"/>
	<rect x="536.5" y="522.3" class="st72" width="13.7" height="19.3"/>
	<rect x="621.6" y="522.3" class="st72" width="13.7" height="19.3"/>
	<g class="st68">
		<text transform="matrix(1 0 0 1 625.584 535.3917)" class="st77 st73">A</text>
	</g>
	<g class="st68">
		<text transform="matrix(1 0 0 1 539.5079 534.9244)" class="st77 st73">B</text>
	</g>
	<g class="st68">
		<text transform="matrix(1 0 0 1 546.7012 560.7081)" class="st77 st73">C</text>
	</g>
	<g class="st68">
		<text transform="matrix(1 0 0 1 669.7632 579.6691)" class="st26 st73">D.門口的議程軌布告欄</text>
	</g>
	<line class="st67" x1="174.7" y1="254.4" x2="174.7" y2="231.3"/>
	<line class="st67" x1="574" y1="261.1" x2="574" y2="238.1"/>
	<rect x="258.4" y="74" class="st80" width="2.3" height="0.1"/>
</g>
<g id="指標" class="st66">
</g>
</svg>
