<?xml version="1.0" encoding="utf-8"?>
<!-- Generator: Adobe Illustrator 27.7.0, SVG Export Plug-In . SVG Version: 6.00 Build 0)  -->
<svg version="1.0" xmlns="http://www.w3.org/2000/svg" xmlns:xlink="http://www.w3.org/1999/xlink" x="0px" y="0px"
	 viewBox="0 0 841.9 595.3" style="enable-background:new 0 0 841.9 595.3;" xml:space="preserve">
<style type="text/css">
	.st0{fill:none;stroke:#B3B3B3;stroke-width:4.4344;stroke-linecap:round;stroke-miterlimit:10;}
	.st1{fill:#E6E6E6;}
	.st2{fill:#FFFEFF;}
	.st3{fill:#B3B3B3;}
	.st4{fill:none;stroke:#B3B3B3;stroke-width:4.4344;stroke-miterlimit:10;}
	.st5{fill:none;stroke:#FFFEFF;stroke-width:3;stroke-miterlimit:10;}
	.st6{fill:#3B9838;}
	.st7{fill:none;stroke:#FFFFFF;stroke-width:2;stroke-linecap:round;stroke-linejoin:bevel;}
	.st8{opacity:0.73;}
	.st9{fill:#EAEAEA;stroke:#FFFFFF;stroke-width:2;stroke-linecap:round;stroke-linejoin:bevel;}
	.st10{fill:#EAEAEA;stroke:#FFFFFF;stroke-width:5;stroke-linecap:round;stroke-linejoin:bevel;}
	.st11{fill:#579B57;}
	.st12{opacity:0.1;fill:#70931B;}
	.st13{fill:none;stroke:#FFFEFF;stroke-miterlimit:10;}
	.st14{fill:#C1272D;}
	.st15{fill:#30AF00;}
	.st16{fill:#0076CB;}
	.st17{fill:#FFFFFF;}
	.st18{fill:#008061;}
	.st19{fill:#F5821F;}
	.st20{fill:#ED1B2D;}
	.st21{fill:#12344C;}
	.st22{opacity:0.5;fill:url(#SVGID_1_);}
	.st23{opacity:0.5;fill:url(#SVGID_00000164498503181156679390000003112377293190453939_);}
	.st24{fill:#E98025;}
	.st25{fill:#0071BC;}
	.st26{font-family:'NotoSansCJKtc-Medium-B5pc-H';}
	.st27{font-size:24px;}
	.st28{fill:#808080;}
	.st29{fill:#FFE9BA;}
	.st30{fill:#3E3D4D;}
	.st31{fill:#BCC4C6;}
	.st32{fill:#D24635;}
	.st33{fill:#FCF3EE;}
	.st34{fill:#E8C72E;}
	.st35{fill:#E0A911;}
	.st36{opacity:0.2;fill:none;stroke:#70931B;stroke-width:2;stroke-miterlimit:10;stroke-dasharray:4,4;}
	.st37{opacity:0.2;fill:none;stroke:#70931B;stroke-width:1.78;stroke-miterlimit:10;stroke-dasharray:3.56,3.56;}
	.st38{font-family:'NotoSansMonoCJKtc-Regular-B5pc-H';}
	.st39{font-size:14.4934px;}
	.st40{font-family:'NotoSansCJKtc-Bold-B5pc-H';}
	.st41{font-size:16.2331px;}
	.st42{font-size:11.0178px;}
	.st43{fill:#EE2041;}
	.st44{fill-rule:evenodd;clip-rule:evenodd;fill:#FFFFFF;}
	.st45{fill:#0074A9;}
	.st46{fill:#EB6101;}
	.st47{fill:#E4007F;}
	.st48{fill:#EB6877;}
	.st49{fill:#CC0000;}
	.st50{fill:#474747;}
	.st51{font-family:'MicrosoftJhengHeiBold';}
	.st52{font-size:17px;}
	.st53{font-size:10px;}
	.st54{fill:#6B6B6B;}
	.st55{opacity:0.8;}
	.st56{fill:none;stroke:#3B9838;stroke-width:3;stroke-miterlimit:10;}
	.st57{fill-rule:evenodd;clip-rule:evenodd;fill:#040000;}
	.st58{fill:#040000;}
	.st59{fill:none;stroke:#040000;stroke-width:0.75;stroke-linejoin:round;stroke-miterlimit:8;}
	
		.st60{opacity:0;fill-rule:evenodd;clip-rule:evenodd;fill:none;stroke:#040000;stroke-width:0.75;stroke-linejoin:round;stroke-miterlimit:8;}
	
		.st61{fill-rule:evenodd;clip-rule:evenodd;fill:none;stroke:#040000;stroke-width:0.75;stroke-linejoin:round;stroke-miterlimit:8;}
	.st62{fill:#E2E2E2;stroke:#040000;stroke-width:0.75;stroke-linejoin:round;stroke-miterlimit:8;}
	
		.st63{fill-rule:evenodd;clip-rule:evenodd;fill:#E2E2E2;stroke:#040000;stroke-width:0.75;stroke-linejoin:round;stroke-miterlimit:8;}
	.st64{font-size:20.6523px;}
	.st65{font-size:43px;}
	.st66{display:none;}
	.st67{display:inline;fill:none;stroke:#F90000;stroke-width:8;stroke-miterlimit:10;}
	.st68{display:inline;}
	.st69{fill:#F90000;}
	.st70{font-size:10.2218px;}
	.st71{display:inline;fill:#F90000;}
	.st72{display:inline;fill:none;stroke:#000000;stroke-miterlimit:10;}
	.st73{font-size:9.3394px;}
	.st74{font-family:'NotoSansCJKtc-Thin-B5pc-H';}
	.st75{font-size:31.3149px;}
	.st76{font-size:11.6742px;glyph-orientation-vertical:0;writing-mode:tb;}
	.st77{font-family:'SourceHanSansTW-Medium-B5pc-H';}
	.st78{display:inline;fill:none;stroke:#232323;stroke-miterlimit:10;}
	.st79{display:inline;fill:none;stroke:#F90000;stroke-width:3;stroke-miterlimit:10;}
	.st80{display:inline;fill:#FFFEFF;}
	.st81{display:inline;fill:none;stroke:#B3B3B3;stroke-width:4.4344;stroke-linecap:round;stroke-miterlimit:10;}
	.st82{display:inline;fill:#E6E6E6;}
	.st83{display:inline;fill:#B3B3B3;}
	.st84{display:inline;fill:none;stroke:#B3B3B3;stroke-width:4.4344;stroke-miterlimit:10;}
	.st85{display:inline;opacity:0.2;fill:none;stroke:#70931B;stroke-width:2;stroke-miterlimit:10;stroke-dasharray:4,4;}
	.st86{display:inline;fill:none;stroke:#333131;stroke-miterlimit:10;}
	.st87{fill:none;stroke:#000000;stroke-miterlimit:10;}
	.st88{display:inline;fill:#F5EB31;stroke:#231815;stroke-miterlimit:10;}
	.st89{display:inline;fill:#BE611C;stroke:#231815;stroke-miterlimit:10;}
</style>
<g id="建築">
	<polygon class="st4" points="338.1,282.3 338.1,227.9 574.6,227.9 574.6,282.3 805.4,282.3 805.4,72.5 589.9,72.5 574.6,72.5 
		338.1,72.5 338.1,72.5 51,72.5 51,177.9 28.6,177.9 28.6,224.1 51,224.1 51,282.3 	"/>
	<rect x="58" y="86.2" class="st1" width="81.5" height="93.5"/>
	<rect x="142.3" y="86.2" class="st1" width="79.3" height="93.5"/>
	<rect x="224.4" y="86.2" class="st1" width="79.3" height="93.5"/>
	<rect x="306.5" y="86.2" class="st1" width="79.3" height="93.5"/>
	<rect x="388.5" y="86.2" class="st1" width="79.3" height="93.5"/>
	<rect x="470.6" y="86.2" class="st1" width="79.3" height="93.5"/>
	<rect x="552.7" y="86.2" class="st1" width="79.3" height="93.5"/>
	<rect x="634.8" y="86.2" class="st1" width="79.3" height="93.5"/>
	<polygon class="st1" points="798.7,78.6 798.7,179.7 716.9,179.7 716.9,86.2 754.8,86.2 754.8,78.6 	"/>
	<g>
		
			<rect x="582.2" y="214.1" transform="matrix(-1 -1.224647e-16 1.224647e-16 -1 1231.2017 490.174)" class="st1" width="66.8" height="62"/>
		<g>
			<rect x="602.7" y="214.1" class="st5" width="46.7" height="17.4"/>
		</g>
	</g>
	
		<rect x="174.5" y="214.1" transform="matrix(-1 -1.224647e-16 1.224647e-16 -1 502.582 490.174)" class="st1" width="153.5" height="62"/>
	<g>
		<rect x="213.7" y="213.1" class="st5" width="36.8" height="18.4"/>
	</g>
	<polygon class="st1" points="651.7,276.1 676.6,276.1 696.2,276.1 798.7,276.1 798.7,214.1 680.1,214.1 680.1,250.8 651.7,250.8 	
		"/>
	<polygon class="st1" points="145,276.1 171.5,276.1 171.5,251.3 145,251.3 145,222.7 57.5,222.7 57.5,276.1 	"/>
	<line class="st5" x1="753" y1="276.3" x2="753" y2="213.5"/>
	<line class="st5" x1="251" y1="276.3" x2="251" y2="213.5"/>
	<line class="st5" x1="680.7" y1="276.3" x2="680.7" y2="213.5"/>
	<line class="st5" x1="144.7" y1="276.3" x2="144.7" y2="217.8"/>
	<g>
		<text transform="matrix(1 0 0 1 163.8618 54.0324)" class="st6 st26 st27">TR Building</text>
	</g>
</g>
<g id="標示">
	<g>
		<g>
			<path class="st21" d="M98.9,237.6c0,0.3-0.3,0.4-0.3,0.7c0,0.2,0.1,0.4,0.3,0.6c0.5,0.3,0.5,0.8,0.4,1.3
				c-0.2,1.5-0.3,2.9-0.5,4.4c-0.1,0.6,0.3,0.9,0.5,1.4c0.9-0.8,0.6-1.7,0.5-2.6c-0.1-1.2-0.3-2.3-0.4-3.5c0-0.4,0-0.6,0.3-0.9
				c0.2-0.1,0.4-0.3,0.5-0.6c-0.1-0.2-0.3-0.4-0.4-0.6c0.1-0.2,0.3-0.2,0.5-0.2c1,0,2,0,3,0c1.5,0,2.5,1.4,2,2.8
				c-0.9,2.4-1.8,4.7-2.7,7.1c-0.4,1-0.7,2-1.2,2.9c-0.5,0.9-1.4,1.1-2.3,0.9c-1.1-0.2-1.6-0.9-2-1.9c-0.8-2.1-1.6-4.1-2.4-6.2
				c-0.4-1-0.7-1.9-1.1-2.9c-0.5-1.4,0.4-2.8,1.9-2.8C96.5,237.6,97.7,237.6,98.9,237.6z"/>
			<path class="st21" d="M99.4,236.9c-2.3,0-4.1-1.7-4.1-4c0-2.2,1.7-4,3.9-4c2.2,0,4.1,1.7,4.1,3.9
				C103.3,234.8,101.9,236.8,99.4,236.9z"/>
		</g>
	</g>
	<g>
		<text transform="matrix(1 0 0 1 78.255 268.5383)" class="st21 st38 st39">Toilet</text>
	</g>
	<g id="p7iPoC_00000119800641310649745520000000141894445129226934_">
		<g>
			<path class="st21" d="M160.4,264.9c0.7,0,1.4,0,2.2,0c0.6,0,0.9,0.3,1.1,0.9c0.4,1.4,0.9,2.8,1.3,4.3c0.1,0.4,0.3,0.8,0.4,1.2
				c0.1,0.5-0.1,0.8-0.5,1c-0.4,0.1-0.9-0.1-1-0.5c-0.5-1.5-1-3-1.5-4.5c-0.1-0.2-0.2-0.3-0.4-0.3c-1.5,0.1-3,0-4.5,0
				c-0.3,0-0.7,0-1-0.1c-0.4-0.1-0.7-0.3-0.8-0.8c-0.3-1.4-0.5-2.9-0.7-4.4c-0.1-0.5-0.1-1-0.2-1.5c-0.1-0.7,0.2-1.2,0.9-1.4
				c0.3-0.1,0.6-0.1,0.8-0.1c0.6,0.1,1,0.4,1.1,1c0.1,0.6,0.3,1.2,0.4,1.8c0,0.2,0.1,0.2,0.3,0.2c0.8,0,1.6,0,2.5,0
				c0.6,0,1,0.6,0.7,1.2c-0.1,0.2-0.3,0.3-0.5,0.3c-0.8,0-1.6,0-2.4,0c-0.2,0-0.2,0.1-0.2,0.3c0.1,0.4,0.1,0.7,0.2,1.1
				c0,0.2,0.1,0.2,0.3,0.2C159.2,264.9,159.8,264.9,160.4,264.9z"/>
			<path class="st21" d="M150.8,267.3c0-2.4,1.4-4.3,3.4-5.1c0.2-0.1,0.3-0.1,0.3,0.2c0,0.2,0.1,0.5,0.1,0.7c0,0.2,0,0.3-0.2,0.3
				c-1,0.5-1.7,1.2-2.1,2.3c-1,2.6,0.5,5.1,3,5.6c2.7,0.6,4.7-1.2,5.1-3.5c0.1-0.5,0.1-0.5,0.6-0.5c0.2,0,0.4,0,0.6,0
				c0.1,0,0.2,0.1,0.2,0.2c-0.1,1.5-0.6,2.7-1.7,3.7c-1.2,1.1-2.6,1.6-4.2,1.5c-2.5-0.2-4.6-1.9-5-4.6
				C150.8,267.8,150.8,267.6,150.8,267.3z"/>
			<path class="st21" d="M156.5,255.3c0.8,0,1.5,0.7,1.5,1.5c0,0.8-0.7,1.5-1.5,1.5c-0.8,0-1.5-0.7-1.5-1.5
				C155,256,155.7,255.3,156.5,255.3z"/>
		</g>
	</g>
	<g id="BbVIEC_00000168094202692684618300000005845738361275711381_">
		<g>
			<g>
				<path class="st28" d="M223.1,267.5c-8.3,0-16.6,0-24.9,0c-0.5,0-0.5-0.1-0.5-0.6c0-1.5,0-3,0-4.5c0.2-0.3,0.5-0.3,0.8-0.3
					c1.2,0,2.4,0,3.6,0c0.7,0,0.8-0.2,0.8-0.8c0-1.2,0-2.4,0-3.6c0-0.8,0.1-0.9,0.9-0.9c1.2,0,2.4,0,3.5,0c0.8,0,0.9-0.1,0.9-0.9
					c0-1.2,0-2.4,0-3.6c0-0.6,0.2-0.8,0.8-0.8c1.2,0,2.4,0,3.6,0c0.7,0,0.8-0.1,0.8-0.8c0-1.2,0-2.3,0-3.5c0-0.9,0.1-1,1-1
					c1.2,0,2.3,0,3.5,0c0.7,0,0.8-0.1,0.9-0.9c0-1.2,0-2.4,0-3.6c0-0.7,0.2-0.8,0.8-0.8c1.1,0,2.3,0,3.4,0c1.1,0,1.1,0.1,1.1,1.1
					c0,7.8,0,15.5,0,23.3C224.2,266.4,223.9,267,223.1,267.5z M215.2,261.1C215.2,261.1,215.2,261.1,215.2,261.1c0.7,0,1.4,0,2.2,0
					c0.6,0,0.6-0.4,0.6-0.8c0-0.4,0-0.8-0.6-0.8c-0.4,0-0.9,0-1.3,0c-0.2,0-0.4,0.1-0.5-0.1c-0.1-0.2,0.1-0.3,0.2-0.4
					c1.2-1.3,2.5-2.5,3.7-3.8c0.6-0.6,0.6-0.7,0.1-1.2c-0.5-0.5-0.7-0.5-1.3,0.1c-0.1,0.1-0.2,0.2-0.4,0.4c-1.1,1.1-2.3,2.3-3.4,3.4
					c-0.1,0.1-0.2,0.3-0.4,0.2c-0.1-0.1-0.1-0.2-0.1-0.4c0-0.4,0-0.9,0-1.3c0-0.5-0.2-0.7-0.7-0.7c-0.7,0-0.9,0.1-0.9,0.7
					c0,1.4,0,2.7,0,4.1c0,0.5,0.2,0.7,0.7,0.7C213.8,261.1,214.5,261.1,215.2,261.1z"/>
				<path class="st28" d="M205.3,246.6c-0.7,0-1.2,0-1.7,0c-0.6,0-0.8-0.2-0.8-0.8c0-0.7,0.1-1,0.7-1.1c1.4,0,2.9,0,4.3,0
					c0.5,0,0.7,0.3,0.7,0.8c0,1.4,0,2.8,0,4.2c0,0.6-0.3,0.8-1,0.8c-0.7,0-0.9-0.2-0.9-0.8c0-0.5,0-1,0-1.5
					c-0.3-0.1-0.4,0.2-0.6,0.3c-1.2,1.2-2.3,2.3-3.5,3.5c-0.7,0.7-1.4,0.5-1.8-0.4c-0.2-0.4,0.1-0.6,0.3-0.8
					c1.2-1.2,2.4-2.4,3.7-3.7C205,247,205.1,246.9,205.3,246.6z"/>
			</g>
		</g>
	</g>
	<g id="mGfqoG_00000170243022371877966950000008054499761811665332_">
		<g>
			<path class="st25" d="M278,234.5c0,1.7,0,3.4,0,5.1c0,2.1-1.4,3.5-3.5,3.5c-3.4,0-6.8,0-10.3,0c-2.2,0-3.5-1.4-3.6-3.5
				c0-3.4,0-6.8,0-10.2c0-2.2,1.4-3.6,3.6-3.6c3.4,0,6.7,0,10.1,0c2.2,0,3.6,1.4,3.6,3.6c0,0.8,0,1.7,0,2.5
				C278,232.8,278,233.6,278,234.5z M269.4,227C269.4,227,269.4,227,269.4,227c-1.7,0-3.4,0-5.2,0c-1.5,0-2.4,0.8-2.4,2.3
				c0,3.4,0,6.8,0,10.2c0,1.5,0.8,2.4,2.3,2.4c3.4,0,6.9,0,10.3,0c1.4,0,2.3-0.9,2.3-2.3c0-3.4,0-6.9,0-10.3c0-1.4-0.9-2.2-2.3-2.3
				C272.8,227,271.1,227,269.4,227z"/>
			<path class="st25" d="M264.8,222.3c0-0.8,0-1.5,0-2.3c0-0.4,0-0.8,0-1.2c0-0.7,0.2-1.1,0.7-1.1c0.4,0,0.7,0.4,0.7,1.1
				c0,0.9,0,1.9,0,2.8c0,0.2-0.1,0.4,0.1,0.5c0.2,0.1,0.3-0.2,0.4-0.3c0.4-0.4,0.7-0.7,1.1-1.1c0.3-0.3,0.6-0.3,0.9,0
				c0.3,0.3,0.4,0.6,0.1,0.9c-1,1.1-2,2.1-3,3.1c-0.2,0.2-0.6,0.2-0.8-0.1c-0.9-1-1.9-2-2.8-3c-0.3-0.3-0.2-0.7,0.1-1
				c0.3-0.3,0.7-0.2,0.9,0.1c0.5,0.5,0.9,1,1.4,1.5C264.7,222.4,264.7,222.4,264.8,222.3z"/>
			<path class="st25" d="M272.5,220.2c-0.6,0.6-1,1-1.4,1.5c-0.4,0.4-0.7,0.5-1.1,0.2c-0.3-0.3-0.3-0.7,0.1-1.1
				c0.8-0.9,1.7-1.8,2.5-2.7c0.4-0.4,0.7-0.5,1.1,0c0.9,0.9,1.7,1.8,2.5,2.7c0.4,0.4,0.4,0.9,0.1,1.2c-0.4,0.4-0.7,0.1-1.1-0.2
				c-0.4-0.4-0.9-0.9-1.4-1.3c-0.1,0.3,0,0.6-0.1,0.9c0,0.9,0,1.9,0,2.8c0,0.5-0.1,0.9-0.7,0.9c-0.5,0-0.7-0.4-0.7-0.8
				c0-1.1,0-2.2,0-3.3C272.5,220.7,272.5,220.6,272.5,220.2z"/>
			<path class="st25" d="M273.8,237c0,0.9,0,1.8,0,2.7c0,0.2,0,0.4,0,0.6c0,0.4,0,0.8-0.6,0.8c-0.5,0-0.5-0.4-0.6-0.8
				c0-0.9,0-1.8,0-2.6c0-0.4,0-0.9-0.4-1.2c-0.2-0.1-0.2-0.4-0.2-0.6c0-1.1,0-2.3,0-3.4c0-0.7,0.3-1,0.9-1c0.5,0,1.1,0,1.6,0
				c0.6,0,0.8,0.3,0.9,0.9c0,1.2,0,2.4,0,3.6c0,0.2,0,0.5-0.2,0.6c-0.4,0.3-0.4,0.7-0.4,1c0,0.9,0,1.7,0,2.6c0,0.4,0.1,0.9-0.5,0.9
				c-0.6,0-0.5-0.5-0.5-0.9c0-1,0-2.1,0-3.1C273.8,237,273.8,237,273.8,237z"/>
			<path class="st25" d="M264.8,236.9c0,1.1,0,2.3,0,3.4c0,0.4-0.1,0.7-0.6,0.7c-0.4,0-0.5-0.3-0.5-0.7c0-1,0-2,0-3
				c0-0.3,0-0.7-0.3-0.9c-0.2-0.2-0.2-0.4-0.2-0.7c0-1.1,0-2.3,0-3.4c0-0.7,0.3-1,1-1c0.5,0,1,0,1.5,0c0.6,0,0.9,0.3,0.9,0.9
				c0,1.2,0,2.4,0,3.6c0,0.2,0,0.5-0.2,0.6c-0.4,0.3-0.4,0.7-0.4,1c0,0.9,0,1.9,0,2.8c0,0.3,0,0.5-0.3,0.7c-0.4,0.2-0.7,0-0.8-0.6
				c0-1,0-2,0-3c0-0.1,0-0.3,0-0.4C264.9,236.9,264.9,236.9,264.8,236.9z"/>
			<path class="st25" d="M269.3,236.9c0,1.1,0,2.2,0,3.4c0,0.2,0,0.4-0.1,0.6c-0.2,0.2-0.4,0.2-0.6,0.1c-0.3-0.1-0.4-0.3-0.4-0.6
				c0-1,0-2,0-2.9c0-0.4,0-0.7-0.4-1c-0.2-0.1-0.2-0.4-0.2-0.6c0-1.2,0-2.4,0-3.6c0-0.6,0.3-0.9,1-0.9c0.5,0,1,0,1.5,0
				c0.7,0,0.9,0.3,0.9,1c0,1.2,0,2.4,0,3.6c0,0.2,0,0.4-0.2,0.6c-0.4,0.3-0.4,0.7-0.4,1.2c0,0.9,0,1.7,0,2.6c0,0.4,0,0.8-0.6,0.8
				c-0.6,0-0.5-0.4-0.5-0.8c0-1.1,0-2.2,0-3.3C269.4,236.9,269.3,236.9,269.3,236.9z"/>
			<path class="st25" d="M270.6,230c0,0.7-0.6,1.3-1.3,1.3c-0.6,0-1.2-0.6-1.2-1.2c0-0.7,0.6-1.3,1.2-1.3
				C270,228.7,270.6,229.3,270.6,230z"/>
			<path class="st25" d="M275,230c0,0.7-0.6,1.3-1.3,1.3c-0.6,0-1.2-0.6-1.3-1.2c0-0.7,0.6-1.3,1.2-1.3
				C274.5,228.7,275,229.3,275,230z"/>
			<path class="st25" d="M264.9,231.2c-0.7,0-1.3-0.6-1.2-1.3c0-0.6,0.6-1.2,1.2-1.2c0.7,0,1.3,0.6,1.3,1.2
				C266.2,230.6,265.6,231.2,264.9,231.2z"/>
		</g>
	</g>
	<g id="mGfqoG_00000123438405313344907070000011951757633746023327_">
		<g>
			<path class="st25" d="M278,264.2c0,1.7,0,3.4,0,5.1c0,2.1-1.4,3.5-3.5,3.5c-3.4,0-6.8,0-10.3,0c-2.2,0-3.5-1.4-3.6-3.5
				c0-3.4,0-6.8,0-10.2c0-2.2,1.4-3.6,3.6-3.6c3.4,0,6.7,0,10.1,0c2.2,0,3.6,1.4,3.6,3.6c0,0.8,0,1.7,0,2.5S278,263.4,278,264.2z
				 M269.4,256.8C269.4,256.8,269.4,256.8,269.4,256.8c-1.7,0-3.4,0-5.2,0c-1.5,0-2.4,0.8-2.4,2.3c0,3.4,0,6.8,0,10.2
				c0,1.5,0.8,2.4,2.3,2.4c3.4,0,6.9,0,10.3,0c1.4,0,2.3-0.9,2.3-2.3c0-3.4,0-6.9,0-10.3c0-1.4-0.9-2.2-2.3-2.3
				C272.8,256.8,271.1,256.8,269.4,256.8z"/>
			<path class="st25" d="M264.8,252.1c0-0.8,0-1.5,0-2.3c0-0.4,0-0.8,0-1.2c0-0.7,0.2-1.1,0.7-1.1c0.4,0,0.7,0.4,0.7,1.1
				c0,0.9,0,1.9,0,2.8c0,0.2-0.1,0.4,0.1,0.5c0.2,0.1,0.3-0.2,0.4-0.3c0.4-0.4,0.7-0.7,1.1-1.1c0.3-0.3,0.6-0.3,0.9,0
				c0.3,0.3,0.4,0.6,0.1,0.9c-1,1.1-2,2.1-3,3.1c-0.2,0.2-0.6,0.2-0.8-0.1c-0.9-1-1.9-2-2.8-3c-0.3-0.3-0.2-0.7,0.1-1
				c0.3-0.3,0.7-0.2,0.9,0.1c0.5,0.5,0.9,1,1.4,1.5C264.7,252.1,264.7,252.1,264.8,252.1z"/>
			<path class="st25" d="M272.5,250c-0.6,0.6-1,1-1.4,1.5c-0.4,0.4-0.7,0.5-1.1,0.2c-0.3-0.3-0.3-0.7,0.1-1.1
				c0.8-0.9,1.7-1.8,2.5-2.7c0.4-0.4,0.7-0.5,1.1,0c0.9,0.9,1.7,1.8,2.5,2.7c0.4,0.4,0.4,0.9,0.1,1.2c-0.4,0.4-0.7,0.1-1.1-0.2
				c-0.4-0.4-0.9-0.9-1.4-1.3c-0.1,0.3,0,0.6-0.1,0.9c0,0.9,0,1.9,0,2.8c0,0.5-0.1,0.9-0.7,0.9c-0.5,0-0.7-0.4-0.7-0.8
				c0-1.1,0-2.2,0-3.3C272.5,250.4,272.5,250.3,272.5,250z"/>
			<path class="st25" d="M273.8,266.7c0,0.9,0,1.8,0,2.7c0,0.2,0,0.4,0,0.6c0,0.4,0,0.8-0.6,0.8c-0.5,0-0.5-0.4-0.6-0.8
				c0-0.9,0-1.8,0-2.6c0-0.4,0-0.9-0.4-1.2c-0.2-0.1-0.2-0.4-0.2-0.6c0-1.1,0-2.3,0-3.4c0-0.7,0.3-1,0.9-1c0.5,0,1.1,0,1.6,0
				c0.6,0,0.8,0.3,0.9,0.9c0,1.2,0,2.4,0,3.6c0,0.2,0,0.5-0.2,0.6c-0.4,0.3-0.4,0.7-0.4,1c0,0.9,0,1.7,0,2.6c0,0.4,0.1,0.9-0.5,0.9
				c-0.6,0-0.5-0.5-0.5-0.9c0-1,0-2.1,0-3.1C273.8,266.7,273.8,266.7,273.8,266.7z"/>
			<path class="st25" d="M264.8,266.7c0,1.1,0,2.3,0,3.4c0,0.4-0.1,0.7-0.6,0.7c-0.4,0-0.5-0.3-0.5-0.7c0-1,0-2,0-3
				c0-0.3,0-0.7-0.3-0.9c-0.2-0.2-0.2-0.4-0.2-0.7c0-1.1,0-2.3,0-3.4c0-0.7,0.3-1,1-1c0.5,0,1,0,1.5,0c0.6,0,0.9,0.3,0.9,0.9
				c0,1.2,0,2.4,0,3.6c0,0.2,0,0.5-0.2,0.6c-0.4,0.3-0.4,0.7-0.4,1c0,0.9,0,1.9,0,2.8c0,0.3,0,0.5-0.3,0.7c-0.4,0.2-0.7,0-0.8-0.6
				c0-1,0-2,0-3c0-0.1,0-0.3,0-0.4C264.9,266.7,264.9,266.7,264.8,266.7z"/>
			<path class="st25" d="M269.3,266.7c0,1.1,0,2.2,0,3.4c0,0.2,0,0.4-0.1,0.6c-0.2,0.2-0.4,0.2-0.6,0.1c-0.3-0.1-0.4-0.3-0.4-0.6
				c0-1,0-2,0-2.9c0-0.4,0-0.7-0.4-1c-0.2-0.1-0.2-0.4-0.2-0.6c0-1.2,0-2.4,0-3.6c0-0.6,0.3-0.9,1-0.9c0.5,0,1,0,1.5,0
				c0.7,0,0.9,0.3,0.9,1c0,1.2,0,2.4,0,3.6c0,0.2,0,0.4-0.2,0.6c-0.4,0.3-0.4,0.7-0.4,1.2c0,0.9,0,1.7,0,2.6c0,0.4,0,0.8-0.6,0.8
				c-0.6,0-0.5-0.4-0.5-0.8c0-1.1,0-2.2,0-3.3C269.4,266.7,269.3,266.7,269.3,266.7z"/>
			<path class="st25" d="M270.6,259.7c0,0.7-0.6,1.3-1.3,1.3c-0.6,0-1.2-0.6-1.2-1.2c0-0.7,0.6-1.3,1.2-1.3
				C270,258.5,270.6,259,270.6,259.7z"/>
			<path class="st25" d="M275,259.7c0,0.7-0.6,1.3-1.3,1.3c-0.6,0-1.2-0.6-1.3-1.2c0-0.7,0.6-1.3,1.2-1.3
				C274.5,258.4,275,259,275,259.7z"/>
			<path class="st25" d="M264.9,261c-0.7,0-1.3-0.6-1.2-1.3c0-0.6,0.6-1.2,1.2-1.2c0.7,0,1.3,0.6,1.3,1.2
				C266.2,260.4,265.6,261,264.9,261z"/>
		</g>
	</g>
	<g id="mGfqoG_00000074430438567419749860000018398497547980828077_">
		<g>
			<path class="st25" d="M322.7,234.5c0,1.7,0,3.4,0,5.1c0,2.1-1.4,3.5-3.5,3.5c-3.4,0-6.8,0-10.3,0c-2.2,0-3.5-1.4-3.6-3.5
				c0-3.4,0-6.8,0-10.2c0-2.2,1.4-3.6,3.6-3.6c3.4,0,6.7,0,10.1,0c2.2,0,3.6,1.4,3.6,3.6c0,0.8,0,1.7,0,2.5
				C322.7,232.8,322.7,233.6,322.7,234.5z M314.1,227C314.1,227,314.1,227,314.1,227c-1.7,0-3.4,0-5.2,0c-1.5,0-2.4,0.8-2.4,2.3
				c0,3.4,0,6.8,0,10.2c0,1.5,0.8,2.4,2.3,2.4c3.4,0,6.9,0,10.3,0c1.4,0,2.3-0.9,2.3-2.3c0-3.4,0-6.9,0-10.3c0-1.4-0.9-2.2-2.3-2.3
				C317.6,227,315.8,227,314.1,227z"/>
			<path class="st25" d="M309.5,222.3c0-0.8,0-1.5,0-2.3c0-0.4,0-0.8,0-1.2c0-0.7,0.2-1.1,0.7-1.1c0.4,0,0.7,0.4,0.7,1.1
				c0,0.9,0,1.9,0,2.8c0,0.2-0.1,0.4,0.1,0.5c0.2,0.1,0.3-0.2,0.4-0.3c0.4-0.4,0.7-0.7,1.1-1.1c0.3-0.3,0.6-0.3,0.9,0
				c0.3,0.3,0.4,0.6,0.1,0.9c-1,1.1-2,2.1-3,3.1c-0.2,0.2-0.6,0.2-0.8-0.1c-0.9-1-1.9-2-2.8-3c-0.3-0.3-0.2-0.7,0.1-1
				c0.3-0.3,0.7-0.2,0.9,0.1c0.5,0.5,0.9,1,1.4,1.5C309.4,222.4,309.5,222.4,309.5,222.3z"/>
			<path class="st25" d="M317.3,220.2c-0.6,0.6-1,1-1.4,1.5c-0.4,0.4-0.7,0.5-1.1,0.2c-0.3-0.3-0.3-0.7,0.1-1.1
				c0.8-0.9,1.7-1.8,2.5-2.7c0.4-0.4,0.7-0.5,1.1,0c0.9,0.9,1.7,1.8,2.5,2.7c0.4,0.4,0.4,0.9,0.1,1.2c-0.4,0.4-0.7,0.1-1.1-0.2
				c-0.4-0.4-0.9-0.9-1.4-1.3c-0.1,0.3,0,0.6-0.1,0.9c0,0.9,0,1.9,0,2.8c0,0.5-0.1,0.9-0.7,0.9c-0.5,0-0.7-0.4-0.7-0.8
				c0-1.1,0-2.2,0-3.3C317.3,220.7,317.3,220.6,317.3,220.2z"/>
			<path class="st25" d="M318.5,237c0,0.9,0,1.8,0,2.7c0,0.2,0,0.4,0,0.6c0,0.4,0,0.8-0.6,0.8c-0.5,0-0.5-0.4-0.6-0.8
				c0-0.9,0-1.8,0-2.6c0-0.4,0-0.9-0.4-1.2c-0.2-0.1-0.2-0.4-0.2-0.6c0-1.1,0-2.3,0-3.4c0-0.7,0.3-1,0.9-1c0.5,0,1.1,0,1.6,0
				c0.6,0,0.8,0.3,0.9,0.9c0,1.2,0,2.4,0,3.6c0,0.2,0,0.5-0.2,0.6c-0.4,0.3-0.4,0.7-0.4,1c0,0.9,0,1.7,0,2.6c0,0.4,0.1,0.9-0.5,0.9
				c-0.6,0-0.5-0.5-0.5-0.9c0-1,0-2.1,0-3.1C318.6,237,318.5,237,318.5,237z"/>
			<path class="st25" d="M309.6,236.9c0,1.1,0,2.3,0,3.4c0,0.4-0.1,0.7-0.6,0.7c-0.4,0-0.5-0.3-0.5-0.7c0-1,0-2,0-3
				c0-0.3,0-0.7-0.3-0.9c-0.2-0.2-0.2-0.4-0.2-0.7c0-1.1,0-2.3,0-3.4c0-0.7,0.3-1,1-1c0.5,0,1,0,1.5,0c0.6,0,0.9,0.3,0.9,0.9
				c0,1.2,0,2.4,0,3.6c0,0.2,0,0.5-0.2,0.6c-0.4,0.3-0.4,0.7-0.4,1c0,0.9,0,1.9,0,2.8c0,0.3,0,0.5-0.3,0.7c-0.4,0.2-0.7,0-0.8-0.6
				c0-1,0-2,0-3c0-0.1,0-0.3,0-0.4C309.7,236.9,309.6,236.9,309.6,236.9z"/>
			<path class="st25" d="M314,236.9c0,1.1,0,2.2,0,3.4c0,0.2,0,0.4-0.1,0.6c-0.2,0.2-0.4,0.2-0.6,0.1c-0.3-0.1-0.4-0.3-0.4-0.6
				c0-1,0-2,0-2.9c0-0.4,0-0.7-0.4-1c-0.2-0.1-0.2-0.4-0.2-0.6c0-1.2,0-2.4,0-3.6c0-0.6,0.3-0.9,1-0.9c0.5,0,1,0,1.5,0
				c0.7,0,0.9,0.3,0.9,1c0,1.2,0,2.4,0,3.6c0,0.2,0,0.4-0.2,0.6c-0.4,0.3-0.4,0.7-0.4,1.2c0,0.9,0,1.7,0,2.6c0,0.4,0,0.8-0.6,0.8
				c-0.6,0-0.5-0.4-0.5-0.8c0-1.1,0-2.2,0-3.3C314.1,236.9,314.1,236.9,314,236.9z"/>
			<path class="st25" d="M315.3,230c0,0.7-0.6,1.3-1.3,1.3c-0.6,0-1.2-0.6-1.2-1.2c0-0.7,0.6-1.3,1.2-1.3
				C314.7,228.7,315.3,229.3,315.3,230z"/>
			<path class="st25" d="M319.8,230c0,0.7-0.6,1.3-1.3,1.3c-0.6,0-1.2-0.6-1.3-1.2c0-0.7,0.6-1.3,1.2-1.3
				C319.2,228.7,319.8,229.3,319.8,230z"/>
			<path class="st25" d="M309.6,231.2c-0.7,0-1.3-0.6-1.2-1.3c0-0.6,0.6-1.2,1.2-1.2c0.7,0,1.3,0.6,1.3,1.2
				C310.9,230.6,310.3,231.2,309.6,231.2z"/>
		</g>
	</g>
	<g id="mGfqoG_00000152945329461449221620000006135467385934068883_">
		<g>
			<path class="st25" d="M322.7,264.2c0,1.7,0,3.4,0,5.1c0,2.1-1.4,3.5-3.5,3.5c-3.4,0-6.8,0-10.3,0c-2.2,0-3.5-1.4-3.6-3.5
				c0-3.4,0-6.8,0-10.2c0-2.2,1.4-3.6,3.6-3.6c3.4,0,6.7,0,10.1,0c2.2,0,3.6,1.4,3.6,3.6c0,0.8,0,1.7,0,2.5
				C322.7,262.5,322.7,263.4,322.7,264.2z M314.1,256.8C314.1,256.8,314.1,256.8,314.1,256.8c-1.7,0-3.4,0-5.2,0
				c-1.5,0-2.4,0.8-2.4,2.3c0,3.4,0,6.8,0,10.2c0,1.5,0.8,2.4,2.3,2.4c3.4,0,6.9,0,10.3,0c1.4,0,2.3-0.9,2.3-2.3c0-3.4,0-6.9,0-10.3
				c0-1.4-0.9-2.2-2.3-2.3C317.6,256.8,315.8,256.8,314.1,256.8z"/>
			<path class="st25" d="M309.5,252.1c0-0.8,0-1.5,0-2.3c0-0.4,0-0.8,0-1.2c0-0.7,0.2-1.1,0.7-1.1c0.4,0,0.7,0.4,0.7,1.1
				c0,0.9,0,1.9,0,2.8c0,0.2-0.1,0.4,0.1,0.5c0.2,0.1,0.3-0.2,0.4-0.3c0.4-0.4,0.7-0.7,1.1-1.1c0.3-0.3,0.6-0.3,0.9,0
				c0.3,0.3,0.4,0.6,0.1,0.9c-1,1.1-2,2.1-3,3.1c-0.2,0.2-0.6,0.2-0.8-0.1c-0.9-1-1.9-2-2.8-3c-0.3-0.3-0.2-0.7,0.1-1
				c0.3-0.3,0.7-0.2,0.9,0.1c0.5,0.5,0.9,1,1.4,1.5C309.4,252.1,309.5,252.1,309.5,252.1z"/>
			<path class="st25" d="M317.3,250c-0.6,0.6-1,1-1.4,1.5c-0.4,0.4-0.7,0.5-1.1,0.2c-0.3-0.3-0.3-0.7,0.1-1.1
				c0.8-0.9,1.7-1.8,2.5-2.7c0.4-0.4,0.7-0.5,1.1,0c0.9,0.9,1.7,1.8,2.5,2.7c0.4,0.4,0.4,0.9,0.1,1.2c-0.4,0.4-0.7,0.1-1.1-0.2
				c-0.4-0.4-0.9-0.9-1.4-1.3c-0.1,0.3,0,0.6-0.1,0.9c0,0.9,0,1.9,0,2.8c0,0.5-0.1,0.9-0.7,0.9c-0.5,0-0.7-0.4-0.7-0.8
				c0-1.1,0-2.2,0-3.3C317.3,250.4,317.3,250.3,317.3,250z"/>
			<path class="st25" d="M318.5,266.7c0,0.9,0,1.8,0,2.7c0,0.2,0,0.4,0,0.6c0,0.4,0,0.8-0.6,0.8c-0.5,0-0.5-0.4-0.6-0.8
				c0-0.9,0-1.8,0-2.6c0-0.4,0-0.9-0.4-1.2c-0.2-0.1-0.2-0.4-0.2-0.6c0-1.1,0-2.3,0-3.4c0-0.7,0.3-1,0.9-1c0.5,0,1.1,0,1.6,0
				c0.6,0,0.8,0.3,0.9,0.9c0,1.2,0,2.4,0,3.6c0,0.2,0,0.5-0.2,0.6c-0.4,0.3-0.4,0.7-0.4,1c0,0.9,0,1.7,0,2.6c0,0.4,0.1,0.9-0.5,0.9
				c-0.6,0-0.5-0.5-0.5-0.9c0-1,0-2.1,0-3.1C318.6,266.7,318.5,266.7,318.5,266.7z"/>
			<path class="st25" d="M309.6,266.7c0,1.1,0,2.3,0,3.4c0,0.4-0.1,0.7-0.6,0.7c-0.4,0-0.5-0.3-0.5-0.7c0-1,0-2,0-3
				c0-0.3,0-0.7-0.3-0.9c-0.2-0.2-0.2-0.4-0.2-0.7c0-1.1,0-2.3,0-3.4c0-0.7,0.3-1,1-1c0.5,0,1,0,1.5,0c0.6,0,0.9,0.3,0.9,0.9
				c0,1.2,0,2.4,0,3.6c0,0.2,0,0.5-0.2,0.6c-0.4,0.3-0.4,0.7-0.4,1c0,0.9,0,1.9,0,2.8c0,0.3,0,0.5-0.3,0.7c-0.4,0.2-0.7,0-0.8-0.6
				c0-1,0-2,0-3c0-0.1,0-0.3,0-0.4C309.7,266.7,309.6,266.7,309.6,266.7z"/>
			<path class="st25" d="M314,266.7c0,1.1,0,2.2,0,3.4c0,0.2,0,0.4-0.1,0.6c-0.2,0.2-0.4,0.2-0.6,0.1c-0.3-0.1-0.4-0.3-0.4-0.6
				c0-1,0-2,0-2.9c0-0.4,0-0.7-0.4-1c-0.2-0.1-0.2-0.4-0.2-0.6c0-1.2,0-2.4,0-3.6c0-0.6,0.3-0.9,1-0.9c0.5,0,1,0,1.5,0
				c0.7,0,0.9,0.3,0.9,1c0,1.2,0,2.4,0,3.6c0,0.2,0,0.4-0.2,0.6c-0.4,0.3-0.4,0.7-0.4,1.2c0,0.9,0,1.7,0,2.6c0,0.4,0,0.8-0.6,0.8
				c-0.6,0-0.5-0.4-0.5-0.8c0-1.1,0-2.2,0-3.3C314.1,266.7,314.1,266.7,314,266.7z"/>
			<path class="st25" d="M315.3,259.7c0,0.7-0.6,1.3-1.3,1.3c-0.6,0-1.2-0.6-1.2-1.2c0-0.7,0.6-1.3,1.2-1.3
				C314.7,258.5,315.3,259,315.3,259.7z"/>
			<path class="st25" d="M319.8,259.7c0,0.7-0.6,1.3-1.3,1.3c-0.6,0-1.2-0.6-1.3-1.2c0-0.7,0.6-1.3,1.2-1.3
				C319.2,258.4,319.8,259,319.8,259.7z"/>
			<path class="st25" d="M309.6,261c-0.7,0-1.3-0.6-1.2-1.3c0-0.6,0.6-1.2,1.2-1.2c0.7,0,1.3,0.6,1.3,1.2
				C310.9,260.4,310.3,261,309.6,261z"/>
		</g>
	</g>
	<g>
		<text transform="matrix(1 0 0 1 696.0627 262.1858)" class="st21 st38 st39">Toilet</text>
	</g>
	<g id="o3AOjT_00000080186861284173109110000015275816987654484407_">
		<g>
			<g>
				<path class="st21" d="M717.2,232.2c0.4-0.4,0.8-0.7,1.1-1.1c0.5-0.6,1.1-0.5,1.4,0.2c1.5,3.8,2.9,7.6,4.4,11.4
					c0.3,0.8-0.2,1.5-1,1.6c-0.2,0-0.4,0-0.6,0c-3.4,0-6.9,0-10.3,0c-0.2,0-0.4,0-0.6,0c-1-0.1-1.4-0.8-1.1-1.7
					c0.7-1.9,1.5-3.9,2.2-5.8c0.7-1.8,1.4-3.6,2.1-5.4c0.3-0.7,0.8-0.8,1.4-0.3C716.6,231.4,716.9,231.8,717.2,232.2z"/>
				<path class="st21" d="M717.3,229.7c-2.1,0-3.9-1.6-3.8-3.9c0-2.1,1.6-3.8,3.9-3.8c2.1,0,3.8,1.7,3.8,3.9
					C721.2,228,719.5,229.7,717.3,229.7z"/>
			</g>
		</g>
	</g>
	<g id="s8VYHe_00000110436669068507690720000011062199073810232482_">
		<g>
			<path class="st24" d="M665.5,245.8c1.4,0,2.8,0,4.1,0c0.5,0,0.9,0.3,1,0.8c0.1,0.6-0.3,1.1-1,1.1c-1,0-2,0-2.9,0
				c-0.2,0-0.2,0-0.2,0.2c0,0.9,0,1.8,0,2.8c0,0.1,0,0.2,0.2,0.2c0.5,0,0.9,0.5,1,1c0,0.2,0,0.2,0.2,0.2c1.3,0,2.6,0,3.9,0
				c0.2,0,0.2,0,0.2-0.2c0-0.8,0-1.6,0-2.5c0-0.4,0.2-0.7,0.7-0.6c0.3,0,0.7,0,1,0c0.1,0,0.1,0,0.2,0.2c0,0.5,0,1.1,0,1.6
				c0,0.5,0,0.9,0,1.4c0,0.5,0,1.1,0,1.6c0,0.5,0,1,0,1.6c0,0.2,0,0.4,0,0.6c0,0.5,0,1,0,1.6c0,0.3,0,0.5,0,0.8c0,0.2,0,0.2-0.2,0.2
				c-0.3,0-0.7,0-1,0c-0.4,0-0.6-0.2-0.6-0.6c0-0.8,0-1.7,0-2.5c0-0.2,0-0.2-0.2-0.2c-0.5,0-1.1,0-1.6,0c-0.5,0-1,0-1.4,0
				c-0.3,0-0.6,0-0.8,0c-0.2,0-0.2,0-0.2,0.2c-0.1,0.6-0.6,1-1.2,1c-0.7,0-1.3,0-2,0c-0.6,0-1.1-0.4-1.2-1c0-0.1-0.1-0.1-0.2-0.1
				c-0.3,0-0.7,0-1,0c-0.6,0-1.2,0-1.8,0c-0.2,0-0.5,0-0.7,0.1c-0.5,0.2-0.9,0.7-0.9,1.3c0,0.5,0,1,0,1.6c0,0.6,0,1.1,0,1.7
				c0,0.1,0,0.1-0.1,0.1c-1,0-1.9,0-2.9,0c-0.1,0-0.1-0.1-0.1-0.2c0-0.5,0-1,0-1.5c0-0.8,0-1.6,0-2.4c0-0.6,0.2-1.1,0.5-1.5
				c0.6-0.9,1.5-1.5,2.5-1.9c0.7-0.2,1.4-0.3,2.1-0.3c0.8,0,1.6,0,2.4,0c0.1,0,0.2,0,0.2-0.1c0.1-0.6,0.5-1,1-1
				c0.1,0,0.1-0.1,0.1-0.2c0-0.9,0-1.9,0-2.8c0-0.1,0-0.2-0.2-0.2c-1,0-2,0-2.9,0c-0.5,0-0.8-0.3-1-0.7c-0.2-0.6,0.3-1.2,0.9-1.2
				c0.8,0,1.5,0,2.3,0C664.3,245.8,664.9,245.8,665.5,245.8C665.5,245.8,665.5,245.8,665.5,245.8z"/>
			<path class="st24" d="M657.1,262.3c1.6,0,3.2,0,4.8,0c0.2,0,0.2,0,0.2,0.2c-0.1,0.9-0.2,1.8-0.3,2.7c-0.1,0.9-0.2,1.8-0.3,2.7
				c-0.1,0.7-0.2,1.4-0.2,2.1c0,0.5-0.1,1-0.2,1.6c-0.1,0.8-0.2,1.6-0.3,2.4c0,0.2,0,0.2-0.2,0.2c-0.5,0-1,0-1.5,0c-0.5,0-1,0-1.6,0
				c-0.6,0-1.1,0-1.7,0c-0.2,0-0.4,0-0.6,0c-0.5,0-1.1,0-1.6,0c-0.1,0-0.2,0-0.2-0.1c-0.1-0.7-0.2-1.3-0.2-2
				c-0.1-0.7-0.2-1.4-0.2-2.2c-0.1-0.5-0.1-1.1-0.2-1.6c-0.1-0.7-0.2-1.4-0.2-2.2c-0.1-0.6-0.1-1.1-0.2-1.7c-0.1-0.7-0.1-1.3-0.2-2
				c0-0.1,0.1-0.1,0.2-0.1c0.8,0,1.7,0,2.5,0C655.5,262.3,656.3,262.3,657.1,262.3C657.1,262.3,657.1,262.3,657.1,262.3z
				 M657.1,265.7c1.1,0,2.2,0,3.4,0c0.1,0,0.2,0,0.2-0.2c0.1-0.6,0.1-1.3,0.2-1.9c0-0.2,0-0.2-0.2-0.2c-0.6,0-1.2,0-1.8,0
				c-0.2,0-0.5,0-0.7,0c-0.5,0-1,0-1.6,0c-0.5,0-1,0-1.6,0c-0.5,0-1,0-1.6,0c-0.2,0-0.2,0-0.2,0.2c0,0.3,0.1,0.6,0.1,1
				c0,0.3,0.1,0.6,0.1,1c0,0.1,0.1,0.2,0.2,0.2c0.1,0,0.1,0,0.2,0C655,265.7,656,265.7,657.1,265.7z"/>
		</g>
	</g>
	<g id="BbVIEC_00000009547835827394506250000007838272975750605465_">
		<g>
			<g>
				<path class="st28" d="M627.4,267.5c-8.3,0-16.6,0-24.9,0c-0.5,0-0.5-0.1-0.5-0.6c0-1.5,0-3,0-4.5c0.2-0.3,0.5-0.3,0.8-0.3
					c1.2,0,2.4,0,3.6,0c0.7,0,0.8-0.2,0.8-0.8c0-1.2,0-2.4,0-3.6c0-0.8,0.1-0.9,0.9-0.9c1.2,0,2.4,0,3.5,0c0.8,0,0.9-0.1,0.9-0.9
					c0-1.2,0-2.4,0-3.6c0-0.6,0.2-0.8,0.8-0.8c1.2,0,2.4,0,3.6,0c0.7,0,0.8-0.1,0.8-0.8c0-1.2,0-2.3,0-3.5c0-0.9,0.1-1,1-1
					c1.2,0,2.3,0,3.5,0c0.7,0,0.8-0.1,0.9-0.9c0-1.2,0-2.4,0-3.6c0-0.7,0.2-0.8,0.8-0.8c1.1,0,2.3,0,3.4,0c1.1,0,1.1,0.1,1.1,1.1
					c0,7.8,0,15.5,0,23.3C628.5,266.4,628.2,267,627.4,267.5z M619.5,261.1C619.5,261.1,619.5,261.1,619.5,261.1c0.7,0,1.4,0,2.2,0
					c0.6,0,0.6-0.4,0.6-0.8c0-0.4,0-0.8-0.6-0.8c-0.4,0-0.9,0-1.3,0c-0.2,0-0.4,0.1-0.5-0.1c-0.1-0.2,0.1-0.3,0.2-0.4
					c1.2-1.3,2.5-2.5,3.7-3.8c0.6-0.6,0.6-0.7,0.1-1.2c-0.5-0.5-0.7-0.5-1.3,0.1c-0.1,0.1-0.2,0.2-0.4,0.4c-1.1,1.1-2.3,2.3-3.4,3.4
					c-0.1,0.1-0.2,0.3-0.4,0.2c-0.1-0.1-0.1-0.2-0.1-0.4c0-0.4,0-0.9,0-1.3c0-0.5-0.2-0.7-0.7-0.7c-0.7,0-0.9,0.1-0.9,0.7
					c0,1.4,0,2.7,0,4.1c0,0.5,0.2,0.7,0.7,0.7C618.1,261.1,618.8,261.1,619.5,261.1z"/>
				<path class="st28" d="M609.7,246.6c-0.7,0-1.2,0-1.7,0c-0.6,0-0.8-0.2-0.8-0.8c0-0.7,0.1-1,0.7-1.1c1.4,0,2.9,0,4.3,0
					c0.5,0,0.7,0.3,0.7,0.8c0,1.4,0,2.8,0,4.2c0,0.6-0.3,0.8-1,0.8c-0.7,0-0.9-0.2-0.9-0.8c0-0.5,0-1,0-1.5
					c-0.3-0.1-0.4,0.2-0.6,0.3c-1.2,1.2-2.3,2.3-3.5,3.5c-0.7,0.7-1.4,0.5-1.8-0.4c-0.2-0.4,0.1-0.6,0.3-0.8
					c1.2-1.2,2.4-2.4,3.7-3.7C609.3,247,609.4,246.9,609.7,246.6z"/>
			</g>
		</g>
	</g>
	<g>
		<text transform="matrix(1 0 0 1 660.0988 127.2122)" class="st6 st40 st41">610</text>
	</g>
	<g>
		<text transform="matrix(1 0 0 1 488.2377 151.5553)" class="st38 st42">瑜珈按摩</text>
	</g>
	<g>
		<text transform="matrix(1 0 0 1 743.4582 127.2122)" class="st6 st40 st41">609</text>
	</g>
	<g>
		<text transform="matrix(1 0 0 1 724.7473 149.5833)" class="st38 st42">Hacking Room</text>
	</g>
	<g>
		<text transform="matrix(1 0 0 1 413.4767 127.2122)" class="st6 st40 st41">613</text>
	</g>
	<g>
		<text transform="matrix(1 0 0 1 419.5558 149.5833)" class="st38 st42">BOF</text>
	</g>
	<g>
		<text transform="matrix(1 0 0 1 495.9289 127.2122)" class="st6 st40 st41">612</text>
	</g>
	<g>
		<text transform="matrix(1 0 0 1 578.0129 127.2122)" class="st6 st40 st41">611</text>
	</g>
	<g>
		<text transform="matrix(1 0 0 1 331.631 127.2122)" class="st6 st40 st41">614</text>
	</g>
	<g>
		<text transform="matrix(1 0 0 1 249.7834 127.2122)" class="st6 st40 st41">615</text>
	</g>
	<g>
		<text transform="matrix(1 0 0 1 242.09 149.5833)" class="st38 st42">議程教室</text>
	</g>
	<g>
		<text transform="matrix(1 0 0 1 325.4392 149.5833)" class="st38 st42">議程教室</text>
	</g>
	<g>
		<text transform="matrix(1 0 0 1 652.4068 149.5833)" class="st38 st42">議程教室</text>
	</g>
	<g>
		<text transform="matrix(1 0 0 1 570.3198 149.5833)" class="st38 st42">議程教室</text>
	</g>
	<g>
		<text transform="matrix(1 0 0 1 83.9992 127.2122)" class="st6 st40 st41">617</text>
	</g>
	<g>
		<text transform="matrix(1 0 0 1 70.7951 149.5833)" class="st38 st42">Staff Only</text>
	</g>
	<g>
		<text transform="matrix(1 0 0 1 167.5871 127.2122)" class="st6 st40 st41">616</text>
	</g>
	<g>
		<text transform="matrix(1 0 0 1 159.8918 149.5833)" class="st38 st42">議程教室</text>
	</g>
</g>
<g id="文字資訊">
	<g>
		<text transform="matrix(1 0 0 1 141.4414 411.5735)" class="st6 st51 st52">611</text>
	</g>
	<g>
		<text transform="matrix(1 0 0 1 141.4412 484.0347)" class="st6 st51 st52">613</text>
	</g>
	<g>
		<text transform="matrix(1 0 0 1 490.5902 319.2723)" class="st6 st51 st52">614</text>
	</g>
	<g>
		<text transform="matrix(1 0 0 1 490.5905 365.6186)" class="st6 st51 st52">615</text>
	</g>
	<g>
		<text transform="matrix(1 0 0 1 490.5908 428.4809)" class="st6 st51 st52">616</text>
	</g>
	<g>
		<text transform="matrix(1 0 0 1 141.4414 318.4469)" class="st6 st51 st52">609</text>
	</g>
	<g>
		<text transform="matrix(1 0 0 1 141.4414 349.0261)" class="st6 st51 st52">610</text>
	</g>
	<g>
		<text transform="matrix(1 0 0 1 629.4607 423.7247)"><tspan x="0" y="0" class="st51 st53">打造開源智慧醫療生態系</tspan><tspan x="0" y="13.8" class="st51 st53">Forging an Open-Source </tspan><tspan x="0" y="27.6" class="st51 st53">Smart Healthcare Ecosystem</tspan></text>
	</g>
	<g>
		<text transform="matrix(1 0 0 1 547.3481 423.08)" class="st54 st51 st53">Day01 / Day02</text>
	</g>
	<g>
		<text transform="matrix(1 0 0 1 285.5948 478.2286)" class="st51 st53">BoF</text>
	</g>
	<g>
		<text transform="matrix(1 0 0 1 202.8218 477.9274)" class="st54 st51 st53">Day01 / Day02</text>
	</g>
	<g>
		<text transform="matrix(1 0 0 1 629.8799 360.8531)"><tspan x="0" y="0" class="st51 st53">台灣開放知識協作</tspan><tspan x="0" y="13.8" class="st51 st53">Wikimedia Taiwan</tspan></text>
	</g>
	<g>
		<text transform="matrix(1 0 0 1 549.1866 360.2187)" class="st54 st51 st53">Day01</text>
	</g>
	<g>
		<text transform="matrix(1 0 0 1 629.8801 393.587)" class="st51 st53">WordPress Taiwan Community</text>
	</g>
	<g>
		<text transform="matrix(1 0 0 1 549.1866 394.7278)" class="st54 st51 st53">Day02</text>
	</g>
	<g>
		<text transform="matrix(1 0 0 1 629.0587 311.5986)" class="st51 st53">Ruby Taiwan</text>
	</g>
	<g>
		<text transform="matrix(1 0 0 1 549.1866 313.1646)" class="st54 st51 st53">Day01</text>
	</g>
	<g>
		<text transform="matrix(1 0 0 1 623.0588 334.6268)" class="st51 st53">「親子工作坊」自己的電玩遊戲自己做工作坊</text>
	</g>
	<g>
		<text transform="matrix(1 0 0 1 549.1866 333.0036)" class="st54 st51 st53">Day02</text>
	</g>
	<g>
		<text transform="matrix(1 0 0 1 286.0827 344.2618)"><tspan x="0" y="0" class="st51 st53">開源地平線</tspan><tspan x="0" y="13.8" class="st51 st53">Open Source Horizon</tspan></text>
	</g>
	<g>
		<text transform="matrix(1 0 0 1 202.8215 343.6565)" class="st54 st51 st53">Day01</text>
	</g>
	<g>
		<text transform="matrix(1 0 0 1 285.5939 378.093)" class="st51 st53">「親子工作坊」伴學焊接很容易</text>
	</g>
	<g>
		<text transform="matrix(1 0 0 1 202.8221 377.454)" class="st54 st51 st53">Day02</text>
	</g>
	<g>
		<text transform="matrix(1 0 0 1 286.3464 406.829)"><tspan x="0" y="0" class="st51 st53">繁體中文 AI 開源實踐計畫</tspan><tspan x="0" y="13.8" class="st51 st53">Traditional Chinese AI Open Source Grant</tspan></text>
	</g>
	<g>
		<text transform="matrix(1 0 0 1 202.8215 406.2036)" class="st54 st51 st53">Day01</text>
	</g>
	<g>
		<text transform="matrix(1 0 0 1 286.0824 443.5145)" class="st51 st53">Open Source Inspired Hardware</text>
	</g>
	<g>
		<text transform="matrix(1 0 0 1 202.8221 443.2113)" class="st54 st51 st53">Day02</text>
	</g>
	<g>
		<text transform="matrix(1 0 0 1 285.5941 313.3841)" class="st51 st53">Hacking Room</text>
	</g>
	<g>
		<text transform="matrix(1 0 0 1 202.8218 313.1061)" class="st54 st51 st53">Day01 / Day02</text>
	</g>
	<rect x="45.7" y="24.8" class="st6" width="111" height="37.3"/>
	<g>
		<text transform="matrix(1 0 0 1 60.2981 52.0706)" class="st17 st40 st64">研揚大樓</text>
	</g>
</g>
<g id="樓層位置">
	<rect x="49.7" y="305.2" class="st56" width="63" height="56.2"/>
	<g>
		<text transform="matrix(1 0 0 1 56.2726 348.4793)" class="st6 st40 st65">6F</text>
	</g>
</g>
<g id="輸出佈置" class="st66">
	<g class="st68">
		<text transform="matrix(1 0 0 1 404.3327 137.6851)" class="st69 st26 st70">徵才看板B</text>
	</g>
	<text transform="matrix(1 0 0 1 505.6244 195.8433)" class="st71 st26 st70">樓層議程告知</text>
	<text transform="matrix(1 0 0 1 182.2787 230.2007)" class="st71 st26 st70">樓層議程告知</text>
	<line class="st67" x1="400.1" y1="122.2" x2="456.3" y2="122.2"/>
	<line class="st67" x1="482.2" y1="120.3" x2="538.4" y2="120.3"/>
	<text transform="matrix(1 0 0 1 502.2487 134.5074)" class="st68"><tspan x="0" y="0" class="st69 st26 st70">6樓</tspan><tspan x="-25.6" y="12.3" class="st69 st26 st70">議程看板+地圖</tspan></text>
	<text transform="matrix(1 0 0 1 676.0463 464.9931)" class="st68 st26 st73">A.贊助商海報</text>
	<g class="st68">
		<text transform="matrix(1 0 0 1 676.0463 480.5429)" class="st26 st73">B.主視覺海報</text>
	</g>
	<g class="st68">
		<text transform="matrix(1 0 0 1 676.0463 496.0927)" class="st26 st73">C.講桌前背板(上方)</text>
	</g>
	<g class="st68">
		<text transform="matrix(1 0 0 1 676.0463 512.7718)" class="st26 st73">D.門口的議程軌布告欄</text>
	</g>
	<g class="st68">
		<text transform="matrix(1 0 0 1 780.3556 499.3615)" class="st74 st75">6間</text>
	</g>
	<text transform="matrix(1 0 0 1 660.4098 456.7678)" class="st68 st26 st76">議程教室</text>
	<polygon class="st72" points="645,451.7 645,483.3 565.9,483.3 565.9,476.6 559.5,476.6 559.5,451.7 	"/>
	<rect x="545.7" y="476.6" class="st72" width="20.2" height="28"/>
	<rect x="542" y="455.7" class="st72" width="13.7" height="19.3"/>
	<rect x="627.2" y="455.7" class="st72" width="13.7" height="19.3"/>
	<g class="st68">
		<text transform="matrix(1 0 0 1 631.1569 468.7795)" class="st77 st73">A</text>
	</g>
	<g class="st68">
		<text transform="matrix(1 0 0 1 545.0807 468.3122)" class="st77 st73">B</text>
	</g>
	<g class="st68">
		<text transform="matrix(1 0 0 1 552.274 494.0954)" class="st77 st73">C</text>
	</g>
	<line class="st67" x1="178.4" y1="199.2" x2="178.4" y2="176.1"/>
	<line class="st67" x1="588.1" y1="199.5" x2="588.1" y2="176.5"/>
</g>
<g id="指標" class="st66">
</g>
</svg>
